%TF.GenerationSoftware,KiCad,Pcbnew,9.0.4*%
%TF.CreationDate,2025-09-26T08:15:04-04:00*%
%TF.ProjectId,HM-10_proto_board,484d2d31-305f-4707-926f-746f5f626f61,rev?*%
%TF.SameCoordinates,Original*%
%TF.FileFunction,Copper,L1,Top*%
%TF.FilePolarity,Positive*%
%FSLAX46Y46*%
G04 Gerber Fmt 4.6, Leading zero omitted, Abs format (unit mm)*
G04 Created by KiCad (PCBNEW 9.0.4) date 2025-09-26 08:15:04*
%MOMM*%
%LPD*%
G01*
G04 APERTURE LIST*
G04 Aperture macros list*
%AMRoundRect*
0 Rectangle with rounded corners*
0 $1 Rounding radius*
0 $2 $3 $4 $5 $6 $7 $8 $9 X,Y pos of 4 corners*
0 Add a 4 corners polygon primitive as box body*
4,1,4,$2,$3,$4,$5,$6,$7,$8,$9,$2,$3,0*
0 Add four circle primitives for the rounded corners*
1,1,$1+$1,$2,$3*
1,1,$1+$1,$4,$5*
1,1,$1+$1,$6,$7*
1,1,$1+$1,$8,$9*
0 Add four rect primitives between the rounded corners*
20,1,$1+$1,$2,$3,$4,$5,0*
20,1,$1+$1,$4,$5,$6,$7,0*
20,1,$1+$1,$6,$7,$8,$9,0*
20,1,$1+$1,$8,$9,$2,$3,0*%
G04 Aperture macros list end*
%ADD10C,0.150000*%
%TA.AperFunction,ComponentPad*%
%ADD11C,1.600000*%
%TD*%
%TA.AperFunction,ComponentPad*%
%ADD12C,1.700000*%
%TD*%
%TA.AperFunction,ComponentPad*%
%ADD13R,1.700000X1.700000*%
%TD*%
%TA.AperFunction,SMDPad,CuDef*%
%ADD14R,1.500000X0.635000*%
%TD*%
%TA.AperFunction,SMDPad,CuDef*%
%ADD15R,0.635000X1.500000*%
%TD*%
%TA.AperFunction,ComponentPad*%
%ADD16C,2.400000*%
%TD*%
%TA.AperFunction,ComponentPad*%
%ADD17RoundRect,0.250001X0.949999X-0.949999X0.949999X0.949999X-0.949999X0.949999X-0.949999X-0.949999X0*%
%TD*%
%TA.AperFunction,Conductor*%
%ADD18C,0.300000*%
%TD*%
G04 APERTURE END LIST*
D10*
G36*
X113691344Y-90285448D02*
G01*
X113721751Y-90315855D01*
X113756009Y-90384371D01*
X113756009Y-90624999D01*
X113429819Y-90624999D01*
X113429819Y-90384371D01*
X113464077Y-90315855D01*
X113494484Y-90285448D01*
X113563000Y-90251190D01*
X113622828Y-90251190D01*
X113691344Y-90285448D01*
G37*
G36*
X114215153Y-90237829D02*
G01*
X114245561Y-90268236D01*
X114279819Y-90336752D01*
X114279819Y-90624999D01*
X113906009Y-90624999D01*
X113906009Y-90378836D01*
X113944180Y-90264322D01*
X113970674Y-90237829D01*
X114039190Y-90203571D01*
X114146637Y-90203571D01*
X114215153Y-90237829D01*
G37*
G36*
X113738963Y-87714019D02*
G01*
X113769370Y-87744426D01*
X113803628Y-87812942D01*
X113803628Y-88101189D01*
X113429819Y-88101189D01*
X113429819Y-87812942D01*
X113464077Y-87744426D01*
X113494484Y-87714019D01*
X113563000Y-87679761D01*
X113670447Y-87679761D01*
X113738963Y-87714019D01*
G37*
G36*
X114636168Y-90886110D02*
G01*
X113168708Y-90886110D01*
X113168708Y-90366666D01*
X113279819Y-90366666D01*
X113279819Y-90699999D01*
X113281260Y-90714631D01*
X113292459Y-90741667D01*
X113313151Y-90762359D01*
X113340187Y-90773558D01*
X113354819Y-90774999D01*
X114354819Y-90774999D01*
X114369451Y-90773558D01*
X114396487Y-90762359D01*
X114417179Y-90741667D01*
X114428378Y-90714631D01*
X114429819Y-90699999D01*
X114429819Y-90319047D01*
X114428378Y-90304415D01*
X114427347Y-90301926D01*
X114427156Y-90299237D01*
X114421901Y-90285506D01*
X114374282Y-90190268D01*
X114370317Y-90183968D01*
X114369560Y-90182141D01*
X114367872Y-90180084D01*
X114366450Y-90177825D01*
X114364950Y-90176524D01*
X114360232Y-90170775D01*
X114312612Y-90123156D01*
X114306863Y-90118438D01*
X114305564Y-90116940D01*
X114303305Y-90115518D01*
X114301247Y-90113829D01*
X114299417Y-90113071D01*
X114293121Y-90109108D01*
X114197883Y-90061489D01*
X114184151Y-90056234D01*
X114181463Y-90056043D01*
X114178974Y-90055012D01*
X114164342Y-90053571D01*
X114021485Y-90053571D01*
X114006853Y-90055012D01*
X114004364Y-90056042D01*
X114001675Y-90056234D01*
X113987944Y-90061489D01*
X113892706Y-90109108D01*
X113886406Y-90113072D01*
X113884579Y-90113830D01*
X113882522Y-90115518D01*
X113880263Y-90116940D01*
X113878963Y-90118438D01*
X113873214Y-90123157D01*
X113825595Y-90170776D01*
X113816268Y-90182141D01*
X113815236Y-90184631D01*
X113813471Y-90186667D01*
X113810762Y-90192734D01*
X113788804Y-90170776D01*
X113783054Y-90166057D01*
X113781755Y-90164559D01*
X113779495Y-90163137D01*
X113777439Y-90161449D01*
X113775611Y-90160691D01*
X113769312Y-90156727D01*
X113674074Y-90109108D01*
X113660342Y-90103853D01*
X113657654Y-90103662D01*
X113655165Y-90102631D01*
X113640533Y-90101190D01*
X113545295Y-90101190D01*
X113530663Y-90102631D01*
X113528174Y-90103661D01*
X113525485Y-90103853D01*
X113511754Y-90109108D01*
X113416516Y-90156727D01*
X113410216Y-90160691D01*
X113408389Y-90161449D01*
X113406332Y-90163137D01*
X113404073Y-90164559D01*
X113402773Y-90166057D01*
X113397024Y-90170776D01*
X113349405Y-90218395D01*
X113344686Y-90224144D01*
X113343188Y-90225444D01*
X113341766Y-90227703D01*
X113340078Y-90229760D01*
X113339320Y-90231587D01*
X113335356Y-90237887D01*
X113287737Y-90333125D01*
X113282482Y-90346857D01*
X113282291Y-90349544D01*
X113281260Y-90352034D01*
X113279819Y-90366666D01*
X113168708Y-90366666D01*
X113168708Y-89271428D01*
X113279819Y-89271428D01*
X113279819Y-89842856D01*
X113281260Y-89857488D01*
X113292459Y-89884524D01*
X113313151Y-89905216D01*
X113340187Y-89916415D01*
X113369451Y-89916415D01*
X113396487Y-89905216D01*
X113417179Y-89884524D01*
X113428378Y-89857488D01*
X113429819Y-89842856D01*
X113429819Y-89632142D01*
X114354819Y-89632142D01*
X114369451Y-89630701D01*
X114396487Y-89619502D01*
X114417179Y-89598810D01*
X114428378Y-89571774D01*
X114428378Y-89542510D01*
X114417179Y-89515474D01*
X114396487Y-89494782D01*
X114369451Y-89483583D01*
X114354819Y-89482142D01*
X113429819Y-89482142D01*
X113429819Y-89271428D01*
X113428378Y-89256796D01*
X113417179Y-89229760D01*
X113396487Y-89209068D01*
X113369451Y-89197869D01*
X113340187Y-89197869D01*
X113313151Y-89209068D01*
X113292459Y-89229760D01*
X113281260Y-89256796D01*
X113279819Y-89271428D01*
X113168708Y-89271428D01*
X113168708Y-88414285D01*
X114375057Y-88414285D01*
X114375057Y-89176190D01*
X114376498Y-89190822D01*
X114387697Y-89217858D01*
X114408389Y-89238550D01*
X114435425Y-89249749D01*
X114464689Y-89249749D01*
X114491725Y-89238550D01*
X114512417Y-89217858D01*
X114523616Y-89190822D01*
X114525057Y-89176190D01*
X114525057Y-88414285D01*
X114523616Y-88399653D01*
X114512417Y-88372617D01*
X114491725Y-88351925D01*
X114464689Y-88340726D01*
X114435425Y-88340726D01*
X114408389Y-88351925D01*
X114387697Y-88372617D01*
X114376498Y-88399653D01*
X114375057Y-88414285D01*
X113168708Y-88414285D01*
X113168708Y-87795237D01*
X113279819Y-87795237D01*
X113279819Y-88176189D01*
X113281260Y-88190821D01*
X113292459Y-88217857D01*
X113313151Y-88238549D01*
X113340187Y-88249748D01*
X113354819Y-88251189D01*
X114354819Y-88251189D01*
X114369451Y-88249748D01*
X114396487Y-88238549D01*
X114417179Y-88217857D01*
X114428378Y-88190821D01*
X114428378Y-88161557D01*
X114417179Y-88134521D01*
X114396487Y-88113829D01*
X114369451Y-88102630D01*
X114354819Y-88101189D01*
X113953628Y-88101189D01*
X113953628Y-87977143D01*
X114397829Y-87666203D01*
X114408989Y-87656632D01*
X114424716Y-87631953D01*
X114429802Y-87603136D01*
X114423472Y-87574565D01*
X114406690Y-87550591D01*
X114382012Y-87534864D01*
X114353194Y-87529779D01*
X114324623Y-87536108D01*
X114311810Y-87543318D01*
X113953518Y-87794121D01*
X113952187Y-87780605D01*
X113951156Y-87778116D01*
X113950965Y-87775427D01*
X113945710Y-87761696D01*
X113898091Y-87666458D01*
X113894126Y-87660158D01*
X113893369Y-87658331D01*
X113891680Y-87656274D01*
X113890259Y-87654015D01*
X113888760Y-87652715D01*
X113884042Y-87646966D01*
X113836423Y-87599347D01*
X113830673Y-87594628D01*
X113829374Y-87593130D01*
X113827114Y-87591708D01*
X113825058Y-87590020D01*
X113823230Y-87589262D01*
X113816931Y-87585298D01*
X113721693Y-87537679D01*
X113707961Y-87532424D01*
X113705273Y-87532233D01*
X113702784Y-87531202D01*
X113688152Y-87529761D01*
X113545295Y-87529761D01*
X113530663Y-87531202D01*
X113528174Y-87532232D01*
X113525485Y-87532424D01*
X113511754Y-87537679D01*
X113416516Y-87585298D01*
X113410216Y-87589262D01*
X113408389Y-87590020D01*
X113406332Y-87591708D01*
X113404073Y-87593130D01*
X113402773Y-87594628D01*
X113397024Y-87599347D01*
X113349405Y-87646966D01*
X113344686Y-87652715D01*
X113343188Y-87654015D01*
X113341766Y-87656274D01*
X113340078Y-87658331D01*
X113339320Y-87660158D01*
X113335356Y-87666458D01*
X113287737Y-87761696D01*
X113282482Y-87775428D01*
X113282291Y-87778115D01*
X113281260Y-87780605D01*
X113279819Y-87795237D01*
X113168708Y-87795237D01*
X113168708Y-86938173D01*
X113279819Y-86938173D01*
X113281260Y-86945377D01*
X113281260Y-86952726D01*
X113284101Y-86959586D01*
X113285558Y-86966867D01*
X113289646Y-86972972D01*
X113292459Y-86979762D01*
X113297709Y-86985012D01*
X113301841Y-86991182D01*
X113313099Y-87000402D01*
X113313151Y-87000454D01*
X113313173Y-87000463D01*
X113313216Y-87000498D01*
X113449894Y-87091616D01*
X113531275Y-87172997D01*
X113573451Y-87257349D01*
X113581283Y-87269792D01*
X113603391Y-87288965D01*
X113631152Y-87298219D01*
X113660342Y-87296145D01*
X113686517Y-87283057D01*
X113705690Y-87260950D01*
X113714944Y-87233188D01*
X113712870Y-87203998D01*
X113707615Y-87190267D01*
X113659996Y-87095029D01*
X113656033Y-87088734D01*
X113655275Y-87086902D01*
X113653583Y-87084840D01*
X113652164Y-87082586D01*
X113650667Y-87081287D01*
X113645947Y-87075537D01*
X113583504Y-87013094D01*
X114279819Y-87013094D01*
X114279819Y-87223808D01*
X114281260Y-87238440D01*
X114292459Y-87265476D01*
X114313151Y-87286168D01*
X114340187Y-87297367D01*
X114369451Y-87297367D01*
X114396487Y-87286168D01*
X114417179Y-87265476D01*
X114428378Y-87238440D01*
X114429819Y-87223808D01*
X114429819Y-86652380D01*
X114428378Y-86637748D01*
X114417179Y-86610712D01*
X114396487Y-86590020D01*
X114369451Y-86578821D01*
X114340187Y-86578821D01*
X114313151Y-86590020D01*
X114292459Y-86610712D01*
X114281260Y-86637748D01*
X114279819Y-86652380D01*
X114279819Y-86863094D01*
X113354819Y-86863094D01*
X113354766Y-86863099D01*
X113354740Y-86863094D01*
X113354663Y-86863109D01*
X113340187Y-86864535D01*
X113333326Y-86867376D01*
X113326046Y-86868833D01*
X113319940Y-86872921D01*
X113313151Y-86875734D01*
X113307900Y-86880984D01*
X113301731Y-86885116D01*
X113297654Y-86891230D01*
X113292459Y-86896426D01*
X113289617Y-86903286D01*
X113285498Y-86909465D01*
X113284072Y-86916673D01*
X113281260Y-86923462D01*
X113281260Y-86930888D01*
X113279819Y-86938173D01*
X113168708Y-86938173D01*
X113168708Y-86467710D01*
X114636168Y-86467710D01*
X114636168Y-90886110D01*
G37*
G36*
X128371344Y-91992591D02*
G01*
X128401751Y-92022998D01*
X128436009Y-92091514D01*
X128436009Y-92332142D01*
X128109819Y-92332142D01*
X128109819Y-92091514D01*
X128144077Y-92022998D01*
X128174484Y-91992591D01*
X128243000Y-91958333D01*
X128302828Y-91958333D01*
X128371344Y-91992591D01*
G37*
G36*
X128895153Y-91944972D02*
G01*
X128925561Y-91975379D01*
X128959819Y-92043895D01*
X128959819Y-92332142D01*
X128586009Y-92332142D01*
X128586009Y-92085979D01*
X128624180Y-91971465D01*
X128650674Y-91944972D01*
X128719190Y-91910714D01*
X128826637Y-91910714D01*
X128895153Y-91944972D01*
G37*
G36*
X128770547Y-87716001D02*
G01*
X128847534Y-87754495D01*
X128921648Y-87828608D01*
X128959819Y-87943121D01*
X128959819Y-88094046D01*
X128109819Y-88094046D01*
X128109819Y-87943121D01*
X128147990Y-87828607D01*
X128222103Y-87754495D01*
X128299090Y-87716001D01*
X128472624Y-87672618D01*
X128597013Y-87672618D01*
X128770547Y-87716001D01*
G37*
G36*
X129316168Y-92593253D02*
G01*
X127848708Y-92593253D01*
X127848708Y-92073809D01*
X127959819Y-92073809D01*
X127959819Y-92407142D01*
X127961260Y-92421774D01*
X127972459Y-92448810D01*
X127993151Y-92469502D01*
X128020187Y-92480701D01*
X128034819Y-92482142D01*
X129034819Y-92482142D01*
X129049451Y-92480701D01*
X129076487Y-92469502D01*
X129097179Y-92448810D01*
X129108378Y-92421774D01*
X129109819Y-92407142D01*
X129109819Y-92026190D01*
X129108378Y-92011558D01*
X129107347Y-92009069D01*
X129107156Y-92006380D01*
X129101901Y-91992649D01*
X129054282Y-91897411D01*
X129050317Y-91891111D01*
X129049560Y-91889284D01*
X129047872Y-91887227D01*
X129046450Y-91884968D01*
X129044950Y-91883667D01*
X129040232Y-91877918D01*
X128992612Y-91830299D01*
X128986863Y-91825581D01*
X128985564Y-91824083D01*
X128983305Y-91822661D01*
X128981247Y-91820972D01*
X128979417Y-91820214D01*
X128973121Y-91816251D01*
X128877883Y-91768632D01*
X128864151Y-91763377D01*
X128861463Y-91763186D01*
X128858974Y-91762155D01*
X128844342Y-91760714D01*
X128701485Y-91760714D01*
X128686853Y-91762155D01*
X128684364Y-91763185D01*
X128681675Y-91763377D01*
X128667944Y-91768632D01*
X128572706Y-91816251D01*
X128566406Y-91820215D01*
X128564579Y-91820973D01*
X128562522Y-91822661D01*
X128560263Y-91824083D01*
X128558963Y-91825581D01*
X128553214Y-91830300D01*
X128505595Y-91877919D01*
X128496268Y-91889284D01*
X128495236Y-91891774D01*
X128493471Y-91893810D01*
X128490762Y-91899877D01*
X128468804Y-91877919D01*
X128463054Y-91873200D01*
X128461755Y-91871702D01*
X128459495Y-91870280D01*
X128457439Y-91868592D01*
X128455611Y-91867834D01*
X128449312Y-91863870D01*
X128354074Y-91816251D01*
X128340342Y-91810996D01*
X128337654Y-91810805D01*
X128335165Y-91809774D01*
X128320533Y-91808333D01*
X128225295Y-91808333D01*
X128210663Y-91809774D01*
X128208174Y-91810804D01*
X128205485Y-91810996D01*
X128191754Y-91816251D01*
X128096516Y-91863870D01*
X128090216Y-91867834D01*
X128088389Y-91868592D01*
X128086332Y-91870280D01*
X128084073Y-91871702D01*
X128082773Y-91873200D01*
X128077024Y-91877919D01*
X128029405Y-91925538D01*
X128024686Y-91931287D01*
X128023188Y-91932587D01*
X128021766Y-91934846D01*
X128020078Y-91936903D01*
X128019320Y-91938730D01*
X128015356Y-91945030D01*
X127967737Y-92040268D01*
X127962482Y-92054000D01*
X127962291Y-92056687D01*
X127961260Y-92059177D01*
X127959819Y-92073809D01*
X127848708Y-92073809D01*
X127848708Y-90978571D01*
X127959819Y-90978571D01*
X127959819Y-91549999D01*
X127961260Y-91564631D01*
X127972459Y-91591667D01*
X127993151Y-91612359D01*
X128020187Y-91623558D01*
X128049451Y-91623558D01*
X128076487Y-91612359D01*
X128097179Y-91591667D01*
X128108378Y-91564631D01*
X128109819Y-91549999D01*
X128109819Y-91339285D01*
X129034819Y-91339285D01*
X129049451Y-91337844D01*
X129076487Y-91326645D01*
X129097179Y-91305953D01*
X129108378Y-91278917D01*
X129108378Y-91249653D01*
X129097179Y-91222617D01*
X129076487Y-91201925D01*
X129049451Y-91190726D01*
X129034819Y-91189285D01*
X128109819Y-91189285D01*
X128109819Y-90978571D01*
X128108378Y-90963939D01*
X128097179Y-90936903D01*
X128076487Y-90916211D01*
X128049451Y-90905012D01*
X128020187Y-90905012D01*
X127993151Y-90916211D01*
X127972459Y-90936903D01*
X127961260Y-90963939D01*
X127959819Y-90978571D01*
X127848708Y-90978571D01*
X127848708Y-90121428D01*
X129055057Y-90121428D01*
X129055057Y-90883333D01*
X129056498Y-90897965D01*
X129067697Y-90925001D01*
X129088389Y-90945693D01*
X129115425Y-90956892D01*
X129144689Y-90956892D01*
X129171725Y-90945693D01*
X129192417Y-90925001D01*
X129203616Y-90897965D01*
X129205057Y-90883333D01*
X129205057Y-90121428D01*
X129203616Y-90106796D01*
X129192417Y-90079760D01*
X129171725Y-90059068D01*
X129144689Y-90047869D01*
X129115425Y-90047869D01*
X129088389Y-90059068D01*
X129067697Y-90079760D01*
X129056498Y-90106796D01*
X129055057Y-90121428D01*
X127848708Y-90121428D01*
X127848708Y-89868700D01*
X127961260Y-89868700D01*
X127961260Y-89897964D01*
X127972459Y-89925000D01*
X127993151Y-89945692D01*
X128020187Y-89956891D01*
X128034819Y-89958332D01*
X129034819Y-89958332D01*
X129049451Y-89956891D01*
X129076487Y-89945692D01*
X129097179Y-89925000D01*
X129108378Y-89897964D01*
X129109819Y-89883332D01*
X129109819Y-89407142D01*
X129108378Y-89392510D01*
X129097179Y-89365474D01*
X129076487Y-89344782D01*
X129049451Y-89333583D01*
X129020187Y-89333583D01*
X128993151Y-89344782D01*
X128972459Y-89365474D01*
X128961260Y-89392510D01*
X128959819Y-89407142D01*
X128959819Y-89808332D01*
X128034819Y-89808332D01*
X128020187Y-89809773D01*
X127993151Y-89820972D01*
X127972459Y-89841664D01*
X127961260Y-89868700D01*
X127848708Y-89868700D01*
X127848708Y-88597618D01*
X127959819Y-88597618D01*
X127959819Y-89073808D01*
X127961260Y-89088440D01*
X127972459Y-89115476D01*
X127993151Y-89136168D01*
X128020187Y-89147367D01*
X128034819Y-89148808D01*
X129034819Y-89148808D01*
X129049451Y-89147367D01*
X129076487Y-89136168D01*
X129097179Y-89115476D01*
X129108378Y-89088440D01*
X129109819Y-89073808D01*
X129109819Y-88597618D01*
X129108378Y-88582986D01*
X129097179Y-88555950D01*
X129076487Y-88535258D01*
X129049451Y-88524059D01*
X129020187Y-88524059D01*
X128993151Y-88535258D01*
X128972459Y-88555950D01*
X128961260Y-88582986D01*
X128959819Y-88597618D01*
X128959819Y-88998808D01*
X128586009Y-88998808D01*
X128586009Y-88740475D01*
X128584568Y-88725843D01*
X128573369Y-88698807D01*
X128552677Y-88678115D01*
X128525641Y-88666916D01*
X128496377Y-88666916D01*
X128469341Y-88678115D01*
X128448649Y-88698807D01*
X128437450Y-88725843D01*
X128436009Y-88740475D01*
X128436009Y-88998808D01*
X128109819Y-88998808D01*
X128109819Y-88597618D01*
X128108378Y-88582986D01*
X128097179Y-88555950D01*
X128076487Y-88535258D01*
X128049451Y-88524059D01*
X128020187Y-88524059D01*
X127993151Y-88535258D01*
X127972459Y-88555950D01*
X127961260Y-88582986D01*
X127959819Y-88597618D01*
X127848708Y-88597618D01*
X127848708Y-87930951D01*
X127959819Y-87930951D01*
X127959819Y-88169046D01*
X127961260Y-88183678D01*
X127972459Y-88210714D01*
X127993151Y-88231406D01*
X128020187Y-88242605D01*
X128034819Y-88244046D01*
X129034819Y-88244046D01*
X129049451Y-88242605D01*
X129076487Y-88231406D01*
X129097179Y-88210714D01*
X129108378Y-88183678D01*
X129109819Y-88169046D01*
X129109819Y-87930951D01*
X129109089Y-87923544D01*
X129109230Y-87921570D01*
X129108639Y-87918972D01*
X129108378Y-87916319D01*
X129107619Y-87914488D01*
X129105970Y-87907233D01*
X129058351Y-87764377D01*
X129052357Y-87750951D01*
X129050592Y-87748916D01*
X129049561Y-87746426D01*
X129040233Y-87735061D01*
X128944994Y-87639823D01*
X128939244Y-87635104D01*
X128937945Y-87633606D01*
X128935686Y-87632184D01*
X128933628Y-87630495D01*
X128931798Y-87629737D01*
X128925502Y-87625774D01*
X128830264Y-87578155D01*
X128829194Y-87577745D01*
X128828759Y-87577423D01*
X128822613Y-87575227D01*
X128816532Y-87572900D01*
X128815992Y-87572861D01*
X128814913Y-87572476D01*
X128624437Y-87524857D01*
X128621900Y-87524481D01*
X128620879Y-87524059D01*
X128615366Y-87523516D01*
X128609893Y-87522707D01*
X128608800Y-87522869D01*
X128606247Y-87522618D01*
X128463390Y-87522618D01*
X128460836Y-87522869D01*
X128459744Y-87522707D01*
X128454270Y-87523516D01*
X128448758Y-87524059D01*
X128447736Y-87524481D01*
X128445200Y-87524857D01*
X128254724Y-87572476D01*
X128253644Y-87572861D01*
X128253104Y-87572900D01*
X128247014Y-87575230D01*
X128240878Y-87577423D01*
X128240442Y-87577745D01*
X128239373Y-87578155D01*
X128144135Y-87625774D01*
X128137840Y-87629736D01*
X128136008Y-87630495D01*
X128133946Y-87632186D01*
X128131692Y-87633606D01*
X128130393Y-87635102D01*
X128124643Y-87639823D01*
X128029405Y-87735061D01*
X128020078Y-87746426D01*
X128019046Y-87748916D01*
X128017281Y-87750952D01*
X128011287Y-87764377D01*
X127963668Y-87907234D01*
X127962018Y-87914487D01*
X127961260Y-87916319D01*
X127960998Y-87918973D01*
X127960408Y-87921571D01*
X127960548Y-87923545D01*
X127959819Y-87930951D01*
X127848708Y-87930951D01*
X127848708Y-86931030D01*
X127959819Y-86931030D01*
X127961260Y-86938234D01*
X127961260Y-86945583D01*
X127964101Y-86952443D01*
X127965558Y-86959724D01*
X127969646Y-86965829D01*
X127972459Y-86972619D01*
X127977709Y-86977869D01*
X127981841Y-86984039D01*
X127993099Y-86993259D01*
X127993151Y-86993311D01*
X127993173Y-86993320D01*
X127993216Y-86993355D01*
X128129894Y-87084473D01*
X128211275Y-87165854D01*
X128253451Y-87250206D01*
X128261283Y-87262649D01*
X128283391Y-87281822D01*
X128311152Y-87291076D01*
X128340342Y-87289002D01*
X128366517Y-87275914D01*
X128385690Y-87253807D01*
X128394944Y-87226045D01*
X128392870Y-87196855D01*
X128387615Y-87183124D01*
X128339996Y-87087886D01*
X128336033Y-87081591D01*
X128335275Y-87079759D01*
X128333583Y-87077697D01*
X128332164Y-87075443D01*
X128330667Y-87074144D01*
X128325947Y-87068394D01*
X128263504Y-87005951D01*
X128959819Y-87005951D01*
X128959819Y-87216665D01*
X128961260Y-87231297D01*
X128972459Y-87258333D01*
X128993151Y-87279025D01*
X129020187Y-87290224D01*
X129049451Y-87290224D01*
X129076487Y-87279025D01*
X129097179Y-87258333D01*
X129108378Y-87231297D01*
X129109819Y-87216665D01*
X129109819Y-86645237D01*
X129108378Y-86630605D01*
X129097179Y-86603569D01*
X129076487Y-86582877D01*
X129049451Y-86571678D01*
X129020187Y-86571678D01*
X128993151Y-86582877D01*
X128972459Y-86603569D01*
X128961260Y-86630605D01*
X128959819Y-86645237D01*
X128959819Y-86855951D01*
X128034819Y-86855951D01*
X128034766Y-86855956D01*
X128034740Y-86855951D01*
X128034663Y-86855966D01*
X128020187Y-86857392D01*
X128013326Y-86860233D01*
X128006046Y-86861690D01*
X127999940Y-86865778D01*
X127993151Y-86868591D01*
X127987900Y-86873841D01*
X127981731Y-86877973D01*
X127977654Y-86884087D01*
X127972459Y-86889283D01*
X127969617Y-86896143D01*
X127965498Y-86902322D01*
X127964072Y-86909530D01*
X127961260Y-86916319D01*
X127961260Y-86923745D01*
X127959819Y-86931030D01*
X127848708Y-86931030D01*
X127848708Y-86460567D01*
X129316168Y-86460567D01*
X129316168Y-92593253D01*
G37*
G36*
X129489489Y-94165621D02*
G01*
X128358244Y-94165621D01*
X128358244Y-93585367D01*
X128469355Y-93585367D01*
X128469355Y-93614631D01*
X128480554Y-93641667D01*
X128501246Y-93662359D01*
X128528282Y-93673558D01*
X128542914Y-93674999D01*
X128848866Y-93674999D01*
X128848866Y-93980951D01*
X128850307Y-93995583D01*
X128861506Y-94022619D01*
X128882198Y-94043311D01*
X128909234Y-94054510D01*
X128938498Y-94054510D01*
X128965534Y-94043311D01*
X128986226Y-94022619D01*
X128997425Y-93995583D01*
X128998866Y-93980951D01*
X128998866Y-93674999D01*
X129304819Y-93674999D01*
X129319451Y-93673558D01*
X129346487Y-93662359D01*
X129367179Y-93641667D01*
X129378378Y-93614631D01*
X129378378Y-93585367D01*
X129367179Y-93558331D01*
X129346487Y-93537639D01*
X129319451Y-93526440D01*
X129304819Y-93524999D01*
X128998866Y-93524999D01*
X128998866Y-93219047D01*
X128997425Y-93204415D01*
X128986226Y-93177379D01*
X128965534Y-93156687D01*
X128938498Y-93145488D01*
X128909234Y-93145488D01*
X128882198Y-93156687D01*
X128861506Y-93177379D01*
X128850307Y-93204415D01*
X128848866Y-93219047D01*
X128848866Y-93524999D01*
X128542914Y-93524999D01*
X128528282Y-93526440D01*
X128501246Y-93537639D01*
X128480554Y-93558331D01*
X128469355Y-93585367D01*
X128358244Y-93585367D01*
X128358244Y-93034377D01*
X129489489Y-93034377D01*
X129489489Y-94165621D01*
G37*
G36*
X135991344Y-89485448D02*
G01*
X136021751Y-89515855D01*
X136056009Y-89584371D01*
X136056009Y-89824999D01*
X135729819Y-89824999D01*
X135729819Y-89584371D01*
X135764077Y-89515855D01*
X135794484Y-89485448D01*
X135863000Y-89451190D01*
X135922828Y-89451190D01*
X135991344Y-89485448D01*
G37*
G36*
X136515153Y-89437829D02*
G01*
X136545561Y-89468236D01*
X136579819Y-89536752D01*
X136579819Y-89824999D01*
X136206009Y-89824999D01*
X136206009Y-89578836D01*
X136244180Y-89464322D01*
X136270674Y-89437829D01*
X136339190Y-89403571D01*
X136446637Y-89403571D01*
X136515153Y-89437829D01*
G37*
G36*
X136038963Y-86914019D02*
G01*
X136069370Y-86944426D01*
X136103628Y-87012942D01*
X136103628Y-87301189D01*
X135729819Y-87301189D01*
X135729819Y-87012942D01*
X135764077Y-86944426D01*
X135794484Y-86914019D01*
X135863000Y-86879761D01*
X135970447Y-86879761D01*
X136038963Y-86914019D01*
G37*
G36*
X136936168Y-90086110D02*
G01*
X135468708Y-90086110D01*
X135468708Y-89566666D01*
X135579819Y-89566666D01*
X135579819Y-89899999D01*
X135581260Y-89914631D01*
X135592459Y-89941667D01*
X135613151Y-89962359D01*
X135640187Y-89973558D01*
X135654819Y-89974999D01*
X136654819Y-89974999D01*
X136669451Y-89973558D01*
X136696487Y-89962359D01*
X136717179Y-89941667D01*
X136728378Y-89914631D01*
X136729819Y-89899999D01*
X136729819Y-89519047D01*
X136728378Y-89504415D01*
X136727347Y-89501926D01*
X136727156Y-89499237D01*
X136721901Y-89485506D01*
X136674282Y-89390268D01*
X136670317Y-89383968D01*
X136669560Y-89382141D01*
X136667872Y-89380084D01*
X136666450Y-89377825D01*
X136664950Y-89376524D01*
X136660232Y-89370775D01*
X136612612Y-89323156D01*
X136606863Y-89318438D01*
X136605564Y-89316940D01*
X136603305Y-89315518D01*
X136601247Y-89313829D01*
X136599417Y-89313071D01*
X136593121Y-89309108D01*
X136497883Y-89261489D01*
X136484151Y-89256234D01*
X136481463Y-89256043D01*
X136478974Y-89255012D01*
X136464342Y-89253571D01*
X136321485Y-89253571D01*
X136306853Y-89255012D01*
X136304364Y-89256042D01*
X136301675Y-89256234D01*
X136287944Y-89261489D01*
X136192706Y-89309108D01*
X136186406Y-89313072D01*
X136184579Y-89313830D01*
X136182522Y-89315518D01*
X136180263Y-89316940D01*
X136178963Y-89318438D01*
X136173214Y-89323157D01*
X136125595Y-89370776D01*
X136116268Y-89382141D01*
X136115236Y-89384631D01*
X136113471Y-89386667D01*
X136110762Y-89392734D01*
X136088804Y-89370776D01*
X136083054Y-89366057D01*
X136081755Y-89364559D01*
X136079495Y-89363137D01*
X136077439Y-89361449D01*
X136075611Y-89360691D01*
X136069312Y-89356727D01*
X135974074Y-89309108D01*
X135960342Y-89303853D01*
X135957654Y-89303662D01*
X135955165Y-89302631D01*
X135940533Y-89301190D01*
X135845295Y-89301190D01*
X135830663Y-89302631D01*
X135828174Y-89303661D01*
X135825485Y-89303853D01*
X135811754Y-89309108D01*
X135716516Y-89356727D01*
X135710216Y-89360691D01*
X135708389Y-89361449D01*
X135706332Y-89363137D01*
X135704073Y-89364559D01*
X135702773Y-89366057D01*
X135697024Y-89370776D01*
X135649405Y-89418395D01*
X135644686Y-89424144D01*
X135643188Y-89425444D01*
X135641766Y-89427703D01*
X135640078Y-89429760D01*
X135639320Y-89431587D01*
X135635356Y-89437887D01*
X135587737Y-89533125D01*
X135582482Y-89546857D01*
X135582291Y-89549544D01*
X135581260Y-89552034D01*
X135579819Y-89566666D01*
X135468708Y-89566666D01*
X135468708Y-88471428D01*
X135579819Y-88471428D01*
X135579819Y-89042856D01*
X135581260Y-89057488D01*
X135592459Y-89084524D01*
X135613151Y-89105216D01*
X135640187Y-89116415D01*
X135669451Y-89116415D01*
X135696487Y-89105216D01*
X135717179Y-89084524D01*
X135728378Y-89057488D01*
X135729819Y-89042856D01*
X135729819Y-88832142D01*
X136654819Y-88832142D01*
X136669451Y-88830701D01*
X136696487Y-88819502D01*
X136717179Y-88798810D01*
X136728378Y-88771774D01*
X136728378Y-88742510D01*
X136717179Y-88715474D01*
X136696487Y-88694782D01*
X136669451Y-88683583D01*
X136654819Y-88682142D01*
X135729819Y-88682142D01*
X135729819Y-88471428D01*
X135728378Y-88456796D01*
X135717179Y-88429760D01*
X135696487Y-88409068D01*
X135669451Y-88397869D01*
X135640187Y-88397869D01*
X135613151Y-88409068D01*
X135592459Y-88429760D01*
X135581260Y-88456796D01*
X135579819Y-88471428D01*
X135468708Y-88471428D01*
X135468708Y-87614285D01*
X136675057Y-87614285D01*
X136675057Y-88376190D01*
X136676498Y-88390822D01*
X136687697Y-88417858D01*
X136708389Y-88438550D01*
X136735425Y-88449749D01*
X136764689Y-88449749D01*
X136791725Y-88438550D01*
X136812417Y-88417858D01*
X136823616Y-88390822D01*
X136825057Y-88376190D01*
X136825057Y-87614285D01*
X136823616Y-87599653D01*
X136812417Y-87572617D01*
X136791725Y-87551925D01*
X136764689Y-87540726D01*
X136735425Y-87540726D01*
X136708389Y-87551925D01*
X136687697Y-87572617D01*
X136676498Y-87599653D01*
X136675057Y-87614285D01*
X135468708Y-87614285D01*
X135468708Y-86995237D01*
X135579819Y-86995237D01*
X135579819Y-87376189D01*
X135581260Y-87390821D01*
X135592459Y-87417857D01*
X135613151Y-87438549D01*
X135640187Y-87449748D01*
X135654819Y-87451189D01*
X136654819Y-87451189D01*
X136669451Y-87449748D01*
X136696487Y-87438549D01*
X136717179Y-87417857D01*
X136728378Y-87390821D01*
X136728378Y-87361557D01*
X136717179Y-87334521D01*
X136696487Y-87313829D01*
X136669451Y-87302630D01*
X136654819Y-87301189D01*
X136253628Y-87301189D01*
X136253628Y-87177143D01*
X136697829Y-86866203D01*
X136708989Y-86856632D01*
X136724716Y-86831953D01*
X136729802Y-86803136D01*
X136723472Y-86774565D01*
X136706690Y-86750591D01*
X136682012Y-86734864D01*
X136653194Y-86729779D01*
X136624623Y-86736108D01*
X136611810Y-86743318D01*
X136253518Y-86994121D01*
X136252187Y-86980605D01*
X136251156Y-86978116D01*
X136250965Y-86975427D01*
X136245710Y-86961696D01*
X136198091Y-86866458D01*
X136194126Y-86860158D01*
X136193369Y-86858331D01*
X136191680Y-86856274D01*
X136190259Y-86854015D01*
X136188760Y-86852715D01*
X136184042Y-86846966D01*
X136136423Y-86799347D01*
X136130673Y-86794628D01*
X136129374Y-86793130D01*
X136127114Y-86791708D01*
X136125058Y-86790020D01*
X136123230Y-86789262D01*
X136116931Y-86785298D01*
X136021693Y-86737679D01*
X136007961Y-86732424D01*
X136005273Y-86732233D01*
X136002784Y-86731202D01*
X135988152Y-86729761D01*
X135845295Y-86729761D01*
X135830663Y-86731202D01*
X135828174Y-86732232D01*
X135825485Y-86732424D01*
X135811754Y-86737679D01*
X135716516Y-86785298D01*
X135710216Y-86789262D01*
X135708389Y-86790020D01*
X135706332Y-86791708D01*
X135704073Y-86793130D01*
X135702773Y-86794628D01*
X135697024Y-86799347D01*
X135649405Y-86846966D01*
X135644686Y-86852715D01*
X135643188Y-86854015D01*
X135641766Y-86856274D01*
X135640078Y-86858331D01*
X135639320Y-86860158D01*
X135635356Y-86866458D01*
X135587737Y-86961696D01*
X135582482Y-86975428D01*
X135582291Y-86978115D01*
X135581260Y-86980605D01*
X135579819Y-86995237D01*
X135468708Y-86995237D01*
X135468708Y-86042856D01*
X135579819Y-86042856D01*
X135579819Y-86280951D01*
X135581260Y-86295583D01*
X135582291Y-86298072D01*
X135582482Y-86300760D01*
X135587737Y-86314492D01*
X135635356Y-86409730D01*
X135639320Y-86416029D01*
X135640078Y-86417857D01*
X135641766Y-86419913D01*
X135643188Y-86422173D01*
X135644686Y-86423472D01*
X135649405Y-86429222D01*
X135697024Y-86476841D01*
X135708389Y-86486168D01*
X135735425Y-86497367D01*
X135764688Y-86497367D01*
X135791724Y-86486168D01*
X135812417Y-86465475D01*
X135823616Y-86438439D01*
X135823616Y-86409176D01*
X135812417Y-86382140D01*
X135803090Y-86370775D01*
X135764077Y-86331762D01*
X135729819Y-86263246D01*
X135729819Y-86060561D01*
X135764077Y-85992045D01*
X135794484Y-85961638D01*
X135863000Y-85927380D01*
X135928363Y-85927380D01*
X136042876Y-85965551D01*
X136601786Y-86524460D01*
X136613151Y-86533788D01*
X136632268Y-86541706D01*
X136640187Y-86544986D01*
X136640188Y-86544986D01*
X136669451Y-86544986D01*
X136696487Y-86533787D01*
X136717180Y-86513095D01*
X136725098Y-86493977D01*
X136728378Y-86486059D01*
X136729819Y-86471427D01*
X136729819Y-85852380D01*
X136728378Y-85837748D01*
X136717179Y-85810712D01*
X136696487Y-85790020D01*
X136669451Y-85778821D01*
X136640187Y-85778821D01*
X136613151Y-85790020D01*
X136592459Y-85810712D01*
X136581260Y-85837748D01*
X136579819Y-85852380D01*
X136579819Y-86290361D01*
X136136423Y-85846966D01*
X136125058Y-85837639D01*
X136122567Y-85836607D01*
X136120532Y-85834842D01*
X136107107Y-85828848D01*
X135964250Y-85781229D01*
X135956996Y-85779579D01*
X135955165Y-85778821D01*
X135952510Y-85778559D01*
X135949913Y-85777969D01*
X135947938Y-85778109D01*
X135940533Y-85777380D01*
X135845295Y-85777380D01*
X135830663Y-85778821D01*
X135828174Y-85779851D01*
X135825485Y-85780043D01*
X135811754Y-85785298D01*
X135716516Y-85832917D01*
X135710216Y-85836881D01*
X135708389Y-85837639D01*
X135706332Y-85839327D01*
X135704073Y-85840749D01*
X135702773Y-85842247D01*
X135697024Y-85846966D01*
X135649405Y-85894585D01*
X135644686Y-85900334D01*
X135643188Y-85901634D01*
X135641766Y-85903893D01*
X135640078Y-85905950D01*
X135639320Y-85907777D01*
X135635356Y-85914077D01*
X135587737Y-86009315D01*
X135582482Y-86023047D01*
X135582291Y-86025734D01*
X135581260Y-86028224D01*
X135579819Y-86042856D01*
X135468708Y-86042856D01*
X135468708Y-85666269D01*
X136936168Y-85666269D01*
X136936168Y-90086110D01*
G37*
G36*
X121135676Y-89894180D02*
G01*
X121162170Y-89920674D01*
X121196428Y-89989190D01*
X121196428Y-90096637D01*
X121162169Y-90165153D01*
X121131762Y-90195561D01*
X121063247Y-90229819D01*
X120775000Y-90229819D01*
X120775000Y-89856009D01*
X121021163Y-89856009D01*
X121135676Y-89894180D01*
G37*
G36*
X121084144Y-89414077D02*
G01*
X121114551Y-89444484D01*
X121148809Y-89513000D01*
X121148809Y-89572828D01*
X121114551Y-89641344D01*
X121084144Y-89671751D01*
X121015628Y-89706009D01*
X120775000Y-89706009D01*
X120775000Y-89379819D01*
X121015628Y-89379819D01*
X121084144Y-89414077D01*
G37*
G36*
X124933730Y-90586168D02*
G01*
X120513889Y-90586168D01*
X120513889Y-90385425D01*
X122150251Y-90385425D01*
X122150251Y-90414689D01*
X122161450Y-90441725D01*
X122182142Y-90462417D01*
X122209178Y-90473616D01*
X122223810Y-90475057D01*
X122985714Y-90475057D01*
X123000346Y-90473616D01*
X123027382Y-90462417D01*
X123048074Y-90441725D01*
X123059273Y-90414689D01*
X123059273Y-90385425D01*
X123048074Y-90358389D01*
X123027382Y-90337697D01*
X123000346Y-90326498D01*
X122985714Y-90325057D01*
X122223810Y-90325057D01*
X122209178Y-90326498D01*
X122182142Y-90337697D01*
X122161450Y-90358389D01*
X122150251Y-90385425D01*
X120513889Y-90385425D01*
X120513889Y-89304819D01*
X120625000Y-89304819D01*
X120625000Y-90304819D01*
X120626441Y-90319451D01*
X120637640Y-90346487D01*
X120658332Y-90367179D01*
X120685368Y-90378378D01*
X120700000Y-90379819D01*
X121080952Y-90379819D01*
X121095584Y-90378378D01*
X121098073Y-90377346D01*
X121100761Y-90377156D01*
X121114493Y-90371901D01*
X121209731Y-90324282D01*
X121216030Y-90320317D01*
X121217858Y-90319560D01*
X121219914Y-90317872D01*
X121222174Y-90316450D01*
X121223474Y-90314950D01*
X121229224Y-90310232D01*
X121276842Y-90262613D01*
X121281560Y-90256863D01*
X121283059Y-90255564D01*
X121284480Y-90253305D01*
X121286170Y-90251247D01*
X121286927Y-90249417D01*
X121290891Y-90243121D01*
X121338510Y-90147883D01*
X121343765Y-90134152D01*
X121343956Y-90131462D01*
X121344987Y-90128974D01*
X121346428Y-90114342D01*
X121346428Y-89971485D01*
X121344987Y-89956853D01*
X121343956Y-89954364D01*
X121343765Y-89951675D01*
X121338510Y-89937944D01*
X121290891Y-89842706D01*
X121286926Y-89836406D01*
X121286169Y-89834579D01*
X121284480Y-89832522D01*
X121283059Y-89830263D01*
X121281560Y-89828963D01*
X121276842Y-89823214D01*
X121229223Y-89775595D01*
X121217858Y-89766268D01*
X121215367Y-89765236D01*
X121213332Y-89763471D01*
X121207264Y-89760762D01*
X121229223Y-89738804D01*
X121233941Y-89733054D01*
X121235440Y-89731755D01*
X121236861Y-89729495D01*
X121238550Y-89727439D01*
X121239307Y-89725611D01*
X121243272Y-89719312D01*
X121290891Y-89624074D01*
X121296146Y-89610343D01*
X121296337Y-89607653D01*
X121297368Y-89605165D01*
X121298809Y-89590533D01*
X121298809Y-89495295D01*
X121297368Y-89480663D01*
X121296337Y-89478174D01*
X121296146Y-89475485D01*
X121290891Y-89461754D01*
X121243272Y-89366516D01*
X121239307Y-89360216D01*
X121238550Y-89358389D01*
X121236861Y-89356332D01*
X121235440Y-89354073D01*
X121233941Y-89352773D01*
X121229223Y-89347024D01*
X121181604Y-89299405D01*
X121175854Y-89294686D01*
X121174555Y-89293188D01*
X121172295Y-89291766D01*
X121170372Y-89290187D01*
X121483584Y-89290187D01*
X121483584Y-89319451D01*
X121494783Y-89346487D01*
X121515475Y-89367179D01*
X121542511Y-89378378D01*
X121557143Y-89379819D01*
X121767857Y-89379819D01*
X121767857Y-90304819D01*
X121769298Y-90319451D01*
X121780497Y-90346487D01*
X121801189Y-90367179D01*
X121828225Y-90378378D01*
X121857489Y-90378378D01*
X121884525Y-90367179D01*
X121905217Y-90346487D01*
X121916416Y-90319451D01*
X121917857Y-90304819D01*
X121917857Y-89733390D01*
X123101191Y-89733390D01*
X123101191Y-89876247D01*
X123101442Y-89878800D01*
X123101280Y-89879893D01*
X123102089Y-89885366D01*
X123102632Y-89890879D01*
X123103054Y-89891900D01*
X123103430Y-89894437D01*
X123151049Y-90084913D01*
X123151434Y-90085992D01*
X123151473Y-90086532D01*
X123153800Y-90092613D01*
X123155996Y-90098759D01*
X123156318Y-90099194D01*
X123156728Y-90100264D01*
X123204347Y-90195502D01*
X123208310Y-90201798D01*
X123209068Y-90203628D01*
X123210757Y-90205686D01*
X123212179Y-90207945D01*
X123213677Y-90209244D01*
X123218396Y-90214994D01*
X123313634Y-90310233D01*
X123324999Y-90319561D01*
X123327489Y-90320592D01*
X123329524Y-90322357D01*
X123342950Y-90328351D01*
X123485806Y-90375970D01*
X123493061Y-90377619D01*
X123494892Y-90378378D01*
X123497545Y-90378639D01*
X123500143Y-90379230D01*
X123502117Y-90379089D01*
X123509524Y-90379819D01*
X123604762Y-90379819D01*
X123612167Y-90379089D01*
X123614142Y-90379230D01*
X123616739Y-90378639D01*
X123619394Y-90378378D01*
X123621225Y-90377619D01*
X123628479Y-90375970D01*
X123771336Y-90328351D01*
X123784761Y-90322357D01*
X123786796Y-90320591D01*
X123789287Y-90319560D01*
X123800653Y-90310232D01*
X123820698Y-90290187D01*
X124055013Y-90290187D01*
X124055013Y-90319451D01*
X124066212Y-90346487D01*
X124086904Y-90367179D01*
X124113940Y-90378378D01*
X124128572Y-90379819D01*
X124747619Y-90379819D01*
X124762251Y-90378378D01*
X124789287Y-90367179D01*
X124809979Y-90346487D01*
X124821178Y-90319451D01*
X124821178Y-90290187D01*
X124809979Y-90263151D01*
X124789287Y-90242459D01*
X124762251Y-90231260D01*
X124747619Y-90229819D01*
X124309638Y-90229819D01*
X124753033Y-89786423D01*
X124762361Y-89775058D01*
X124763392Y-89772567D01*
X124765157Y-89770533D01*
X124771151Y-89757107D01*
X124818770Y-89614251D01*
X124820419Y-89606995D01*
X124821178Y-89605165D01*
X124821439Y-89602511D01*
X124822030Y-89599914D01*
X124821889Y-89597939D01*
X124822619Y-89590533D01*
X124822619Y-89495295D01*
X124821178Y-89480663D01*
X124820147Y-89478174D01*
X124819956Y-89475485D01*
X124814701Y-89461754D01*
X124767082Y-89366516D01*
X124763117Y-89360216D01*
X124762360Y-89358389D01*
X124760671Y-89356332D01*
X124759250Y-89354073D01*
X124757751Y-89352773D01*
X124753033Y-89347024D01*
X124705414Y-89299405D01*
X124699664Y-89294686D01*
X124698365Y-89293188D01*
X124696105Y-89291766D01*
X124694049Y-89290078D01*
X124692221Y-89289320D01*
X124685922Y-89285356D01*
X124590684Y-89237737D01*
X124576952Y-89232482D01*
X124574264Y-89232291D01*
X124571775Y-89231260D01*
X124557143Y-89229819D01*
X124319048Y-89229819D01*
X124304416Y-89231260D01*
X124301927Y-89232290D01*
X124299238Y-89232482D01*
X124285507Y-89237737D01*
X124190269Y-89285356D01*
X124183969Y-89289320D01*
X124182142Y-89290078D01*
X124180085Y-89291766D01*
X124177826Y-89293188D01*
X124176526Y-89294686D01*
X124170777Y-89299405D01*
X124123158Y-89347024D01*
X124113831Y-89358389D01*
X124102632Y-89385426D01*
X124102632Y-89414688D01*
X124113831Y-89441725D01*
X124134523Y-89462417D01*
X124161560Y-89473616D01*
X124190822Y-89473616D01*
X124217859Y-89462417D01*
X124229224Y-89453090D01*
X124268237Y-89414077D01*
X124336753Y-89379819D01*
X124539438Y-89379819D01*
X124607954Y-89414077D01*
X124638361Y-89444484D01*
X124672619Y-89513000D01*
X124672619Y-89578363D01*
X124634447Y-89692876D01*
X124075539Y-90251786D01*
X124066212Y-90263151D01*
X124055013Y-90290187D01*
X123820698Y-90290187D01*
X123848271Y-90262613D01*
X123857599Y-90251247D01*
X123868797Y-90224211D01*
X123868797Y-90194948D01*
X123857598Y-90167912D01*
X123836905Y-90147219D01*
X123809869Y-90136021D01*
X123780606Y-90136021D01*
X123753570Y-90147220D01*
X123742204Y-90156548D01*
X123707105Y-90191647D01*
X123592592Y-90229819D01*
X123521694Y-90229819D01*
X123407181Y-90191648D01*
X123333068Y-90117534D01*
X123294574Y-90040547D01*
X123251191Y-89867013D01*
X123251191Y-89742624D01*
X123294574Y-89569090D01*
X123333068Y-89492103D01*
X123407181Y-89417990D01*
X123521694Y-89379819D01*
X123592592Y-89379819D01*
X123707105Y-89417990D01*
X123742205Y-89453090D01*
X123753570Y-89462417D01*
X123780606Y-89473616D01*
X123809869Y-89473616D01*
X123836905Y-89462417D01*
X123857598Y-89441724D01*
X123868797Y-89414688D01*
X123868797Y-89385425D01*
X123857598Y-89358389D01*
X123848271Y-89347024D01*
X123800652Y-89299405D01*
X123789287Y-89290078D01*
X123786796Y-89289046D01*
X123784761Y-89287281D01*
X123771336Y-89281287D01*
X123628479Y-89233668D01*
X123621225Y-89232018D01*
X123619394Y-89231260D01*
X123616739Y-89230998D01*
X123614142Y-89230408D01*
X123612167Y-89230548D01*
X123604762Y-89229819D01*
X123509524Y-89229819D01*
X123502117Y-89230548D01*
X123500143Y-89230408D01*
X123497545Y-89230998D01*
X123494892Y-89231260D01*
X123493061Y-89232018D01*
X123485806Y-89233668D01*
X123342950Y-89281287D01*
X123329524Y-89287281D01*
X123327489Y-89289045D01*
X123324999Y-89290077D01*
X123313634Y-89299405D01*
X123218396Y-89394643D01*
X123213677Y-89400392D01*
X123212179Y-89401692D01*
X123210757Y-89403951D01*
X123209069Y-89406008D01*
X123208311Y-89407835D01*
X123204347Y-89414135D01*
X123156728Y-89509373D01*
X123156318Y-89510442D01*
X123155996Y-89510878D01*
X123153800Y-89517023D01*
X123151473Y-89523105D01*
X123151434Y-89523644D01*
X123151049Y-89524724D01*
X123103430Y-89715200D01*
X123103054Y-89717736D01*
X123102632Y-89718758D01*
X123102089Y-89724270D01*
X123101280Y-89729744D01*
X123101442Y-89730836D01*
X123101191Y-89733390D01*
X121917857Y-89733390D01*
X121917857Y-89379819D01*
X122128571Y-89379819D01*
X122143203Y-89378378D01*
X122170239Y-89367179D01*
X122190931Y-89346487D01*
X122202130Y-89319451D01*
X122202130Y-89290187D01*
X122190931Y-89263151D01*
X122170239Y-89242459D01*
X122143203Y-89231260D01*
X122128571Y-89229819D01*
X121557143Y-89229819D01*
X121542511Y-89231260D01*
X121515475Y-89242459D01*
X121494783Y-89263151D01*
X121483584Y-89290187D01*
X121170372Y-89290187D01*
X121170239Y-89290078D01*
X121168411Y-89289320D01*
X121162112Y-89285356D01*
X121066874Y-89237737D01*
X121053142Y-89232482D01*
X121050454Y-89232291D01*
X121047965Y-89231260D01*
X121033333Y-89229819D01*
X120700000Y-89229819D01*
X120685368Y-89231260D01*
X120658332Y-89242459D01*
X120637640Y-89263151D01*
X120626441Y-89290187D01*
X120625000Y-89304819D01*
X120513889Y-89304819D01*
X120513889Y-89118708D01*
X124933730Y-89118708D01*
X124933730Y-90586168D01*
G37*
G36*
X121085676Y-84794180D02*
G01*
X121112170Y-84820674D01*
X121146428Y-84889190D01*
X121146428Y-84996637D01*
X121112169Y-85065153D01*
X121081762Y-85095561D01*
X121013247Y-85129819D01*
X120725000Y-85129819D01*
X120725000Y-84756009D01*
X120971163Y-84756009D01*
X121085676Y-84794180D01*
G37*
G36*
X121034144Y-84314077D02*
G01*
X121064551Y-84344484D01*
X121098809Y-84413000D01*
X121098809Y-84472828D01*
X121064551Y-84541344D01*
X121034144Y-84571751D01*
X120965628Y-84606009D01*
X120725000Y-84606009D01*
X120725000Y-84279819D01*
X120965628Y-84279819D01*
X121034144Y-84314077D01*
G37*
G36*
X124882289Y-85486168D02*
G01*
X120463889Y-85486168D01*
X120463889Y-85285425D01*
X122100251Y-85285425D01*
X122100251Y-85314689D01*
X122111450Y-85341725D01*
X122132142Y-85362417D01*
X122159178Y-85373616D01*
X122173810Y-85375057D01*
X122935714Y-85375057D01*
X122950346Y-85373616D01*
X122977382Y-85362417D01*
X122998074Y-85341725D01*
X123009273Y-85314689D01*
X123009273Y-85285425D01*
X122998074Y-85258389D01*
X122977382Y-85237697D01*
X122950346Y-85226498D01*
X122935714Y-85225057D01*
X122173810Y-85225057D01*
X122159178Y-85226498D01*
X122132142Y-85237697D01*
X122111450Y-85258389D01*
X122100251Y-85285425D01*
X120463889Y-85285425D01*
X120463889Y-84204819D01*
X120575000Y-84204819D01*
X120575000Y-85204819D01*
X120576441Y-85219451D01*
X120587640Y-85246487D01*
X120608332Y-85267179D01*
X120635368Y-85278378D01*
X120650000Y-85279819D01*
X121030952Y-85279819D01*
X121045584Y-85278378D01*
X121048073Y-85277346D01*
X121050761Y-85277156D01*
X121064493Y-85271901D01*
X121159731Y-85224282D01*
X121166030Y-85220317D01*
X121167858Y-85219560D01*
X121169914Y-85217872D01*
X121172174Y-85216450D01*
X121173474Y-85214950D01*
X121179224Y-85210232D01*
X121226842Y-85162613D01*
X121231560Y-85156863D01*
X121233059Y-85155564D01*
X121234480Y-85153305D01*
X121236170Y-85151247D01*
X121236927Y-85149417D01*
X121240891Y-85143121D01*
X121288510Y-85047883D01*
X121293765Y-85034152D01*
X121293956Y-85031462D01*
X121294987Y-85028974D01*
X121296428Y-85014342D01*
X121296428Y-84871485D01*
X121294987Y-84856853D01*
X121293956Y-84854364D01*
X121293765Y-84851675D01*
X121288510Y-84837944D01*
X121240891Y-84742706D01*
X121236926Y-84736406D01*
X121236169Y-84734579D01*
X121234480Y-84732522D01*
X121233059Y-84730263D01*
X121231560Y-84728963D01*
X121226842Y-84723214D01*
X121179223Y-84675595D01*
X121167858Y-84666268D01*
X121165367Y-84665236D01*
X121163332Y-84663471D01*
X121157264Y-84660762D01*
X121179223Y-84638804D01*
X121183941Y-84633054D01*
X121185440Y-84631755D01*
X121186861Y-84629495D01*
X121188550Y-84627439D01*
X121189307Y-84625611D01*
X121193272Y-84619312D01*
X121240891Y-84524074D01*
X121246146Y-84510343D01*
X121246337Y-84507653D01*
X121247368Y-84505165D01*
X121248809Y-84490533D01*
X121248809Y-84395295D01*
X121247368Y-84380663D01*
X121246337Y-84378174D01*
X121246146Y-84375485D01*
X121240891Y-84361754D01*
X121193272Y-84266516D01*
X121189307Y-84260216D01*
X121188550Y-84258389D01*
X121186861Y-84256332D01*
X121185440Y-84254073D01*
X121183941Y-84252773D01*
X121179223Y-84247024D01*
X121131604Y-84199405D01*
X121125854Y-84194686D01*
X121124555Y-84193188D01*
X121122295Y-84191766D01*
X121120372Y-84190187D01*
X121433584Y-84190187D01*
X121433584Y-84219451D01*
X121444783Y-84246487D01*
X121465475Y-84267179D01*
X121492511Y-84278378D01*
X121507143Y-84279819D01*
X121717857Y-84279819D01*
X121717857Y-85204819D01*
X121719298Y-85219451D01*
X121730497Y-85246487D01*
X121751189Y-85267179D01*
X121778225Y-85278378D01*
X121807489Y-85278378D01*
X121834525Y-85267179D01*
X121855217Y-85246487D01*
X121866416Y-85219451D01*
X121867857Y-85204819D01*
X121867857Y-84633390D01*
X123051191Y-84633390D01*
X123051191Y-84776247D01*
X123051442Y-84778800D01*
X123051280Y-84779893D01*
X123052089Y-84785366D01*
X123052632Y-84790879D01*
X123053054Y-84791900D01*
X123053430Y-84794437D01*
X123101049Y-84984913D01*
X123101434Y-84985992D01*
X123101473Y-84986532D01*
X123103800Y-84992613D01*
X123105996Y-84998759D01*
X123106318Y-84999194D01*
X123106728Y-85000264D01*
X123154347Y-85095502D01*
X123158310Y-85101798D01*
X123159068Y-85103628D01*
X123160757Y-85105686D01*
X123162179Y-85107945D01*
X123163677Y-85109244D01*
X123168396Y-85114994D01*
X123263634Y-85210233D01*
X123274999Y-85219561D01*
X123277489Y-85220592D01*
X123279524Y-85222357D01*
X123292950Y-85228351D01*
X123435806Y-85275970D01*
X123443061Y-85277619D01*
X123444892Y-85278378D01*
X123447545Y-85278639D01*
X123450143Y-85279230D01*
X123452117Y-85279089D01*
X123459524Y-85279819D01*
X123554762Y-85279819D01*
X123562167Y-85279089D01*
X123564142Y-85279230D01*
X123566739Y-85278639D01*
X123569394Y-85278378D01*
X123571225Y-85277619D01*
X123578479Y-85275970D01*
X123721336Y-85228351D01*
X123734761Y-85222357D01*
X123736796Y-85220591D01*
X123739287Y-85219560D01*
X123750653Y-85210232D01*
X123798271Y-85162613D01*
X123807599Y-85151247D01*
X123818797Y-85124211D01*
X123818797Y-85094948D01*
X123807598Y-85067912D01*
X123786905Y-85047219D01*
X123759869Y-85036021D01*
X123730606Y-85036021D01*
X123703570Y-85047220D01*
X123692204Y-85056548D01*
X123657105Y-85091647D01*
X123542592Y-85129819D01*
X123471694Y-85129819D01*
X123357181Y-85091648D01*
X123283068Y-85017534D01*
X123244574Y-84940547D01*
X123201191Y-84767013D01*
X123201191Y-84642624D01*
X123241559Y-84481152D01*
X124051780Y-84481152D01*
X124053854Y-84510342D01*
X124066941Y-84536517D01*
X124089049Y-84555690D01*
X124116810Y-84564944D01*
X124146000Y-84562870D01*
X124159732Y-84557615D01*
X124254970Y-84509996D01*
X124261269Y-84506031D01*
X124263097Y-84505274D01*
X124265153Y-84503585D01*
X124267413Y-84502164D01*
X124268712Y-84500665D01*
X124274462Y-84495947D01*
X124336905Y-84433504D01*
X124336905Y-85129819D01*
X124126191Y-85129819D01*
X124111559Y-85131260D01*
X124084523Y-85142459D01*
X124063831Y-85163151D01*
X124052632Y-85190187D01*
X124052632Y-85219451D01*
X124063831Y-85246487D01*
X124084523Y-85267179D01*
X124111559Y-85278378D01*
X124126191Y-85279819D01*
X124697619Y-85279819D01*
X124712251Y-85278378D01*
X124739287Y-85267179D01*
X124759979Y-85246487D01*
X124771178Y-85219451D01*
X124771178Y-85190187D01*
X124759979Y-85163151D01*
X124739287Y-85142459D01*
X124712251Y-85131260D01*
X124697619Y-85129819D01*
X124486905Y-85129819D01*
X124486905Y-84204819D01*
X124486899Y-84204766D01*
X124486905Y-84204740D01*
X124486889Y-84204663D01*
X124485464Y-84190187D01*
X124482622Y-84183326D01*
X124481166Y-84176045D01*
X124477076Y-84169938D01*
X124474265Y-84163151D01*
X124469016Y-84157902D01*
X124464883Y-84151730D01*
X124458766Y-84147652D01*
X124453573Y-84142459D01*
X124446713Y-84139617D01*
X124440534Y-84135498D01*
X124433325Y-84134072D01*
X124426537Y-84131260D01*
X124419110Y-84131260D01*
X124411826Y-84129819D01*
X124404621Y-84131260D01*
X124397273Y-84131260D01*
X124390412Y-84134101D01*
X124383132Y-84135558D01*
X124377026Y-84139646D01*
X124370237Y-84142459D01*
X124364986Y-84147709D01*
X124358817Y-84151841D01*
X124349596Y-84163099D01*
X124349545Y-84163151D01*
X124349535Y-84163173D01*
X124349501Y-84163216D01*
X124258381Y-84299896D01*
X124177002Y-84381275D01*
X124092650Y-84423451D01*
X124080207Y-84431283D01*
X124061034Y-84453391D01*
X124051780Y-84481152D01*
X123241559Y-84481152D01*
X123244574Y-84469090D01*
X123283068Y-84392103D01*
X123357181Y-84317990D01*
X123471694Y-84279819D01*
X123542592Y-84279819D01*
X123657105Y-84317990D01*
X123692205Y-84353090D01*
X123703570Y-84362417D01*
X123730606Y-84373616D01*
X123759869Y-84373616D01*
X123786905Y-84362417D01*
X123807598Y-84341724D01*
X123818797Y-84314688D01*
X123818797Y-84285425D01*
X123807598Y-84258389D01*
X123798271Y-84247024D01*
X123750652Y-84199405D01*
X123739287Y-84190078D01*
X123736796Y-84189046D01*
X123734761Y-84187281D01*
X123721336Y-84181287D01*
X123578479Y-84133668D01*
X123571225Y-84132018D01*
X123569394Y-84131260D01*
X123566739Y-84130998D01*
X123564142Y-84130408D01*
X123562167Y-84130548D01*
X123554762Y-84129819D01*
X123459524Y-84129819D01*
X123452117Y-84130548D01*
X123450143Y-84130408D01*
X123447545Y-84130998D01*
X123444892Y-84131260D01*
X123443061Y-84132018D01*
X123435806Y-84133668D01*
X123292950Y-84181287D01*
X123279524Y-84187281D01*
X123277489Y-84189045D01*
X123274999Y-84190077D01*
X123263634Y-84199405D01*
X123168396Y-84294643D01*
X123163677Y-84300392D01*
X123162179Y-84301692D01*
X123160757Y-84303951D01*
X123159069Y-84306008D01*
X123158311Y-84307835D01*
X123154347Y-84314135D01*
X123106728Y-84409373D01*
X123106318Y-84410442D01*
X123105996Y-84410878D01*
X123103810Y-84416997D01*
X123101473Y-84423105D01*
X123101434Y-84423644D01*
X123101049Y-84424724D01*
X123053430Y-84615200D01*
X123053054Y-84617736D01*
X123052632Y-84618758D01*
X123052089Y-84624270D01*
X123051280Y-84629744D01*
X123051442Y-84630836D01*
X123051191Y-84633390D01*
X121867857Y-84633390D01*
X121867857Y-84279819D01*
X122078571Y-84279819D01*
X122093203Y-84278378D01*
X122120239Y-84267179D01*
X122140931Y-84246487D01*
X122152130Y-84219451D01*
X122152130Y-84190187D01*
X122140931Y-84163151D01*
X122120239Y-84142459D01*
X122093203Y-84131260D01*
X122078571Y-84129819D01*
X121507143Y-84129819D01*
X121492511Y-84131260D01*
X121465475Y-84142459D01*
X121444783Y-84163151D01*
X121433584Y-84190187D01*
X121120372Y-84190187D01*
X121120239Y-84190078D01*
X121118411Y-84189320D01*
X121112112Y-84185356D01*
X121016874Y-84137737D01*
X121003142Y-84132482D01*
X121000454Y-84132291D01*
X120997965Y-84131260D01*
X120983333Y-84129819D01*
X120650000Y-84129819D01*
X120635368Y-84131260D01*
X120608332Y-84142459D01*
X120587640Y-84163151D01*
X120576441Y-84190187D01*
X120575000Y-84204819D01*
X120463889Y-84204819D01*
X120463889Y-84018708D01*
X124882289Y-84018708D01*
X124882289Y-85486168D01*
G37*
D11*
%TO.P,BT_R1,1*%
%TO.N,Net-(E2-RESET)*%
X115300000Y-83170000D03*
%TO.P,BT_R1,2*%
%TO.N,+3V3*%
X115300000Y-93330000D03*
%TD*%
D12*
%TO.P,J2,6,Pin_6*%
%TO.N,unconnected-(J2-Pin_6-Pad6)*%
X137100000Y-65350000D03*
%TO.P,J2,5,Pin_5*%
%TO.N,unconnected-(J2-Pin_5-Pad5)*%
X137100000Y-67890000D03*
%TO.P,J2,4,Pin_4*%
%TO.N,Net-(E2-LED)*%
X137100000Y-70430000D03*
%TO.P,J2,3,Pin_3*%
%TO.N,BT_Config{slash}Run*%
X137100000Y-72970000D03*
%TO.P,J2,2,Pin_2*%
%TO.N,GND*%
X137100000Y-75510000D03*
D13*
%TO.P,J2,1,Pin_1*%
%TO.N,+3V3*%
X137100000Y-78050000D03*
%TD*%
D14*
%TO.P,E2,$7,NC7*%
%TO.N,unconnected-(E2-NC7-Pad$7)*%
X118915000Y-71668500D03*
%TO.P,E2,1,UART_TX*%
%TO.N,UART2_BT_RX*%
X118915000Y-62668500D03*
%TO.P,E2,2,UART_RX*%
%TO.N,UART2_BT_TX*%
X118915000Y-64168500D03*
%TO.P,E2,3,UART_CTS*%
%TO.N,UART_CTS*%
X118915000Y-65668500D03*
%TO.P,E2,4,UART_RTS*%
%TO.N,UART_RTS*%
X118915000Y-67168500D03*
%TO.P,E2,5,NC5*%
%TO.N,unconnected-(E2-NC5-Pad5)*%
X118915000Y-68668500D03*
%TO.P,E2,6,NC6*%
%TO.N,unconnected-(E2-NC6-Pad6)*%
X118915000Y-70168500D03*
%TO.P,E2,8,NC8*%
%TO.N,unconnected-(E2-NC8-Pad8)*%
X118915000Y-73168500D03*
%TO.P,E2,9,NC9*%
%TO.N,unconnected-(E2-NC9-Pad9)*%
X118915000Y-74668500D03*
%TO.P,E2,10,NC10*%
%TO.N,unconnected-(E2-NC10-Pad10)*%
X118915000Y-76168500D03*
%TO.P,E2,11,RESET*%
%TO.N,Net-(E2-RESET)*%
X118915000Y-77668500D03*
%TO.P,E2,12,+3.3V*%
%TO.N,+3V3*%
X118915000Y-79168500D03*
%TO.P,E2,13,GND*%
%TO.N,GND*%
X118915000Y-80668500D03*
D15*
%TO.P,E2,14,GND__1*%
X120415000Y-82543500D03*
%TO.P,E2,15,USB_D-*%
%TO.N,unconnected-(E2-USB_D--Pad15)*%
X121915000Y-82543500D03*
%TO.P,E2,16,NC16*%
%TO.N,unconnected-(E2-NC16-Pad16)*%
X123415000Y-82543500D03*
%TO.P,E2,17,NC17*%
%TO.N,unconnected-(E2-NC17-Pad17)*%
X124915000Y-82543500D03*
%TO.P,E2,18,NC18*%
%TO.N,unconnected-(E2-NC18-Pad18)*%
X126415000Y-82543500D03*
%TO.P,E2,19,NC19*%
%TO.N,unconnected-(E2-NC19-Pad19)*%
X127915000Y-82543500D03*
%TO.P,E2,20,USB_D+*%
%TO.N,unconnected-(E2-USB_D+-Pad20)*%
X129415000Y-82543500D03*
%TO.P,E2,21,GND__2*%
%TO.N,GND*%
X130915000Y-82543500D03*
D14*
%TO.P,E2,22,GND__3*%
X132415000Y-80668500D03*
%TO.P,E2,23,KEY*%
%TO.N,BT_Config{slash}Run*%
X132415000Y-79168500D03*
%TO.P,E2,24,LED*%
%TO.N,Net-(E2-LED)*%
X132415000Y-77668500D03*
%TO.P,E2,25,PIO2*%
%TO.N,unconnected-(E2-PIO2-Pad25)*%
X132415000Y-76168500D03*
%TO.P,E2,26,PIO3*%
%TO.N,unconnected-(E2-PIO3-Pad26)*%
X132415000Y-74668500D03*
%TO.P,E2,27,PIO4*%
%TO.N,unconnected-(E2-PIO4-Pad27)*%
X132415000Y-73168500D03*
%TO.P,E2,28,PIO5*%
%TO.N,unconnected-(E2-PIO5-Pad28)*%
X132415000Y-71668500D03*
%TO.P,E2,29,PIO6*%
%TO.N,unconnected-(E2-PIO6-Pad29)*%
X132415000Y-70168500D03*
%TO.P,E2,30,PIO7*%
%TO.N,unconnected-(E2-PIO7-Pad30)*%
X132415000Y-68668500D03*
%TO.P,E2,31,PIO8*%
%TO.N,unconnected-(E2-PIO8-Pad31)*%
X132415000Y-67168500D03*
%TO.P,E2,32,PIO9*%
%TO.N,unconnected-(E2-PIO9-Pad32)*%
X132415000Y-65668500D03*
%TO.P,E2,33,PIO10*%
%TO.N,unconnected-(E2-PIO10-Pad33)*%
X132415000Y-64168500D03*
%TO.P,E2,34,PIO11*%
%TO.N,unconnected-(E2-PIO11-Pad34)*%
X132415000Y-62668500D03*
%TD*%
D16*
%TO.P,BT_LED1,2,A*%
%TO.N,Net-(BT_LED1-A)*%
X131500000Y-87010000D03*
D17*
%TO.P,BT_LED1,1,K*%
%TO.N,GND*%
X131500000Y-92090000D03*
%TD*%
D11*
%TO.P,BT_R2,1*%
%TO.N,Net-(E2-LED)*%
X136150000Y-82820000D03*
%TO.P,BT_R2,2*%
%TO.N,Net-(BT_LED1-A)*%
X136150000Y-92980000D03*
%TD*%
%TO.P,BT_C2,1*%
%TO.N,Net-(E2-RESET)*%
X120100000Y-92300000D03*
%TO.P,BT_C2,2*%
%TO.N,GND*%
X125100000Y-92300000D03*
%TD*%
%TO.P,BT_C1,1*%
%TO.N,+3V3*%
X120150000Y-87250000D03*
%TO.P,BT_C1,2*%
%TO.N,GND*%
X125150000Y-87250000D03*
%TD*%
D12*
%TO.P,J1,6,Pin_6*%
%TO.N,UART2_BT_RX*%
X114250000Y-65350000D03*
D13*
%TO.P,J1,1,Pin_1*%
%TO.N,+3V3*%
X114250000Y-78050000D03*
D12*
%TO.P,J1,2,Pin_2*%
%TO.N,GND*%
X114250000Y-75510000D03*
%TO.P,J1,3,Pin_3*%
%TO.N,UART_RTS*%
X114250000Y-72970000D03*
%TO.P,J1,4,Pin_4*%
%TO.N,UART_CTS*%
X114250000Y-70430000D03*
%TO.P,J1,5,Pin_5*%
%TO.N,UART2_BT_TX*%
X114250000Y-67890000D03*
%TD*%
D18*
%TO.N,BT_Config{slash}Run*%
X136030000Y-72970000D02*
X137100000Y-72970000D01*
X134750000Y-74250000D02*
X136030000Y-72970000D01*
X134750000Y-77156471D02*
X134750000Y-74250000D01*
X132737971Y-79168500D02*
X134750000Y-77156471D01*
X132415000Y-79168500D02*
X132737971Y-79168500D01*
%TO.N,Net-(E2-LED)*%
X135420000Y-70430000D02*
X137100000Y-70430000D01*
X133900000Y-76616000D02*
X133900000Y-71950000D01*
X132847500Y-77668500D02*
X133900000Y-76616000D01*
X132415000Y-77668500D02*
X132847500Y-77668500D01*
X133900000Y-71950000D02*
X135420000Y-70430000D01*
%TO.N,UART2_BT_RX*%
X116931500Y-62668500D02*
X114250000Y-65350000D01*
X118915000Y-62668500D02*
X116931500Y-62668500D01*
%TO.N,Net-(E2-RESET)*%
X118482500Y-77668500D02*
X118915000Y-77668500D01*
X115300000Y-80851000D02*
X118482500Y-77668500D01*
X115300000Y-83170000D02*
X115300000Y-80851000D01*
X115300000Y-87500000D02*
X115300000Y-83170000D01*
X120100000Y-92300000D02*
X115300000Y-87500000D01*
%TO.N,BT_Config{slash}Run*%
X137100000Y-73416000D02*
X137100000Y-72970000D01*
%TO.N,+3V3*%
X118482500Y-79168500D02*
X118915000Y-79168500D01*
X117150000Y-84250000D02*
X117150000Y-80501000D01*
X120150000Y-87250000D02*
X117150000Y-84250000D01*
X117150000Y-80501000D02*
X118482500Y-79168500D01*
%TO.N,UART_CTS*%
X117706500Y-65668500D02*
X118915000Y-65668500D01*
X116050000Y-68550000D02*
X116050000Y-67325000D01*
X114250000Y-70350000D02*
X116050000Y-68550000D01*
X114250000Y-70430000D02*
X114250000Y-70350000D01*
X116050000Y-67325000D02*
X117706500Y-65668500D01*
%TO.N,UART_RTS*%
X118031500Y-67168500D02*
X118915000Y-67168500D01*
X114250000Y-72970000D02*
X116950000Y-70270000D01*
X116950000Y-70270000D02*
X116950000Y-68250000D01*
X116950000Y-68250000D02*
X118031500Y-67168500D01*
%TO.N,UART2_BT_TX*%
X117971500Y-64168500D02*
X118915000Y-64168500D01*
X114250000Y-67890000D02*
X117971500Y-64168500D01*
%TD*%
%TA.AperFunction,Conductor*%
%TO.N,GND*%
G36*
X131175302Y-62024369D02*
G01*
X131211266Y-62073869D01*
X131211266Y-62135055D01*
X131209869Y-62139058D01*
X131170910Y-62243511D01*
X131170908Y-62243522D01*
X131164500Y-62303129D01*
X131164500Y-63033866D01*
X131164501Y-63033870D01*
X131170908Y-63093480D01*
X131170909Y-63093485D01*
X131221202Y-63228329D01*
X131307450Y-63343541D01*
X131307454Y-63343546D01*
X131307457Y-63343548D01*
X131312405Y-63348496D01*
X131340182Y-63403013D01*
X131330611Y-63463445D01*
X131312405Y-63488504D01*
X131307450Y-63493458D01*
X131221202Y-63608670D01*
X131170910Y-63743511D01*
X131170908Y-63743522D01*
X131164500Y-63803129D01*
X131164500Y-64533866D01*
X131164501Y-64533870D01*
X131170908Y-64593480D01*
X131170909Y-64593485D01*
X131221202Y-64728329D01*
X131295479Y-64827550D01*
X131307454Y-64843546D01*
X131307457Y-64843548D01*
X131312405Y-64848496D01*
X131340182Y-64903013D01*
X131330611Y-64963445D01*
X131312405Y-64988504D01*
X131307450Y-64993458D01*
X131221202Y-65108670D01*
X131170910Y-65243511D01*
X131170908Y-65243522D01*
X131164500Y-65303129D01*
X131164500Y-66033866D01*
X131164501Y-66033870D01*
X131170908Y-66093480D01*
X131170909Y-66093485D01*
X131221202Y-66228329D01*
X131307450Y-66343541D01*
X131307454Y-66343546D01*
X131307457Y-66343548D01*
X131312405Y-66348496D01*
X131340182Y-66403013D01*
X131330611Y-66463445D01*
X131312405Y-66488504D01*
X131307450Y-66493458D01*
X131221202Y-66608670D01*
X131170910Y-66743511D01*
X131170908Y-66743522D01*
X131164500Y-66803129D01*
X131164500Y-67533866D01*
X131164501Y-67533870D01*
X131170908Y-67593480D01*
X131170909Y-67593485D01*
X131221202Y-67728329D01*
X131262660Y-67783709D01*
X131307454Y-67843546D01*
X131307457Y-67843548D01*
X131312405Y-67848496D01*
X131340182Y-67903013D01*
X131330611Y-67963445D01*
X131312405Y-67988504D01*
X131307450Y-67993458D01*
X131221202Y-68108670D01*
X131170910Y-68243511D01*
X131170908Y-68243522D01*
X131164500Y-68303129D01*
X131164500Y-69033866D01*
X131164500Y-69033869D01*
X131164501Y-69033872D01*
X131165703Y-69045051D01*
X131170908Y-69093480D01*
X131170909Y-69093485D01*
X131221202Y-69228329D01*
X131256102Y-69274949D01*
X131307454Y-69343546D01*
X131307457Y-69343548D01*
X131312405Y-69348496D01*
X131340182Y-69403013D01*
X131330611Y-69463445D01*
X131312405Y-69488504D01*
X131307450Y-69493458D01*
X131221202Y-69608670D01*
X131170910Y-69743511D01*
X131170908Y-69743522D01*
X131164500Y-69803129D01*
X131164500Y-70533866D01*
X131164501Y-70533870D01*
X131170908Y-70593480D01*
X131170909Y-70593485D01*
X131221202Y-70728329D01*
X131222662Y-70730279D01*
X131307454Y-70843546D01*
X131307457Y-70843548D01*
X131312405Y-70848496D01*
X131340182Y-70903013D01*
X131330611Y-70963445D01*
X131312405Y-70988504D01*
X131307450Y-70993458D01*
X131221202Y-71108670D01*
X131170910Y-71243511D01*
X131170908Y-71243522D01*
X131164500Y-71303129D01*
X131164500Y-72033866D01*
X131164501Y-72033870D01*
X131170908Y-72093480D01*
X131170909Y-72093485D01*
X131221202Y-72228329D01*
X131298129Y-72331090D01*
X131307454Y-72343546D01*
X131307457Y-72343548D01*
X131312405Y-72348496D01*
X131340182Y-72403013D01*
X131330611Y-72463445D01*
X131312405Y-72488504D01*
X131307450Y-72493458D01*
X131221202Y-72608670D01*
X131170910Y-72743511D01*
X131170908Y-72743522D01*
X131164500Y-72803129D01*
X131164500Y-73533866D01*
X131164501Y-73533870D01*
X131170908Y-73593480D01*
X131170909Y-73593485D01*
X131221202Y-73728329D01*
X131307450Y-73843541D01*
X131307454Y-73843546D01*
X131307457Y-73843548D01*
X131312405Y-73848496D01*
X131340182Y-73903013D01*
X131330611Y-73963445D01*
X131312405Y-73988504D01*
X131307450Y-73993458D01*
X131221202Y-74108670D01*
X131170910Y-74243511D01*
X131170908Y-74243522D01*
X131164500Y-74303129D01*
X131164500Y-75033866D01*
X131164501Y-75033870D01*
X131170908Y-75093480D01*
X131170909Y-75093485D01*
X131221202Y-75228329D01*
X131247321Y-75263219D01*
X131307454Y-75343546D01*
X131307457Y-75343548D01*
X131312405Y-75348496D01*
X131340182Y-75403013D01*
X131330611Y-75463445D01*
X131312405Y-75488504D01*
X131307450Y-75493458D01*
X131221202Y-75608670D01*
X131170910Y-75743511D01*
X131170908Y-75743522D01*
X131164500Y-75803129D01*
X131164500Y-76533866D01*
X131164501Y-76533870D01*
X131170908Y-76593480D01*
X131170909Y-76593485D01*
X131221202Y-76728329D01*
X131307450Y-76843541D01*
X131307454Y-76843546D01*
X131307457Y-76843548D01*
X131312405Y-76848496D01*
X131340182Y-76903013D01*
X131330611Y-76963445D01*
X131312405Y-76988504D01*
X131307450Y-76993458D01*
X131221202Y-77108670D01*
X131170910Y-77243511D01*
X131170908Y-77243522D01*
X131164500Y-77303129D01*
X131164500Y-78033866D01*
X131164501Y-78033870D01*
X131170908Y-78093480D01*
X131170909Y-78093485D01*
X131221202Y-78228329D01*
X131307450Y-78343541D01*
X131307454Y-78343546D01*
X131307457Y-78343548D01*
X131312405Y-78348496D01*
X131340182Y-78403013D01*
X131330611Y-78463445D01*
X131312405Y-78488504D01*
X131307450Y-78493458D01*
X131221202Y-78608670D01*
X131170910Y-78743511D01*
X131170908Y-78743522D01*
X131164500Y-78803129D01*
X131164500Y-79533866D01*
X131164501Y-79533870D01*
X131170908Y-79593480D01*
X131170909Y-79593485D01*
X131221202Y-79728329D01*
X131307450Y-79843541D01*
X131307454Y-79843546D01*
X131307457Y-79843548D01*
X131312461Y-79848552D01*
X131310108Y-79850904D01*
X131337355Y-79889477D01*
X131336540Y-79950657D01*
X131312808Y-79988813D01*
X131307812Y-79993809D01*
X131221647Y-80108909D01*
X131221646Y-80108911D01*
X131171403Y-80243618D01*
X131171401Y-80243629D01*
X131165000Y-80303175D01*
X131165000Y-80418499D01*
X131165001Y-80418500D01*
X133664999Y-80418500D01*
X133665000Y-80418499D01*
X133665000Y-80303175D01*
X133658598Y-80243629D01*
X133658596Y-80243618D01*
X133608353Y-80108911D01*
X133608352Y-80108909D01*
X133522192Y-79993815D01*
X133517194Y-79988817D01*
X133489417Y-79934300D01*
X133498988Y-79873868D01*
X133519063Y-79850076D01*
X133517539Y-79848552D01*
X133522538Y-79843551D01*
X133522546Y-79843546D01*
X133608796Y-79728331D01*
X133659091Y-79593483D01*
X133665500Y-79533873D01*
X133665499Y-79201923D01*
X133684406Y-79143733D01*
X133694489Y-79131926D01*
X135255277Y-77571140D01*
X135326465Y-77464598D01*
X135375501Y-77346215D01*
X135400500Y-77220540D01*
X135400500Y-74560454D01*
X135419407Y-74502263D01*
X135429496Y-74490450D01*
X135698389Y-74221557D01*
X136000023Y-73919922D01*
X136054538Y-73892147D01*
X136114970Y-73901718D01*
X136140025Y-73919921D01*
X136220208Y-74000104D01*
X136220211Y-74000106D01*
X136220213Y-74000108D01*
X136392180Y-74125049D01*
X136392189Y-74125054D01*
X136445212Y-74152070D01*
X136488477Y-74195334D01*
X136498049Y-74255766D01*
X136470272Y-74310283D01*
X136445214Y-74328489D01*
X136392451Y-74355373D01*
X136392442Y-74355378D01*
X136338282Y-74394728D01*
X136970591Y-75027037D01*
X136907007Y-75044075D01*
X136792993Y-75109901D01*
X136699901Y-75202993D01*
X136634075Y-75317007D01*
X136617037Y-75380591D01*
X135984728Y-74748282D01*
X135945378Y-74802442D01*
X135945376Y-74802446D01*
X135848904Y-74991784D01*
X135783240Y-75193878D01*
X135750000Y-75403749D01*
X135750000Y-75616250D01*
X135783240Y-75826121D01*
X135848904Y-76028215D01*
X135945376Y-76217553D01*
X135945380Y-76217559D01*
X135984728Y-76271716D01*
X135984729Y-76271716D01*
X136617037Y-75639407D01*
X136634075Y-75702993D01*
X136699901Y-75817007D01*
X136792993Y-75910099D01*
X136907007Y-75975925D01*
X136970589Y-75992962D01*
X136324632Y-76638919D01*
X136321437Y-76652228D01*
X136274911Y-76691964D01*
X136237029Y-76699500D01*
X136202132Y-76699500D01*
X136202129Y-76699500D01*
X136202128Y-76699501D01*
X136194949Y-76700272D01*
X136142519Y-76705908D01*
X136142514Y-76705909D01*
X136007670Y-76756202D01*
X135892458Y-76842450D01*
X135892450Y-76842458D01*
X135806202Y-76957670D01*
X135755910Y-77092511D01*
X135755908Y-77092522D01*
X135749500Y-77152129D01*
X135749500Y-78947866D01*
X135749501Y-78947870D01*
X135755908Y-79007480D01*
X135755909Y-79007485D01*
X135806202Y-79142329D01*
X135850499Y-79201502D01*
X135892454Y-79257546D01*
X135892457Y-79257548D01*
X135892458Y-79257549D01*
X136007670Y-79343797D01*
X136142511Y-79394089D01*
X136142512Y-79394089D01*
X136142517Y-79394091D01*
X136202127Y-79400500D01*
X137997872Y-79400499D01*
X138057483Y-79394091D01*
X138192331Y-79343796D01*
X138198544Y-79340404D01*
X138199349Y-79341878D01*
X138249078Y-79324927D01*
X138307534Y-79342997D01*
X138344205Y-79391975D01*
X138349500Y-79423917D01*
X138349500Y-93994436D01*
X138348877Y-94005520D01*
X138348877Y-94005521D01*
X138336970Y-94111194D01*
X138332037Y-94132807D01*
X138298766Y-94227888D01*
X138289148Y-94247861D01*
X138235551Y-94333161D01*
X138221729Y-94350494D01*
X138150494Y-94421729D01*
X138133161Y-94435551D01*
X138047861Y-94489148D01*
X138027888Y-94498766D01*
X137932807Y-94532037D01*
X137911194Y-94536970D01*
X137805521Y-94548877D01*
X137794436Y-94549500D01*
X116138736Y-94549500D01*
X116080545Y-94530593D01*
X116044581Y-94481093D01*
X116044581Y-94419907D01*
X116080545Y-94370407D01*
X116118807Y-94342608D01*
X116147219Y-94321966D01*
X116291966Y-94177219D01*
X116376439Y-94060951D01*
X128462914Y-94060951D01*
X128462915Y-94060951D01*
X129384818Y-94060951D01*
X129384819Y-94060951D01*
X129384819Y-93139047D01*
X128462914Y-93139047D01*
X128462914Y-94060951D01*
X116376439Y-94060951D01*
X116412287Y-94011610D01*
X116505220Y-93829219D01*
X116568477Y-93634534D01*
X116573947Y-93600000D01*
X116600500Y-93432355D01*
X116600500Y-93227644D01*
X116568478Y-93025470D01*
X116554227Y-92981609D01*
X116505220Y-92830781D01*
X116412287Y-92648390D01*
X116412285Y-92648386D01*
X116291970Y-92482786D01*
X116291968Y-92482784D01*
X116291966Y-92482781D01*
X116147219Y-92338034D01*
X116147215Y-92338031D01*
X116147213Y-92338029D01*
X115981613Y-92217714D01*
X115981609Y-92217712D01*
X115799219Y-92124780D01*
X115604529Y-92061521D01*
X115402355Y-92029500D01*
X115402352Y-92029500D01*
X115197648Y-92029500D01*
X115197645Y-92029500D01*
X114995470Y-92061521D01*
X114800780Y-92124780D01*
X114618390Y-92217712D01*
X114618386Y-92217714D01*
X114452786Y-92338029D01*
X114308029Y-92482786D01*
X114187714Y-92648386D01*
X114187712Y-92648390D01*
X114094780Y-92830780D01*
X114031521Y-93025470D01*
X113999500Y-93227644D01*
X113999500Y-93432355D01*
X114031521Y-93634529D01*
X114094780Y-93829219D01*
X114187712Y-94011609D01*
X114187714Y-94011613D01*
X114308029Y-94177213D01*
X114308031Y-94177215D01*
X114308034Y-94177219D01*
X114452781Y-94321966D01*
X114464423Y-94330424D01*
X114519455Y-94370407D01*
X114555419Y-94419907D01*
X114555419Y-94481093D01*
X114519455Y-94530593D01*
X114461264Y-94549500D01*
X113555564Y-94549500D01*
X113544479Y-94548877D01*
X113438805Y-94536970D01*
X113417192Y-94532037D01*
X113322111Y-94498766D01*
X113302138Y-94489148D01*
X113216838Y-94435551D01*
X113199505Y-94421729D01*
X113128270Y-94350494D01*
X113114448Y-94333161D01*
X113060851Y-94247861D01*
X113051233Y-94227888D01*
X113017961Y-94132804D01*
X113013028Y-94111193D01*
X113012994Y-94110894D01*
X113001122Y-94005520D01*
X113000500Y-93994436D01*
X113000500Y-93927701D01*
X113000482Y-93927435D01*
X112997004Y-79421322D01*
X113015897Y-79363129D01*
X113065389Y-79327154D01*
X113126574Y-79327139D01*
X113155329Y-79342044D01*
X113157669Y-79343796D01*
X113157670Y-79343796D01*
X113157671Y-79343797D01*
X113292511Y-79394089D01*
X113292512Y-79394089D01*
X113292517Y-79394091D01*
X113352127Y-79400500D01*
X115147872Y-79400499D01*
X115207483Y-79394091D01*
X115274907Y-79368943D01*
X115342329Y-79343797D01*
X115342329Y-79343796D01*
X115342331Y-79343796D01*
X115457546Y-79257546D01*
X115543796Y-79142331D01*
X115594091Y-79007483D01*
X115600500Y-78947873D01*
X115600499Y-77152128D01*
X115594091Y-77092517D01*
X115594089Y-77092511D01*
X115543797Y-76957670D01*
X115457549Y-76842458D01*
X115457548Y-76842457D01*
X115457546Y-76842454D01*
X115457541Y-76842450D01*
X115342329Y-76756202D01*
X115207488Y-76705910D01*
X115207483Y-76705909D01*
X115207481Y-76705908D01*
X115207477Y-76705908D01*
X115176249Y-76702550D01*
X115147873Y-76699500D01*
X115147870Y-76699500D01*
X115112972Y-76699500D01*
X115054781Y-76680593D01*
X115022212Y-76635766D01*
X114379409Y-75992962D01*
X114442993Y-75975925D01*
X114557007Y-75910099D01*
X114650099Y-75817007D01*
X114715925Y-75702993D01*
X114732962Y-75639408D01*
X115365270Y-76271716D01*
X115404620Y-76217556D01*
X115501095Y-76028215D01*
X115566759Y-75826121D01*
X115600000Y-75616250D01*
X115600000Y-75403749D01*
X115566759Y-75193878D01*
X115501095Y-74991784D01*
X115404623Y-74802446D01*
X115404619Y-74802440D01*
X115365270Y-74748282D01*
X115365269Y-74748282D01*
X114732962Y-75380589D01*
X114715925Y-75317007D01*
X114650099Y-75202993D01*
X114557007Y-75109901D01*
X114442993Y-75044075D01*
X114379407Y-75027037D01*
X115011716Y-74394729D01*
X115011716Y-74394728D01*
X114957559Y-74355380D01*
X114957543Y-74355370D01*
X114904786Y-74328489D01*
X114861521Y-74285225D01*
X114851950Y-74224793D01*
X114879728Y-74170276D01*
X114904784Y-74152071D01*
X114957816Y-74125051D01*
X115129792Y-74000104D01*
X115280104Y-73849792D01*
X115368351Y-73728329D01*
X115405049Y-73677819D01*
X115405051Y-73677816D01*
X115501557Y-73488412D01*
X115567246Y-73286243D01*
X115600500Y-73076287D01*
X115600500Y-72863713D01*
X115600500Y-72863709D01*
X115567247Y-72653761D01*
X115566115Y-72650277D01*
X115566114Y-72589091D01*
X115590263Y-72549681D01*
X117455277Y-70684669D01*
X117508016Y-70605737D01*
X117556066Y-70567858D01*
X117617204Y-70565456D01*
X117668078Y-70599448D01*
X117683090Y-70626143D01*
X117721202Y-70728329D01*
X117722662Y-70730279D01*
X117807454Y-70843546D01*
X117807457Y-70843548D01*
X117812405Y-70848496D01*
X117840182Y-70903013D01*
X117830611Y-70963445D01*
X117812405Y-70988504D01*
X117807450Y-70993458D01*
X117721202Y-71108670D01*
X117670910Y-71243511D01*
X117670908Y-71243522D01*
X117664500Y-71303129D01*
X117664500Y-72033866D01*
X117664501Y-72033870D01*
X117670908Y-72093480D01*
X117670909Y-72093485D01*
X117721202Y-72228329D01*
X117798129Y-72331090D01*
X117807454Y-72343546D01*
X117807457Y-72343548D01*
X117812405Y-72348496D01*
X117840182Y-72403013D01*
X117830611Y-72463445D01*
X117812405Y-72488504D01*
X117807450Y-72493458D01*
X117721202Y-72608670D01*
X117670910Y-72743511D01*
X117670908Y-72743522D01*
X117664500Y-72803129D01*
X117664500Y-73533866D01*
X117664501Y-73533870D01*
X117670908Y-73593480D01*
X117670909Y-73593485D01*
X117721202Y-73728329D01*
X117807450Y-73843541D01*
X117807454Y-73843546D01*
X117807457Y-73843548D01*
X117812405Y-73848496D01*
X117840182Y-73903013D01*
X117830611Y-73963445D01*
X117812405Y-73988504D01*
X117807450Y-73993458D01*
X117721202Y-74108670D01*
X117670910Y-74243511D01*
X117670908Y-74243522D01*
X117664500Y-74303129D01*
X117664500Y-75033866D01*
X117664501Y-75033870D01*
X117670908Y-75093480D01*
X117670909Y-75093485D01*
X117721202Y-75228329D01*
X117747321Y-75263219D01*
X117807454Y-75343546D01*
X117807457Y-75343548D01*
X117812405Y-75348496D01*
X117840182Y-75403013D01*
X117830611Y-75463445D01*
X117812405Y-75488504D01*
X117807450Y-75493458D01*
X117721202Y-75608670D01*
X117670910Y-75743511D01*
X117670908Y-75743522D01*
X117664500Y-75803129D01*
X117664500Y-76533866D01*
X117664501Y-76533870D01*
X117670908Y-76593480D01*
X117670909Y-76593485D01*
X117721202Y-76728329D01*
X117807450Y-76843541D01*
X117807454Y-76843546D01*
X117807457Y-76843548D01*
X117812405Y-76848496D01*
X117840182Y-76903013D01*
X117830611Y-76963445D01*
X117812405Y-76988504D01*
X117807450Y-76993458D01*
X117721202Y-77108670D01*
X117670910Y-77243511D01*
X117670908Y-77243522D01*
X117664500Y-77303129D01*
X117664500Y-77525545D01*
X117645593Y-77583736D01*
X117635504Y-77595549D01*
X114794720Y-80436334D01*
X114723534Y-80542873D01*
X114674500Y-80661252D01*
X114674499Y-80661257D01*
X114649500Y-80786930D01*
X114649500Y-81984667D01*
X114630593Y-82042858D01*
X114608690Y-82064760D01*
X114452786Y-82178029D01*
X114308029Y-82322786D01*
X114187714Y-82488386D01*
X114187712Y-82488390D01*
X114094780Y-82670780D01*
X114031521Y-82865470D01*
X113999500Y-83067644D01*
X113999500Y-83272355D01*
X114031521Y-83474529D01*
X114094780Y-83669219D01*
X114187712Y-83851609D01*
X114187714Y-83851613D01*
X114308029Y-84017213D01*
X114308031Y-84017215D01*
X114308034Y-84017219D01*
X114452781Y-84161966D01*
X114452784Y-84161968D01*
X114452786Y-84161970D01*
X114512296Y-84205206D01*
X114608690Y-84275240D01*
X114644654Y-84324739D01*
X114649500Y-84355332D01*
X114649500Y-86473380D01*
X114630593Y-86531571D01*
X114581093Y-86567535D01*
X114550500Y-86572380D01*
X114530057Y-86572380D01*
X113273445Y-86572380D01*
X113273445Y-90779999D01*
X113273446Y-90779999D01*
X114530056Y-90779999D01*
X114530057Y-90779999D01*
X114530057Y-87838736D01*
X114548964Y-87780545D01*
X114598464Y-87744581D01*
X114659650Y-87744581D01*
X114709150Y-87780545D01*
X114720520Y-87800849D01*
X114723535Y-87808127D01*
X114794723Y-87914669D01*
X116860052Y-89979998D01*
X118801870Y-91921816D01*
X118829647Y-91976333D01*
X118829647Y-92007307D01*
X118799500Y-92197644D01*
X118799500Y-92402355D01*
X118831521Y-92604529D01*
X118894780Y-92799219D01*
X118987712Y-92981609D01*
X118987714Y-92981613D01*
X119108029Y-93147213D01*
X119108031Y-93147215D01*
X119108034Y-93147219D01*
X119252781Y-93291966D01*
X119252784Y-93291968D01*
X119252786Y-93291970D01*
X119418386Y-93412285D01*
X119418390Y-93412287D01*
X119600781Y-93505220D01*
X119795466Y-93568477D01*
X119795467Y-93568477D01*
X119795470Y-93568478D01*
X119997645Y-93600500D01*
X119997648Y-93600500D01*
X120202355Y-93600500D01*
X120404529Y-93568478D01*
X120404530Y-93568477D01*
X120404534Y-93568477D01*
X120599219Y-93505220D01*
X120781610Y-93412287D01*
X120782201Y-93411858D01*
X120836813Y-93372180D01*
X120947219Y-93291966D01*
X121091966Y-93147219D01*
X121212287Y-92981610D01*
X121305220Y-92799219D01*
X121368477Y-92604534D01*
X121368478Y-92604529D01*
X121400500Y-92402355D01*
X121400500Y-92197684D01*
X123800000Y-92197684D01*
X123800000Y-92402315D01*
X123832008Y-92604412D01*
X123895243Y-92799027D01*
X123988139Y-92981348D01*
X123988143Y-92981353D01*
X124020523Y-93025920D01*
X124020524Y-93025920D01*
X124700000Y-92346444D01*
X124700000Y-92352661D01*
X124727259Y-92454394D01*
X124779920Y-92545606D01*
X124854394Y-92620080D01*
X124945606Y-92672741D01*
X125047339Y-92700000D01*
X125053553Y-92700000D01*
X124374078Y-93379475D01*
X124418647Y-93411858D01*
X124600972Y-93504756D01*
X124795587Y-93567991D01*
X124997685Y-93600000D01*
X125202315Y-93600000D01*
X125404412Y-93567991D01*
X125599027Y-93504756D01*
X125781342Y-93411863D01*
X125781350Y-93411858D01*
X125825920Y-93379475D01*
X125146445Y-92700000D01*
X125152661Y-92700000D01*
X125254394Y-92672741D01*
X125345606Y-92620080D01*
X125420080Y-92545606D01*
X125472741Y-92454394D01*
X125500000Y-92352661D01*
X125500000Y-92346445D01*
X126179475Y-93025920D01*
X126211858Y-92981350D01*
X126211863Y-92981342D01*
X126304756Y-92799027D01*
X126367991Y-92604412D01*
X126386565Y-92487142D01*
X127953445Y-92487142D01*
X127953446Y-92487142D01*
X129210056Y-92487142D01*
X129210057Y-92487142D01*
X129210057Y-91090013D01*
X129800000Y-91090013D01*
X129800000Y-91839999D01*
X129800001Y-91840000D01*
X130951518Y-91840000D01*
X130940889Y-91858409D01*
X130900000Y-92011009D01*
X130900000Y-92168991D01*
X130940889Y-92321591D01*
X130951518Y-92340000D01*
X129800001Y-92340000D01*
X129800000Y-92340001D01*
X129800000Y-93089986D01*
X129810493Y-93192692D01*
X129865643Y-93359123D01*
X129957680Y-93508339D01*
X130081660Y-93632319D01*
X130230876Y-93724356D01*
X130397307Y-93779506D01*
X130500014Y-93790000D01*
X131249999Y-93790000D01*
X131250000Y-93789999D01*
X131250000Y-92638482D01*
X131268409Y-92649111D01*
X131421009Y-92690000D01*
X131578991Y-92690000D01*
X131731591Y-92649111D01*
X131750000Y-92638482D01*
X131750000Y-93789999D01*
X131750001Y-93790000D01*
X132499986Y-93790000D01*
X132602692Y-93779506D01*
X132769123Y-93724356D01*
X132918339Y-93632319D01*
X133042319Y-93508339D01*
X133134356Y-93359123D01*
X133189506Y-93192692D01*
X133200000Y-93089986D01*
X133200000Y-92877644D01*
X134849500Y-92877644D01*
X134849500Y-93082355D01*
X134881521Y-93284529D01*
X134944780Y-93479219D01*
X135037712Y-93661609D01*
X135037714Y-93661613D01*
X135158029Y-93827213D01*
X135158031Y-93827215D01*
X135158034Y-93827219D01*
X135302781Y-93971966D01*
X135302784Y-93971968D01*
X135302786Y-93971970D01*
X135468386Y-94092285D01*
X135468390Y-94092287D01*
X135650781Y-94185220D01*
X135845466Y-94248477D01*
X135845467Y-94248477D01*
X135845470Y-94248478D01*
X136047645Y-94280500D01*
X136047648Y-94280500D01*
X136252355Y-94280500D01*
X136454529Y-94248478D01*
X136454530Y-94248477D01*
X136454534Y-94248477D01*
X136649219Y-94185220D01*
X136831610Y-94092287D01*
X136997219Y-93971966D01*
X137141966Y-93827219D01*
X137262287Y-93661610D01*
X137355220Y-93479219D01*
X137418477Y-93284534D01*
X137441520Y-93139048D01*
X137450500Y-93082355D01*
X137450500Y-92877644D01*
X137418478Y-92675470D01*
X137418477Y-92675466D01*
X137355220Y-92480781D01*
X137262287Y-92298390D01*
X137262285Y-92298386D01*
X137141970Y-92132786D01*
X137141968Y-92132784D01*
X137141966Y-92132781D01*
X136997219Y-91988034D01*
X136997215Y-91988031D01*
X136997213Y-91988029D01*
X136831613Y-91867714D01*
X136831609Y-91867712D01*
X136649219Y-91774780D01*
X136454529Y-91711521D01*
X136252355Y-91679500D01*
X136252352Y-91679500D01*
X136047648Y-91679500D01*
X136047645Y-91679500D01*
X135845470Y-91711521D01*
X135650780Y-91774780D01*
X135468390Y-91867712D01*
X135468386Y-91867714D01*
X135302786Y-91988029D01*
X135158029Y-92132786D01*
X135037714Y-92298386D01*
X135037712Y-92298390D01*
X134944780Y-92480780D01*
X134881521Y-92675470D01*
X134849500Y-92877644D01*
X133200000Y-92877644D01*
X133200000Y-92340001D01*
X133199999Y-92340000D01*
X132048482Y-92340000D01*
X132059111Y-92321591D01*
X132100000Y-92168991D01*
X132100000Y-92011009D01*
X132059111Y-91858409D01*
X132048482Y-91840000D01*
X133199999Y-91840000D01*
X133200000Y-91839999D01*
X133200000Y-91090013D01*
X133189506Y-90987307D01*
X133134356Y-90820876D01*
X133042319Y-90671660D01*
X132918339Y-90547680D01*
X132769123Y-90455643D01*
X132602692Y-90400493D01*
X132499986Y-90390000D01*
X131750001Y-90390000D01*
X131750000Y-90390001D01*
X131750000Y-91541517D01*
X131731591Y-91530889D01*
X131578991Y-91490000D01*
X131421009Y-91490000D01*
X131268409Y-91530889D01*
X131250000Y-91541517D01*
X131250000Y-90390001D01*
X131249999Y-90390000D01*
X130500014Y-90390000D01*
X130397307Y-90400493D01*
X130230876Y-90455643D01*
X130081660Y-90547680D01*
X129957680Y-90671660D01*
X129865643Y-90820876D01*
X129810493Y-90987307D01*
X129800000Y-91090013D01*
X129210057Y-91090013D01*
X129210057Y-89979999D01*
X135573963Y-89979999D01*
X135573964Y-89979999D01*
X136830056Y-89979999D01*
X136830057Y-89979999D01*
X136830057Y-85771524D01*
X135573963Y-85771524D01*
X135573963Y-89979999D01*
X129210057Y-89979999D01*
X129210057Y-86898542D01*
X129799500Y-86898542D01*
X129799500Y-87121457D01*
X129828595Y-87342455D01*
X129828595Y-87342460D01*
X129886290Y-87557782D01*
X129971592Y-87763722D01*
X129971595Y-87763727D01*
X130068372Y-87931348D01*
X130083052Y-87956774D01*
X130218753Y-88133624D01*
X130376376Y-88291247D01*
X130553226Y-88426948D01*
X130553228Y-88426949D01*
X130746272Y-88538404D01*
X130746277Y-88538407D01*
X130914179Y-88607953D01*
X130952219Y-88623710D01*
X131167537Y-88681404D01*
X131388543Y-88710500D01*
X131388544Y-88710500D01*
X131611456Y-88710500D01*
X131611457Y-88710500D01*
X131832463Y-88681404D01*
X132047781Y-88623710D01*
X132177647Y-88569917D01*
X132253722Y-88538407D01*
X132253723Y-88538405D01*
X132253726Y-88538405D01*
X132446774Y-88426948D01*
X132623624Y-88291247D01*
X132781247Y-88133624D01*
X132916948Y-87956774D01*
X133028405Y-87763726D01*
X133113710Y-87557781D01*
X133171404Y-87342463D01*
X133200500Y-87121457D01*
X133200500Y-86898543D01*
X133171404Y-86677537D01*
X133113710Y-86462219D01*
X133089090Y-86402781D01*
X133028407Y-86256277D01*
X133028404Y-86256272D01*
X132916949Y-86063228D01*
X132916948Y-86063226D01*
X132781247Y-85886376D01*
X132623624Y-85728753D01*
X132446774Y-85593052D01*
X132446771Y-85593050D01*
X132253727Y-85481595D01*
X132253722Y-85481592D01*
X132047782Y-85396290D01*
X131952839Y-85370850D01*
X131832463Y-85338596D01*
X131832460Y-85338595D01*
X131832458Y-85338595D01*
X131611457Y-85309500D01*
X131388543Y-85309500D01*
X131388542Y-85309500D01*
X131167544Y-85338595D01*
X131167539Y-85338595D01*
X130952217Y-85396290D01*
X130746277Y-85481592D01*
X130746272Y-85481595D01*
X130553228Y-85593050D01*
X130376379Y-85728750D01*
X130218750Y-85886379D01*
X130083050Y-86063228D01*
X129971595Y-86256272D01*
X129971592Y-86256277D01*
X129886290Y-86462217D01*
X129828595Y-86677539D01*
X129828595Y-86677544D01*
X129799500Y-86898542D01*
X129210057Y-86898542D01*
X129210057Y-86565237D01*
X127953445Y-86565237D01*
X127953445Y-92487142D01*
X126386565Y-92487142D01*
X126400000Y-92402315D01*
X126400000Y-92197684D01*
X126367991Y-91995587D01*
X126304756Y-91800972D01*
X126211858Y-91618647D01*
X126179475Y-91574078D01*
X125500000Y-92253553D01*
X125500000Y-92247339D01*
X125472741Y-92145606D01*
X125420080Y-92054394D01*
X125345606Y-91979920D01*
X125254394Y-91927259D01*
X125152661Y-91900000D01*
X125146445Y-91900000D01*
X125825920Y-91220524D01*
X125825920Y-91220523D01*
X125781353Y-91188143D01*
X125781348Y-91188139D01*
X125599027Y-91095243D01*
X125404412Y-91032008D01*
X125202315Y-91000000D01*
X124997685Y-91000000D01*
X124795587Y-91032008D01*
X124600972Y-91095243D01*
X124418651Y-91188139D01*
X124418647Y-91188141D01*
X124374078Y-91220523D01*
X125053555Y-91900000D01*
X125047339Y-91900000D01*
X124945606Y-91927259D01*
X124854394Y-91979920D01*
X124779920Y-92054394D01*
X124727259Y-92145606D01*
X124700000Y-92247339D01*
X124700000Y-92253555D01*
X124020523Y-91574078D01*
X123988141Y-91618647D01*
X123988139Y-91618651D01*
X123895243Y-91800972D01*
X123832008Y-91995587D01*
X123800000Y-92197684D01*
X121400500Y-92197684D01*
X121400500Y-92197644D01*
X121368478Y-91995470D01*
X121366062Y-91988034D01*
X121305220Y-91800781D01*
X121212287Y-91618390D01*
X121212285Y-91618386D01*
X121091970Y-91452786D01*
X121091968Y-91452784D01*
X121091966Y-91452781D01*
X120947219Y-91308034D01*
X120947215Y-91308031D01*
X120947213Y-91308029D01*
X120781613Y-91187714D01*
X120781609Y-91187712D01*
X120599219Y-91094780D01*
X120404529Y-91031521D01*
X120202355Y-90999500D01*
X120202352Y-90999500D01*
X119997648Y-90999500D01*
X119997645Y-90999500D01*
X119807307Y-91029647D01*
X119746875Y-91020076D01*
X119721816Y-91001870D01*
X119200003Y-90480057D01*
X120620000Y-90480057D01*
X120620001Y-90480057D01*
X124828474Y-90480057D01*
X124828475Y-90480057D01*
X124828475Y-89223963D01*
X120620000Y-89223963D01*
X120620000Y-90480057D01*
X119200003Y-90480057D01*
X115979496Y-87259550D01*
X115951719Y-87205033D01*
X115950500Y-87189546D01*
X115950500Y-84355332D01*
X115969407Y-84297141D01*
X115991307Y-84275241D01*
X116147219Y-84161966D01*
X116291966Y-84017219D01*
X116320407Y-83978072D01*
X116369906Y-83942109D01*
X116431092Y-83942108D01*
X116480592Y-83978071D01*
X116499500Y-84036262D01*
X116499500Y-84314069D01*
X116524246Y-84438471D01*
X116524498Y-84439739D01*
X116524501Y-84439750D01*
X116573533Y-84558124D01*
X116573534Y-84558126D01*
X116573535Y-84558127D01*
X116644723Y-84664669D01*
X117751578Y-85771524D01*
X118851870Y-86871816D01*
X118879647Y-86926333D01*
X118879647Y-86957307D01*
X118849500Y-87147644D01*
X118849500Y-87352355D01*
X118881521Y-87554529D01*
X118944780Y-87749219D01*
X119037712Y-87931609D01*
X119037714Y-87931613D01*
X119158029Y-88097213D01*
X119158031Y-88097215D01*
X119158034Y-88097219D01*
X119302781Y-88241966D01*
X119302784Y-88241968D01*
X119302786Y-88241970D01*
X119468386Y-88362285D01*
X119468390Y-88362287D01*
X119650781Y-88455220D01*
X119845466Y-88518477D01*
X119845467Y-88518477D01*
X119845470Y-88518478D01*
X120047645Y-88550500D01*
X120047648Y-88550500D01*
X120252355Y-88550500D01*
X120454529Y-88518478D01*
X120454530Y-88518477D01*
X120454534Y-88518477D01*
X120649219Y-88455220D01*
X120831610Y-88362287D01*
X120832201Y-88361858D01*
X120997213Y-88241970D01*
X120997219Y-88241966D01*
X121141966Y-88097219D01*
X121230094Y-87975920D01*
X121262285Y-87931613D01*
X121262287Y-87931610D01*
X121355220Y-87749219D01*
X121418477Y-87554534D01*
X121418478Y-87554529D01*
X121450500Y-87352355D01*
X121450500Y-87147684D01*
X123850000Y-87147684D01*
X123850000Y-87352315D01*
X123882008Y-87554412D01*
X123945243Y-87749027D01*
X124038139Y-87931348D01*
X124038143Y-87931353D01*
X124070523Y-87975920D01*
X124070524Y-87975920D01*
X124750000Y-87296444D01*
X124750000Y-87302661D01*
X124777259Y-87404394D01*
X124829920Y-87495606D01*
X124904394Y-87570080D01*
X124995606Y-87622741D01*
X125097339Y-87650000D01*
X125103553Y-87650000D01*
X124424078Y-88329475D01*
X124468647Y-88361858D01*
X124650972Y-88454756D01*
X124845587Y-88517991D01*
X125047685Y-88550000D01*
X125252315Y-88550000D01*
X125454412Y-88517991D01*
X125649027Y-88454756D01*
X125831342Y-88361863D01*
X125831350Y-88361858D01*
X125875920Y-88329475D01*
X125196445Y-87650000D01*
X125202661Y-87650000D01*
X125304394Y-87622741D01*
X125395606Y-87570080D01*
X125470080Y-87495606D01*
X125522741Y-87404394D01*
X125550000Y-87302661D01*
X125550000Y-87296445D01*
X126229475Y-87975920D01*
X126261858Y-87931350D01*
X126261863Y-87931342D01*
X126354756Y-87749027D01*
X126417991Y-87554412D01*
X126450000Y-87352315D01*
X126450000Y-87147684D01*
X126417991Y-86945587D01*
X126354756Y-86750972D01*
X126262127Y-86569175D01*
X126261858Y-86568647D01*
X126229475Y-86524078D01*
X125550000Y-87203553D01*
X125550000Y-87197339D01*
X125522741Y-87095606D01*
X125470080Y-87004394D01*
X125395606Y-86929920D01*
X125304394Y-86877259D01*
X125202661Y-86850000D01*
X125196445Y-86850000D01*
X125875920Y-86170524D01*
X125875920Y-86170523D01*
X125831353Y-86138143D01*
X125831348Y-86138139D01*
X125649027Y-86045243D01*
X125454412Y-85982008D01*
X125252315Y-85950000D01*
X125047685Y-85950000D01*
X124845587Y-85982008D01*
X124650972Y-86045243D01*
X124468651Y-86138139D01*
X124468647Y-86138141D01*
X124424078Y-86170523D01*
X125103555Y-86850000D01*
X125097339Y-86850000D01*
X124995606Y-86877259D01*
X124904394Y-86929920D01*
X124829920Y-87004394D01*
X124777259Y-87095606D01*
X124750000Y-87197339D01*
X124750000Y-87203555D01*
X124070523Y-86524078D01*
X124038141Y-86568647D01*
X124038139Y-86568651D01*
X123945243Y-86750972D01*
X123882008Y-86945587D01*
X123850000Y-87147684D01*
X121450500Y-87147684D01*
X121450500Y-87147644D01*
X121418478Y-86945470D01*
X121418477Y-86945466D01*
X121355220Y-86750781D01*
X121262287Y-86568390D01*
X121262285Y-86568386D01*
X121141970Y-86402786D01*
X121141968Y-86402784D01*
X121141966Y-86402781D01*
X120997219Y-86258034D01*
X120997215Y-86258031D01*
X120997213Y-86258029D01*
X120831613Y-86137714D01*
X120831609Y-86137712D01*
X120649219Y-86044780D01*
X120454529Y-85981521D01*
X120252355Y-85949500D01*
X120252352Y-85949500D01*
X120047648Y-85949500D01*
X120047645Y-85949500D01*
X119857307Y-85979647D01*
X119796875Y-85970076D01*
X119771816Y-85951870D01*
X119200003Y-85380057D01*
X120570000Y-85380057D01*
X120570001Y-85380057D01*
X124777618Y-85380057D01*
X124777619Y-85380057D01*
X124777619Y-84123444D01*
X120570000Y-84123444D01*
X120570000Y-85380057D01*
X119200003Y-85380057D01*
X117829496Y-84009550D01*
X117801719Y-83955033D01*
X117800500Y-83939546D01*
X117800500Y-83341324D01*
X119597499Y-83341324D01*
X119603901Y-83400870D01*
X119603903Y-83400881D01*
X119654146Y-83535588D01*
X119654147Y-83535590D01*
X119740307Y-83650684D01*
X119740315Y-83650692D01*
X119855409Y-83736852D01*
X119855411Y-83736853D01*
X119990118Y-83787096D01*
X119990129Y-83787098D01*
X120049676Y-83793500D01*
X120164999Y-83793500D01*
X120165000Y-83793499D01*
X120165000Y-82793501D01*
X120164999Y-82793500D01*
X119597501Y-82793500D01*
X119597500Y-82793501D01*
X119597500Y-83341324D01*
X119597499Y-83341324D01*
X117800500Y-83341324D01*
X117800500Y-81526283D01*
X117819407Y-81468092D01*
X117868907Y-81432128D01*
X117930093Y-81432128D01*
X117934097Y-81433525D01*
X118057621Y-81479596D01*
X118057629Y-81479598D01*
X118117176Y-81486000D01*
X118664999Y-81486000D01*
X118665000Y-81485999D01*
X118665000Y-80918501D01*
X119165000Y-80918501D01*
X119165000Y-81485999D01*
X119165001Y-81486000D01*
X119535957Y-81486000D01*
X119594148Y-81504907D01*
X119630112Y-81554407D01*
X119630112Y-81615593D01*
X119628715Y-81619596D01*
X119603903Y-81686118D01*
X119603901Y-81686129D01*
X119597500Y-81745675D01*
X119597500Y-82293499D01*
X119597501Y-82293500D01*
X120164999Y-82293500D01*
X120165000Y-82293499D01*
X120165000Y-81293501D01*
X120665000Y-81293501D01*
X120665000Y-83793499D01*
X120665001Y-83793500D01*
X120780324Y-83793500D01*
X120839870Y-83787098D01*
X120839881Y-83787096D01*
X120974588Y-83736853D01*
X120974590Y-83736852D01*
X121089684Y-83650692D01*
X121094682Y-83645695D01*
X121149199Y-83617918D01*
X121209631Y-83627489D01*
X121233458Y-83647528D01*
X121234948Y-83646039D01*
X121239951Y-83651042D01*
X121239954Y-83651046D01*
X121239957Y-83651048D01*
X121239958Y-83651049D01*
X121355170Y-83737297D01*
X121490011Y-83787589D01*
X121490012Y-83787589D01*
X121490017Y-83787591D01*
X121549627Y-83794000D01*
X122280372Y-83793999D01*
X122339983Y-83787591D01*
X122407407Y-83762443D01*
X122474829Y-83737297D01*
X122474829Y-83737296D01*
X122474831Y-83737296D01*
X122590046Y-83651046D01*
X122590051Y-83651038D01*
X122594996Y-83646095D01*
X122649513Y-83618318D01*
X122709945Y-83627889D01*
X122735004Y-83646095D01*
X122739951Y-83651042D01*
X122739954Y-83651046D01*
X122739957Y-83651048D01*
X122739958Y-83651049D01*
X122855170Y-83737297D01*
X122990011Y-83787589D01*
X122990012Y-83787589D01*
X122990017Y-83787591D01*
X123049627Y-83794000D01*
X123780372Y-83793999D01*
X123839983Y-83787591D01*
X123907407Y-83762443D01*
X123974829Y-83737297D01*
X123974829Y-83737296D01*
X123974831Y-83737296D01*
X124090046Y-83651046D01*
X124090051Y-83651038D01*
X124094996Y-83646095D01*
X124149513Y-83618318D01*
X124209945Y-83627889D01*
X124235004Y-83646095D01*
X124239951Y-83651042D01*
X124239954Y-83651046D01*
X124239957Y-83651048D01*
X124239958Y-83651049D01*
X124355170Y-83737297D01*
X124490011Y-83787589D01*
X124490012Y-83787589D01*
X124490017Y-83787591D01*
X124549627Y-83794000D01*
X125280372Y-83793999D01*
X125339983Y-83787591D01*
X125407407Y-83762443D01*
X125474829Y-83737297D01*
X125474829Y-83737296D01*
X125474831Y-83737296D01*
X125590046Y-83651046D01*
X125590051Y-83651038D01*
X125594996Y-83646095D01*
X125649513Y-83618318D01*
X125709945Y-83627889D01*
X125735004Y-83646095D01*
X125739951Y-83651042D01*
X125739954Y-83651046D01*
X125739957Y-83651048D01*
X125739958Y-83651049D01*
X125855170Y-83737297D01*
X125990011Y-83787589D01*
X125990012Y-83787589D01*
X125990017Y-83787591D01*
X126049627Y-83794000D01*
X126780372Y-83793999D01*
X126839983Y-83787591D01*
X126907407Y-83762443D01*
X126974829Y-83737297D01*
X126974829Y-83737296D01*
X126974831Y-83737296D01*
X127090046Y-83651046D01*
X127090051Y-83651038D01*
X127094996Y-83646095D01*
X127149513Y-83618318D01*
X127209945Y-83627889D01*
X127235004Y-83646095D01*
X127239951Y-83651042D01*
X127239954Y-83651046D01*
X127239957Y-83651048D01*
X127239958Y-83651049D01*
X127355170Y-83737297D01*
X127490011Y-83787589D01*
X127490012Y-83787589D01*
X127490017Y-83787591D01*
X127549627Y-83794000D01*
X128280372Y-83793999D01*
X128339983Y-83787591D01*
X128407407Y-83762443D01*
X128474829Y-83737297D01*
X128474829Y-83737296D01*
X128474831Y-83737296D01*
X128590046Y-83651046D01*
X128590051Y-83651038D01*
X128594996Y-83646095D01*
X128649513Y-83618318D01*
X128709945Y-83627889D01*
X128735004Y-83646095D01*
X128739951Y-83651042D01*
X128739954Y-83651046D01*
X128739957Y-83651048D01*
X128739958Y-83651049D01*
X128855170Y-83737297D01*
X128990011Y-83787589D01*
X128990012Y-83787589D01*
X128990017Y-83787591D01*
X129049627Y-83794000D01*
X129780372Y-83793999D01*
X129839983Y-83787591D01*
X129907407Y-83762443D01*
X129974829Y-83737297D01*
X129974829Y-83737296D01*
X129974831Y-83737296D01*
X130090046Y-83651046D01*
X130090051Y-83651038D01*
X130095052Y-83646039D01*
X130097420Y-83648407D01*
X130135846Y-83621185D01*
X130197027Y-83621915D01*
X130235317Y-83645694D01*
X130240315Y-83650692D01*
X130355409Y-83736852D01*
X130355411Y-83736853D01*
X130490118Y-83787096D01*
X130490129Y-83787098D01*
X130549676Y-83793500D01*
X130664999Y-83793500D01*
X130665000Y-83793499D01*
X130665000Y-82793501D01*
X131165000Y-82793501D01*
X131165000Y-83793499D01*
X131165001Y-83793500D01*
X131280324Y-83793500D01*
X131339870Y-83787098D01*
X131339881Y-83787096D01*
X131474588Y-83736853D01*
X131474590Y-83736852D01*
X131589684Y-83650692D01*
X131589692Y-83650684D01*
X131675852Y-83535590D01*
X131675853Y-83535588D01*
X131726096Y-83400881D01*
X131726098Y-83400870D01*
X131732500Y-83341324D01*
X131732500Y-82793501D01*
X131732499Y-82793500D01*
X131165001Y-82793500D01*
X131165000Y-82793501D01*
X130665000Y-82793501D01*
X130665000Y-82717644D01*
X134849500Y-82717644D01*
X134849500Y-82922355D01*
X134881521Y-83124529D01*
X134944780Y-83319219D01*
X135037712Y-83501609D01*
X135037714Y-83501613D01*
X135158029Y-83667213D01*
X135158031Y-83667215D01*
X135158034Y-83667219D01*
X135302781Y-83811966D01*
X135302784Y-83811968D01*
X135302786Y-83811970D01*
X135468386Y-83932285D01*
X135468390Y-83932287D01*
X135650781Y-84025220D01*
X135845466Y-84088477D01*
X135845467Y-84088477D01*
X135845470Y-84088478D01*
X136047645Y-84120500D01*
X136047648Y-84120500D01*
X136252355Y-84120500D01*
X136454529Y-84088478D01*
X136454530Y-84088477D01*
X136454534Y-84088477D01*
X136649219Y-84025220D01*
X136831610Y-83932287D01*
X136997219Y-83811966D01*
X137141966Y-83667219D01*
X137262287Y-83501610D01*
X137355220Y-83319219D01*
X137418477Y-83124534D01*
X137450500Y-82922352D01*
X137450500Y-82717648D01*
X137450500Y-82717644D01*
X137418478Y-82515470D01*
X137409678Y-82488386D01*
X137355220Y-82320781D01*
X137262287Y-82138390D01*
X137262285Y-82138386D01*
X137141970Y-81972786D01*
X137141968Y-81972784D01*
X137141966Y-81972781D01*
X136997219Y-81828034D01*
X136997215Y-81828031D01*
X136997213Y-81828029D01*
X136831613Y-81707714D01*
X136831609Y-81707712D01*
X136649219Y-81614780D01*
X136454529Y-81551521D01*
X136252355Y-81519500D01*
X136252352Y-81519500D01*
X136047648Y-81519500D01*
X136047645Y-81519500D01*
X135845470Y-81551521D01*
X135650780Y-81614780D01*
X135468390Y-81707712D01*
X135468386Y-81707714D01*
X135302786Y-81828029D01*
X135158029Y-81972786D01*
X135037714Y-82138386D01*
X135037712Y-82138390D01*
X134944780Y-82320780D01*
X134881521Y-82515470D01*
X134849500Y-82717644D01*
X130665000Y-82717644D01*
X130665000Y-81293501D01*
X130664999Y-81293500D01*
X130549676Y-81293500D01*
X130490129Y-81299901D01*
X130490118Y-81299903D01*
X130355411Y-81350146D01*
X130355409Y-81350147D01*
X130240309Y-81436312D01*
X130235313Y-81441308D01*
X130180795Y-81469083D01*
X130120364Y-81459508D01*
X130096561Y-81439451D01*
X130095052Y-81440961D01*
X130090048Y-81435957D01*
X130090046Y-81435954D01*
X130090041Y-81435950D01*
X129974829Y-81349702D01*
X129839988Y-81299410D01*
X129839983Y-81299409D01*
X129839981Y-81299408D01*
X129839977Y-81299408D01*
X129808749Y-81296050D01*
X129780373Y-81293000D01*
X129780370Y-81293000D01*
X129049633Y-81293000D01*
X129049629Y-81293000D01*
X129049628Y-81293001D01*
X129044986Y-81293500D01*
X128990019Y-81299408D01*
X128990014Y-81299409D01*
X128855170Y-81349702D01*
X128739958Y-81435950D01*
X128735004Y-81440905D01*
X128680487Y-81468682D01*
X128620055Y-81459111D01*
X128594996Y-81440905D01*
X128590048Y-81435957D01*
X128590046Y-81435954D01*
X128590041Y-81435950D01*
X128474829Y-81349702D01*
X128339988Y-81299410D01*
X128339983Y-81299409D01*
X128339981Y-81299408D01*
X128339977Y-81299408D01*
X128308749Y-81296050D01*
X128280373Y-81293000D01*
X128280370Y-81293000D01*
X127549633Y-81293000D01*
X127549629Y-81293000D01*
X127549628Y-81293001D01*
X127544986Y-81293500D01*
X127490019Y-81299408D01*
X127490014Y-81299409D01*
X127355170Y-81349702D01*
X127239958Y-81435950D01*
X127235004Y-81440905D01*
X127180487Y-81468682D01*
X127120055Y-81459111D01*
X127094996Y-81440905D01*
X127090048Y-81435957D01*
X127090046Y-81435954D01*
X127090041Y-81435950D01*
X126974829Y-81349702D01*
X126839988Y-81299410D01*
X126839983Y-81299409D01*
X126839981Y-81299408D01*
X126839977Y-81299408D01*
X126808749Y-81296050D01*
X126780373Y-81293000D01*
X126780370Y-81293000D01*
X126049633Y-81293000D01*
X126049629Y-81293000D01*
X126049628Y-81293001D01*
X126044986Y-81293500D01*
X125990019Y-81299408D01*
X125990014Y-81299409D01*
X125855170Y-81349702D01*
X125739958Y-81435950D01*
X125735004Y-81440905D01*
X125680487Y-81468682D01*
X125620055Y-81459111D01*
X125594996Y-81440905D01*
X125590048Y-81435957D01*
X125590046Y-81435954D01*
X125590041Y-81435950D01*
X125474829Y-81349702D01*
X125339988Y-81299410D01*
X125339983Y-81299409D01*
X125339981Y-81299408D01*
X125339977Y-81299408D01*
X125308749Y-81296050D01*
X125280373Y-81293000D01*
X125280370Y-81293000D01*
X124549633Y-81293000D01*
X124549629Y-81293000D01*
X124549628Y-81293001D01*
X124544986Y-81293500D01*
X124490019Y-81299408D01*
X124490014Y-81299409D01*
X124355170Y-81349702D01*
X124239958Y-81435950D01*
X124235004Y-81440905D01*
X124180487Y-81468682D01*
X124120055Y-81459111D01*
X124094996Y-81440905D01*
X124090048Y-81435957D01*
X124090046Y-81435954D01*
X124090041Y-81435950D01*
X123974829Y-81349702D01*
X123839988Y-81299410D01*
X123839983Y-81299409D01*
X123839981Y-81299408D01*
X123839977Y-81299408D01*
X123808749Y-81296050D01*
X123780373Y-81293000D01*
X123780370Y-81293000D01*
X123049633Y-81293000D01*
X123049629Y-81293000D01*
X123049628Y-81293001D01*
X123044986Y-81293500D01*
X122990019Y-81299408D01*
X122990014Y-81299409D01*
X122855170Y-81349702D01*
X122739958Y-81435950D01*
X122735004Y-81440905D01*
X122680487Y-81468682D01*
X122620055Y-81459111D01*
X122594996Y-81440905D01*
X122590048Y-81435957D01*
X122590046Y-81435954D01*
X122590041Y-81435950D01*
X122474829Y-81349702D01*
X122339988Y-81299410D01*
X122339983Y-81299409D01*
X122339981Y-81299408D01*
X122339977Y-81299408D01*
X122308749Y-81296050D01*
X122280373Y-81293000D01*
X122280370Y-81293000D01*
X121549633Y-81293000D01*
X121549629Y-81293000D01*
X121549628Y-81293001D01*
X121544986Y-81293500D01*
X121490019Y-81299408D01*
X121490014Y-81299409D01*
X121355170Y-81349702D01*
X121239958Y-81435950D01*
X121234948Y-81440961D01*
X121232616Y-81438629D01*
X121193846Y-81465909D01*
X121132667Y-81464980D01*
X121094682Y-81441305D01*
X121089684Y-81436307D01*
X120974590Y-81350147D01*
X120974588Y-81350146D01*
X120839881Y-81299903D01*
X120839870Y-81299901D01*
X120780324Y-81293500D01*
X120665001Y-81293500D01*
X120665000Y-81293501D01*
X120165000Y-81293501D01*
X120150960Y-81279461D01*
X120123183Y-81224944D01*
X120128206Y-81174860D01*
X120158596Y-81093378D01*
X120158598Y-81093370D01*
X120165000Y-81033824D01*
X131164999Y-81033824D01*
X131171401Y-81093370D01*
X131171403Y-81093381D01*
X131201793Y-81174861D01*
X131204413Y-81235991D01*
X131179039Y-81279460D01*
X131165000Y-81293499D01*
X131165000Y-82293499D01*
X131165001Y-82293500D01*
X131732499Y-82293500D01*
X131732500Y-82293499D01*
X131732500Y-81745675D01*
X131726098Y-81686129D01*
X131726096Y-81686118D01*
X131701285Y-81619596D01*
X131698665Y-81558467D01*
X131732476Y-81507472D01*
X131789804Y-81486091D01*
X131794043Y-81486000D01*
X132164999Y-81486000D01*
X132165000Y-81485999D01*
X132165000Y-80918501D01*
X132665000Y-80918501D01*
X132665000Y-81485999D01*
X132665001Y-81486000D01*
X133212824Y-81486000D01*
X133272370Y-81479598D01*
X133272381Y-81479596D01*
X133407088Y-81429353D01*
X133407090Y-81429352D01*
X133522184Y-81343192D01*
X133522192Y-81343184D01*
X133608352Y-81228090D01*
X133608353Y-81228088D01*
X133658596Y-81093381D01*
X133658598Y-81093370D01*
X133665000Y-81033824D01*
X133665000Y-80918501D01*
X133664999Y-80918500D01*
X132665001Y-80918500D01*
X132665000Y-80918501D01*
X132165000Y-80918501D01*
X132164999Y-80918500D01*
X131165001Y-80918500D01*
X131165000Y-80918501D01*
X131165000Y-81033824D01*
X131164999Y-81033824D01*
X120165000Y-81033824D01*
X120165000Y-80918501D01*
X120164999Y-80918500D01*
X119165001Y-80918500D01*
X119165000Y-80918501D01*
X118665000Y-80918501D01*
X118665000Y-80767500D01*
X118683907Y-80709309D01*
X118733407Y-80673345D01*
X118764000Y-80668500D01*
X118914999Y-80668500D01*
X118915000Y-80668499D01*
X118915000Y-80517500D01*
X118933907Y-80459309D01*
X118983407Y-80423345D01*
X119014000Y-80418500D01*
X120164999Y-80418500D01*
X120165000Y-80418499D01*
X120165000Y-80303175D01*
X120158598Y-80243629D01*
X120158596Y-80243618D01*
X120108353Y-80108911D01*
X120108352Y-80108909D01*
X120022192Y-79993815D01*
X120017194Y-79988817D01*
X119989417Y-79934300D01*
X119998988Y-79873868D01*
X120019063Y-79850076D01*
X120017539Y-79848552D01*
X120022538Y-79843551D01*
X120022546Y-79843546D01*
X120108796Y-79728331D01*
X120159091Y-79593483D01*
X120165500Y-79533873D01*
X120165499Y-78803128D01*
X120159091Y-78743517D01*
X120159089Y-78743511D01*
X120108797Y-78608670D01*
X120022549Y-78493458D01*
X120022548Y-78493457D01*
X120022546Y-78493454D01*
X120022542Y-78493451D01*
X120017595Y-78488504D01*
X119989818Y-78433987D01*
X119999389Y-78373555D01*
X120017595Y-78348496D01*
X120022538Y-78343551D01*
X120022546Y-78343546D01*
X120108796Y-78228331D01*
X120159091Y-78093483D01*
X120165500Y-78033873D01*
X120165499Y-77303128D01*
X120159091Y-77243517D01*
X120150521Y-77220540D01*
X120108797Y-77108670D01*
X120022549Y-76993458D01*
X120022548Y-76993457D01*
X120022546Y-76993454D01*
X120022542Y-76993451D01*
X120017595Y-76988504D01*
X119989818Y-76933987D01*
X119999389Y-76873555D01*
X120017595Y-76848496D01*
X120022538Y-76843551D01*
X120022546Y-76843546D01*
X120108796Y-76728331D01*
X120117159Y-76705910D01*
X120159089Y-76593488D01*
X120159090Y-76593485D01*
X120159091Y-76593483D01*
X120165500Y-76533873D01*
X120165499Y-75803128D01*
X120159091Y-75743517D01*
X120143977Y-75702993D01*
X120108797Y-75608670D01*
X120022549Y-75493458D01*
X120022548Y-75493457D01*
X120022546Y-75493454D01*
X120022542Y-75493451D01*
X120017595Y-75488504D01*
X119989818Y-75433987D01*
X119999389Y-75373555D01*
X120017595Y-75348496D01*
X120022538Y-75343551D01*
X120022546Y-75343546D01*
X120108796Y-75228331D01*
X120118247Y-75202993D01*
X120159089Y-75093488D01*
X120159090Y-75093485D01*
X120159091Y-75093483D01*
X120165500Y-75033873D01*
X120165499Y-74303128D01*
X120159091Y-74243517D01*
X120159089Y-74243511D01*
X120108797Y-74108670D01*
X120022549Y-73993458D01*
X120022548Y-73993457D01*
X120022546Y-73993454D01*
X120022542Y-73993451D01*
X120017595Y-73988504D01*
X119989818Y-73933987D01*
X119999389Y-73873555D01*
X120017595Y-73848496D01*
X120022538Y-73843551D01*
X120022546Y-73843546D01*
X120108796Y-73728331D01*
X120159091Y-73593483D01*
X120165500Y-73533873D01*
X120165499Y-72803128D01*
X120159091Y-72743517D01*
X120159089Y-72743511D01*
X120108797Y-72608670D01*
X120022549Y-72493458D01*
X120022548Y-72493457D01*
X120022546Y-72493454D01*
X120022542Y-72493451D01*
X120017595Y-72488504D01*
X119989818Y-72433987D01*
X119999389Y-72373555D01*
X120017595Y-72348496D01*
X120022538Y-72343551D01*
X120022546Y-72343546D01*
X120108796Y-72228331D01*
X120159091Y-72093483D01*
X120165500Y-72033873D01*
X120165499Y-71303128D01*
X120159091Y-71243517D01*
X120149706Y-71218354D01*
X120108797Y-71108670D01*
X120022549Y-70993458D01*
X120022548Y-70993457D01*
X120022546Y-70993454D01*
X120022542Y-70993451D01*
X120017595Y-70988504D01*
X119989818Y-70933987D01*
X119999389Y-70873555D01*
X120017595Y-70848496D01*
X120022538Y-70843551D01*
X120022546Y-70843546D01*
X120108796Y-70728331D01*
X120159091Y-70593483D01*
X120165500Y-70533873D01*
X120165499Y-69803128D01*
X120159091Y-69743517D01*
X120152352Y-69725449D01*
X120108797Y-69608670D01*
X120022549Y-69493458D01*
X120022548Y-69493457D01*
X120022546Y-69493454D01*
X120022542Y-69493451D01*
X120017595Y-69488504D01*
X119989818Y-69433987D01*
X119999389Y-69373555D01*
X120017595Y-69348496D01*
X120022538Y-69343551D01*
X120022546Y-69343546D01*
X120108796Y-69228331D01*
X120159091Y-69093483D01*
X120165500Y-69033873D01*
X120165499Y-68303128D01*
X120159091Y-68243517D01*
X120145187Y-68206238D01*
X120108797Y-68108670D01*
X120022549Y-67993458D01*
X120022548Y-67993457D01*
X120022546Y-67993454D01*
X120022542Y-67993451D01*
X120017595Y-67988504D01*
X119989818Y-67933987D01*
X119999389Y-67873555D01*
X120017595Y-67848496D01*
X120022538Y-67843551D01*
X120022546Y-67843546D01*
X120108796Y-67728331D01*
X120159091Y-67593483D01*
X120165500Y-67533873D01*
X120165499Y-66803128D01*
X120159091Y-66743517D01*
X120155895Y-66734948D01*
X120108797Y-66608670D01*
X120022549Y-66493458D01*
X120022548Y-66493457D01*
X120022546Y-66493454D01*
X120022542Y-66493451D01*
X120017595Y-66488504D01*
X119989818Y-66433987D01*
X119999389Y-66373555D01*
X120017595Y-66348496D01*
X120022538Y-66343551D01*
X120022546Y-66343546D01*
X120108796Y-66228331D01*
X120132360Y-66165154D01*
X120159089Y-66093488D01*
X120159090Y-66093485D01*
X120159091Y-66093483D01*
X120165500Y-66033873D01*
X120165499Y-65303128D01*
X120159091Y-65243517D01*
X120159089Y-65243511D01*
X120108797Y-65108670D01*
X120022549Y-64993458D01*
X120022548Y-64993457D01*
X120022546Y-64993454D01*
X120022542Y-64993451D01*
X120017595Y-64988504D01*
X119989818Y-64933987D01*
X119999389Y-64873555D01*
X120017595Y-64848496D01*
X120022538Y-64843551D01*
X120022546Y-64843546D01*
X120108796Y-64728331D01*
X120159091Y-64593483D01*
X120165500Y-64533873D01*
X120165499Y-63803128D01*
X120159091Y-63743517D01*
X120159089Y-63743511D01*
X120108797Y-63608670D01*
X120022549Y-63493458D01*
X120022548Y-63493457D01*
X120022546Y-63493454D01*
X120022542Y-63493451D01*
X120017595Y-63488504D01*
X119989818Y-63433987D01*
X119999389Y-63373555D01*
X120017595Y-63348496D01*
X120022538Y-63343551D01*
X120022546Y-63343546D01*
X120108796Y-63228331D01*
X120159091Y-63093483D01*
X120165500Y-63033873D01*
X120165499Y-62303128D01*
X120159091Y-62243517D01*
X120150992Y-62221802D01*
X120120131Y-62139058D01*
X120117511Y-62077929D01*
X120151322Y-62026934D01*
X120208650Y-62005553D01*
X120212889Y-62005462D01*
X131117111Y-62005462D01*
X131175302Y-62024369D01*
G37*
%TD.AperFunction*%
%TD*%
M02*
