%TF.GenerationSoftware,KiCad,Pcbnew,9.0.4*%
%TF.CreationDate,2025-09-26T08:16:27-04:00*%
%TF.ProjectId,HM-10_proto_board,484d2d31-305f-4707-926f-746f5f626f61,rev?*%
%TF.SameCoordinates,Original*%
%TF.FileFunction,Drillmap*%
%TF.FilePolarity,Positive*%
%FSLAX45Y45*%
G04 Gerber Fmt 4.5, Leading zero omitted, Abs format (unit mm)*
G04 Created by KiCad (PCBNEW 9.0.4) date 2025-09-26 08:16:27*
%MOMM*%
%LPD*%
G01*
G04 APERTURE LIST*
%ADD10C,0.050000*%
%ADD11C,0.200000*%
%ADD12C,0.100000*%
%ADD13C,0.120000*%
G04 APERTURE END LIST*
D10*
X11249246Y-6255496D02*
G75*
G02*
X11354246Y-6150496I105000J0D01*
G01*
X11354246Y-6150496D02*
X13780000Y-6150496D01*
X13780000Y-6150496D02*
G75*
G02*
X13885000Y-6255496I0J-105000D01*
G01*
X13885000Y-9400000D02*
G75*
G02*
X13780000Y-9505000I-105000J0D01*
G01*
X11355000Y-9505000D02*
G75*
G02*
X11250000Y-9400000I0J105000D01*
G01*
X13885000Y-6256393D02*
X13885000Y-9400000D01*
X11355000Y-9505000D02*
X13780754Y-9505000D01*
X11249246Y-6255496D02*
X11250000Y-9400000D01*
D11*
D12*
X11490000Y-8277000D02*
X11570000Y-8357000D01*
X11570000Y-8277000D02*
X11490000Y-8357000D01*
X11490000Y-9293000D02*
X11570000Y-9373000D01*
X11570000Y-9293000D02*
X11490000Y-9373000D01*
X11970000Y-9190000D02*
X12050000Y-9270000D01*
X12050000Y-9190000D02*
X11970000Y-9270000D01*
X11975000Y-8685000D02*
X12055000Y-8765000D01*
X12055000Y-8685000D02*
X11975000Y-8765000D01*
X12470000Y-9190000D02*
X12550000Y-9270000D01*
X12550000Y-9190000D02*
X12470000Y-9270000D01*
X12475000Y-8685000D02*
X12555000Y-8765000D01*
X12555000Y-8685000D02*
X12475000Y-8765000D01*
X13575000Y-8242000D02*
X13655000Y-8322000D01*
X13655000Y-8242000D02*
X13575000Y-8322000D01*
X13575000Y-9258000D02*
X13655000Y-9338000D01*
X13655000Y-9258000D02*
X13575000Y-9338000D01*
X11475000Y-6535000D02*
G75*
G02*
X11375000Y-6535000I-50000J0D01*
G01*
X11375000Y-6535000D02*
G75*
G02*
X11475000Y-6535000I50000J0D01*
G01*
X11475000Y-6789000D02*
G75*
G02*
X11375000Y-6789000I-50000J0D01*
G01*
X11375000Y-6789000D02*
G75*
G02*
X11475000Y-6789000I50000J0D01*
G01*
X11475000Y-7043000D02*
G75*
G02*
X11375000Y-7043000I-50000J0D01*
G01*
X11375000Y-7043000D02*
G75*
G02*
X11475000Y-7043000I50000J0D01*
G01*
X11475000Y-7297000D02*
G75*
G02*
X11375000Y-7297000I-50000J0D01*
G01*
X11375000Y-7297000D02*
G75*
G02*
X11475000Y-7297000I50000J0D01*
G01*
X11475000Y-7551000D02*
G75*
G02*
X11375000Y-7551000I-50000J0D01*
G01*
X11375000Y-7551000D02*
G75*
G02*
X11475000Y-7551000I50000J0D01*
G01*
X11475000Y-7805000D02*
G75*
G02*
X11375000Y-7805000I-50000J0D01*
G01*
X11375000Y-7805000D02*
G75*
G02*
X11475000Y-7805000I50000J0D01*
G01*
X13760000Y-6535000D02*
G75*
G02*
X13660000Y-6535000I-50000J0D01*
G01*
X13660000Y-6535000D02*
G75*
G02*
X13760000Y-6535000I50000J0D01*
G01*
X13760000Y-6789000D02*
G75*
G02*
X13660000Y-6789000I-50000J0D01*
G01*
X13660000Y-6789000D02*
G75*
G02*
X13760000Y-6789000I50000J0D01*
G01*
X13760000Y-7043000D02*
G75*
G02*
X13660000Y-7043000I-50000J0D01*
G01*
X13660000Y-7043000D02*
G75*
G02*
X13760000Y-7043000I50000J0D01*
G01*
X13760000Y-7297000D02*
G75*
G02*
X13660000Y-7297000I-50000J0D01*
G01*
X13660000Y-7297000D02*
G75*
G02*
X13760000Y-7297000I50000J0D01*
G01*
X13760000Y-7551000D02*
G75*
G02*
X13660000Y-7551000I-50000J0D01*
G01*
X13660000Y-7551000D02*
G75*
G02*
X13760000Y-7551000I50000J0D01*
G01*
X13760000Y-7805000D02*
G75*
G02*
X13660000Y-7805000I-50000J0D01*
G01*
X13660000Y-7805000D02*
G75*
G02*
X13760000Y-7805000I50000J0D01*
G01*
D13*
X13150000Y-8641000D02*
X13150000Y-8761000D01*
X13090000Y-8701000D02*
X13210000Y-8701000D01*
X13150000Y-9149000D02*
X13150000Y-9269000D01*
X13090000Y-9209000D02*
X13210000Y-9209000D01*
D11*
X11507523Y-9818984D02*
X11507523Y-9618984D01*
X11507523Y-9618984D02*
X11555142Y-9618984D01*
X11555142Y-9618984D02*
X11583713Y-9628508D01*
X11583713Y-9628508D02*
X11602761Y-9647555D01*
X11602761Y-9647555D02*
X11612285Y-9666603D01*
X11612285Y-9666603D02*
X11621809Y-9704698D01*
X11621809Y-9704698D02*
X11621809Y-9733270D01*
X11621809Y-9733270D02*
X11612285Y-9771365D01*
X11612285Y-9771365D02*
X11602761Y-9790412D01*
X11602761Y-9790412D02*
X11583713Y-9809460D01*
X11583713Y-9809460D02*
X11555142Y-9818984D01*
X11555142Y-9818984D02*
X11507523Y-9818984D01*
X11707523Y-9818984D02*
X11707523Y-9685650D01*
X11707523Y-9723746D02*
X11717047Y-9704698D01*
X11717047Y-9704698D02*
X11726571Y-9695174D01*
X11726571Y-9695174D02*
X11745618Y-9685650D01*
X11745618Y-9685650D02*
X11764666Y-9685650D01*
X11831332Y-9818984D02*
X11831332Y-9685650D01*
X11831332Y-9618984D02*
X11821809Y-9628508D01*
X11821809Y-9628508D02*
X11831332Y-9638031D01*
X11831332Y-9638031D02*
X11840856Y-9628508D01*
X11840856Y-9628508D02*
X11831332Y-9618984D01*
X11831332Y-9618984D02*
X11831332Y-9638031D01*
X11955142Y-9818984D02*
X11936094Y-9809460D01*
X11936094Y-9809460D02*
X11926571Y-9790412D01*
X11926571Y-9790412D02*
X11926571Y-9618984D01*
X12059904Y-9818984D02*
X12040856Y-9809460D01*
X12040856Y-9809460D02*
X12031332Y-9790412D01*
X12031332Y-9790412D02*
X12031332Y-9618984D01*
X12288475Y-9818984D02*
X12288475Y-9618984D01*
X12288475Y-9618984D02*
X12355142Y-9761841D01*
X12355142Y-9761841D02*
X12421809Y-9618984D01*
X12421809Y-9618984D02*
X12421809Y-9818984D01*
X12602761Y-9818984D02*
X12602761Y-9714222D01*
X12602761Y-9714222D02*
X12593237Y-9695174D01*
X12593237Y-9695174D02*
X12574190Y-9685650D01*
X12574190Y-9685650D02*
X12536094Y-9685650D01*
X12536094Y-9685650D02*
X12517047Y-9695174D01*
X12602761Y-9809460D02*
X12583713Y-9818984D01*
X12583713Y-9818984D02*
X12536094Y-9818984D01*
X12536094Y-9818984D02*
X12517047Y-9809460D01*
X12517047Y-9809460D02*
X12507523Y-9790412D01*
X12507523Y-9790412D02*
X12507523Y-9771365D01*
X12507523Y-9771365D02*
X12517047Y-9752317D01*
X12517047Y-9752317D02*
X12536094Y-9742793D01*
X12536094Y-9742793D02*
X12583713Y-9742793D01*
X12583713Y-9742793D02*
X12602761Y-9733270D01*
X12697999Y-9685650D02*
X12697999Y-9885650D01*
X12697999Y-9695174D02*
X12717047Y-9685650D01*
X12717047Y-9685650D02*
X12755142Y-9685650D01*
X12755142Y-9685650D02*
X12774190Y-9695174D01*
X12774190Y-9695174D02*
X12783713Y-9704698D01*
X12783713Y-9704698D02*
X12793237Y-9723746D01*
X12793237Y-9723746D02*
X12793237Y-9780889D01*
X12793237Y-9780889D02*
X12783713Y-9799936D01*
X12783713Y-9799936D02*
X12774190Y-9809460D01*
X12774190Y-9809460D02*
X12755142Y-9818984D01*
X12755142Y-9818984D02*
X12717047Y-9818984D01*
X12717047Y-9818984D02*
X12697999Y-9809460D01*
X12878952Y-9799936D02*
X12888475Y-9809460D01*
X12888475Y-9809460D02*
X12878952Y-9818984D01*
X12878952Y-9818984D02*
X12869428Y-9809460D01*
X12869428Y-9809460D02*
X12878952Y-9799936D01*
X12878952Y-9799936D02*
X12878952Y-9818984D01*
X12878952Y-9695174D02*
X12888475Y-9704698D01*
X12888475Y-9704698D02*
X12878952Y-9714222D01*
X12878952Y-9714222D02*
X12869428Y-9704698D01*
X12869428Y-9704698D02*
X12878952Y-9695174D01*
X12878952Y-9695174D02*
X12878952Y-9714222D01*
D12*
X11166746Y-10107500D02*
X11246746Y-10187500D01*
X11246746Y-10107500D02*
X11166746Y-10187500D01*
D11*
X11545618Y-10038984D02*
X11564666Y-10038984D01*
X11564666Y-10038984D02*
X11583713Y-10048508D01*
X11583713Y-10048508D02*
X11593237Y-10058031D01*
X11593237Y-10058031D02*
X11602761Y-10077079D01*
X11602761Y-10077079D02*
X11612285Y-10115174D01*
X11612285Y-10115174D02*
X11612285Y-10162793D01*
X11612285Y-10162793D02*
X11602761Y-10200889D01*
X11602761Y-10200889D02*
X11593237Y-10219936D01*
X11593237Y-10219936D02*
X11583713Y-10229460D01*
X11583713Y-10229460D02*
X11564666Y-10238984D01*
X11564666Y-10238984D02*
X11545618Y-10238984D01*
X11545618Y-10238984D02*
X11526571Y-10229460D01*
X11526571Y-10229460D02*
X11517047Y-10219936D01*
X11517047Y-10219936D02*
X11507523Y-10200889D01*
X11507523Y-10200889D02*
X11497999Y-10162793D01*
X11497999Y-10162793D02*
X11497999Y-10115174D01*
X11497999Y-10115174D02*
X11507523Y-10077079D01*
X11507523Y-10077079D02*
X11517047Y-10058031D01*
X11517047Y-10058031D02*
X11526571Y-10048508D01*
X11526571Y-10048508D02*
X11545618Y-10038984D01*
X11697999Y-10219936D02*
X11707523Y-10229460D01*
X11707523Y-10229460D02*
X11697999Y-10238984D01*
X11697999Y-10238984D02*
X11688475Y-10229460D01*
X11688475Y-10229460D02*
X11697999Y-10219936D01*
X11697999Y-10219936D02*
X11697999Y-10238984D01*
X11821809Y-10124698D02*
X11802761Y-10115174D01*
X11802761Y-10115174D02*
X11793237Y-10105650D01*
X11793237Y-10105650D02*
X11783713Y-10086603D01*
X11783713Y-10086603D02*
X11783713Y-10077079D01*
X11783713Y-10077079D02*
X11793237Y-10058031D01*
X11793237Y-10058031D02*
X11802761Y-10048508D01*
X11802761Y-10048508D02*
X11821809Y-10038984D01*
X11821809Y-10038984D02*
X11859904Y-10038984D01*
X11859904Y-10038984D02*
X11878952Y-10048508D01*
X11878952Y-10048508D02*
X11888475Y-10058031D01*
X11888475Y-10058031D02*
X11897999Y-10077079D01*
X11897999Y-10077079D02*
X11897999Y-10086603D01*
X11897999Y-10086603D02*
X11888475Y-10105650D01*
X11888475Y-10105650D02*
X11878952Y-10115174D01*
X11878952Y-10115174D02*
X11859904Y-10124698D01*
X11859904Y-10124698D02*
X11821809Y-10124698D01*
X11821809Y-10124698D02*
X11802761Y-10134222D01*
X11802761Y-10134222D02*
X11793237Y-10143746D01*
X11793237Y-10143746D02*
X11783713Y-10162793D01*
X11783713Y-10162793D02*
X11783713Y-10200889D01*
X11783713Y-10200889D02*
X11793237Y-10219936D01*
X11793237Y-10219936D02*
X11802761Y-10229460D01*
X11802761Y-10229460D02*
X11821809Y-10238984D01*
X11821809Y-10238984D02*
X11859904Y-10238984D01*
X11859904Y-10238984D02*
X11878952Y-10229460D01*
X11878952Y-10229460D02*
X11888475Y-10219936D01*
X11888475Y-10219936D02*
X11897999Y-10200889D01*
X11897999Y-10200889D02*
X11897999Y-10162793D01*
X11897999Y-10162793D02*
X11888475Y-10143746D01*
X11888475Y-10143746D02*
X11878952Y-10134222D01*
X11878952Y-10134222D02*
X11859904Y-10124698D01*
X12021809Y-10038984D02*
X12040856Y-10038984D01*
X12040856Y-10038984D02*
X12059904Y-10048508D01*
X12059904Y-10048508D02*
X12069428Y-10058031D01*
X12069428Y-10058031D02*
X12078952Y-10077079D01*
X12078952Y-10077079D02*
X12088475Y-10115174D01*
X12088475Y-10115174D02*
X12088475Y-10162793D01*
X12088475Y-10162793D02*
X12078952Y-10200889D01*
X12078952Y-10200889D02*
X12069428Y-10219936D01*
X12069428Y-10219936D02*
X12059904Y-10229460D01*
X12059904Y-10229460D02*
X12040856Y-10238984D01*
X12040856Y-10238984D02*
X12021809Y-10238984D01*
X12021809Y-10238984D02*
X12002761Y-10229460D01*
X12002761Y-10229460D02*
X11993237Y-10219936D01*
X11993237Y-10219936D02*
X11983713Y-10200889D01*
X11983713Y-10200889D02*
X11974190Y-10162793D01*
X11974190Y-10162793D02*
X11974190Y-10115174D01*
X11974190Y-10115174D02*
X11983713Y-10077079D01*
X11983713Y-10077079D02*
X11993237Y-10058031D01*
X11993237Y-10058031D02*
X12002761Y-10048508D01*
X12002761Y-10048508D02*
X12021809Y-10038984D01*
X12212285Y-10038984D02*
X12231333Y-10038984D01*
X12231333Y-10038984D02*
X12250380Y-10048508D01*
X12250380Y-10048508D02*
X12259904Y-10058031D01*
X12259904Y-10058031D02*
X12269428Y-10077079D01*
X12269428Y-10077079D02*
X12278952Y-10115174D01*
X12278952Y-10115174D02*
X12278952Y-10162793D01*
X12278952Y-10162793D02*
X12269428Y-10200889D01*
X12269428Y-10200889D02*
X12259904Y-10219936D01*
X12259904Y-10219936D02*
X12250380Y-10229460D01*
X12250380Y-10229460D02*
X12231333Y-10238984D01*
X12231333Y-10238984D02*
X12212285Y-10238984D01*
X12212285Y-10238984D02*
X12193237Y-10229460D01*
X12193237Y-10229460D02*
X12183713Y-10219936D01*
X12183713Y-10219936D02*
X12174190Y-10200889D01*
X12174190Y-10200889D02*
X12164666Y-10162793D01*
X12164666Y-10162793D02*
X12164666Y-10115174D01*
X12164666Y-10115174D02*
X12174190Y-10077079D01*
X12174190Y-10077079D02*
X12183713Y-10058031D01*
X12183713Y-10058031D02*
X12193237Y-10048508D01*
X12193237Y-10048508D02*
X12212285Y-10038984D01*
X12364666Y-10238984D02*
X12364666Y-10105650D01*
X12364666Y-10124698D02*
X12374190Y-10115174D01*
X12374190Y-10115174D02*
X12393237Y-10105650D01*
X12393237Y-10105650D02*
X12421809Y-10105650D01*
X12421809Y-10105650D02*
X12440856Y-10115174D01*
X12440856Y-10115174D02*
X12450380Y-10134222D01*
X12450380Y-10134222D02*
X12450380Y-10238984D01*
X12450380Y-10134222D02*
X12459904Y-10115174D01*
X12459904Y-10115174D02*
X12478952Y-10105650D01*
X12478952Y-10105650D02*
X12507523Y-10105650D01*
X12507523Y-10105650D02*
X12526571Y-10115174D01*
X12526571Y-10115174D02*
X12536094Y-10134222D01*
X12536094Y-10134222D02*
X12536094Y-10238984D01*
X12631333Y-10238984D02*
X12631333Y-10105650D01*
X12631333Y-10124698D02*
X12640856Y-10115174D01*
X12640856Y-10115174D02*
X12659904Y-10105650D01*
X12659904Y-10105650D02*
X12688475Y-10105650D01*
X12688475Y-10105650D02*
X12707523Y-10115174D01*
X12707523Y-10115174D02*
X12717047Y-10134222D01*
X12717047Y-10134222D02*
X12717047Y-10238984D01*
X12717047Y-10134222D02*
X12726571Y-10115174D01*
X12726571Y-10115174D02*
X12745618Y-10105650D01*
X12745618Y-10105650D02*
X12774190Y-10105650D01*
X12774190Y-10105650D02*
X12793237Y-10115174D01*
X12793237Y-10115174D02*
X12802761Y-10134222D01*
X12802761Y-10134222D02*
X12802761Y-10238984D01*
X13193237Y-10029460D02*
X13021809Y-10286603D01*
X13450380Y-10038984D02*
X13469428Y-10038984D01*
X13469428Y-10038984D02*
X13488476Y-10048508D01*
X13488476Y-10048508D02*
X13497999Y-10058031D01*
X13497999Y-10058031D02*
X13507523Y-10077079D01*
X13507523Y-10077079D02*
X13517047Y-10115174D01*
X13517047Y-10115174D02*
X13517047Y-10162793D01*
X13517047Y-10162793D02*
X13507523Y-10200889D01*
X13507523Y-10200889D02*
X13497999Y-10219936D01*
X13497999Y-10219936D02*
X13488476Y-10229460D01*
X13488476Y-10229460D02*
X13469428Y-10238984D01*
X13469428Y-10238984D02*
X13450380Y-10238984D01*
X13450380Y-10238984D02*
X13431333Y-10229460D01*
X13431333Y-10229460D02*
X13421809Y-10219936D01*
X13421809Y-10219936D02*
X13412285Y-10200889D01*
X13412285Y-10200889D02*
X13402761Y-10162793D01*
X13402761Y-10162793D02*
X13402761Y-10115174D01*
X13402761Y-10115174D02*
X13412285Y-10077079D01*
X13412285Y-10077079D02*
X13421809Y-10058031D01*
X13421809Y-10058031D02*
X13431333Y-10048508D01*
X13431333Y-10048508D02*
X13450380Y-10038984D01*
X13602761Y-10219936D02*
X13612285Y-10229460D01*
X13612285Y-10229460D02*
X13602761Y-10238984D01*
X13602761Y-10238984D02*
X13593237Y-10229460D01*
X13593237Y-10229460D02*
X13602761Y-10219936D01*
X13602761Y-10219936D02*
X13602761Y-10238984D01*
X13736095Y-10038984D02*
X13755142Y-10038984D01*
X13755142Y-10038984D02*
X13774190Y-10048508D01*
X13774190Y-10048508D02*
X13783714Y-10058031D01*
X13783714Y-10058031D02*
X13793237Y-10077079D01*
X13793237Y-10077079D02*
X13802761Y-10115174D01*
X13802761Y-10115174D02*
X13802761Y-10162793D01*
X13802761Y-10162793D02*
X13793237Y-10200889D01*
X13793237Y-10200889D02*
X13783714Y-10219936D01*
X13783714Y-10219936D02*
X13774190Y-10229460D01*
X13774190Y-10229460D02*
X13755142Y-10238984D01*
X13755142Y-10238984D02*
X13736095Y-10238984D01*
X13736095Y-10238984D02*
X13717047Y-10229460D01*
X13717047Y-10229460D02*
X13707523Y-10219936D01*
X13707523Y-10219936D02*
X13697999Y-10200889D01*
X13697999Y-10200889D02*
X13688476Y-10162793D01*
X13688476Y-10162793D02*
X13688476Y-10115174D01*
X13688476Y-10115174D02*
X13697999Y-10077079D01*
X13697999Y-10077079D02*
X13707523Y-10058031D01*
X13707523Y-10058031D02*
X13717047Y-10048508D01*
X13717047Y-10048508D02*
X13736095Y-10038984D01*
X13869428Y-10038984D02*
X13993237Y-10038984D01*
X13993237Y-10038984D02*
X13926571Y-10115174D01*
X13926571Y-10115174D02*
X13955142Y-10115174D01*
X13955142Y-10115174D02*
X13974190Y-10124698D01*
X13974190Y-10124698D02*
X13983714Y-10134222D01*
X13983714Y-10134222D02*
X13993237Y-10153270D01*
X13993237Y-10153270D02*
X13993237Y-10200889D01*
X13993237Y-10200889D02*
X13983714Y-10219936D01*
X13983714Y-10219936D02*
X13974190Y-10229460D01*
X13974190Y-10229460D02*
X13955142Y-10238984D01*
X13955142Y-10238984D02*
X13897999Y-10238984D01*
X13897999Y-10238984D02*
X13878952Y-10229460D01*
X13878952Y-10229460D02*
X13869428Y-10219936D01*
X14183714Y-10238984D02*
X14069428Y-10238984D01*
X14126571Y-10238984D02*
X14126571Y-10038984D01*
X14126571Y-10038984D02*
X14107523Y-10067555D01*
X14107523Y-10067555D02*
X14088476Y-10086603D01*
X14088476Y-10086603D02*
X14069428Y-10096127D01*
X14364666Y-10038984D02*
X14269428Y-10038984D01*
X14269428Y-10038984D02*
X14259904Y-10134222D01*
X14259904Y-10134222D02*
X14269428Y-10124698D01*
X14269428Y-10124698D02*
X14288476Y-10115174D01*
X14288476Y-10115174D02*
X14336095Y-10115174D01*
X14336095Y-10115174D02*
X14355142Y-10124698D01*
X14355142Y-10124698D02*
X14364666Y-10134222D01*
X14364666Y-10134222D02*
X14374190Y-10153270D01*
X14374190Y-10153270D02*
X14374190Y-10200889D01*
X14374190Y-10200889D02*
X14364666Y-10219936D01*
X14364666Y-10219936D02*
X14355142Y-10229460D01*
X14355142Y-10229460D02*
X14336095Y-10238984D01*
X14336095Y-10238984D02*
X14288476Y-10238984D01*
X14288476Y-10238984D02*
X14269428Y-10229460D01*
X14269428Y-10229460D02*
X14259904Y-10219936D01*
X14450380Y-10038984D02*
X14450380Y-10077079D01*
X14526571Y-10038984D02*
X14526571Y-10077079D01*
X14821809Y-10315174D02*
X14812285Y-10305650D01*
X14812285Y-10305650D02*
X14793238Y-10277079D01*
X14793238Y-10277079D02*
X14783714Y-10258031D01*
X14783714Y-10258031D02*
X14774190Y-10229460D01*
X14774190Y-10229460D02*
X14764666Y-10181841D01*
X14764666Y-10181841D02*
X14764666Y-10143746D01*
X14764666Y-10143746D02*
X14774190Y-10096127D01*
X14774190Y-10096127D02*
X14783714Y-10067555D01*
X14783714Y-10067555D02*
X14793238Y-10048508D01*
X14793238Y-10048508D02*
X14812285Y-10019936D01*
X14812285Y-10019936D02*
X14821809Y-10010412D01*
X14926571Y-10124698D02*
X14907523Y-10115174D01*
X14907523Y-10115174D02*
X14897999Y-10105650D01*
X14897999Y-10105650D02*
X14888476Y-10086603D01*
X14888476Y-10086603D02*
X14888476Y-10077079D01*
X14888476Y-10077079D02*
X14897999Y-10058031D01*
X14897999Y-10058031D02*
X14907523Y-10048508D01*
X14907523Y-10048508D02*
X14926571Y-10038984D01*
X14926571Y-10038984D02*
X14964666Y-10038984D01*
X14964666Y-10038984D02*
X14983714Y-10048508D01*
X14983714Y-10048508D02*
X14993238Y-10058031D01*
X14993238Y-10058031D02*
X15002761Y-10077079D01*
X15002761Y-10077079D02*
X15002761Y-10086603D01*
X15002761Y-10086603D02*
X14993238Y-10105650D01*
X14993238Y-10105650D02*
X14983714Y-10115174D01*
X14983714Y-10115174D02*
X14964666Y-10124698D01*
X14964666Y-10124698D02*
X14926571Y-10124698D01*
X14926571Y-10124698D02*
X14907523Y-10134222D01*
X14907523Y-10134222D02*
X14897999Y-10143746D01*
X14897999Y-10143746D02*
X14888476Y-10162793D01*
X14888476Y-10162793D02*
X14888476Y-10200889D01*
X14888476Y-10200889D02*
X14897999Y-10219936D01*
X14897999Y-10219936D02*
X14907523Y-10229460D01*
X14907523Y-10229460D02*
X14926571Y-10238984D01*
X14926571Y-10238984D02*
X14964666Y-10238984D01*
X14964666Y-10238984D02*
X14983714Y-10229460D01*
X14983714Y-10229460D02*
X14993238Y-10219936D01*
X14993238Y-10219936D02*
X15002761Y-10200889D01*
X15002761Y-10200889D02*
X15002761Y-10162793D01*
X15002761Y-10162793D02*
X14993238Y-10143746D01*
X14993238Y-10143746D02*
X14983714Y-10134222D01*
X14983714Y-10134222D02*
X14964666Y-10124698D01*
X15240857Y-10238984D02*
X15240857Y-10038984D01*
X15326571Y-10238984D02*
X15326571Y-10134222D01*
X15326571Y-10134222D02*
X15317047Y-10115174D01*
X15317047Y-10115174D02*
X15298000Y-10105650D01*
X15298000Y-10105650D02*
X15269428Y-10105650D01*
X15269428Y-10105650D02*
X15250380Y-10115174D01*
X15250380Y-10115174D02*
X15240857Y-10124698D01*
X15450380Y-10238984D02*
X15431333Y-10229460D01*
X15431333Y-10229460D02*
X15421809Y-10219936D01*
X15421809Y-10219936D02*
X15412285Y-10200889D01*
X15412285Y-10200889D02*
X15412285Y-10143746D01*
X15412285Y-10143746D02*
X15421809Y-10124698D01*
X15421809Y-10124698D02*
X15431333Y-10115174D01*
X15431333Y-10115174D02*
X15450380Y-10105650D01*
X15450380Y-10105650D02*
X15478952Y-10105650D01*
X15478952Y-10105650D02*
X15498000Y-10115174D01*
X15498000Y-10115174D02*
X15507523Y-10124698D01*
X15507523Y-10124698D02*
X15517047Y-10143746D01*
X15517047Y-10143746D02*
X15517047Y-10200889D01*
X15517047Y-10200889D02*
X15507523Y-10219936D01*
X15507523Y-10219936D02*
X15498000Y-10229460D01*
X15498000Y-10229460D02*
X15478952Y-10238984D01*
X15478952Y-10238984D02*
X15450380Y-10238984D01*
X15631333Y-10238984D02*
X15612285Y-10229460D01*
X15612285Y-10229460D02*
X15602761Y-10210412D01*
X15602761Y-10210412D02*
X15602761Y-10038984D01*
X15783714Y-10229460D02*
X15764666Y-10238984D01*
X15764666Y-10238984D02*
X15726571Y-10238984D01*
X15726571Y-10238984D02*
X15707523Y-10229460D01*
X15707523Y-10229460D02*
X15698000Y-10210412D01*
X15698000Y-10210412D02*
X15698000Y-10134222D01*
X15698000Y-10134222D02*
X15707523Y-10115174D01*
X15707523Y-10115174D02*
X15726571Y-10105650D01*
X15726571Y-10105650D02*
X15764666Y-10105650D01*
X15764666Y-10105650D02*
X15783714Y-10115174D01*
X15783714Y-10115174D02*
X15793238Y-10134222D01*
X15793238Y-10134222D02*
X15793238Y-10153270D01*
X15793238Y-10153270D02*
X15698000Y-10172317D01*
X15869428Y-10229460D02*
X15888476Y-10238984D01*
X15888476Y-10238984D02*
X15926571Y-10238984D01*
X15926571Y-10238984D02*
X15945619Y-10229460D01*
X15945619Y-10229460D02*
X15955142Y-10210412D01*
X15955142Y-10210412D02*
X15955142Y-10200889D01*
X15955142Y-10200889D02*
X15945619Y-10181841D01*
X15945619Y-10181841D02*
X15926571Y-10172317D01*
X15926571Y-10172317D02*
X15898000Y-10172317D01*
X15898000Y-10172317D02*
X15878952Y-10162793D01*
X15878952Y-10162793D02*
X15869428Y-10143746D01*
X15869428Y-10143746D02*
X15869428Y-10134222D01*
X15869428Y-10134222D02*
X15878952Y-10115174D01*
X15878952Y-10115174D02*
X15898000Y-10105650D01*
X15898000Y-10105650D02*
X15926571Y-10105650D01*
X15926571Y-10105650D02*
X15945619Y-10115174D01*
X16021809Y-10315174D02*
X16031333Y-10305650D01*
X16031333Y-10305650D02*
X16050381Y-10277079D01*
X16050381Y-10277079D02*
X16059904Y-10258031D01*
X16059904Y-10258031D02*
X16069428Y-10229460D01*
X16069428Y-10229460D02*
X16078952Y-10181841D01*
X16078952Y-10181841D02*
X16078952Y-10143746D01*
X16078952Y-10143746D02*
X16069428Y-10096127D01*
X16069428Y-10096127D02*
X16059904Y-10067555D01*
X16059904Y-10067555D02*
X16050381Y-10048508D01*
X16050381Y-10048508D02*
X16031333Y-10019936D01*
X16031333Y-10019936D02*
X16021809Y-10010412D01*
D12*
X11246746Y-10411500D02*
G75*
G02*
X11146746Y-10411500I-50000J0D01*
G01*
X11146746Y-10411500D02*
G75*
G02*
X11246746Y-10411500I50000J0D01*
G01*
D11*
X11612285Y-10502984D02*
X11497999Y-10502984D01*
X11555142Y-10502984D02*
X11555142Y-10302984D01*
X11555142Y-10302984D02*
X11536094Y-10331555D01*
X11536094Y-10331555D02*
X11517047Y-10350603D01*
X11517047Y-10350603D02*
X11497999Y-10360127D01*
X11697999Y-10483936D02*
X11707523Y-10493460D01*
X11707523Y-10493460D02*
X11697999Y-10502984D01*
X11697999Y-10502984D02*
X11688475Y-10493460D01*
X11688475Y-10493460D02*
X11697999Y-10483936D01*
X11697999Y-10483936D02*
X11697999Y-10502984D01*
X11831332Y-10302984D02*
X11850380Y-10302984D01*
X11850380Y-10302984D02*
X11869428Y-10312508D01*
X11869428Y-10312508D02*
X11878952Y-10322031D01*
X11878952Y-10322031D02*
X11888475Y-10341079D01*
X11888475Y-10341079D02*
X11897999Y-10379174D01*
X11897999Y-10379174D02*
X11897999Y-10426793D01*
X11897999Y-10426793D02*
X11888475Y-10464889D01*
X11888475Y-10464889D02*
X11878952Y-10483936D01*
X11878952Y-10483936D02*
X11869428Y-10493460D01*
X11869428Y-10493460D02*
X11850380Y-10502984D01*
X11850380Y-10502984D02*
X11831332Y-10502984D01*
X11831332Y-10502984D02*
X11812285Y-10493460D01*
X11812285Y-10493460D02*
X11802761Y-10483936D01*
X11802761Y-10483936D02*
X11793237Y-10464889D01*
X11793237Y-10464889D02*
X11783713Y-10426793D01*
X11783713Y-10426793D02*
X11783713Y-10379174D01*
X11783713Y-10379174D02*
X11793237Y-10341079D01*
X11793237Y-10341079D02*
X11802761Y-10322031D01*
X11802761Y-10322031D02*
X11812285Y-10312508D01*
X11812285Y-10312508D02*
X11831332Y-10302984D01*
X12021809Y-10302984D02*
X12040856Y-10302984D01*
X12040856Y-10302984D02*
X12059904Y-10312508D01*
X12059904Y-10312508D02*
X12069428Y-10322031D01*
X12069428Y-10322031D02*
X12078952Y-10341079D01*
X12078952Y-10341079D02*
X12088475Y-10379174D01*
X12088475Y-10379174D02*
X12088475Y-10426793D01*
X12088475Y-10426793D02*
X12078952Y-10464889D01*
X12078952Y-10464889D02*
X12069428Y-10483936D01*
X12069428Y-10483936D02*
X12059904Y-10493460D01*
X12059904Y-10493460D02*
X12040856Y-10502984D01*
X12040856Y-10502984D02*
X12021809Y-10502984D01*
X12021809Y-10502984D02*
X12002761Y-10493460D01*
X12002761Y-10493460D02*
X11993237Y-10483936D01*
X11993237Y-10483936D02*
X11983713Y-10464889D01*
X11983713Y-10464889D02*
X11974190Y-10426793D01*
X11974190Y-10426793D02*
X11974190Y-10379174D01*
X11974190Y-10379174D02*
X11983713Y-10341079D01*
X11983713Y-10341079D02*
X11993237Y-10322031D01*
X11993237Y-10322031D02*
X12002761Y-10312508D01*
X12002761Y-10312508D02*
X12021809Y-10302984D01*
X12212285Y-10302984D02*
X12231333Y-10302984D01*
X12231333Y-10302984D02*
X12250380Y-10312508D01*
X12250380Y-10312508D02*
X12259904Y-10322031D01*
X12259904Y-10322031D02*
X12269428Y-10341079D01*
X12269428Y-10341079D02*
X12278952Y-10379174D01*
X12278952Y-10379174D02*
X12278952Y-10426793D01*
X12278952Y-10426793D02*
X12269428Y-10464889D01*
X12269428Y-10464889D02*
X12259904Y-10483936D01*
X12259904Y-10483936D02*
X12250380Y-10493460D01*
X12250380Y-10493460D02*
X12231333Y-10502984D01*
X12231333Y-10502984D02*
X12212285Y-10502984D01*
X12212285Y-10502984D02*
X12193237Y-10493460D01*
X12193237Y-10493460D02*
X12183713Y-10483936D01*
X12183713Y-10483936D02*
X12174190Y-10464889D01*
X12174190Y-10464889D02*
X12164666Y-10426793D01*
X12164666Y-10426793D02*
X12164666Y-10379174D01*
X12164666Y-10379174D02*
X12174190Y-10341079D01*
X12174190Y-10341079D02*
X12183713Y-10322031D01*
X12183713Y-10322031D02*
X12193237Y-10312508D01*
X12193237Y-10312508D02*
X12212285Y-10302984D01*
X12364666Y-10502984D02*
X12364666Y-10369650D01*
X12364666Y-10388698D02*
X12374190Y-10379174D01*
X12374190Y-10379174D02*
X12393237Y-10369650D01*
X12393237Y-10369650D02*
X12421809Y-10369650D01*
X12421809Y-10369650D02*
X12440856Y-10379174D01*
X12440856Y-10379174D02*
X12450380Y-10398222D01*
X12450380Y-10398222D02*
X12450380Y-10502984D01*
X12450380Y-10398222D02*
X12459904Y-10379174D01*
X12459904Y-10379174D02*
X12478952Y-10369650D01*
X12478952Y-10369650D02*
X12507523Y-10369650D01*
X12507523Y-10369650D02*
X12526571Y-10379174D01*
X12526571Y-10379174D02*
X12536094Y-10398222D01*
X12536094Y-10398222D02*
X12536094Y-10502984D01*
X12631333Y-10502984D02*
X12631333Y-10369650D01*
X12631333Y-10388698D02*
X12640856Y-10379174D01*
X12640856Y-10379174D02*
X12659904Y-10369650D01*
X12659904Y-10369650D02*
X12688475Y-10369650D01*
X12688475Y-10369650D02*
X12707523Y-10379174D01*
X12707523Y-10379174D02*
X12717047Y-10398222D01*
X12717047Y-10398222D02*
X12717047Y-10502984D01*
X12717047Y-10398222D02*
X12726571Y-10379174D01*
X12726571Y-10379174D02*
X12745618Y-10369650D01*
X12745618Y-10369650D02*
X12774190Y-10369650D01*
X12774190Y-10369650D02*
X12793237Y-10379174D01*
X12793237Y-10379174D02*
X12802761Y-10398222D01*
X12802761Y-10398222D02*
X12802761Y-10502984D01*
X13193237Y-10293460D02*
X13021809Y-10550603D01*
X13450380Y-10302984D02*
X13469428Y-10302984D01*
X13469428Y-10302984D02*
X13488476Y-10312508D01*
X13488476Y-10312508D02*
X13497999Y-10322031D01*
X13497999Y-10322031D02*
X13507523Y-10341079D01*
X13507523Y-10341079D02*
X13517047Y-10379174D01*
X13517047Y-10379174D02*
X13517047Y-10426793D01*
X13517047Y-10426793D02*
X13507523Y-10464889D01*
X13507523Y-10464889D02*
X13497999Y-10483936D01*
X13497999Y-10483936D02*
X13488476Y-10493460D01*
X13488476Y-10493460D02*
X13469428Y-10502984D01*
X13469428Y-10502984D02*
X13450380Y-10502984D01*
X13450380Y-10502984D02*
X13431333Y-10493460D01*
X13431333Y-10493460D02*
X13421809Y-10483936D01*
X13421809Y-10483936D02*
X13412285Y-10464889D01*
X13412285Y-10464889D02*
X13402761Y-10426793D01*
X13402761Y-10426793D02*
X13402761Y-10379174D01*
X13402761Y-10379174D02*
X13412285Y-10341079D01*
X13412285Y-10341079D02*
X13421809Y-10322031D01*
X13421809Y-10322031D02*
X13431333Y-10312508D01*
X13431333Y-10312508D02*
X13450380Y-10302984D01*
X13602761Y-10483936D02*
X13612285Y-10493460D01*
X13612285Y-10493460D02*
X13602761Y-10502984D01*
X13602761Y-10502984D02*
X13593237Y-10493460D01*
X13593237Y-10493460D02*
X13602761Y-10483936D01*
X13602761Y-10483936D02*
X13602761Y-10502984D01*
X13736095Y-10302984D02*
X13755142Y-10302984D01*
X13755142Y-10302984D02*
X13774190Y-10312508D01*
X13774190Y-10312508D02*
X13783714Y-10322031D01*
X13783714Y-10322031D02*
X13793237Y-10341079D01*
X13793237Y-10341079D02*
X13802761Y-10379174D01*
X13802761Y-10379174D02*
X13802761Y-10426793D01*
X13802761Y-10426793D02*
X13793237Y-10464889D01*
X13793237Y-10464889D02*
X13783714Y-10483936D01*
X13783714Y-10483936D02*
X13774190Y-10493460D01*
X13774190Y-10493460D02*
X13755142Y-10502984D01*
X13755142Y-10502984D02*
X13736095Y-10502984D01*
X13736095Y-10502984D02*
X13717047Y-10493460D01*
X13717047Y-10493460D02*
X13707523Y-10483936D01*
X13707523Y-10483936D02*
X13697999Y-10464889D01*
X13697999Y-10464889D02*
X13688476Y-10426793D01*
X13688476Y-10426793D02*
X13688476Y-10379174D01*
X13688476Y-10379174D02*
X13697999Y-10341079D01*
X13697999Y-10341079D02*
X13707523Y-10322031D01*
X13707523Y-10322031D02*
X13717047Y-10312508D01*
X13717047Y-10312508D02*
X13736095Y-10302984D01*
X13869428Y-10302984D02*
X13993237Y-10302984D01*
X13993237Y-10302984D02*
X13926571Y-10379174D01*
X13926571Y-10379174D02*
X13955142Y-10379174D01*
X13955142Y-10379174D02*
X13974190Y-10388698D01*
X13974190Y-10388698D02*
X13983714Y-10398222D01*
X13983714Y-10398222D02*
X13993237Y-10417270D01*
X13993237Y-10417270D02*
X13993237Y-10464889D01*
X13993237Y-10464889D02*
X13983714Y-10483936D01*
X13983714Y-10483936D02*
X13974190Y-10493460D01*
X13974190Y-10493460D02*
X13955142Y-10502984D01*
X13955142Y-10502984D02*
X13897999Y-10502984D01*
X13897999Y-10502984D02*
X13878952Y-10493460D01*
X13878952Y-10493460D02*
X13869428Y-10483936D01*
X14088476Y-10502984D02*
X14126571Y-10502984D01*
X14126571Y-10502984D02*
X14145618Y-10493460D01*
X14145618Y-10493460D02*
X14155142Y-10483936D01*
X14155142Y-10483936D02*
X14174190Y-10455365D01*
X14174190Y-10455365D02*
X14183714Y-10417270D01*
X14183714Y-10417270D02*
X14183714Y-10341079D01*
X14183714Y-10341079D02*
X14174190Y-10322031D01*
X14174190Y-10322031D02*
X14164666Y-10312508D01*
X14164666Y-10312508D02*
X14145618Y-10302984D01*
X14145618Y-10302984D02*
X14107523Y-10302984D01*
X14107523Y-10302984D02*
X14088476Y-10312508D01*
X14088476Y-10312508D02*
X14078952Y-10322031D01*
X14078952Y-10322031D02*
X14069428Y-10341079D01*
X14069428Y-10341079D02*
X14069428Y-10388698D01*
X14069428Y-10388698D02*
X14078952Y-10407746D01*
X14078952Y-10407746D02*
X14088476Y-10417270D01*
X14088476Y-10417270D02*
X14107523Y-10426793D01*
X14107523Y-10426793D02*
X14145618Y-10426793D01*
X14145618Y-10426793D02*
X14164666Y-10417270D01*
X14164666Y-10417270D02*
X14174190Y-10407746D01*
X14174190Y-10407746D02*
X14183714Y-10388698D01*
X14355142Y-10369650D02*
X14355142Y-10502984D01*
X14307523Y-10293460D02*
X14259904Y-10436317D01*
X14259904Y-10436317D02*
X14383714Y-10436317D01*
X14450380Y-10302984D02*
X14450380Y-10341079D01*
X14526571Y-10302984D02*
X14526571Y-10341079D01*
X14821809Y-10579174D02*
X14812285Y-10569650D01*
X14812285Y-10569650D02*
X14793238Y-10541079D01*
X14793238Y-10541079D02*
X14783714Y-10522031D01*
X14783714Y-10522031D02*
X14774190Y-10493460D01*
X14774190Y-10493460D02*
X14764666Y-10445841D01*
X14764666Y-10445841D02*
X14764666Y-10407746D01*
X14764666Y-10407746D02*
X14774190Y-10360127D01*
X14774190Y-10360127D02*
X14783714Y-10331555D01*
X14783714Y-10331555D02*
X14793238Y-10312508D01*
X14793238Y-10312508D02*
X14812285Y-10283936D01*
X14812285Y-10283936D02*
X14821809Y-10274412D01*
X15002761Y-10502984D02*
X14888476Y-10502984D01*
X14945618Y-10502984D02*
X14945618Y-10302984D01*
X14945618Y-10302984D02*
X14926571Y-10331555D01*
X14926571Y-10331555D02*
X14907523Y-10350603D01*
X14907523Y-10350603D02*
X14888476Y-10360127D01*
X15078952Y-10322031D02*
X15088476Y-10312508D01*
X15088476Y-10312508D02*
X15107523Y-10302984D01*
X15107523Y-10302984D02*
X15155142Y-10302984D01*
X15155142Y-10302984D02*
X15174190Y-10312508D01*
X15174190Y-10312508D02*
X15183714Y-10322031D01*
X15183714Y-10322031D02*
X15193238Y-10341079D01*
X15193238Y-10341079D02*
X15193238Y-10360127D01*
X15193238Y-10360127D02*
X15183714Y-10388698D01*
X15183714Y-10388698D02*
X15069428Y-10502984D01*
X15069428Y-10502984D02*
X15193238Y-10502984D01*
X15431333Y-10502984D02*
X15431333Y-10302984D01*
X15517047Y-10502984D02*
X15517047Y-10398222D01*
X15517047Y-10398222D02*
X15507523Y-10379174D01*
X15507523Y-10379174D02*
X15488476Y-10369650D01*
X15488476Y-10369650D02*
X15459904Y-10369650D01*
X15459904Y-10369650D02*
X15440857Y-10379174D01*
X15440857Y-10379174D02*
X15431333Y-10388698D01*
X15640857Y-10502984D02*
X15621809Y-10493460D01*
X15621809Y-10493460D02*
X15612285Y-10483936D01*
X15612285Y-10483936D02*
X15602761Y-10464889D01*
X15602761Y-10464889D02*
X15602761Y-10407746D01*
X15602761Y-10407746D02*
X15612285Y-10388698D01*
X15612285Y-10388698D02*
X15621809Y-10379174D01*
X15621809Y-10379174D02*
X15640857Y-10369650D01*
X15640857Y-10369650D02*
X15669428Y-10369650D01*
X15669428Y-10369650D02*
X15688476Y-10379174D01*
X15688476Y-10379174D02*
X15698000Y-10388698D01*
X15698000Y-10388698D02*
X15707523Y-10407746D01*
X15707523Y-10407746D02*
X15707523Y-10464889D01*
X15707523Y-10464889D02*
X15698000Y-10483936D01*
X15698000Y-10483936D02*
X15688476Y-10493460D01*
X15688476Y-10493460D02*
X15669428Y-10502984D01*
X15669428Y-10502984D02*
X15640857Y-10502984D01*
X15821809Y-10502984D02*
X15802761Y-10493460D01*
X15802761Y-10493460D02*
X15793238Y-10474412D01*
X15793238Y-10474412D02*
X15793238Y-10302984D01*
X15974190Y-10493460D02*
X15955142Y-10502984D01*
X15955142Y-10502984D02*
X15917047Y-10502984D01*
X15917047Y-10502984D02*
X15898000Y-10493460D01*
X15898000Y-10493460D02*
X15888476Y-10474412D01*
X15888476Y-10474412D02*
X15888476Y-10398222D01*
X15888476Y-10398222D02*
X15898000Y-10379174D01*
X15898000Y-10379174D02*
X15917047Y-10369650D01*
X15917047Y-10369650D02*
X15955142Y-10369650D01*
X15955142Y-10369650D02*
X15974190Y-10379174D01*
X15974190Y-10379174D02*
X15983714Y-10398222D01*
X15983714Y-10398222D02*
X15983714Y-10417270D01*
X15983714Y-10417270D02*
X15888476Y-10436317D01*
X16059904Y-10493460D02*
X16078952Y-10502984D01*
X16078952Y-10502984D02*
X16117047Y-10502984D01*
X16117047Y-10502984D02*
X16136095Y-10493460D01*
X16136095Y-10493460D02*
X16145619Y-10474412D01*
X16145619Y-10474412D02*
X16145619Y-10464889D01*
X16145619Y-10464889D02*
X16136095Y-10445841D01*
X16136095Y-10445841D02*
X16117047Y-10436317D01*
X16117047Y-10436317D02*
X16088476Y-10436317D01*
X16088476Y-10436317D02*
X16069428Y-10426793D01*
X16069428Y-10426793D02*
X16059904Y-10407746D01*
X16059904Y-10407746D02*
X16059904Y-10398222D01*
X16059904Y-10398222D02*
X16069428Y-10379174D01*
X16069428Y-10379174D02*
X16088476Y-10369650D01*
X16088476Y-10369650D02*
X16117047Y-10369650D01*
X16117047Y-10369650D02*
X16136095Y-10379174D01*
X16212285Y-10579174D02*
X16221809Y-10569650D01*
X16221809Y-10569650D02*
X16240857Y-10541079D01*
X16240857Y-10541079D02*
X16250381Y-10522031D01*
X16250381Y-10522031D02*
X16259904Y-10493460D01*
X16259904Y-10493460D02*
X16269428Y-10445841D01*
X16269428Y-10445841D02*
X16269428Y-10407746D01*
X16269428Y-10407746D02*
X16259904Y-10360127D01*
X16259904Y-10360127D02*
X16250381Y-10331555D01*
X16250381Y-10331555D02*
X16240857Y-10312508D01*
X16240857Y-10312508D02*
X16221809Y-10283936D01*
X16221809Y-10283936D02*
X16212285Y-10274412D01*
D13*
X11186746Y-10615500D02*
X11186746Y-10735500D01*
X11126746Y-10675500D02*
X11246746Y-10675500D01*
D11*
X11612285Y-10766984D02*
X11497999Y-10766984D01*
X11555142Y-10766984D02*
X11555142Y-10566984D01*
X11555142Y-10566984D02*
X11536094Y-10595555D01*
X11536094Y-10595555D02*
X11517047Y-10614603D01*
X11517047Y-10614603D02*
X11497999Y-10624127D01*
X11697999Y-10747936D02*
X11707523Y-10757460D01*
X11707523Y-10757460D02*
X11697999Y-10766984D01*
X11697999Y-10766984D02*
X11688475Y-10757460D01*
X11688475Y-10757460D02*
X11697999Y-10747936D01*
X11697999Y-10747936D02*
X11697999Y-10766984D01*
X11783713Y-10586031D02*
X11793237Y-10576508D01*
X11793237Y-10576508D02*
X11812285Y-10566984D01*
X11812285Y-10566984D02*
X11859904Y-10566984D01*
X11859904Y-10566984D02*
X11878952Y-10576508D01*
X11878952Y-10576508D02*
X11888475Y-10586031D01*
X11888475Y-10586031D02*
X11897999Y-10605079D01*
X11897999Y-10605079D02*
X11897999Y-10624127D01*
X11897999Y-10624127D02*
X11888475Y-10652698D01*
X11888475Y-10652698D02*
X11774190Y-10766984D01*
X11774190Y-10766984D02*
X11897999Y-10766984D01*
X12021809Y-10566984D02*
X12040856Y-10566984D01*
X12040856Y-10566984D02*
X12059904Y-10576508D01*
X12059904Y-10576508D02*
X12069428Y-10586031D01*
X12069428Y-10586031D02*
X12078952Y-10605079D01*
X12078952Y-10605079D02*
X12088475Y-10643174D01*
X12088475Y-10643174D02*
X12088475Y-10690793D01*
X12088475Y-10690793D02*
X12078952Y-10728889D01*
X12078952Y-10728889D02*
X12069428Y-10747936D01*
X12069428Y-10747936D02*
X12059904Y-10757460D01*
X12059904Y-10757460D02*
X12040856Y-10766984D01*
X12040856Y-10766984D02*
X12021809Y-10766984D01*
X12021809Y-10766984D02*
X12002761Y-10757460D01*
X12002761Y-10757460D02*
X11993237Y-10747936D01*
X11993237Y-10747936D02*
X11983713Y-10728889D01*
X11983713Y-10728889D02*
X11974190Y-10690793D01*
X11974190Y-10690793D02*
X11974190Y-10643174D01*
X11974190Y-10643174D02*
X11983713Y-10605079D01*
X11983713Y-10605079D02*
X11993237Y-10586031D01*
X11993237Y-10586031D02*
X12002761Y-10576508D01*
X12002761Y-10576508D02*
X12021809Y-10566984D01*
X12212285Y-10566984D02*
X12231333Y-10566984D01*
X12231333Y-10566984D02*
X12250380Y-10576508D01*
X12250380Y-10576508D02*
X12259904Y-10586031D01*
X12259904Y-10586031D02*
X12269428Y-10605079D01*
X12269428Y-10605079D02*
X12278952Y-10643174D01*
X12278952Y-10643174D02*
X12278952Y-10690793D01*
X12278952Y-10690793D02*
X12269428Y-10728889D01*
X12269428Y-10728889D02*
X12259904Y-10747936D01*
X12259904Y-10747936D02*
X12250380Y-10757460D01*
X12250380Y-10757460D02*
X12231333Y-10766984D01*
X12231333Y-10766984D02*
X12212285Y-10766984D01*
X12212285Y-10766984D02*
X12193237Y-10757460D01*
X12193237Y-10757460D02*
X12183713Y-10747936D01*
X12183713Y-10747936D02*
X12174190Y-10728889D01*
X12174190Y-10728889D02*
X12164666Y-10690793D01*
X12164666Y-10690793D02*
X12164666Y-10643174D01*
X12164666Y-10643174D02*
X12174190Y-10605079D01*
X12174190Y-10605079D02*
X12183713Y-10586031D01*
X12183713Y-10586031D02*
X12193237Y-10576508D01*
X12193237Y-10576508D02*
X12212285Y-10566984D01*
X12364666Y-10766984D02*
X12364666Y-10633650D01*
X12364666Y-10652698D02*
X12374190Y-10643174D01*
X12374190Y-10643174D02*
X12393237Y-10633650D01*
X12393237Y-10633650D02*
X12421809Y-10633650D01*
X12421809Y-10633650D02*
X12440856Y-10643174D01*
X12440856Y-10643174D02*
X12450380Y-10662222D01*
X12450380Y-10662222D02*
X12450380Y-10766984D01*
X12450380Y-10662222D02*
X12459904Y-10643174D01*
X12459904Y-10643174D02*
X12478952Y-10633650D01*
X12478952Y-10633650D02*
X12507523Y-10633650D01*
X12507523Y-10633650D02*
X12526571Y-10643174D01*
X12526571Y-10643174D02*
X12536094Y-10662222D01*
X12536094Y-10662222D02*
X12536094Y-10766984D01*
X12631333Y-10766984D02*
X12631333Y-10633650D01*
X12631333Y-10652698D02*
X12640856Y-10643174D01*
X12640856Y-10643174D02*
X12659904Y-10633650D01*
X12659904Y-10633650D02*
X12688475Y-10633650D01*
X12688475Y-10633650D02*
X12707523Y-10643174D01*
X12707523Y-10643174D02*
X12717047Y-10662222D01*
X12717047Y-10662222D02*
X12717047Y-10766984D01*
X12717047Y-10662222D02*
X12726571Y-10643174D01*
X12726571Y-10643174D02*
X12745618Y-10633650D01*
X12745618Y-10633650D02*
X12774190Y-10633650D01*
X12774190Y-10633650D02*
X12793237Y-10643174D01*
X12793237Y-10643174D02*
X12802761Y-10662222D01*
X12802761Y-10662222D02*
X12802761Y-10766984D01*
X13193237Y-10557460D02*
X13021809Y-10814603D01*
X13450380Y-10566984D02*
X13469428Y-10566984D01*
X13469428Y-10566984D02*
X13488476Y-10576508D01*
X13488476Y-10576508D02*
X13497999Y-10586031D01*
X13497999Y-10586031D02*
X13507523Y-10605079D01*
X13507523Y-10605079D02*
X13517047Y-10643174D01*
X13517047Y-10643174D02*
X13517047Y-10690793D01*
X13517047Y-10690793D02*
X13507523Y-10728889D01*
X13507523Y-10728889D02*
X13497999Y-10747936D01*
X13497999Y-10747936D02*
X13488476Y-10757460D01*
X13488476Y-10757460D02*
X13469428Y-10766984D01*
X13469428Y-10766984D02*
X13450380Y-10766984D01*
X13450380Y-10766984D02*
X13431333Y-10757460D01*
X13431333Y-10757460D02*
X13421809Y-10747936D01*
X13421809Y-10747936D02*
X13412285Y-10728889D01*
X13412285Y-10728889D02*
X13402761Y-10690793D01*
X13402761Y-10690793D02*
X13402761Y-10643174D01*
X13402761Y-10643174D02*
X13412285Y-10605079D01*
X13412285Y-10605079D02*
X13421809Y-10586031D01*
X13421809Y-10586031D02*
X13431333Y-10576508D01*
X13431333Y-10576508D02*
X13450380Y-10566984D01*
X13602761Y-10747936D02*
X13612285Y-10757460D01*
X13612285Y-10757460D02*
X13602761Y-10766984D01*
X13602761Y-10766984D02*
X13593237Y-10757460D01*
X13593237Y-10757460D02*
X13602761Y-10747936D01*
X13602761Y-10747936D02*
X13602761Y-10766984D01*
X13736095Y-10566984D02*
X13755142Y-10566984D01*
X13755142Y-10566984D02*
X13774190Y-10576508D01*
X13774190Y-10576508D02*
X13783714Y-10586031D01*
X13783714Y-10586031D02*
X13793237Y-10605079D01*
X13793237Y-10605079D02*
X13802761Y-10643174D01*
X13802761Y-10643174D02*
X13802761Y-10690793D01*
X13802761Y-10690793D02*
X13793237Y-10728889D01*
X13793237Y-10728889D02*
X13783714Y-10747936D01*
X13783714Y-10747936D02*
X13774190Y-10757460D01*
X13774190Y-10757460D02*
X13755142Y-10766984D01*
X13755142Y-10766984D02*
X13736095Y-10766984D01*
X13736095Y-10766984D02*
X13717047Y-10757460D01*
X13717047Y-10757460D02*
X13707523Y-10747936D01*
X13707523Y-10747936D02*
X13697999Y-10728889D01*
X13697999Y-10728889D02*
X13688476Y-10690793D01*
X13688476Y-10690793D02*
X13688476Y-10643174D01*
X13688476Y-10643174D02*
X13697999Y-10605079D01*
X13697999Y-10605079D02*
X13707523Y-10586031D01*
X13707523Y-10586031D02*
X13717047Y-10576508D01*
X13717047Y-10576508D02*
X13736095Y-10566984D01*
X13974190Y-10633650D02*
X13974190Y-10766984D01*
X13926571Y-10557460D02*
X13878952Y-10700317D01*
X13878952Y-10700317D02*
X14002761Y-10700317D01*
X14059904Y-10566984D02*
X14193237Y-10566984D01*
X14193237Y-10566984D02*
X14107523Y-10766984D01*
X14259904Y-10586031D02*
X14269428Y-10576508D01*
X14269428Y-10576508D02*
X14288476Y-10566984D01*
X14288476Y-10566984D02*
X14336095Y-10566984D01*
X14336095Y-10566984D02*
X14355142Y-10576508D01*
X14355142Y-10576508D02*
X14364666Y-10586031D01*
X14364666Y-10586031D02*
X14374190Y-10605079D01*
X14374190Y-10605079D02*
X14374190Y-10624127D01*
X14374190Y-10624127D02*
X14364666Y-10652698D01*
X14364666Y-10652698D02*
X14250380Y-10766984D01*
X14250380Y-10766984D02*
X14374190Y-10766984D01*
X14450380Y-10566984D02*
X14450380Y-10605079D01*
X14526571Y-10566984D02*
X14526571Y-10605079D01*
X14821809Y-10843174D02*
X14812285Y-10833650D01*
X14812285Y-10833650D02*
X14793238Y-10805079D01*
X14793238Y-10805079D02*
X14783714Y-10786031D01*
X14783714Y-10786031D02*
X14774190Y-10757460D01*
X14774190Y-10757460D02*
X14764666Y-10709841D01*
X14764666Y-10709841D02*
X14764666Y-10671746D01*
X14764666Y-10671746D02*
X14774190Y-10624127D01*
X14774190Y-10624127D02*
X14783714Y-10595555D01*
X14783714Y-10595555D02*
X14793238Y-10576508D01*
X14793238Y-10576508D02*
X14812285Y-10547936D01*
X14812285Y-10547936D02*
X14821809Y-10538412D01*
X14888476Y-10586031D02*
X14897999Y-10576508D01*
X14897999Y-10576508D02*
X14917047Y-10566984D01*
X14917047Y-10566984D02*
X14964666Y-10566984D01*
X14964666Y-10566984D02*
X14983714Y-10576508D01*
X14983714Y-10576508D02*
X14993238Y-10586031D01*
X14993238Y-10586031D02*
X15002761Y-10605079D01*
X15002761Y-10605079D02*
X15002761Y-10624127D01*
X15002761Y-10624127D02*
X14993238Y-10652698D01*
X14993238Y-10652698D02*
X14878952Y-10766984D01*
X14878952Y-10766984D02*
X15002761Y-10766984D01*
X15240857Y-10766984D02*
X15240857Y-10566984D01*
X15326571Y-10766984D02*
X15326571Y-10662222D01*
X15326571Y-10662222D02*
X15317047Y-10643174D01*
X15317047Y-10643174D02*
X15298000Y-10633650D01*
X15298000Y-10633650D02*
X15269428Y-10633650D01*
X15269428Y-10633650D02*
X15250380Y-10643174D01*
X15250380Y-10643174D02*
X15240857Y-10652698D01*
X15450380Y-10766984D02*
X15431333Y-10757460D01*
X15431333Y-10757460D02*
X15421809Y-10747936D01*
X15421809Y-10747936D02*
X15412285Y-10728889D01*
X15412285Y-10728889D02*
X15412285Y-10671746D01*
X15412285Y-10671746D02*
X15421809Y-10652698D01*
X15421809Y-10652698D02*
X15431333Y-10643174D01*
X15431333Y-10643174D02*
X15450380Y-10633650D01*
X15450380Y-10633650D02*
X15478952Y-10633650D01*
X15478952Y-10633650D02*
X15498000Y-10643174D01*
X15498000Y-10643174D02*
X15507523Y-10652698D01*
X15507523Y-10652698D02*
X15517047Y-10671746D01*
X15517047Y-10671746D02*
X15517047Y-10728889D01*
X15517047Y-10728889D02*
X15507523Y-10747936D01*
X15507523Y-10747936D02*
X15498000Y-10757460D01*
X15498000Y-10757460D02*
X15478952Y-10766984D01*
X15478952Y-10766984D02*
X15450380Y-10766984D01*
X15631333Y-10766984D02*
X15612285Y-10757460D01*
X15612285Y-10757460D02*
X15602761Y-10738412D01*
X15602761Y-10738412D02*
X15602761Y-10566984D01*
X15783714Y-10757460D02*
X15764666Y-10766984D01*
X15764666Y-10766984D02*
X15726571Y-10766984D01*
X15726571Y-10766984D02*
X15707523Y-10757460D01*
X15707523Y-10757460D02*
X15698000Y-10738412D01*
X15698000Y-10738412D02*
X15698000Y-10662222D01*
X15698000Y-10662222D02*
X15707523Y-10643174D01*
X15707523Y-10643174D02*
X15726571Y-10633650D01*
X15726571Y-10633650D02*
X15764666Y-10633650D01*
X15764666Y-10633650D02*
X15783714Y-10643174D01*
X15783714Y-10643174D02*
X15793238Y-10662222D01*
X15793238Y-10662222D02*
X15793238Y-10681270D01*
X15793238Y-10681270D02*
X15698000Y-10700317D01*
X15869428Y-10757460D02*
X15888476Y-10766984D01*
X15888476Y-10766984D02*
X15926571Y-10766984D01*
X15926571Y-10766984D02*
X15945619Y-10757460D01*
X15945619Y-10757460D02*
X15955142Y-10738412D01*
X15955142Y-10738412D02*
X15955142Y-10728889D01*
X15955142Y-10728889D02*
X15945619Y-10709841D01*
X15945619Y-10709841D02*
X15926571Y-10700317D01*
X15926571Y-10700317D02*
X15898000Y-10700317D01*
X15898000Y-10700317D02*
X15878952Y-10690793D01*
X15878952Y-10690793D02*
X15869428Y-10671746D01*
X15869428Y-10671746D02*
X15869428Y-10662222D01*
X15869428Y-10662222D02*
X15878952Y-10643174D01*
X15878952Y-10643174D02*
X15898000Y-10633650D01*
X15898000Y-10633650D02*
X15926571Y-10633650D01*
X15926571Y-10633650D02*
X15945619Y-10643174D01*
X16021809Y-10843174D02*
X16031333Y-10833650D01*
X16031333Y-10833650D02*
X16050381Y-10805079D01*
X16050381Y-10805079D02*
X16059904Y-10786031D01*
X16059904Y-10786031D02*
X16069428Y-10757460D01*
X16069428Y-10757460D02*
X16078952Y-10709841D01*
X16078952Y-10709841D02*
X16078952Y-10671746D01*
X16078952Y-10671746D02*
X16069428Y-10624127D01*
X16069428Y-10624127D02*
X16059904Y-10595555D01*
X16059904Y-10595555D02*
X16050381Y-10576508D01*
X16050381Y-10576508D02*
X16031333Y-10547936D01*
X16031333Y-10547936D02*
X16021809Y-10538412D01*
M02*
