%TF.GenerationSoftware,KiCad,Pcbnew,9.0.4*%
%TF.CreationDate,2025-11-19T22:49:49-05:00*%
%TF.ProjectId,ABRARACOURCIX_main_board,41425241-5241-4434-9f55-524349585f6d,rev?*%
%TF.SameCoordinates,Original*%
%TF.FileFunction,Soldermask,Top*%
%TF.FilePolarity,Negative*%
%FSLAX46Y46*%
G04 Gerber Fmt 4.6, Leading zero omitted, Abs format (unit mm)*
G04 Created by KiCad (PCBNEW 9.0.4) date 2025-11-19 22:49:49*
%MOMM*%
%LPD*%
G01*
G04 APERTURE LIST*
G04 Aperture macros list*
%AMRoundRect*
0 Rectangle with rounded corners*
0 $1 Rounding radius*
0 $2 $3 $4 $5 $6 $7 $8 $9 X,Y pos of 4 corners*
0 Add a 4 corners polygon primitive as box body*
4,1,4,$2,$3,$4,$5,$6,$7,$8,$9,$2,$3,0*
0 Add four circle primitives for the rounded corners*
1,1,$1+$1,$2,$3*
1,1,$1+$1,$4,$5*
1,1,$1+$1,$6,$7*
1,1,$1+$1,$8,$9*
0 Add four rect primitives between the rounded corners*
20,1,$1+$1,$2,$3,$4,$5,0*
20,1,$1+$1,$4,$5,$6,$7,0*
20,1,$1+$1,$6,$7,$8,$9,0*
20,1,$1+$1,$8,$9,$2,$3,0*%
G04 Aperture macros list end*
%ADD10RoundRect,0.100500X-0.986500X-0.301500X0.986500X-0.301500X0.986500X0.301500X-0.986500X0.301500X0*%
%ADD11RoundRect,0.225000X-0.225000X-0.375000X0.225000X-0.375000X0.225000X0.375000X-0.225000X0.375000X0*%
%ADD12RoundRect,0.250000X0.400000X0.625000X-0.400000X0.625000X-0.400000X-0.625000X0.400000X-0.625000X0*%
%ADD13RoundRect,0.250000X0.625000X-0.400000X0.625000X0.400000X-0.625000X0.400000X-0.625000X-0.400000X0*%
%ADD14RoundRect,0.250000X0.650000X-0.412500X0.650000X0.412500X-0.650000X0.412500X-0.650000X-0.412500X0*%
%ADD15RoundRect,0.250000X-0.400000X-0.625000X0.400000X-0.625000X0.400000X0.625000X-0.400000X0.625000X0*%
%ADD16RoundRect,0.250000X-0.412500X-0.650000X0.412500X-0.650000X0.412500X0.650000X-0.412500X0.650000X0*%
%ADD17C,3.920000*%
%ADD18O,1.404000X2.604000*%
%ADD19RoundRect,0.249997X2.950003X2.650003X-2.950003X2.650003X-2.950003X-2.650003X2.950003X-2.650003X0*%
%ADD20RoundRect,0.250000X0.850000X0.350000X-0.850000X0.350000X-0.850000X-0.350000X0.850000X-0.350000X0*%
%ADD21RoundRect,0.075000X0.075000X-0.725000X0.075000X0.725000X-0.075000X0.725000X-0.075000X-0.725000X0*%
%ADD22RoundRect,0.075000X0.725000X-0.075000X0.725000X0.075000X-0.725000X0.075000X-0.725000X-0.075000X0*%
%ADD23RoundRect,0.250001X-0.624999X0.462499X-0.624999X-0.462499X0.624999X-0.462499X0.624999X0.462499X0*%
%ADD24RoundRect,0.250000X-0.625000X0.400000X-0.625000X-0.400000X0.625000X-0.400000X0.625000X0.400000X0*%
%ADD25R,2.000000X2.000000*%
%ADD26RoundRect,0.250000X-0.650000X0.412500X-0.650000X-0.412500X0.650000X-0.412500X0.650000X0.412500X0*%
%ADD27RoundRect,0.150000X0.150000X-0.587500X0.150000X0.587500X-0.150000X0.587500X-0.150000X-0.587500X0*%
%ADD28C,6.000000*%
%ADD29C,2.000000*%
%ADD30R,1.700000X1.700000*%
%ADD31C,1.700000*%
%ADD32RoundRect,0.250000X0.262500X0.450000X-0.262500X0.450000X-0.262500X-0.450000X0.262500X-0.450000X0*%
%ADD33R,0.800000X1.456400*%
%ADD34R,3.099999X1.456400*%
%ADD35RoundRect,0.150000X-0.150000X0.512500X-0.150000X-0.512500X0.150000X-0.512500X0.150000X0.512500X0*%
%ADD36RoundRect,0.102000X0.550000X0.950000X-0.550000X0.950000X-0.550000X-0.950000X0.550000X-0.950000X0*%
%ADD37R,0.863600X5.257800*%
%ADD38RoundRect,0.100000X-0.150000X-0.262500X0.150000X-0.262500X0.150000X0.262500X-0.150000X0.262500X0*%
%ADD39RoundRect,0.100000X-0.212500X-0.150000X0.212500X-0.150000X0.212500X0.150000X-0.212500X0.150000X0*%
%ADD40O,1.504000X2.804000*%
G04 APERTURE END LIST*
D10*
%TO.C,U3*%
X-48950000Y1305000D03*
X-48950000Y35000D03*
X-48950000Y-1235000D03*
X-48950000Y-2505000D03*
X-44000000Y-2505000D03*
X-44000000Y-1235000D03*
X-44000000Y35000D03*
X-44000000Y1305000D03*
%TD*%
D11*
%TO.C,DZ1*%
X-30900000Y9150000D03*
X-27600000Y9150000D03*
%TD*%
D12*
%TO.C,R17*%
X1450000Y27800000D03*
X-1650000Y27800000D03*
%TD*%
D13*
%TO.C,R8*%
X24800000Y2100000D03*
X24800000Y5200000D03*
%TD*%
D14*
%TO.C,C9*%
X24800000Y8300000D03*
X24800000Y11425000D03*
%TD*%
D15*
%TO.C,R4*%
X6550000Y19700000D03*
X9650000Y19700000D03*
%TD*%
D16*
%TO.C,C17*%
X-40762500Y-2700000D03*
X-37637500Y-2700000D03*
%TD*%
D13*
%TO.C,R12*%
X-6375000Y33950000D03*
X-6375000Y37050000D03*
%TD*%
D17*
%TO.C,J10*%
X-56400000Y3250000D03*
X-63600000Y3250000D03*
D18*
X-53250000Y9250000D03*
X-66750000Y9250000D03*
%TD*%
D16*
%TO.C,C16*%
X-40762500Y1100000D03*
X-37637500Y1100000D03*
%TD*%
D19*
%TO.C,Q3*%
X-46400000Y-9527500D03*
D20*
X-40100000Y-7247500D03*
X-40100000Y-11807500D03*
%TD*%
D21*
%TO.C,U1*%
X7475000Y-3600000D03*
X7975000Y-3600000D03*
X8475000Y-3600000D03*
X8975000Y-3600000D03*
X9475000Y-3600000D03*
X9975000Y-3600000D03*
X10475000Y-3600000D03*
X10975000Y-3600000D03*
X11475000Y-3600000D03*
X11975000Y-3600000D03*
X12475000Y-3600000D03*
X12975000Y-3600000D03*
X13475000Y-3600000D03*
X13975000Y-3600000D03*
X14475000Y-3600000D03*
X14975000Y-3600000D03*
X15475000Y-3600000D03*
X15975000Y-3600000D03*
X16475000Y-3600000D03*
X16975000Y-3600000D03*
X17475000Y-3600000D03*
X17975000Y-3600000D03*
X18475000Y-3600000D03*
X18975000Y-3600000D03*
X19475000Y-3600000D03*
D22*
X21150000Y-1925000D03*
X21150000Y-1425000D03*
X21150000Y-925000D03*
X21150000Y-425000D03*
X21150000Y75000D03*
X21150000Y575000D03*
X21150000Y1075000D03*
X21150000Y1575000D03*
X21150000Y2075000D03*
X21150000Y2575000D03*
X21150000Y3075000D03*
X21150000Y3575000D03*
X21150000Y4075000D03*
X21150000Y4575000D03*
X21150000Y5075000D03*
X21150000Y5575000D03*
X21150000Y6075000D03*
X21150000Y6575000D03*
X21150000Y7075000D03*
X21150000Y7575000D03*
X21150000Y8075000D03*
X21150000Y8575000D03*
X21150000Y9075000D03*
X21150000Y9575000D03*
X21150000Y10075000D03*
D21*
X19475000Y11750000D03*
X18975000Y11750000D03*
X18475000Y11750000D03*
X17975000Y11750000D03*
X17475000Y11750000D03*
X16975000Y11750000D03*
X16475000Y11750000D03*
X15975000Y11750000D03*
X15475000Y11750000D03*
X14975000Y11750000D03*
X14475000Y11750000D03*
X13975000Y11750000D03*
X13475000Y11750000D03*
X12975000Y11750000D03*
X12475000Y11750000D03*
X11975000Y11750000D03*
X11475000Y11750000D03*
X10975000Y11750000D03*
X10475000Y11750000D03*
X9975000Y11750000D03*
X9475000Y11750000D03*
X8975000Y11750000D03*
X8475000Y11750000D03*
X7975000Y11750000D03*
X7475000Y11750000D03*
D22*
X5800000Y10075000D03*
X5800000Y9575000D03*
X5800000Y9075000D03*
X5800000Y8575000D03*
X5800000Y8075000D03*
X5800000Y7575000D03*
X5800000Y7075000D03*
X5800000Y6575000D03*
X5800000Y6075000D03*
X5800000Y5575000D03*
X5800000Y5075000D03*
X5800000Y4575000D03*
X5800000Y4075000D03*
X5800000Y3575000D03*
X5800000Y3075000D03*
X5800000Y2575000D03*
X5800000Y2075000D03*
X5800000Y1575000D03*
X5800000Y1075000D03*
X5800000Y575000D03*
X5800000Y75000D03*
X5800000Y-425000D03*
X5800000Y-925000D03*
X5800000Y-1425000D03*
X5800000Y-1925000D03*
%TD*%
D23*
%TO.C,D1*%
X6350000Y-17140000D03*
X6350000Y-20115000D03*
%TD*%
D14*
%TO.C,C12*%
X-6800000Y1637500D03*
X-6800000Y4762500D03*
%TD*%
D24*
%TO.C,R15*%
X-9500000Y-17150000D03*
X-9500000Y-20250000D03*
%TD*%
D25*
%TO.C,GND2*%
X15800000Y-15600000D03*
%TD*%
D10*
%TO.C,U6*%
X-2215000Y34905000D03*
X-2215000Y33635000D03*
X-2215000Y32365000D03*
X-2215000Y31095000D03*
X2725000Y31095000D03*
X2725000Y32365000D03*
X2725000Y33635000D03*
X2725000Y34905000D03*
%TD*%
D26*
%TO.C,C8*%
X7050000Y17112500D03*
X7050000Y13987500D03*
%TD*%
D24*
%TO.C,R13*%
X6725000Y46445000D03*
X6725000Y43345000D03*
%TD*%
D15*
%TO.C,R6*%
X-34450000Y-2200000D03*
X-31350000Y-2200000D03*
%TD*%
D27*
%TO.C,Q4*%
X-27450000Y-7537500D03*
X-26500000Y-5662500D03*
X-25550000Y-7537500D03*
%TD*%
D13*
%TO.C,R2*%
X-10700000Y-4650000D03*
X-10700000Y-1550000D03*
%TD*%
D28*
%TO.C,J8*%
X-38500000Y9200000D03*
X-45700000Y9200000D03*
%TD*%
D29*
%TO.C,J11*%
X-21900000Y11940000D03*
X-21900000Y9400000D03*
%TD*%
D24*
%TO.C,R3*%
X-10800000Y4750000D03*
X-10800000Y1650000D03*
%TD*%
D15*
%TO.C,R11*%
X-34450000Y-12000000D03*
X-31350000Y-12000000D03*
%TD*%
%TO.C,R5*%
X11450000Y15300000D03*
X14550000Y15300000D03*
%TD*%
D30*
%TO.C,J3*%
X-7160000Y-55985000D03*
D31*
X-9700000Y-55985000D03*
X-12240000Y-55985000D03*
%TD*%
D14*
%TO.C,C10*%
X14100000Y-10162500D03*
X14100000Y-7037500D03*
%TD*%
D30*
%TO.C,J4*%
X7120000Y56000000D03*
D31*
X9660000Y56000000D03*
X12200000Y56000000D03*
%TD*%
D24*
%TO.C,R14*%
X-10275000Y37145000D03*
X-10275000Y34045000D03*
%TD*%
D15*
%TO.C,R18*%
X-10095000Y29900000D03*
X-6995000Y29900000D03*
%TD*%
D32*
%TO.C,C21*%
X1212500Y52350000D03*
X-612500Y52350000D03*
%TD*%
D30*
%TO.C,J6*%
X2640000Y-56015000D03*
D31*
X100000Y-56015000D03*
X-2440000Y-56015000D03*
%TD*%
D33*
%TO.C,U4*%
X-11100000Y-8351600D03*
X-13400000Y-8351600D03*
X-15700000Y-8351600D03*
D34*
X-13400000Y-14300000D03*
%TD*%
D29*
%TO.C,J12*%
X1490000Y58000000D03*
X-1050000Y58000000D03*
%TD*%
D16*
%TO.C,C20*%
X-8962500Y22900000D03*
X-5837500Y22900000D03*
%TD*%
D14*
%TO.C,C7*%
X-1600000Y-8925000D03*
X-1600000Y-5800000D03*
%TD*%
D26*
%TO.C,C13*%
X-6800000Y-1537500D03*
X-6800000Y-4662500D03*
%TD*%
D16*
%TO.C,C4*%
X17037500Y-11000000D03*
X20162500Y-11000000D03*
%TD*%
D15*
%TO.C,PWR_R1*%
X-23450000Y6100000D03*
X-20350000Y6100000D03*
%TD*%
D14*
%TO.C,C1*%
X3600000Y13987500D03*
X3600000Y17112500D03*
%TD*%
D15*
%TO.C,R20*%
X-8950000Y17800000D03*
X-5850000Y17800000D03*
%TD*%
D14*
%TO.C,C18*%
X-14800000Y-4700000D03*
X-14800000Y-1575000D03*
%TD*%
D13*
%TO.C,R7*%
X-28400000Y-3150000D03*
X-28400000Y-50000D03*
%TD*%
D25*
%TO.C,SCL1*%
X11100000Y25800000D03*
%TD*%
D24*
%TO.C,R1*%
X10800000Y-17000000D03*
X10800000Y-20100000D03*
%TD*%
D30*
%TO.C,J2*%
X31500000Y1220000D03*
D31*
X31500000Y-1320000D03*
X31500000Y-3860000D03*
X31500000Y-6400000D03*
X31500000Y-8940000D03*
X31500000Y-11480000D03*
%TD*%
D25*
%TO.C,TX1*%
X24850000Y-11550000D03*
%TD*%
D35*
%TO.C,Q2*%
X-31950000Y-5662500D03*
X-32900000Y-7937500D03*
X-33850000Y-5662500D03*
%TD*%
D10*
%TO.C,U5*%
X-2285000Y46740000D03*
X-2285000Y45470000D03*
X-2285000Y44200000D03*
X-2285000Y42930000D03*
X2655000Y42930000D03*
X2655000Y44200000D03*
X2655000Y45470000D03*
X2655000Y46740000D03*
%TD*%
D36*
%TO.C,Y1*%
X450000Y5600000D03*
X-2050000Y5600000D03*
%TD*%
D37*
%TO.C,C11*%
X-6782200Y44750000D03*
X-12217800Y44750000D03*
%TD*%
D25*
%TO.C,SDA1*%
X6200000Y25800000D03*
%TD*%
D26*
%TO.C,C3*%
X24800000Y-937500D03*
X24800000Y-4062500D03*
%TD*%
D15*
%TO.C,R9*%
X28450000Y5200000D03*
X31550000Y5200000D03*
%TD*%
D30*
%TO.C,J5*%
X-12200000Y56000000D03*
D31*
X-9660000Y56000000D03*
X-7120000Y56000000D03*
%TD*%
D35*
%TO.C,Q5*%
X-29350000Y3812500D03*
X-28400000Y6087500D03*
X-30300000Y6087500D03*
%TD*%
D23*
%TO.C,D2*%
X-5600000Y-17212500D03*
X-5600000Y-20187500D03*
%TD*%
D25*
%TO.C,GND1*%
X10400000Y36400000D03*
%TD*%
D14*
%TO.C,C5*%
X2250000Y-8900000D03*
X2250000Y-5775000D03*
%TD*%
D38*
%TO.C,U2*%
X-2250000Y1562500D03*
D39*
X-2312500Y750000D03*
X-2312500Y250000D03*
X-2312500Y-250000D03*
X-2312500Y-750000D03*
D38*
X-2250000Y-1562500D03*
X-1750000Y-1562500D03*
X-1250000Y-1562500D03*
X-750000Y-1562500D03*
X-250000Y-1562500D03*
X250000Y-1562500D03*
X750000Y-1562500D03*
X1250000Y-1562500D03*
X1750000Y-1562500D03*
X2250000Y-1562500D03*
D39*
X2312500Y-750000D03*
X2312500Y-250000D03*
X2312500Y250000D03*
X2312500Y750000D03*
D38*
X2250000Y1562500D03*
X1750000Y1562500D03*
X1250000Y1562500D03*
X750000Y1562500D03*
X250000Y1562500D03*
X-250000Y1562500D03*
X-750000Y1562500D03*
X-1250000Y1562500D03*
X-1750000Y1562500D03*
%TD*%
D30*
%TO.C,J1*%
X36460000Y5900000D03*
D31*
X39000000Y5900000D03*
X41540000Y5900000D03*
X44080000Y5900000D03*
X46620000Y5900000D03*
%TD*%
D30*
%TO.C,J7*%
X12240000Y-56015000D03*
D31*
X9700000Y-56015000D03*
X7160000Y-56015000D03*
%TD*%
D15*
%TO.C,R10*%
X-28050000Y-12000000D03*
X-24950000Y-12000000D03*
%TD*%
D12*
%TO.C,R16*%
X1805000Y39000000D03*
X-1295000Y39000000D03*
%TD*%
D17*
%TO.C,J9*%
X-63600000Y-3150000D03*
X-56400000Y-3150000D03*
D40*
X-66750000Y-9150000D03*
X-53250000Y-9150000D03*
%TD*%
D16*
%TO.C,C6*%
X7937500Y-7200000D03*
X11062500Y-7200000D03*
%TD*%
D26*
%TO.C,C15*%
X1100000Y11662500D03*
X1100000Y8537500D03*
%TD*%
D14*
%TO.C,C19*%
X-6800000Y-12662500D03*
X-6800000Y-9537500D03*
%TD*%
D16*
%TO.C,C2*%
X17037500Y-7300000D03*
X20162500Y-7300000D03*
%TD*%
D25*
%TO.C,RX1*%
X24850000Y-7450000D03*
%TD*%
D14*
%TO.C,C14*%
X-2700000Y8537500D03*
X-2700000Y11662500D03*
%TD*%
D15*
%TO.C,R19*%
X-14650000Y11300000D03*
X-11550000Y11300000D03*
%TD*%
M02*
