%TF.GenerationSoftware,KiCad,Pcbnew,9.0.4*%
%TF.CreationDate,2025-12-01T12:13:36-05:00*%
%TF.ProjectId,ABRARACOURCIX_main_board,41425241-5241-4434-9f55-524349585f6d,rev?*%
%TF.SameCoordinates,Original*%
%TF.FileFunction,Soldermask,Bot*%
%TF.FilePolarity,Negative*%
%FSLAX46Y46*%
G04 Gerber Fmt 4.6, Leading zero omitted, Abs format (unit mm)*
G04 Created by KiCad (PCBNEW 9.0.4) date 2025-12-01 12:13:36*
%MOMM*%
%LPD*%
G01*
G04 APERTURE LIST*
G04 Aperture macros list*
%AMRoundRect*
0 Rectangle with rounded corners*
0 $1 Rounding radius*
0 $2 $3 $4 $5 $6 $7 $8 $9 X,Y pos of 4 corners*
0 Add a 4 corners polygon primitive as box body*
4,1,4,$2,$3,$4,$5,$6,$7,$8,$9,$2,$3,0*
0 Add four circle primitives for the rounded corners*
1,1,$1+$1,$2,$3*
1,1,$1+$1,$4,$5*
1,1,$1+$1,$6,$7*
1,1,$1+$1,$8,$9*
0 Add four rect primitives between the rounded corners*
20,1,$1+$1,$2,$3,$4,$5,0*
20,1,$1+$1,$4,$5,$6,$7,0*
20,1,$1+$1,$6,$7,$8,$9,0*
20,1,$1+$1,$8,$9,$2,$3,0*%
G04 Aperture macros list end*
%ADD10RoundRect,0.102000X-0.750000X-0.750000X0.750000X-0.750000X0.750000X0.750000X-0.750000X0.750000X0*%
%ADD11C,1.704000*%
%ADD12C,3.204000*%
%ADD13R,1.700000X1.700000*%
%ADD14C,1.700000*%
%ADD15RoundRect,0.102000X1.858000X-1.858000X1.858000X1.858000X-1.858000X1.858000X-1.858000X-1.858000X0*%
%ADD16C,3.920000*%
%ADD17O,2.604000X1.404000*%
%ADD18C,2.000000*%
%ADD19O,2.804000X1.504000*%
%ADD20C,2.134400*%
%ADD21C,4.204000*%
%ADD22RoundRect,1.500000X-1.500000X1.500000X-1.500000X-1.500000X1.500000X-1.500000X1.500000X1.500000X0*%
%ADD23C,6.000000*%
G04 APERTURE END LIST*
D10*
%TO.C,U1*%
X-26670000Y50530000D03*
D11*
X-26670000Y47990000D03*
D10*
X26670000Y50530000D03*
D11*
X26670000Y47990000D03*
D10*
X-26670000Y20050000D03*
D11*
X-24130000Y20050000D03*
X-26670000Y17510000D03*
X-24130000Y17510000D03*
X-26670000Y14970000D03*
X-24130000Y14970000D03*
X-26670000Y12430000D03*
X-24130000Y12430000D03*
X-26670000Y9890000D03*
X-24130000Y9890000D03*
X-26670000Y7350000D03*
X-24130000Y7350000D03*
X-26670000Y4810000D03*
X-24130000Y4810000D03*
X-26670000Y2270000D03*
X-24130000Y2270000D03*
X-26670000Y-270000D03*
X-24130000Y-270000D03*
X-26670000Y-2810000D03*
X-24130000Y-2810000D03*
X-26670000Y-5350000D03*
X-24130000Y-5350000D03*
X-26670000Y-7890000D03*
X-24130000Y-7890000D03*
X-26670000Y-10430000D03*
X-24130000Y-10430000D03*
X-26670000Y-12970000D03*
X-24130000Y-12970000D03*
X-26670000Y-15510000D03*
X-24130000Y-15510000D03*
X-26670000Y-18050000D03*
X-24130000Y-18050000D03*
X-26670000Y-20590000D03*
X-24130000Y-20590000D03*
X-26670000Y-23130000D03*
X-24130000Y-23130000D03*
X-26670000Y-25670000D03*
X-24130000Y-25670000D03*
X-26670000Y-28210000D03*
X-24130000Y-28210000D03*
X-26670000Y-30750000D03*
X-24130000Y-30750000D03*
X-26670000Y-33290000D03*
X-24130000Y-33290000D03*
X-26670000Y-35830000D03*
X-24130000Y-35830000D03*
X-26670000Y-38370000D03*
X-24130000Y-38370000D03*
X-26670000Y-40910000D03*
X-24130000Y-40910000D03*
X-26670000Y-43450000D03*
X-24130000Y-43450000D03*
X-26670000Y-45990000D03*
X-24130000Y-45990000D03*
X-26670000Y-48530000D03*
X-24130000Y-48530000D03*
X-26670000Y-51070000D03*
X-24130000Y-51070000D03*
X-26670000Y-53610000D03*
X-24130000Y-53610000D03*
X-26670000Y-56150000D03*
X-24130000Y-56150000D03*
X-26670000Y-58690000D03*
X-24130000Y-58690000D03*
D10*
X24130000Y20050000D03*
D11*
X26670000Y20050000D03*
X24130000Y17510000D03*
X26670000Y17510000D03*
X24130000Y14970000D03*
X26670000Y14970000D03*
X24130000Y12430000D03*
X26670000Y12430000D03*
X24130000Y9890000D03*
X26670000Y9890000D03*
X24130000Y7350000D03*
X26670000Y7350000D03*
X24130000Y4810000D03*
X26670000Y4810000D03*
X24130000Y2270000D03*
X26670000Y2270000D03*
X24130000Y-270000D03*
X26670000Y-270000D03*
X24130000Y-2810000D03*
X26670000Y-2810000D03*
X24130000Y-5350000D03*
X26670000Y-5350000D03*
X24130000Y-7890000D03*
X26670000Y-7890000D03*
X24130000Y-10430000D03*
X26670000Y-10430000D03*
X24130000Y-12970000D03*
X26670000Y-12970000D03*
X24130000Y-15510000D03*
X26670000Y-15510000D03*
X24130000Y-18050000D03*
X26670000Y-18050000D03*
X24130000Y-20590000D03*
X26670000Y-20590000D03*
X24130000Y-23130000D03*
X26670000Y-23130000D03*
X24130000Y-25670000D03*
X26670000Y-25670000D03*
X24130000Y-28210000D03*
X26670000Y-28210000D03*
X24130000Y-30750000D03*
X26670000Y-30750000D03*
X24130000Y-33290000D03*
X26670000Y-33290000D03*
X24130000Y-35830000D03*
X26670000Y-35830000D03*
X24130000Y-38370000D03*
X26670000Y-38370000D03*
X24130000Y-40910000D03*
X26670000Y-40910000D03*
X24130000Y-43450000D03*
X26670000Y-43450000D03*
X24130000Y-45990000D03*
X26670000Y-45990000D03*
X24130000Y-48530000D03*
X26670000Y-48530000D03*
X24130000Y-51070000D03*
X26670000Y-51070000D03*
X24130000Y-53610000D03*
X26670000Y-53610000D03*
X24130000Y-56150000D03*
X26670000Y-56150000D03*
X24130000Y-58690000D03*
X26670000Y-58690000D03*
%TD*%
D12*
%TO.C,*%
X-36000000Y-63000000D03*
%TD*%
D13*
%TO.C,J4*%
X-13460000Y-46000000D03*
D14*
X-16000000Y-46000000D03*
X-18540000Y-46000000D03*
%TD*%
D13*
%TO.C,J7*%
X13460000Y46000000D03*
D14*
X16000000Y46000000D03*
X18540000Y46000000D03*
%TD*%
%TO.C,REF\u002A\u002A*%
X-17000000Y-2800000D03*
%TD*%
%TO.C,REF\u002A\u002A*%
X-17000000Y-14000000D03*
%TD*%
D15*
%TO.C,J10*%
X-10000000Y33500000D03*
D16*
X-10000000Y26300000D03*
D17*
X-16000000Y36650000D03*
X-16000000Y23150000D03*
%TD*%
D14*
%TO.C,REF\u002A\u002A*%
X-30600000Y48000000D03*
%TD*%
D18*
%TO.C,U3*%
X-24450000Y64050000D03*
X-24450000Y40050000D03*
X24550000Y64050000D03*
X24550000Y40050000D03*
%TD*%
D14*
%TO.C,REF\u002A\u002A*%
X-13100000Y7900000D03*
%TD*%
D13*
%TO.C,J2*%
X6330000Y-17000000D03*
D14*
X3790000Y-17000000D03*
X1250000Y-17000000D03*
X-1290000Y-17000000D03*
X-3830000Y-17000000D03*
X-6370000Y-17000000D03*
%TD*%
%TO.C,REF\u002A\u002A*%
X30400000Y57800000D03*
%TD*%
D16*
%TO.C,J9*%
X10000000Y26300000D03*
X10000000Y33500000D03*
D19*
X16000000Y23150000D03*
X16000000Y36650000D03*
%TD*%
D13*
%TO.C,J5*%
X-2540000Y46000000D03*
D14*
X0Y46000000D03*
X2540000Y46000000D03*
%TD*%
D13*
%TO.C,J6*%
X-18540000Y46000000D03*
D14*
X-16000000Y46000000D03*
X-13460000Y46000000D03*
%TD*%
D20*
%TO.C,U2*%
X-8890000Y6350000D03*
X-8890000Y3810000D03*
X-8890000Y1270000D03*
X-8890000Y-1270000D03*
X-8890000Y-3810000D03*
X-8890000Y-6350000D03*
X8890000Y-3810000D03*
X8890000Y-1270000D03*
X8890000Y1270000D03*
X8890000Y3810000D03*
D21*
X-7620000Y10795000D03*
X-7620000Y-10795000D03*
X7620000Y-10795000D03*
X7620000Y10795000D03*
%TD*%
D14*
%TO.C,REF\u002A\u002A*%
X-17100000Y-7600000D03*
%TD*%
D12*
%TO.C,*%
X-36000000Y63000000D03*
%TD*%
D14*
%TO.C,*%
X31400000Y-58700000D03*
%TD*%
D12*
%TO.C,*%
X36000000Y63000000D03*
%TD*%
D14*
%TO.C,REF\u002A\u002A*%
X-20700000Y9500000D03*
%TD*%
D22*
%TO.C,J8*%
X0Y33000000D03*
D23*
X0Y25800000D03*
%TD*%
D14*
%TO.C,*%
X30900000Y47900000D03*
%TD*%
D13*
%TO.C,J3*%
X18540000Y-46000000D03*
D14*
X16000000Y-46000000D03*
X13460000Y-46000000D03*
%TD*%
%TO.C,REF\u002A\u002A*%
X19300000Y7400000D03*
%TD*%
D12*
%TO.C,*%
X36000000Y-63000000D03*
%TD*%
D14*
%TO.C,*%
X19500000Y-15500000D03*
%TD*%
M02*
