%TF.GenerationSoftware,KiCad,Pcbnew,9.0.4*%
%TF.CreationDate,2025-11-19T22:50:04-05:00*%
%TF.ProjectId,ABRARACOURCIX_main_board,41425241-5241-4434-9f55-524349585f6d,rev?*%
%TF.SameCoordinates,Original*%
%TF.FileFunction,Drillmap*%
%TF.FilePolarity,Positive*%
%FSLAX45Y45*%
G04 Gerber Fmt 4.5, Leading zero omitted, Abs format (unit mm)*
G04 Created by KiCad (PCBNEW 9.0.4) date 2025-11-19 22:50:04*
%MOMM*%
%LPD*%
G01*
G04 APERTURE LIST*
%ADD10C,0.050000*%
%ADD11C,0.200000*%
G04 APERTURE END LIST*
D10*
X1200000Y7000000D02*
G75*
G02*
X1400000Y6800000I0J-200000D01*
G01*
X-1400000Y-2200000D02*
X-1400000Y-6800000D01*
X1200000Y7000000D02*
X-1200000Y7000000D01*
X1400000Y-2200000D02*
X1400000Y-6800000D01*
X164000Y2155000D02*
G75*
G02*
X-164000Y2155000I-164000J0D01*
G01*
X-164000Y2155000D02*
G75*
G02*
X164000Y2155000I164000J0D01*
G01*
X1400000Y6800000D02*
X1400000Y2200000D01*
X6800000Y-1400000D02*
X2200000Y-1400000D01*
X164000Y-2155000D02*
G75*
G02*
X-164000Y-2155000I-164000J0D01*
G01*
X-164000Y-2155000D02*
G75*
G02*
X164000Y-2155000I164000J0D01*
G01*
X-2200000Y1400000D02*
X-1400000Y2200000D01*
X1400000Y2200000D02*
X2200000Y1400000D01*
X-7000000Y1200000D02*
X-7000000Y-1200000D01*
X-2200000Y1400000D02*
X-6800000Y1400000D01*
X-1991000Y0D02*
G75*
G02*
X-2319000Y0I-164000J0D01*
G01*
X-2319000Y0D02*
G75*
G02*
X-1991000Y0I164000J0D01*
G01*
X-1200000Y-7000000D02*
X1200000Y-7000000D01*
X1400000Y-2200000D02*
X2200000Y-1400000D01*
X-2200000Y-1400000D02*
X-6800000Y-1400000D01*
X6800000Y1400000D02*
X2200000Y1400000D01*
X-1400000Y6800000D02*
X-1400000Y2200000D01*
X1400000Y-6800000D02*
G75*
G02*
X1200000Y-7000000I-200000J0D01*
G01*
X6800000Y1400000D02*
G75*
G02*
X7000000Y1200000I0J-200000D01*
G01*
X-1400000Y6800000D02*
G75*
G02*
X-1200000Y7000000I200000J0D01*
G01*
X-1200000Y-7000000D02*
G75*
G02*
X-1400000Y-6800000I0J200000D01*
G01*
X-6800000Y-1400000D02*
G75*
G02*
X-7000000Y-1200000I0J200000D01*
G01*
X-1400000Y-2200000D02*
X-2200000Y-1400000D01*
X7000000Y-1200000D02*
X7000000Y1200000D01*
X-7000000Y1200000D02*
G75*
G02*
X-6800000Y1400000I200000J0D01*
G01*
X7000000Y-1200000D02*
G75*
G02*
X6800000Y-1400000I-200000J0D01*
G01*
D11*
X-6741723Y-7313984D02*
X-6741723Y-7113984D01*
X-6741723Y-7113984D02*
X-6694104Y-7113984D01*
X-6694104Y-7113984D02*
X-6665533Y-7123508D01*
X-6665533Y-7123508D02*
X-6646485Y-7142555D01*
X-6646485Y-7142555D02*
X-6636961Y-7161603D01*
X-6636961Y-7161603D02*
X-6627437Y-7199698D01*
X-6627437Y-7199698D02*
X-6627437Y-7228269D01*
X-6627437Y-7228269D02*
X-6636961Y-7266365D01*
X-6636961Y-7266365D02*
X-6646485Y-7285412D01*
X-6646485Y-7285412D02*
X-6665533Y-7304460D01*
X-6665533Y-7304460D02*
X-6694104Y-7313984D01*
X-6694104Y-7313984D02*
X-6741723Y-7313984D01*
X-6541723Y-7313984D02*
X-6541723Y-7180650D01*
X-6541723Y-7218746D02*
X-6532199Y-7199698D01*
X-6532199Y-7199698D02*
X-6522675Y-7190174D01*
X-6522675Y-7190174D02*
X-6503628Y-7180650D01*
X-6503628Y-7180650D02*
X-6484580Y-7180650D01*
X-6417914Y-7313984D02*
X-6417914Y-7180650D01*
X-6417914Y-7113984D02*
X-6427437Y-7123508D01*
X-6427437Y-7123508D02*
X-6417914Y-7133031D01*
X-6417914Y-7133031D02*
X-6408390Y-7123508D01*
X-6408390Y-7123508D02*
X-6417914Y-7113984D01*
X-6417914Y-7113984D02*
X-6417914Y-7133031D01*
X-6294104Y-7313984D02*
X-6313152Y-7304460D01*
X-6313152Y-7304460D02*
X-6322675Y-7285412D01*
X-6322675Y-7285412D02*
X-6322675Y-7113984D01*
X-6189342Y-7313984D02*
X-6208390Y-7304460D01*
X-6208390Y-7304460D02*
X-6217914Y-7285412D01*
X-6217914Y-7285412D02*
X-6217914Y-7113984D01*
X-5960771Y-7313984D02*
X-5960771Y-7113984D01*
X-5960771Y-7113984D02*
X-5894104Y-7256841D01*
X-5894104Y-7256841D02*
X-5827437Y-7113984D01*
X-5827437Y-7113984D02*
X-5827437Y-7313984D01*
X-5646485Y-7313984D02*
X-5646485Y-7209222D01*
X-5646485Y-7209222D02*
X-5656009Y-7190174D01*
X-5656009Y-7190174D02*
X-5675056Y-7180650D01*
X-5675056Y-7180650D02*
X-5713152Y-7180650D01*
X-5713152Y-7180650D02*
X-5732199Y-7190174D01*
X-5646485Y-7304460D02*
X-5665533Y-7313984D01*
X-5665533Y-7313984D02*
X-5713152Y-7313984D01*
X-5713152Y-7313984D02*
X-5732199Y-7304460D01*
X-5732199Y-7304460D02*
X-5741723Y-7285412D01*
X-5741723Y-7285412D02*
X-5741723Y-7266365D01*
X-5741723Y-7266365D02*
X-5732199Y-7247317D01*
X-5732199Y-7247317D02*
X-5713152Y-7237793D01*
X-5713152Y-7237793D02*
X-5665533Y-7237793D01*
X-5665533Y-7237793D02*
X-5646485Y-7228269D01*
X-5551247Y-7180650D02*
X-5551247Y-7380650D01*
X-5551247Y-7190174D02*
X-5532199Y-7180650D01*
X-5532199Y-7180650D02*
X-5494104Y-7180650D01*
X-5494104Y-7180650D02*
X-5475056Y-7190174D01*
X-5475056Y-7190174D02*
X-5465533Y-7199698D01*
X-5465533Y-7199698D02*
X-5456009Y-7218746D01*
X-5456009Y-7218746D02*
X-5456009Y-7275888D01*
X-5456009Y-7275888D02*
X-5465533Y-7294936D01*
X-5465533Y-7294936D02*
X-5475056Y-7304460D01*
X-5475056Y-7304460D02*
X-5494104Y-7313984D01*
X-5494104Y-7313984D02*
X-5532199Y-7313984D01*
X-5532199Y-7313984D02*
X-5551247Y-7304460D01*
X-5370295Y-7294936D02*
X-5360771Y-7304460D01*
X-5360771Y-7304460D02*
X-5370295Y-7313984D01*
X-5370295Y-7313984D02*
X-5379818Y-7304460D01*
X-5379818Y-7304460D02*
X-5370295Y-7294936D01*
X-5370295Y-7294936D02*
X-5370295Y-7313984D01*
X-5370295Y-7190174D02*
X-5360771Y-7199698D01*
X-5360771Y-7199698D02*
X-5370295Y-7209222D01*
X-5370295Y-7209222D02*
X-5379818Y-7199698D01*
X-5379818Y-7199698D02*
X-5370295Y-7190174D01*
X-5370295Y-7190174D02*
X-5370295Y-7209222D01*
M02*
