%TF.GenerationSoftware,KiCad,Pcbnew,9.0.4*%
%TF.CreationDate,2025-12-01T12:13:40-05:00*%
%TF.ProjectId,ABRARACOURCIX_main_board,41425241-5241-4434-9f55-524349585f6d,rev?*%
%TF.SameCoordinates,Original*%
%TF.FileFunction,Plated,1,2,PTH,Mixed*%
%TF.FilePolarity,Positive*%
%FSLAX46Y46*%
G04 Gerber Fmt 4.6, Leading zero omitted, Abs format (unit mm)*
G04 Created by KiCad (PCBNEW 9.0.4) date 2025-12-01 12:13:40*
%MOMM*%
%LPD*%
G01*
G04 APERTURE LIST*
G04 aperture for slot hole*
%TA.AperFunction,ComponentDrill*%
%ADD10C,0.600000*%
%TD*%
%TA.AperFunction,ComponentDrill*%
%ADD11C,1.000000*%
%TD*%
%TA.AperFunction,ComponentDrill*%
%ADD12C,2.500000*%
%TD*%
%TA.AperFunction,ComponentDrill*%
%ADD13C,2.700000*%
%TD*%
%TA.AperFunction,ComponentDrill*%
%ADD14C,4.500000*%
%TD*%
G04 APERTURE END LIST*
D10*
%TO.C,J10*%
X-15450000Y36650000D02*
X-16550000Y36650000D01*
X-15450000Y23150000D02*
X-16550000Y23150000D01*
%TO.C,J9*%
X16550000Y36650000D02*
X15450000Y36650000D01*
X16550000Y23150000D02*
X15450000Y23150000D01*
D11*
%TO.C,REF\u002A\u002A*%
X-30600000Y48000000D03*
%TO.C,U1*%
X-26670000Y50530000D03*
X-26670000Y47990000D03*
X-26670000Y20050000D03*
X-26670000Y17510000D03*
X-26670000Y14970000D03*
X-26670000Y12430000D03*
X-26670000Y9890000D03*
X-26670000Y7350000D03*
X-26670000Y4810000D03*
X-26670000Y2270000D03*
X-26670000Y-270000D03*
X-26670000Y-2810000D03*
X-26670000Y-5350000D03*
X-26670000Y-7890000D03*
X-26670000Y-10430000D03*
X-26670000Y-12970000D03*
X-26670000Y-15510000D03*
X-26670000Y-18050000D03*
X-26670000Y-20590000D03*
X-26670000Y-23130000D03*
X-26670000Y-25670000D03*
X-26670000Y-28210000D03*
X-26670000Y-30750000D03*
X-26670000Y-33290000D03*
X-26670000Y-35830000D03*
X-26670000Y-38370000D03*
X-26670000Y-40910000D03*
X-26670000Y-43450000D03*
X-26670000Y-45990000D03*
X-26670000Y-48530000D03*
X-26670000Y-51070000D03*
X-26670000Y-53610000D03*
X-26670000Y-56150000D03*
X-26670000Y-58690000D03*
%TO.C,U3*%
X-24450000Y64050000D03*
X-24450000Y40050000D03*
%TO.C,U1*%
X-24130000Y20050000D03*
X-24130000Y17510000D03*
X-24130000Y14970000D03*
X-24130000Y12430000D03*
X-24130000Y9890000D03*
X-24130000Y7350000D03*
X-24130000Y4810000D03*
X-24130000Y2270000D03*
X-24130000Y-270000D03*
X-24130000Y-2810000D03*
X-24130000Y-5350000D03*
X-24130000Y-7890000D03*
X-24130000Y-10430000D03*
X-24130000Y-12970000D03*
X-24130000Y-15510000D03*
X-24130000Y-18050000D03*
X-24130000Y-20590000D03*
X-24130000Y-23130000D03*
X-24130000Y-25670000D03*
X-24130000Y-28210000D03*
X-24130000Y-30750000D03*
X-24130000Y-33290000D03*
X-24130000Y-35830000D03*
X-24130000Y-38370000D03*
X-24130000Y-40910000D03*
X-24130000Y-43450000D03*
X-24130000Y-45990000D03*
X-24130000Y-48530000D03*
X-24130000Y-51070000D03*
X-24130000Y-53610000D03*
X-24130000Y-56150000D03*
X-24130000Y-58690000D03*
%TO.C,REF\u002A\u002A*%
X-20700000Y9500000D03*
%TO.C,J6*%
X-18540000Y46000000D03*
%TO.C,J4*%
X-18540000Y-46000000D03*
%TO.C,REF\u002A\u002A*%
X-17100000Y-7600000D03*
X-17000000Y-2800000D03*
X-17000000Y-14000000D03*
%TO.C,J6*%
X-16000000Y46000000D03*
%TO.C,J4*%
X-16000000Y-46000000D03*
%TO.C,J6*%
X-13460000Y46000000D03*
%TO.C,J4*%
X-13460000Y-46000000D03*
%TO.C,REF\u002A\u002A*%
X-13100000Y7900000D03*
%TO.C,U2*%
X-8890000Y6350000D03*
X-8890000Y3810000D03*
X-8890000Y1270000D03*
X-8890000Y-1270000D03*
X-8890000Y-3810000D03*
X-8890000Y-6350000D03*
%TO.C,J2*%
X-6370000Y-17000000D03*
X-3830000Y-17000000D03*
%TO.C,J5*%
X-2540000Y46000000D03*
%TO.C,J2*%
X-1290000Y-17000000D03*
%TO.C,J5*%
X0Y46000000D03*
%TO.C,J2*%
X1250000Y-17000000D03*
%TO.C,J5*%
X2540000Y46000000D03*
%TO.C,J2*%
X3790000Y-17000000D03*
X6330000Y-17000000D03*
%TO.C,U2*%
X8890000Y3810000D03*
X8890000Y1270000D03*
X8890000Y-1270000D03*
X8890000Y-3810000D03*
%TO.C,J7*%
X13460000Y46000000D03*
%TO.C,J3*%
X13460000Y-46000000D03*
%TO.C,J7*%
X16000000Y46000000D03*
%TO.C,J3*%
X16000000Y-46000000D03*
%TO.C,J7*%
X18540000Y46000000D03*
%TO.C,J3*%
X18540000Y-46000000D03*
%TO.C,REF\u002A\u002A*%
X19300000Y7400000D03*
%TO.C,*%
X19500000Y-15500000D03*
%TO.C,U1*%
X24130000Y20050000D03*
X24130000Y17510000D03*
X24130000Y14970000D03*
X24130000Y12430000D03*
X24130000Y9890000D03*
X24130000Y7350000D03*
X24130000Y4810000D03*
X24130000Y2270000D03*
X24130000Y-270000D03*
X24130000Y-2810000D03*
X24130000Y-5350000D03*
X24130000Y-7890000D03*
X24130000Y-10430000D03*
X24130000Y-12970000D03*
X24130000Y-15510000D03*
X24130000Y-18050000D03*
X24130000Y-20590000D03*
X24130000Y-23130000D03*
X24130000Y-25670000D03*
X24130000Y-28210000D03*
X24130000Y-30750000D03*
X24130000Y-33290000D03*
X24130000Y-35830000D03*
X24130000Y-38370000D03*
X24130000Y-40910000D03*
X24130000Y-43450000D03*
X24130000Y-45990000D03*
X24130000Y-48530000D03*
X24130000Y-51070000D03*
X24130000Y-53610000D03*
X24130000Y-56150000D03*
X24130000Y-58690000D03*
%TO.C,U3*%
X24550000Y64050000D03*
X24550000Y40050000D03*
%TO.C,U1*%
X26670000Y50530000D03*
X26670000Y47990000D03*
X26670000Y20050000D03*
X26670000Y17510000D03*
X26670000Y14970000D03*
X26670000Y12430000D03*
X26670000Y9890000D03*
X26670000Y7350000D03*
X26670000Y4810000D03*
X26670000Y2270000D03*
X26670000Y-270000D03*
X26670000Y-2810000D03*
X26670000Y-5350000D03*
X26670000Y-7890000D03*
X26670000Y-10430000D03*
X26670000Y-12970000D03*
X26670000Y-15510000D03*
X26670000Y-18050000D03*
X26670000Y-20590000D03*
X26670000Y-23130000D03*
X26670000Y-25670000D03*
X26670000Y-28210000D03*
X26670000Y-30750000D03*
X26670000Y-33290000D03*
X26670000Y-35830000D03*
X26670000Y-38370000D03*
X26670000Y-40910000D03*
X26670000Y-43450000D03*
X26670000Y-45990000D03*
X26670000Y-48530000D03*
X26670000Y-51070000D03*
X26670000Y-53610000D03*
X26670000Y-56150000D03*
X26670000Y-58690000D03*
%TO.C,REF\u002A\u002A*%
X30400000Y57800000D03*
%TO.C,*%
X30900000Y47900000D03*
X31400000Y-58700000D03*
D12*
%TO.C,U2*%
X-7620000Y10795000D03*
X-7620000Y-10795000D03*
X7620000Y10795000D03*
X7620000Y-10795000D03*
D13*
%TO.C,J10*%
X-10000000Y33500000D03*
X-10000000Y26300000D03*
%TO.C,J9*%
X10000000Y33500000D03*
X10000000Y26300000D03*
D14*
%TO.C,J8*%
X0Y33000000D03*
X0Y25800000D03*
M02*
