%TF.GenerationSoftware,KiCad,Pcbnew,9.0.4*%
%TF.CreationDate,2025-11-19T22:49:49-05:00*%
%TF.ProjectId,ABRARACOURCIX_main_board,41425241-5241-4434-9f55-524349585f6d,rev?*%
%TF.SameCoordinates,Original*%
%TF.FileFunction,Copper,L2,Bot*%
%TF.FilePolarity,Positive*%
%FSLAX46Y46*%
G04 Gerber Fmt 4.6, Leading zero omitted, Abs format (unit mm)*
G04 Created by KiCad (PCBNEW 9.0.4) date 2025-11-19 22:49:49*
%MOMM*%
%LPD*%
G01*
G04 APERTURE LIST*
%TA.AperFunction,ComponentPad*%
%ADD10C,3.716000*%
%TD*%
%TA.AperFunction,ComponentPad*%
%ADD11O,1.200000X2.400000*%
%TD*%
%TA.AperFunction,ComponentPad*%
%ADD12R,2.000000X2.000000*%
%TD*%
%TA.AperFunction,ComponentPad*%
%ADD13C,6.000000*%
%TD*%
%TA.AperFunction,ComponentPad*%
%ADD14C,2.000000*%
%TD*%
%TA.AperFunction,ComponentPad*%
%ADD15R,1.700000X1.700000*%
%TD*%
%TA.AperFunction,ComponentPad*%
%ADD16C,1.700000*%
%TD*%
%TA.AperFunction,ComponentPad*%
%ADD17O,1.300000X2.600000*%
%TD*%
%TA.AperFunction,ViaPad*%
%ADD18C,0.600000*%
%TD*%
%TA.AperFunction,Conductor*%
%ADD19C,0.254000*%
%TD*%
%TA.AperFunction,Conductor*%
%ADD20C,0.406400*%
%TD*%
G04 APERTURE END LIST*
D10*
%TO.P,J10,1,+*%
%TO.N,/Power/16V_pre-switch*%
X-56400000Y3250000D03*
%TO.P,J10,2,-*%
%TO.N,GND*%
X-63600000Y3250000D03*
D11*
%TO.P,J10,S1*%
%TO.N,N/C*%
X-53250000Y9250000D03*
%TO.P,J10,S2*%
X-66750000Y9250000D03*
%TD*%
D12*
%TO.P,GND2,1,1*%
%TO.N,GND*%
X15800000Y-15600000D03*
%TD*%
D13*
%TO.P,J8,1,+*%
%TO.N,/Power/16V_post-switch*%
X-38500000Y9200000D03*
%TO.P,J8,2,-*%
%TO.N,/Power/16V_pre-switch*%
X-45700000Y9200000D03*
%TD*%
D14*
%TO.P,J11,1,Pin_1*%
%TO.N,VBAT_sense*%
X-21900000Y11940000D03*
%TO.P,J11,2,Pin_2*%
%TO.N,GND*%
X-21900000Y9400000D03*
%TD*%
D15*
%TO.P,J3,1,Pin_1*%
%TO.N,PWM_Servo_4*%
X-7160000Y-55985000D03*
D16*
%TO.P,J3,2,Pin_2*%
%TO.N,+5V*%
X-9700000Y-55985000D03*
%TO.P,J3,3,Pin_3*%
%TO.N,GND*%
X-12240000Y-55985000D03*
%TD*%
D15*
%TO.P,J4,1,Pin_1*%
%TO.N,PWM_Servo_3*%
X7120000Y56000000D03*
D16*
%TO.P,J4,2,Pin_2*%
%TO.N,+5V*%
X9660000Y56000000D03*
%TO.P,J4,3,Pin_3*%
%TO.N,GND*%
X12200000Y56000000D03*
%TD*%
D15*
%TO.P,J6,1,Pin_1*%
%TO.N,PWM_Servo_1*%
X2640000Y-56015000D03*
D16*
%TO.P,J6,2,Pin_2*%
%TO.N,+5V*%
X100000Y-56015000D03*
%TO.P,J6,3,Pin_3*%
%TO.N,GND*%
X-2440000Y-56015000D03*
%TD*%
D14*
%TO.P,J12,1,Pin_1*%
%TO.N,+5V*%
X1490000Y58000000D03*
%TO.P,J12,2,Pin_2*%
%TO.N,GND*%
X-1050000Y58000000D03*
%TD*%
D12*
%TO.P,SCL1,1,1*%
%TO.N,SCL*%
X11100000Y25800000D03*
%TD*%
D15*
%TO.P,J2,1,Pin_1*%
%TO.N,unconnected-(J2-Pin_1-Pad1)*%
X31500000Y1220000D03*
D16*
%TO.P,J2,2,Pin_2*%
%TO.N,HC_RX*%
X31500000Y-1320000D03*
%TO.P,J2,3,Pin_3*%
%TO.N,HC_TX*%
X31500000Y-3860000D03*
%TO.P,J2,4,Pin_4*%
%TO.N,GND*%
X31500000Y-6400000D03*
%TO.P,J2,5,Pin_5*%
%TO.N,+5V*%
X31500000Y-8940000D03*
%TO.P,J2,6,Pin_6*%
%TO.N,unconnected-(J2-Pin_6-Pad6)*%
X31500000Y-11480000D03*
%TD*%
D12*
%TO.P,TX1,1,1*%
%TO.N,HC_TX*%
X24850000Y-11550000D03*
%TD*%
%TO.P,SDA1,1,1*%
%TO.N,SDA*%
X6200000Y25800000D03*
%TD*%
D15*
%TO.P,J5,1,Pin_1*%
%TO.N,PWM_Servo_2*%
X-12200000Y56000000D03*
D16*
%TO.P,J5,2,Pin_2*%
%TO.N,+5V*%
X-9660000Y56000000D03*
%TO.P,J5,3,Pin_3*%
%TO.N,GND*%
X-7120000Y56000000D03*
%TD*%
D12*
%TO.P,GND1,1,1*%
%TO.N,GND*%
X10400000Y36400000D03*
%TD*%
D15*
%TO.P,J1,1,Pin_1*%
%TO.N,SYS_SWDIO*%
X36460000Y5900000D03*
D16*
%TO.P,J1,2,Pin_2*%
%TO.N,SYS_SWCLK*%
X39000000Y5900000D03*
%TO.P,J1,3,Pin_3*%
%TO.N,+3.3V*%
X41540000Y5900000D03*
%TO.P,J1,4,Pin_4*%
%TO.N,NRST*%
X44080000Y5900000D03*
%TO.P,J1,5,Pin_5*%
%TO.N,GND*%
X46620000Y5900000D03*
%TD*%
D15*
%TO.P,J7,1,Pin_1*%
%TO.N,PWM_Moteur*%
X12240000Y-56015000D03*
D16*
%TO.P,J7,2,Pin_2*%
%TO.N,unconnected-(J7-Pin_2-Pad2)*%
X9700000Y-56015000D03*
%TO.P,J7,3,Pin_3*%
%TO.N,GND*%
X7160000Y-56015000D03*
%TD*%
D10*
%TO.P,J9,1,1*%
%TO.N,/Power/GND_IGBT*%
X-63600000Y-3150000D03*
%TO.P,J9,2,2*%
%TO.N,/Power/16V_motor*%
X-56400000Y-3150000D03*
D17*
%TO.P,J9,S1,SHIELD*%
%TO.N,GND*%
X-66750000Y-9150000D03*
%TO.P,J9,S2,SHIELD*%
X-53250000Y-9150000D03*
%TD*%
D12*
%TO.P,RX1,1,1*%
%TO.N,HC_RX*%
X24850000Y-7450000D03*
%TD*%
D18*
%TO.N,+5V*%
X-35800000Y1050000D03*
X-40250000Y-650000D03*
X-36100000Y-500000D03*
X-39250000Y-650000D03*
%TO.N,Motor_switch*%
X9119064Y-769064D03*
X13450000Y-750000D03*
X-17450000Y-11200000D03*
X18050000Y-750000D03*
X-8900000Y-11200000D03*
X-24900000Y-10300000D03*
%TO.N,GND*%
X-37050000Y-9100000D03*
X-31250000Y-9650000D03*
X-4650000Y-1537500D03*
X31550000Y9650000D03*
X17037500Y-9150000D03*
X-39900000Y-9100000D03*
X-38950000Y-5300000D03*
X-37050000Y-5300000D03*
X-1300000Y41300000D03*
X-38000000Y-6250000D03*
X7550000Y-1450000D03*
X11350000Y-1650000D03*
X-38000000Y-8150000D03*
X-39900000Y-5300000D03*
X15700000Y-7000000D03*
X-38000000Y-5300000D03*
X-5850000Y20350000D03*
X-38000000Y-9100000D03*
X8000000Y10250000D03*
X-12200000Y40900000D03*
X3600000Y18800000D03*
X-600000Y54000000D03*
X-10100000Y27750000D03*
X-40850000Y-9100000D03*
X-37050000Y-8150000D03*
X-800000Y11650000D03*
X-37050000Y-7200000D03*
X4150000Y-17177500D03*
X-12250000Y48550000D03*
X-9150000Y-8500000D03*
X-40850000Y-5300000D03*
X-24500000Y-7550000D03*
X-14750000Y450000D03*
X-38000000Y-7200000D03*
X-38950000Y-9100000D03*
X400000Y-5800000D03*
X-2250000Y29600000D03*
X-37050000Y-6250000D03*
X300000Y3200000D03*
X23218750Y-2481250D03*
X-3250000Y-17177500D03*
X12300000Y-7050000D03*
X-4250000Y1500000D03*
%TO.N,VBAT_sense*%
X-16400000Y4400000D03*
X-16028000Y9922000D03*
%TO.N,Net-(U6B-+)*%
X2700000Y29650000D03*
X-8950000Y24850000D03*
%TO.N,HC_RX*%
X19250000Y550000D03*
%TO.N,HC_TX*%
X19150000Y-450000D03*
%TO.N,NRST*%
X16150000Y1050000D03*
%TO.N,SYS_SWDIO*%
X18100000Y8700000D03*
%TO.N,SYS_SWCLK*%
X17600000Y7050000D03*
%TO.N,PWM_Moteur*%
X1850000Y-3150000D03*
X5500000Y-23550000D03*
X5050000Y-8950000D03*
X2700000Y2800000D03*
X5100000Y-12550000D03*
X13200000Y-24600000D03*
X5050000Y-6350000D03*
%TO.N,PWM_Servo_2*%
X-11100000Y52300000D03*
X-4750000Y52300000D03*
X16300000Y13400000D03*
%TO.N,PWM_Servo_3*%
X16500000Y14450000D03*
%TO.N,PWM_Servo_1*%
X11300000Y-9400000D03*
X15150000Y9650000D03*
X11300000Y-40000000D03*
X11300000Y-13200000D03*
X11300000Y-25100000D03*
%TO.N,PWM_Servo_4*%
X8800000Y-25150000D03*
X8800000Y-13397064D03*
X8800000Y-40000000D03*
X8800000Y-9400000D03*
X13500000Y9800000D03*
%TO.N,SCL*%
X3750000Y750000D03*
X7300000Y1650000D03*
X11050000Y13600000D03*
%TO.N,BNO_BOOT*%
X-4350000Y-450000D03*
X7175000Y525000D03*
%TO.N,BNO_RESET*%
X-4750000Y-4000000D03*
X300000Y-4450000D03*
X8750000Y2550000D03*
%TO.N,SDA*%
X9650000Y13700000D03*
X4250000Y1562500D03*
%TO.N,VBAT_ADC*%
X16317996Y4267995D03*
X50000Y33900000D03*
%TO.N,Net-(U3-VIOUT)*%
X-32400000Y2100000D03*
X8150000Y5200000D03*
X-20450000Y2950000D03*
X-42200000Y0D03*
X27300000Y2150000D03*
X17000000Y5200000D03*
%TO.N,Net-(U5B--)*%
X250000Y44150000D03*
X-10275000Y38850000D03*
%TO.N,/Power/16V_motor*%
X-31600000Y3750000D03*
%TO.N,Net-(U1-PC1)*%
X16100000Y-1650000D03*
X12600000Y-17000000D03*
%TO.N,/Power/GND_IGBT*%
X-44700000Y-5400000D03*
X-36000000Y-2250000D03*
%TD*%
D19*
%TO.N,Motor_switch*%
X-8900000Y-11200000D02*
X-8950000Y-11200000D01*
X9119064Y-1230936D02*
X-850000Y-11200000D01*
X9119064Y-769064D02*
X9119064Y-1230936D01*
X9138127Y-750000D02*
X9119064Y-769064D01*
X-17450000Y-11200000D02*
X-24000000Y-11200000D01*
X-850000Y-11200000D02*
X-8900000Y-11200000D01*
X-24000000Y-11200000D02*
X-24900000Y-10300000D01*
X18050000Y-750000D02*
X13450000Y-750000D01*
D20*
%TO.N,VBAT_sense*%
X-21860000Y11900000D02*
X-18006000Y11900000D01*
X-18006000Y11900000D02*
X-16028000Y9922000D01*
X-16400000Y4400000D02*
X-16028000Y4772000D01*
X-21900000Y11940000D02*
X-21860000Y11900000D01*
X-16028000Y4772000D02*
X-16028000Y9922000D01*
D19*
%TO.N,Net-(U6B-+)*%
X-8950000Y24850000D02*
X-2100000Y24850000D01*
X-2100000Y24850000D02*
X2700000Y29650000D01*
%TO.N,HC_RX*%
X19250000Y550000D02*
X19300000Y550000D01*
X19950000Y-100000D02*
X19950000Y-5450000D01*
X19300000Y550000D02*
X19950000Y-100000D01*
X21950000Y-7450000D02*
X24850000Y-7450000D01*
X19950000Y-5450000D02*
X21950000Y-7450000D01*
%TO.N,HC_TX*%
X19150000Y-5850000D02*
X24850000Y-11550000D01*
X19150000Y-450000D02*
X19150000Y-5850000D01*
%TO.N,NRST*%
X28228000Y1178000D02*
X30400000Y3350000D01*
X16150000Y1050000D02*
X16278000Y1178000D01*
X41530000Y3350000D02*
X44080000Y5900000D01*
X16278000Y1178000D02*
X28228000Y1178000D01*
X30400000Y3350000D02*
X41530000Y3350000D01*
%TO.N,SYS_SWDIO*%
X18100000Y8700000D02*
X33660000Y8700000D01*
X33660000Y8700000D02*
X36460000Y5900000D01*
%TO.N,SYS_SWCLK*%
X33189873Y4722000D02*
X30861873Y7050000D01*
X39000000Y5900000D02*
X37822000Y4722000D01*
X30861873Y7050000D02*
X17600000Y7050000D01*
X37822000Y4722000D02*
X33189873Y4722000D01*
X17600000Y7050000D02*
X17500000Y7050000D01*
%TO.N,PWM_Moteur*%
X5100000Y-23150000D02*
X5500000Y-23550000D01*
X13200000Y-55055000D02*
X12240000Y-56015000D01*
X5100000Y-12550000D02*
X5100000Y-23150000D01*
X5050000Y-8950000D02*
X5050000Y-6350000D01*
X1850000Y900000D02*
X1850000Y-3150000D01*
X2700000Y2800000D02*
X2700000Y1750000D01*
X13200000Y-24600000D02*
X13200000Y-55055000D01*
X2700000Y1750000D02*
X1850000Y900000D01*
%TO.N,PWM_Servo_2*%
X8800000Y31800000D02*
X8800000Y20900000D01*
X-4750000Y52300000D02*
X7300000Y40250000D01*
X-12200000Y53400000D02*
X-12200000Y56000000D01*
X7300000Y33300000D02*
X8800000Y31800000D01*
X8800000Y20900000D02*
X16300000Y13400000D01*
X-11100000Y52300000D02*
X-12200000Y53400000D01*
X7300000Y40250000D02*
X7300000Y33300000D01*
%TO.N,PWM_Servo_3*%
X7120000Y56000000D02*
X13372000Y49748000D01*
X13372000Y49748000D02*
X13372000Y21739874D01*
X16500000Y18611874D02*
X16500000Y14450000D01*
X13372000Y21739874D02*
X16500000Y18611874D01*
%TO.N,PWM_Servo_1*%
X13150000Y7650000D02*
X15150000Y9650000D01*
X11300000Y-47355000D02*
X2640000Y-56015000D01*
X11300000Y-6430937D02*
X12628000Y-5102937D01*
X11300000Y-9400000D02*
X11300000Y-6430937D01*
X12628000Y1628000D02*
X13150000Y2150000D01*
X12628000Y-5102937D02*
X12628000Y1628000D01*
X11300000Y-40000000D02*
X11300000Y-47355000D01*
X11300000Y-13200000D02*
X11300000Y-25100000D01*
X13150000Y2150000D02*
X13150000Y7650000D01*
%TO.N,PWM_Servo_4*%
X8800000Y-2400000D02*
X9900000Y-1300000D01*
X8800000Y-40000000D02*
X8800000Y-40025000D01*
X12173000Y1816468D02*
X12250000Y1893467D01*
X8800000Y-40025000D02*
X-7160000Y-55985000D01*
X12173000Y1773000D02*
X12173000Y1816468D01*
X8800000Y-13397064D02*
X8800000Y-25150000D01*
X8800000Y-9400000D02*
X8800000Y-2400000D01*
X12250000Y1893467D02*
X12250000Y8550000D01*
X9900000Y-1300000D02*
X9900000Y-500000D01*
X12250000Y8550000D02*
X13500000Y9800000D01*
X9900000Y-500000D02*
X12173000Y1773000D01*
%TO.N,SCL*%
X7300000Y1988127D02*
X7300000Y1650000D01*
X11050000Y5738127D02*
X7300000Y1988127D01*
X6400000Y750000D02*
X3750000Y750000D01*
X7300000Y1650000D02*
X6400000Y750000D01*
X11050000Y13600000D02*
X11050000Y5738127D01*
%TO.N,BNO_BOOT*%
X2850000Y-3800000D02*
X7175000Y525000D01*
X-4350000Y-450000D02*
X-4350000Y-700000D01*
X7175000Y525000D02*
X7250000Y600000D01*
X-1250000Y-3800000D02*
X2850000Y-3800000D01*
X-4350000Y-700000D02*
X-1250000Y-3800000D01*
%TO.N,BNO_RESET*%
X8750000Y2550000D02*
X8700000Y2600000D01*
X8750000Y950000D02*
X8750000Y2550000D01*
X3400000Y-4400000D02*
X8750000Y950000D01*
X-4300000Y-4450000D02*
X-4750000Y-4000000D01*
X300000Y-4450000D02*
X-4300000Y-4450000D01*
X300000Y-4450000D02*
X350000Y-4400000D01*
X350000Y-4400000D02*
X3400000Y-4400000D01*
%TO.N,SDA*%
X9650000Y5500000D02*
X5700000Y1550000D01*
X5700000Y1550000D02*
X4300000Y1550000D01*
X9650000Y13700000D02*
X9650000Y5500000D01*
%TO.N,VBAT_ADC*%
X16317996Y9982004D02*
X3700000Y22600000D01*
X16317996Y4267995D02*
X16317996Y9982004D01*
X3700000Y30300000D02*
X100000Y33900000D01*
X100000Y33900000D02*
X50000Y33900000D01*
X3700000Y22600000D02*
X3700000Y30300000D01*
D20*
%TO.N,Net-(U3-VIOUT)*%
X-32400000Y2100000D02*
X-40100000Y2100000D01*
X8150000Y5100000D02*
X8150000Y5200000D01*
X17000000Y5200000D02*
X24250000Y5200000D01*
X-40100000Y2100000D02*
X-42200000Y0D01*
X-962510Y5200000D02*
X8050000Y5200000D01*
X24250000Y5200000D02*
X27300000Y2150000D01*
X-3212510Y2950000D02*
X-962510Y5200000D01*
X8050000Y5200000D02*
X8150000Y5100000D01*
X-20450000Y2950000D02*
X-3212510Y2950000D01*
D19*
%TO.N,Net-(U5B--)*%
X-10275000Y38850000D02*
X-4975000Y44150000D01*
X-4975000Y44150000D02*
X250000Y44150000D01*
%TO.N,Net-(U1-PC1)*%
X16100000Y-1650000D02*
X16050000Y-1600000D01*
X13128000Y-2372000D02*
X13128000Y-16472000D01*
X13900000Y-1600000D02*
X13128000Y-2372000D01*
X13128000Y-16472000D02*
X12600000Y-17000000D01*
X16050000Y-1600000D02*
X13900000Y-1600000D01*
D20*
%TO.N,/Power/GND_IGBT*%
X-44700000Y-5400000D02*
X-42272500Y-5400000D01*
X-42272500Y-5400000D02*
X-39122500Y-2250000D01*
X-39122500Y-2250000D02*
X-36000000Y-2250000D01*
%TD*%
%TA.AperFunction,Conductor*%
%TO.N,/Power/16V_motor*%
G36*
X-27806961Y4930315D02*
G01*
X-27761206Y4877511D01*
X-27750000Y4826000D01*
X-27750000Y2674000D01*
X-27769685Y2606961D01*
X-27822489Y2561206D01*
X-27874000Y2550000D01*
X-31671648Y2550000D01*
X-31738687Y2569685D01*
X-31774753Y2605113D01*
X-31775988Y2606961D01*
X-31778211Y2610289D01*
X-31778213Y2610292D01*
X-31889707Y2721786D01*
X-31889711Y2721789D01*
X-32020814Y2809390D01*
X-32020827Y2809397D01*
X-32166498Y2869735D01*
X-32166503Y2869737D01*
X-32227858Y2881941D01*
X-32321155Y2900500D01*
X-32321158Y2900500D01*
X-32478842Y2900500D01*
X-32478845Y2900500D01*
X-32556520Y2885048D01*
X-32633497Y2869737D01*
X-32770138Y2813138D01*
X-32817590Y2803700D01*
X-40169311Y2803700D01*
X-40218938Y2793828D01*
X-40243753Y2788892D01*
X-40305262Y2776657D01*
X-40369294Y2750134D01*
X-40433323Y2723613D01*
X-40433324Y2723612D01*
X-40433327Y2723611D01*
X-40548583Y2646600D01*
X-40608865Y2586317D01*
X-40670186Y2552834D01*
X-40696545Y2550000D01*
X-41000000Y2550000D01*
X-42850000Y500000D01*
X-42850000Y499998D01*
X-42857061Y481634D01*
X-42869685Y438644D01*
X-42870857Y436853D01*
X-42909394Y379179D01*
X-42969737Y233497D01*
X-43000500Y78842D01*
X-43000500Y-78842D01*
X-42969737Y-233497D01*
X-42909394Y-379179D01*
X-42870897Y-436793D01*
X-42850020Y-503468D01*
X-42850000Y-505683D01*
X-42850000Y-4572300D01*
X-42869685Y-4639339D01*
X-42922489Y-4685094D01*
X-42974000Y-4696300D01*
X-44282410Y-4696300D01*
X-44329861Y-4686861D01*
X-44444591Y-4639339D01*
X-44466502Y-4630263D01*
X-44466510Y-4630261D01*
X-44621155Y-4599500D01*
X-44621158Y-4599500D01*
X-44778842Y-4599500D01*
X-44778845Y-4599500D01*
X-44933489Y-4630261D01*
X-44933501Y-4630264D01*
X-45079172Y-4690602D01*
X-45079185Y-4690609D01*
X-45210288Y-4778210D01*
X-45210292Y-4778213D01*
X-45321786Y-4889707D01*
X-45321789Y-4889711D01*
X-45409390Y-5020814D01*
X-45409397Y-5020827D01*
X-45469735Y-5166498D01*
X-45469737Y-5166503D01*
X-45490197Y-5269361D01*
X-45500499Y-5321153D01*
X-45500500Y-5321155D01*
X-45500500Y-5321158D01*
X-45500500Y-5478842D01*
X-45469737Y-5633497D01*
X-45409394Y-5779179D01*
X-45409390Y-5779184D01*
X-45409390Y-5779185D01*
X-45357323Y-5857109D01*
X-45336445Y-5923786D01*
X-45354929Y-5991166D01*
X-45406908Y-6037857D01*
X-45460425Y-6050000D01*
X-59376000Y-6050000D01*
X-59443039Y-6030315D01*
X-59488794Y-5977511D01*
X-59500000Y-5926000D01*
X-59500000Y-2995455D01*
X-58758000Y-2995455D01*
X-58758000Y-3304544D01*
X-58757999Y-3304558D01*
X-58717653Y-3611001D01*
X-58717651Y-3611012D01*
X-58637652Y-3909577D01*
X-58519365Y-4195147D01*
X-58519361Y-4195156D01*
X-58364811Y-4462845D01*
X-58235247Y-4631694D01*
X-57515270Y-3911717D01*
X-57429722Y-4029466D01*
X-57279466Y-4179722D01*
X-57161717Y-4265270D01*
X-57881694Y-4985247D01*
X-57712845Y-5114811D01*
X-57445156Y-5269361D01*
X-57445147Y-5269365D01*
X-57159577Y-5387652D01*
X-56861012Y-5467651D01*
X-56861001Y-5467653D01*
X-56554558Y-5507999D01*
X-56554544Y-5508000D01*
X-56245456Y-5508000D01*
X-56245441Y-5507999D01*
X-55938998Y-5467653D01*
X-55938987Y-5467651D01*
X-55640422Y-5387652D01*
X-55354852Y-5269365D01*
X-55354842Y-5269361D01*
X-55087159Y-5114815D01*
X-54918304Y-4985247D01*
X-55638281Y-4265270D01*
X-55520534Y-4179722D01*
X-55370278Y-4029466D01*
X-55284728Y-3911716D01*
X-54564751Y-4631694D01*
X-54564750Y-4631694D01*
X-54435187Y-4462844D01*
X-54280638Y-4195157D01*
X-54280634Y-4195147D01*
X-54162347Y-3909577D01*
X-54082348Y-3611012D01*
X-54082346Y-3611001D01*
X-54042000Y-3304558D01*
X-54042000Y-2995441D01*
X-54082346Y-2688998D01*
X-54082348Y-2688987D01*
X-54162347Y-2390422D01*
X-54280634Y-2104852D01*
X-54280638Y-2104842D01*
X-54435187Y-1837155D01*
X-54564750Y-1668304D01*
X-54564751Y-1668304D01*
X-55284729Y-2388282D01*
X-55370278Y-2270534D01*
X-55520534Y-2120278D01*
X-55638282Y-2034729D01*
X-54918304Y-1314751D01*
X-54918304Y-1314750D01*
X-55087155Y-1185187D01*
X-55354842Y-1030638D01*
X-55354852Y-1030634D01*
X-55640422Y-912347D01*
X-55938987Y-832348D01*
X-55938998Y-832346D01*
X-56245441Y-792000D01*
X-56554558Y-792000D01*
X-56861001Y-832346D01*
X-56861012Y-832348D01*
X-57159577Y-912347D01*
X-57445147Y-1030634D01*
X-57445157Y-1030638D01*
X-57712844Y-1185187D01*
X-57881694Y-1314750D01*
X-57881694Y-1314751D01*
X-57161716Y-2034728D01*
X-57279466Y-2120278D01*
X-57429722Y-2270534D01*
X-57515270Y-2388281D01*
X-58235247Y-1668304D01*
X-58364815Y-1837159D01*
X-58519361Y-2104842D01*
X-58519365Y-2104852D01*
X-58637652Y-2390422D01*
X-58717651Y-2688987D01*
X-58717653Y-2688998D01*
X-58757999Y-2995441D01*
X-58758000Y-2995455D01*
X-59500000Y-2995455D01*
X-59500000Y-124000D01*
X-59480315Y-56961D01*
X-59427511Y-11206D01*
X-59376000Y0D01*
X-48700000Y0D01*
X-45798427Y2788891D01*
X-43585997Y4915400D01*
X-43524024Y4947664D01*
X-43500070Y4950000D01*
X-27874000Y4950000D01*
X-27806961Y4930315D01*
G37*
%TD.AperFunction*%
%TD*%
%TA.AperFunction,Conductor*%
%TO.N,+5V*%
G36*
X-35106961Y1376615D02*
G01*
X-35061206Y1323811D01*
X-35050000Y1272300D01*
X-35050000Y-1326000D01*
X-35069685Y-1393039D01*
X-35122489Y-1438794D01*
X-35174000Y-1450000D01*
X-35918644Y-1450000D01*
X-35921158Y-1449500D01*
X-36078842Y-1449500D01*
X-36081356Y-1450000D01*
X-40876000Y-1450000D01*
X-40943039Y-1430315D01*
X-40988794Y-1377511D01*
X-41000000Y-1326000D01*
X-41000000Y153456D01*
X-40980315Y220495D01*
X-40963681Y241137D01*
X-39844837Y1359981D01*
X-39783514Y1393466D01*
X-39757156Y1396300D01*
X-35174000Y1396300D01*
X-35106961Y1376615D01*
G37*
%TD.AperFunction*%
%TD*%
%TA.AperFunction,Conductor*%
%TO.N,GND*%
G36*
X12004417Y69499184D02*
G01*
X12023779Y69497799D01*
X12204557Y69484869D01*
X12222068Y69482351D01*
X12413787Y69440646D01*
X12430763Y69435662D01*
X12614609Y69367090D01*
X12630701Y69359740D01*
X12802904Y69265711D01*
X12817789Y69256146D01*
X12974867Y69138558D01*
X12988237Y69126972D01*
X13126972Y68988237D01*
X13138558Y68974867D01*
X13256146Y68817789D01*
X13265711Y68802904D01*
X13359740Y68630701D01*
X13367090Y68614609D01*
X13435662Y68430763D01*
X13440646Y68413787D01*
X13482351Y68222068D01*
X13484869Y68204557D01*
X13499184Y68004419D01*
X13499500Y67995572D01*
X13499500Y56881360D01*
X13479815Y56814321D01*
X13427011Y56768566D01*
X13365771Y56757742D01*
X13315269Y56761716D01*
X12682962Y56129409D01*
X12665925Y56192993D01*
X12600099Y56307007D01*
X12507007Y56400099D01*
X12392993Y56465925D01*
X12329408Y56482962D01*
X12961717Y57115270D01*
X12907554Y57154622D01*
X12718217Y57251095D01*
X12516129Y57316757D01*
X12306246Y57350000D01*
X12093754Y57350000D01*
X11883872Y57316757D01*
X11883869Y57316757D01*
X11681782Y57251095D01*
X11492449Y57154624D01*
X11438282Y57115270D01*
X11438282Y57115269D01*
X12070590Y56482962D01*
X12007007Y56465925D01*
X11892993Y56400099D01*
X11799901Y56307007D01*
X11734075Y56192993D01*
X11717037Y56129408D01*
X11084728Y56761716D01*
X11045373Y56707547D01*
X11045372Y56707547D01*
X11040763Y56698500D01*
X10992788Y56647706D01*
X10924966Y56630912D01*
X10858832Y56653451D01*
X10819793Y56698508D01*
X10815051Y56707816D01*
X10737671Y56814321D01*
X10690109Y56879786D01*
X10690105Y56879790D01*
X10690104Y56879792D01*
X10539792Y57030104D01*
X10539788Y57030106D01*
X10539786Y57030109D01*
X10367820Y57155048D01*
X10367816Y57155051D01*
X10178412Y57251557D01*
X9976243Y57317246D01*
X9766287Y57350500D01*
X9553713Y57350500D01*
X9343757Y57317246D01*
X9141588Y57251557D01*
X8952184Y57155051D01*
X8952181Y57155049D01*
X8952179Y57155048D01*
X8780213Y57030109D01*
X8666673Y56916569D01*
X8605350Y56883084D01*
X8535658Y56888068D01*
X8479725Y56929940D01*
X8462810Y56960917D01*
X8455569Y56980330D01*
X8413796Y57092331D01*
X8327546Y57207546D01*
X8212331Y57293796D01*
X8077483Y57344091D01*
X8017873Y57350500D01*
X6222128Y57350499D01*
X6173757Y57345299D01*
X6162516Y57344091D01*
X6027671Y57293797D01*
X6027664Y57293793D01*
X5912455Y57207547D01*
X5912452Y57207544D01*
X5826206Y57092335D01*
X5826202Y57092328D01*
X5775908Y56957482D01*
X5769501Y56897883D01*
X5769500Y56897864D01*
X5769500Y55102129D01*
X5769501Y55102123D01*
X5775908Y55042516D01*
X5826202Y54907671D01*
X5826206Y54907664D01*
X5912452Y54792455D01*
X5912455Y54792452D01*
X6027664Y54706206D01*
X6027671Y54706202D01*
X6162517Y54655908D01*
X6162516Y54655908D01*
X6222116Y54649501D01*
X6222119Y54649500D01*
X6222127Y54649500D01*
X7531718Y54649500D01*
X7598757Y54629815D01*
X7619399Y54613181D01*
X12708181Y49524399D01*
X12741666Y49463076D01*
X12744500Y49436718D01*
X12744500Y27146781D01*
X12724815Y27079742D01*
X12672011Y27033987D01*
X12602853Y27024043D01*
X12539297Y27053068D01*
X12521237Y27072464D01*
X12457546Y27157546D01*
X12342331Y27243796D01*
X12207483Y27294091D01*
X12147873Y27300500D01*
X10052128Y27300499D01*
X10003757Y27295299D01*
X9992516Y27294091D01*
X9857671Y27243797D01*
X9857664Y27243793D01*
X9742455Y27157547D01*
X9742452Y27157544D01*
X9650888Y27035231D01*
X9647890Y27037475D01*
X9611044Y27000550D01*
X9542787Y26985624D01*
X9477297Y27009971D01*
X9435365Y27065859D01*
X9427500Y27109318D01*
X9427500Y31861805D01*
X9403386Y31983029D01*
X9403385Y31983035D01*
X9356083Y32097233D01*
X9287411Y32200008D01*
X9200008Y32287411D01*
X7963819Y33523600D01*
X7930334Y33584923D01*
X7927500Y33611281D01*
X7927500Y37447844D01*
X8900000Y37447844D01*
X8900000Y36650000D01*
X9966988Y36650000D01*
X9934075Y36592993D01*
X9900000Y36465826D01*
X9900000Y36334174D01*
X9934075Y36207007D01*
X9966988Y36150000D01*
X8900000Y36150000D01*
X8900000Y35352155D01*
X8906401Y35292627D01*
X8906403Y35292620D01*
X8956645Y35157913D01*
X8956649Y35157906D01*
X9042809Y35042812D01*
X9042812Y35042809D01*
X9157906Y34956649D01*
X9157913Y34956645D01*
X9292620Y34906403D01*
X9292627Y34906401D01*
X9352155Y34900000D01*
X10150000Y34900000D01*
X10150000Y35966988D01*
X10207007Y35934075D01*
X10334174Y35900000D01*
X10465826Y35900000D01*
X10592993Y35934075D01*
X10650000Y35966988D01*
X10650000Y34900000D01*
X11447844Y34900000D01*
X11507372Y34906401D01*
X11507379Y34906403D01*
X11642086Y34956645D01*
X11642093Y34956649D01*
X11757187Y35042809D01*
X11757190Y35042812D01*
X11843350Y35157906D01*
X11843354Y35157913D01*
X11893596Y35292620D01*
X11893598Y35292627D01*
X11899999Y35352155D01*
X11900000Y35352172D01*
X11900000Y36150000D01*
X10833012Y36150000D01*
X10865925Y36207007D01*
X10900000Y36334174D01*
X10900000Y36465826D01*
X10865925Y36592993D01*
X10833012Y36650000D01*
X11900000Y36650000D01*
X11900000Y37447827D01*
X11899999Y37447844D01*
X11893598Y37507372D01*
X11893596Y37507379D01*
X11843354Y37642086D01*
X11843350Y37642093D01*
X11757190Y37757187D01*
X11757187Y37757190D01*
X11642093Y37843350D01*
X11642086Y37843354D01*
X11507379Y37893596D01*
X11507372Y37893598D01*
X11447844Y37899999D01*
X11447828Y37900000D01*
X10650000Y37900000D01*
X10650000Y36833012D01*
X10592993Y36865925D01*
X10465826Y36900000D01*
X10334174Y36900000D01*
X10207007Y36865925D01*
X10150000Y36833012D01*
X10150000Y37900000D01*
X9352172Y37900000D01*
X9352155Y37899999D01*
X9292627Y37893598D01*
X9292620Y37893596D01*
X9157913Y37843354D01*
X9157906Y37843350D01*
X9042812Y37757190D01*
X9042809Y37757187D01*
X8956649Y37642093D01*
X8956645Y37642086D01*
X8906403Y37507379D01*
X8906401Y37507372D01*
X8900000Y37447844D01*
X7927500Y37447844D01*
X7927500Y40311805D01*
X7903386Y40433029D01*
X7903385Y40433035D01*
X7856083Y40547233D01*
X7787411Y40650008D01*
X7700008Y40737411D01*
X-3924907Y52362326D01*
X-3958392Y52423649D01*
X-3958843Y52425815D01*
X-3980261Y52533491D01*
X-3980264Y52533501D01*
X-4040602Y52679172D01*
X-4040609Y52679185D01*
X-4128210Y52810288D01*
X-4128213Y52810292D01*
X-4239707Y52921786D01*
X-4239711Y52921789D01*
X-4370814Y53009390D01*
X-4370827Y53009397D01*
X-4516498Y53069735D01*
X-4516503Y53069737D01*
X-4577858Y53081941D01*
X-4671155Y53100500D01*
X-4671158Y53100500D01*
X-4828842Y53100500D01*
X-4828845Y53100500D01*
X-4906520Y53085048D01*
X-4983497Y53069737D01*
X-5129179Y53009394D01*
X-5260289Y52921789D01*
X-5371789Y52810289D01*
X-5459394Y52679179D01*
X-5519737Y52533497D01*
X-5550499Y52378846D01*
X-5550500Y52378844D01*
X-5550500Y52221155D01*
X-5550499Y52221153D01*
X-5519737Y52066503D01*
X-5519736Y52066501D01*
X-5519735Y52066498D01*
X-5459397Y51920827D01*
X-5459390Y51920814D01*
X-5371789Y51789711D01*
X-5371786Y51789707D01*
X-5260292Y51678213D01*
X-5260288Y51678210D01*
X-5129185Y51590609D01*
X-5129172Y51590602D01*
X-4983501Y51530264D01*
X-4983491Y51530261D01*
X-4875815Y51508843D01*
X-4813904Y51476458D01*
X-4812326Y51474907D01*
X6636181Y40026400D01*
X6669666Y39965077D01*
X6672500Y39938719D01*
X6672500Y33238192D01*
X6696612Y33116972D01*
X6696614Y33116964D01*
X6730061Y33036217D01*
X6743916Y33002769D01*
X6812590Y32899989D01*
X6812591Y32899988D01*
X8136181Y31576399D01*
X8169666Y31515076D01*
X8172500Y31488718D01*
X8172500Y20838192D01*
X8196612Y20716972D01*
X8196614Y20716964D01*
X8230061Y20636217D01*
X8230062Y20636215D01*
X8243917Y20602767D01*
X8260187Y20578417D01*
X8312590Y20499989D01*
X15474907Y13337672D01*
X15508392Y13276349D01*
X15508843Y13274183D01*
X15530261Y13166508D01*
X15530264Y13166498D01*
X15590602Y13020827D01*
X15590609Y13020814D01*
X15678210Y12889711D01*
X15678213Y12889707D01*
X15789707Y12778213D01*
X15789711Y12778210D01*
X15920814Y12690609D01*
X15920827Y12690602D01*
X16066498Y12630264D01*
X16066510Y12630261D01*
X16221153Y12599500D01*
X16221158Y12599500D01*
X16378846Y12599500D01*
X16533489Y12630261D01*
X16533501Y12630264D01*
X16679172Y12690602D01*
X16679185Y12690609D01*
X16810288Y12778210D01*
X16810292Y12778213D01*
X16921786Y12889707D01*
X16921789Y12889711D01*
X17009390Y13020814D01*
X17009397Y13020827D01*
X17069735Y13166498D01*
X17069737Y13166503D01*
X17100499Y13321153D01*
X17100500Y13321155D01*
X17100500Y13478844D01*
X17100499Y13478846D01*
X17099301Y13484869D01*
X17069737Y13633497D01*
X17027002Y13736670D01*
X17019533Y13806139D01*
X17050808Y13868618D01*
X17053882Y13871803D01*
X17121786Y13939707D01*
X17121789Y13939711D01*
X17209390Y14070814D01*
X17209397Y14070827D01*
X17269735Y14216498D01*
X17269737Y14216503D01*
X17300499Y14371153D01*
X17300500Y14371155D01*
X17300500Y14528844D01*
X17300499Y14528846D01*
X17292859Y14567254D01*
X17269737Y14683497D01*
X17209394Y14829179D01*
X17148397Y14920465D01*
X17127520Y14987142D01*
X17127500Y14989356D01*
X17127500Y17865324D01*
X17147185Y17932363D01*
X17199989Y17978118D01*
X17269147Y17988062D01*
X17332703Y17959037D01*
X17339181Y17953005D01*
X21692684Y13599501D01*
X21692689Y13599497D01*
X21709582Y13589745D01*
X21709584Y13589744D01*
X21741925Y13571072D01*
X21806812Y13533608D01*
X21934107Y13499500D01*
X21934108Y13499500D01*
X67934108Y13499500D01*
X67995572Y13499500D01*
X68004417Y13499184D01*
X68023779Y13497799D01*
X68204557Y13484869D01*
X68222068Y13482351D01*
X68413787Y13440646D01*
X68430763Y13435662D01*
X68614609Y13367090D01*
X68630701Y13359740D01*
X68802904Y13265711D01*
X68817789Y13256146D01*
X68974867Y13138558D01*
X68988237Y13126972D01*
X69126972Y12988237D01*
X69138558Y12974867D01*
X69256146Y12817789D01*
X69265711Y12802904D01*
X69359740Y12630701D01*
X69367090Y12614609D01*
X69435662Y12430763D01*
X69440646Y12413787D01*
X69482351Y12222068D01*
X69484869Y12204557D01*
X69499184Y12004419D01*
X69499500Y11995572D01*
X69499500Y-11995572D01*
X69499184Y-12004419D01*
X69484869Y-12204557D01*
X69482351Y-12222068D01*
X69440646Y-12413787D01*
X69435662Y-12430763D01*
X69367090Y-12614609D01*
X69359740Y-12630701D01*
X69265711Y-12802904D01*
X69256146Y-12817789D01*
X69138558Y-12974867D01*
X69126972Y-12988237D01*
X68988237Y-13126972D01*
X68974867Y-13138558D01*
X68817789Y-13256146D01*
X68802904Y-13265711D01*
X68630701Y-13359740D01*
X68614609Y-13367090D01*
X68430763Y-13435662D01*
X68413787Y-13440646D01*
X68222068Y-13482351D01*
X68204557Y-13484869D01*
X68023779Y-13497799D01*
X68004417Y-13499184D01*
X67995572Y-13499500D01*
X21934106Y-13499500D01*
X21901911Y-13508126D01*
X21901912Y-13508127D01*
X21806815Y-13533608D01*
X21806813Y-13533608D01*
X21806813Y-13533609D01*
X21692687Y-13599500D01*
X21692684Y-13599502D01*
X21621722Y-13670465D01*
X21599501Y-13692686D01*
X21599499Y-13692688D01*
X15666060Y-19626126D01*
X13675245Y-21616940D01*
X13675244Y-21616940D01*
X13675245Y-21616941D01*
X13599500Y-21692686D01*
X13533608Y-21806812D01*
X13499500Y-21934108D01*
X13499500Y-23692297D01*
X13479815Y-23759336D01*
X13427011Y-23805091D01*
X13357853Y-23815035D01*
X13351309Y-23813914D01*
X13278845Y-23799500D01*
X13278842Y-23799500D01*
X13121158Y-23799500D01*
X13121155Y-23799500D01*
X12966510Y-23830261D01*
X12966498Y-23830264D01*
X12820827Y-23890602D01*
X12820814Y-23890609D01*
X12689711Y-23978210D01*
X12689707Y-23978213D01*
X12578213Y-24089707D01*
X12578210Y-24089711D01*
X12490609Y-24220814D01*
X12490602Y-24220827D01*
X12430264Y-24366498D01*
X12430261Y-24366510D01*
X12399500Y-24521153D01*
X12399500Y-24678846D01*
X12430261Y-24833489D01*
X12430264Y-24833501D01*
X12490603Y-24979174D01*
X12490604Y-24979175D01*
X12490606Y-24979179D01*
X12518654Y-25021155D01*
X12551602Y-25070465D01*
X12572480Y-25137142D01*
X12572500Y-25139356D01*
X12572500Y-54540500D01*
X12552815Y-54607539D01*
X12500011Y-54653294D01*
X12448500Y-54664500D01*
X11342129Y-54664500D01*
X11342123Y-54664501D01*
X11282516Y-54670908D01*
X11147671Y-54721202D01*
X11147664Y-54721206D01*
X11032455Y-54807452D01*
X11032452Y-54807455D01*
X10946206Y-54922664D01*
X10946203Y-54922669D01*
X10897189Y-55054083D01*
X10855317Y-55110016D01*
X10789853Y-55134433D01*
X10721580Y-55119581D01*
X10693326Y-55098430D01*
X10579786Y-54984890D01*
X10407820Y-54859951D01*
X10218414Y-54763444D01*
X10218413Y-54763443D01*
X10218412Y-54763443D01*
X10016243Y-54697754D01*
X10016241Y-54697753D01*
X10016240Y-54697753D01*
X9854957Y-54672208D01*
X9806287Y-54664500D01*
X9593713Y-54664500D01*
X9545042Y-54672208D01*
X9383760Y-54697753D01*
X9181585Y-54763444D01*
X8992179Y-54859951D01*
X8820213Y-54984890D01*
X8669890Y-55135213D01*
X8544949Y-55307182D01*
X8540202Y-55316499D01*
X8492227Y-55367293D01*
X8424405Y-55384087D01*
X8358271Y-55361548D01*
X8319234Y-55316495D01*
X8314626Y-55307452D01*
X8275270Y-55253282D01*
X8275269Y-55253282D01*
X7642962Y-55885590D01*
X7625925Y-55822007D01*
X7560099Y-55707993D01*
X7467007Y-55614901D01*
X7352993Y-55549075D01*
X7289409Y-55532037D01*
X7921716Y-54899728D01*
X7867550Y-54860375D01*
X7678217Y-54763904D01*
X7476129Y-54698242D01*
X7266246Y-54665000D01*
X7053754Y-54665000D01*
X6843872Y-54698242D01*
X6843869Y-54698242D01*
X6641782Y-54763904D01*
X6452439Y-54860380D01*
X6398282Y-54899727D01*
X6398282Y-54899728D01*
X7030591Y-55532037D01*
X6967007Y-55549075D01*
X6852993Y-55614901D01*
X6759901Y-55707993D01*
X6694075Y-55822007D01*
X6677037Y-55885591D01*
X6044728Y-55253282D01*
X6044727Y-55253282D01*
X6005380Y-55307439D01*
X5908904Y-55496782D01*
X5843242Y-55698869D01*
X5843242Y-55698872D01*
X5810000Y-55908753D01*
X5810000Y-56121246D01*
X5843242Y-56331127D01*
X5843242Y-56331130D01*
X5908904Y-56533217D01*
X6005375Y-56722550D01*
X6044728Y-56776716D01*
X6677037Y-56144408D01*
X6694075Y-56207993D01*
X6759901Y-56322007D01*
X6852993Y-56415099D01*
X6967007Y-56480925D01*
X7030590Y-56497962D01*
X6398282Y-57130269D01*
X6398282Y-57130270D01*
X6452449Y-57169624D01*
X6641782Y-57266095D01*
X6843870Y-57331757D01*
X7053754Y-57365000D01*
X7266246Y-57365000D01*
X7476127Y-57331757D01*
X7476130Y-57331757D01*
X7678217Y-57266095D01*
X7867554Y-57169622D01*
X7921716Y-57130270D01*
X7921717Y-57130270D01*
X7289408Y-56497962D01*
X7352993Y-56480925D01*
X7467007Y-56415099D01*
X7560099Y-56322007D01*
X7625925Y-56207993D01*
X7642962Y-56144408D01*
X8275270Y-56776717D01*
X8275270Y-56776716D01*
X8314622Y-56722555D01*
X8319232Y-56713507D01*
X8367205Y-56662709D01*
X8435025Y-56645912D01*
X8501161Y-56668447D01*
X8540204Y-56713504D01*
X8544949Y-56722817D01*
X8669890Y-56894786D01*
X8820213Y-57045109D01*
X8992179Y-57170048D01*
X8992181Y-57170049D01*
X8992184Y-57170051D01*
X9181588Y-57266557D01*
X9383757Y-57332246D01*
X9593713Y-57365500D01*
X9593714Y-57365500D01*
X9806286Y-57365500D01*
X9806287Y-57365500D01*
X10016243Y-57332246D01*
X10218412Y-57266557D01*
X10407816Y-57170051D01*
X10579792Y-57045104D01*
X10693329Y-56931566D01*
X10754648Y-56898084D01*
X10824340Y-56903068D01*
X10880274Y-56944939D01*
X10897189Y-56975917D01*
X10946202Y-57107328D01*
X10946206Y-57107335D01*
X11032452Y-57222544D01*
X11032455Y-57222547D01*
X11147664Y-57308793D01*
X11147671Y-57308797D01*
X11282517Y-57359091D01*
X11282516Y-57359091D01*
X11289444Y-57359835D01*
X11342127Y-57365500D01*
X13137872Y-57365499D01*
X13197483Y-57359091D01*
X13332167Y-57308856D01*
X13401858Y-57303873D01*
X13463181Y-57337358D01*
X13496666Y-57398681D01*
X13499500Y-57425039D01*
X13499500Y-67995572D01*
X13499184Y-68004419D01*
X13484869Y-68204557D01*
X13482351Y-68222068D01*
X13440646Y-68413787D01*
X13435662Y-68430763D01*
X13367090Y-68614609D01*
X13359740Y-68630701D01*
X13265711Y-68802904D01*
X13256146Y-68817789D01*
X13138558Y-68974867D01*
X13126972Y-68988237D01*
X12988237Y-69126972D01*
X12974867Y-69138558D01*
X12817789Y-69256146D01*
X12802904Y-69265711D01*
X12630701Y-69359740D01*
X12614609Y-69367090D01*
X12430763Y-69435662D01*
X12413787Y-69440646D01*
X12222068Y-69482351D01*
X12204557Y-69484869D01*
X12023779Y-69497799D01*
X12004417Y-69499184D01*
X11995572Y-69499500D01*
X-11995572Y-69499500D01*
X-12004417Y-69499184D01*
X-12023779Y-69497799D01*
X-12204557Y-69484869D01*
X-12222068Y-69482351D01*
X-12413787Y-69440646D01*
X-12430763Y-69435662D01*
X-12614609Y-69367090D01*
X-12630702Y-69359740D01*
X-12802908Y-69265709D01*
X-12817791Y-69256144D01*
X-12974864Y-69138561D01*
X-12988235Y-69126975D01*
X-13126975Y-68988235D01*
X-13138561Y-68974864D01*
X-13256144Y-68817791D01*
X-13265709Y-68802908D01*
X-13359740Y-68630702D01*
X-13367090Y-68614609D01*
X-13435662Y-68430763D01*
X-13440646Y-68413787D01*
X-13482351Y-68222068D01*
X-13484869Y-68204557D01*
X-13499183Y-68004432D01*
X-13499499Y-67995585D01*
X-13499499Y-56869508D01*
X-13479814Y-56802469D01*
X-13427010Y-56756714D01*
X-13365769Y-56745890D01*
X-13355269Y-56746716D01*
X-12722962Y-56114409D01*
X-12705925Y-56177993D01*
X-12640099Y-56292007D01*
X-12547007Y-56385099D01*
X-12432993Y-56450925D01*
X-12369408Y-56467962D01*
X-13001717Y-57100270D01*
X-12947554Y-57139622D01*
X-12758217Y-57236095D01*
X-12556129Y-57301757D01*
X-12346246Y-57335000D01*
X-12133754Y-57335000D01*
X-11923872Y-57301757D01*
X-11923869Y-57301757D01*
X-11721782Y-57236095D01*
X-11532449Y-57139624D01*
X-11478282Y-57100270D01*
X-11478282Y-57100269D01*
X-12110590Y-56467962D01*
X-12047007Y-56450925D01*
X-11932993Y-56385099D01*
X-11839901Y-56292007D01*
X-11774075Y-56177993D01*
X-11757037Y-56114408D01*
X-11124728Y-56746716D01*
X-11085373Y-56692547D01*
X-11085372Y-56692547D01*
X-11080763Y-56683500D01*
X-11032788Y-56632706D01*
X-10964966Y-56615912D01*
X-10898832Y-56638451D01*
X-10859793Y-56683508D01*
X-10855051Y-56692816D01*
X-10808627Y-56756714D01*
X-10730109Y-56864786D01*
X-10730106Y-56864788D01*
X-10730104Y-56864792D01*
X-10579792Y-57015104D01*
X-10579788Y-57015106D01*
X-10579786Y-57015109D01*
X-10494138Y-57077335D01*
X-10407816Y-57140051D01*
X-10218412Y-57236557D01*
X-10016243Y-57302246D01*
X-9806287Y-57335500D01*
X-9806286Y-57335500D01*
X-9593714Y-57335500D01*
X-9593713Y-57335500D01*
X-9383757Y-57302246D01*
X-9181588Y-57236557D01*
X-8992184Y-57140051D01*
X-8992181Y-57140049D01*
X-8992179Y-57140048D01*
X-8820213Y-57015109D01*
X-8706673Y-56901569D01*
X-8645350Y-56868084D01*
X-8575658Y-56873068D01*
X-8519725Y-56914940D01*
X-8502810Y-56945915D01*
X-8453796Y-57077331D01*
X-8367546Y-57192546D01*
X-8252331Y-57278796D01*
X-8117483Y-57329091D01*
X-8057873Y-57335500D01*
X-6262128Y-57335499D01*
X-6213757Y-57330299D01*
X-6202516Y-57329091D01*
X-6067671Y-57278797D01*
X-6067664Y-57278793D01*
X-5952455Y-57192547D01*
X-5952452Y-57192544D01*
X-5866206Y-57077335D01*
X-5866202Y-57077328D01*
X-5852160Y-57039678D01*
X-5815908Y-56942482D01*
X-5809501Y-56882883D01*
X-5809500Y-56882864D01*
X-5809500Y-55908753D01*
X-3790000Y-55908753D01*
X-3790000Y-56121246D01*
X-3756757Y-56331127D01*
X-3756757Y-56331130D01*
X-3691095Y-56533217D01*
X-3594622Y-56722554D01*
X-3555270Y-56776716D01*
X-3555270Y-56776717D01*
X-2922962Y-56144408D01*
X-2905925Y-56207993D01*
X-2840099Y-56322007D01*
X-2747007Y-56415099D01*
X-2632993Y-56480925D01*
X-2569408Y-56497962D01*
X-3201717Y-57130270D01*
X-3147554Y-57169622D01*
X-2958217Y-57266095D01*
X-2756129Y-57331757D01*
X-2546246Y-57365000D01*
X-2333754Y-57365000D01*
X-2123872Y-57331757D01*
X-2123869Y-57331757D01*
X-1921782Y-57266095D01*
X-1732449Y-57169624D01*
X-1678282Y-57130270D01*
X-1678282Y-57130269D01*
X-2310590Y-56497962D01*
X-2247007Y-56480925D01*
X-2132993Y-56415099D01*
X-2039901Y-56322007D01*
X-1974075Y-56207993D01*
X-1957037Y-56144408D01*
X-1324728Y-56776716D01*
X-1285373Y-56722547D01*
X-1285372Y-56722547D01*
X-1280763Y-56713500D01*
X-1232788Y-56662706D01*
X-1164966Y-56645912D01*
X-1098832Y-56668451D01*
X-1059793Y-56713508D01*
X-1055051Y-56722816D01*
X-1015890Y-56776717D01*
X-930109Y-56894786D01*
X-930106Y-56894788D01*
X-930104Y-56894792D01*
X-779792Y-57045104D01*
X-779788Y-57045106D01*
X-779786Y-57045109D01*
X-649112Y-57140048D01*
X-607816Y-57170051D01*
X-418412Y-57266557D01*
X-216243Y-57332246D01*
X-6287Y-57365500D01*
X-6286Y-57365500D01*
X206286Y-57365500D01*
X206287Y-57365500D01*
X416243Y-57332246D01*
X618412Y-57266557D01*
X807816Y-57170051D01*
X979792Y-57045104D01*
X1093329Y-56931566D01*
X1154648Y-56898084D01*
X1224340Y-56903068D01*
X1280274Y-56944939D01*
X1297189Y-56975917D01*
X1346202Y-57107328D01*
X1346206Y-57107335D01*
X1432452Y-57222544D01*
X1432455Y-57222547D01*
X1547664Y-57308793D01*
X1547671Y-57308797D01*
X1682517Y-57359091D01*
X1682516Y-57359091D01*
X1689444Y-57359835D01*
X1742127Y-57365500D01*
X3537872Y-57365499D01*
X3597483Y-57359091D01*
X3732331Y-57308796D01*
X3847546Y-57222546D01*
X3933796Y-57107331D01*
X3984091Y-56972483D01*
X3990500Y-56912873D01*
X3990499Y-55603279D01*
X4010184Y-55536241D01*
X4026813Y-55515604D01*
X11787411Y-47755009D01*
X11856083Y-47652233D01*
X11903385Y-47538035D01*
X11927500Y-47416804D01*
X11927500Y-47293197D01*
X11927500Y-40539356D01*
X11947185Y-40472317D01*
X11948398Y-40470465D01*
X12009394Y-40379179D01*
X12069737Y-40233497D01*
X12100500Y-40078842D01*
X12100500Y-39921158D01*
X12100500Y-39921155D01*
X12100499Y-39921153D01*
X12069738Y-39766510D01*
X12069738Y-39766508D01*
X12069737Y-39766503D01*
X12069735Y-39766498D01*
X12009397Y-39620827D01*
X12009390Y-39620814D01*
X11921789Y-39489711D01*
X11921786Y-39489707D01*
X11810292Y-39378213D01*
X11810288Y-39378210D01*
X11679185Y-39290609D01*
X11679172Y-39290602D01*
X11533501Y-39230264D01*
X11533489Y-39230261D01*
X11378845Y-39199500D01*
X11378842Y-39199500D01*
X11221158Y-39199500D01*
X11221155Y-39199500D01*
X11066510Y-39230261D01*
X11066498Y-39230264D01*
X10920827Y-39290602D01*
X10920814Y-39290609D01*
X10789711Y-39378210D01*
X10789707Y-39378213D01*
X10678213Y-39489707D01*
X10678210Y-39489711D01*
X10590609Y-39620814D01*
X10590602Y-39620827D01*
X10530264Y-39766498D01*
X10530261Y-39766510D01*
X10499500Y-39921153D01*
X10499500Y-40078846D01*
X10530261Y-40233489D01*
X10530264Y-40233501D01*
X10590603Y-40379174D01*
X10590604Y-40379175D01*
X10590606Y-40379179D01*
X10651602Y-40470465D01*
X10672480Y-40537142D01*
X10672500Y-40539356D01*
X10672500Y-47043718D01*
X10652815Y-47110757D01*
X10636181Y-47131399D01*
X3139398Y-54628181D01*
X3078075Y-54661666D01*
X3051717Y-54664500D01*
X1742129Y-54664500D01*
X1742123Y-54664501D01*
X1682516Y-54670908D01*
X1547671Y-54721202D01*
X1547664Y-54721206D01*
X1432455Y-54807452D01*
X1432452Y-54807455D01*
X1346206Y-54922664D01*
X1346203Y-54922669D01*
X1297189Y-55054083D01*
X1255317Y-55110016D01*
X1189853Y-55134433D01*
X1121580Y-55119581D01*
X1093326Y-55098430D01*
X979786Y-54984890D01*
X807820Y-54859951D01*
X618414Y-54763444D01*
X618413Y-54763443D01*
X618412Y-54763443D01*
X416243Y-54697754D01*
X416241Y-54697753D01*
X416240Y-54697753D01*
X254957Y-54672208D01*
X206287Y-54664500D01*
X-6287Y-54664500D01*
X-69644Y-54674534D01*
X-216239Y-54697753D01*
X-216241Y-54697753D01*
X-216243Y-54697754D01*
X-418412Y-54763443D01*
X-418413Y-54763443D01*
X-418414Y-54763444D01*
X-607820Y-54859951D01*
X-779786Y-54984890D01*
X-930109Y-55135213D01*
X-1055048Y-55307179D01*
X-1055049Y-55307181D01*
X-1055051Y-55307184D01*
X-1059794Y-55316493D01*
X-1107766Y-55367290D01*
X-1175587Y-55384087D01*
X-1241722Y-55361552D01*
X-1280760Y-55316505D01*
X-1285376Y-55307446D01*
X-1285380Y-55307440D01*
X-1324727Y-55253282D01*
X-1324728Y-55253282D01*
X-1957037Y-55885591D01*
X-1974075Y-55822007D01*
X-2039901Y-55707993D01*
X-2132993Y-55614901D01*
X-2247007Y-55549075D01*
X-2310591Y-55532037D01*
X-1678282Y-54899728D01*
X-1678282Y-54899727D01*
X-1732439Y-54860380D01*
X-1921782Y-54763904D01*
X-2123870Y-54698242D01*
X-2333754Y-54665000D01*
X-2546246Y-54665000D01*
X-2756127Y-54698242D01*
X-2756130Y-54698242D01*
X-2958217Y-54763904D01*
X-3147550Y-54860375D01*
X-3201716Y-54899728D01*
X-2569409Y-55532037D01*
X-2632993Y-55549075D01*
X-2747007Y-55614901D01*
X-2840099Y-55707993D01*
X-2905925Y-55822007D01*
X-2922962Y-55885590D01*
X-3555269Y-55253282D01*
X-3555270Y-55253282D01*
X-3594624Y-55307449D01*
X-3691095Y-55496782D01*
X-3756757Y-55698869D01*
X-3756757Y-55698872D01*
X-3790000Y-55908753D01*
X-5809500Y-55908753D01*
X-5809500Y-55573281D01*
X-5789815Y-55506242D01*
X-5773181Y-55485600D01*
X-5146887Y-54859306D01*
X-4828081Y-54540500D01*
X8893537Y-40818881D01*
X8954858Y-40785398D01*
X8956869Y-40784978D01*
X9033497Y-40769737D01*
X9179179Y-40709394D01*
X9310289Y-40621789D01*
X9421789Y-40510289D01*
X9509394Y-40379179D01*
X9569737Y-40233497D01*
X9600500Y-40078842D01*
X9600500Y-39921158D01*
X9600500Y-39921155D01*
X9600499Y-39921153D01*
X9569738Y-39766510D01*
X9569738Y-39766508D01*
X9569737Y-39766503D01*
X9569735Y-39766498D01*
X9509397Y-39620827D01*
X9509390Y-39620814D01*
X9421789Y-39489711D01*
X9421786Y-39489707D01*
X9310292Y-39378213D01*
X9310288Y-39378210D01*
X9179185Y-39290609D01*
X9179172Y-39290602D01*
X9033501Y-39230264D01*
X9033489Y-39230261D01*
X8878845Y-39199500D01*
X8878842Y-39199500D01*
X8721158Y-39199500D01*
X8721155Y-39199500D01*
X8566510Y-39230261D01*
X8566498Y-39230264D01*
X8420827Y-39290602D01*
X8420814Y-39290609D01*
X8289711Y-39378210D01*
X8289707Y-39378213D01*
X8178213Y-39489707D01*
X8178210Y-39489711D01*
X8090609Y-39620814D01*
X8090602Y-39620827D01*
X8030264Y-39766498D01*
X8030261Y-39766508D01*
X8002635Y-39905391D01*
X7970250Y-39967302D01*
X7968699Y-39968880D01*
X-6660600Y-54598181D01*
X-6721923Y-54631666D01*
X-6748281Y-54634500D01*
X-8057870Y-54634500D01*
X-8057876Y-54634501D01*
X-8117483Y-54640908D01*
X-8252328Y-54691202D01*
X-8252335Y-54691206D01*
X-8367544Y-54777452D01*
X-8367547Y-54777455D01*
X-8453793Y-54892664D01*
X-8453797Y-54892671D01*
X-8502810Y-55024082D01*
X-8544681Y-55080016D01*
X-8610145Y-55104433D01*
X-8678418Y-55089582D01*
X-8706673Y-55068431D01*
X-8820215Y-54954889D01*
X-8992179Y-54829951D01*
X-9181585Y-54733444D01*
X-9383760Y-54667753D01*
X-9383759Y-54667753D01*
X-9554202Y-54640757D01*
X-9593713Y-54634500D01*
X-9806287Y-54634500D01*
X-9869644Y-54644534D01*
X-10016239Y-54667753D01*
X-10016241Y-54667753D01*
X-10016243Y-54667754D01*
X-10218412Y-54733443D01*
X-10218413Y-54733443D01*
X-10218414Y-54733444D01*
X-10407820Y-54829951D01*
X-10579786Y-54954890D01*
X-10730109Y-55105213D01*
X-10855048Y-55277179D01*
X-10855049Y-55277181D01*
X-10855051Y-55277184D01*
X-10859794Y-55286493D01*
X-10907766Y-55337290D01*
X-10975587Y-55354087D01*
X-11041722Y-55331552D01*
X-11080760Y-55286505D01*
X-11085376Y-55277446D01*
X-11085380Y-55277440D01*
X-11124727Y-55223282D01*
X-11124728Y-55223282D01*
X-11757037Y-55855591D01*
X-11774075Y-55792007D01*
X-11839901Y-55677993D01*
X-11932993Y-55584901D01*
X-12047007Y-55519075D01*
X-12110591Y-55502037D01*
X-11478282Y-54869728D01*
X-11478282Y-54869727D01*
X-11532439Y-54830380D01*
X-11721782Y-54733904D01*
X-11923870Y-54668242D01*
X-12133754Y-54635000D01*
X-12346246Y-54635000D01*
X-12556127Y-54668242D01*
X-12556130Y-54668242D01*
X-12758217Y-54733904D01*
X-12947550Y-54830375D01*
X-13001716Y-54869728D01*
X-12369409Y-55502037D01*
X-12432993Y-55519075D01*
X-12547007Y-55584901D01*
X-12640099Y-55677993D01*
X-12705925Y-55792007D01*
X-12722962Y-55855590D01*
X-13355270Y-55223281D01*
X-13365771Y-55224108D01*
X-13379380Y-55221248D01*
X-13393146Y-55223228D01*
X-13412899Y-55214207D01*
X-13434148Y-55209743D01*
X-13444050Y-55199980D01*
X-13456702Y-55194203D01*
X-13468442Y-55175934D01*
X-13483904Y-55160692D01*
X-13487730Y-55145921D01*
X-13494476Y-55135425D01*
X-13499499Y-55100490D01*
X-13499499Y-21934108D01*
X-13533607Y-21806812D01*
X-13599499Y-21692686D01*
X-13599501Y-21692683D01*
X-13692687Y-21599498D01*
X-13882481Y-21409704D01*
X-2140500Y-21409704D01*
X-2140500Y-21460596D01*
X-2140500Y-21690296D01*
X-2103876Y-21968487D01*
X-2031253Y-22239518D01*
X-1923875Y-22498750D01*
X-1783580Y-22741750D01*
X-1612766Y-22964358D01*
X-1612761Y-22964362D01*
X-1612758Y-22964367D01*
X-1414367Y-23162758D01*
X-1414362Y-23162761D01*
X-1414358Y-23162766D01*
X-1191750Y-23333580D01*
X-948750Y-23473875D01*
X-689518Y-23581253D01*
X-418487Y-23653876D01*
X-195934Y-23683175D01*
X-140297Y-23690500D01*
X-140296Y-23690500D01*
X140297Y-23690500D01*
X195934Y-23683175D01*
X418487Y-23653876D01*
X689518Y-23581253D01*
X948750Y-23473875D01*
X1191750Y-23333580D01*
X1414358Y-23162766D01*
X1414362Y-23162761D01*
X1414367Y-23162758D01*
X1612758Y-22964367D01*
X1612761Y-22964362D01*
X1612766Y-22964358D01*
X1783580Y-22741750D01*
X1923875Y-22498750D01*
X2031253Y-22239518D01*
X2103876Y-21968487D01*
X2140500Y-21690296D01*
X2140500Y-21409704D01*
X2103876Y-21131513D01*
X2031253Y-20860482D01*
X1923875Y-20601250D01*
X1923873Y-20601246D01*
X1783580Y-20358249D01*
X1612765Y-20135641D01*
X1612758Y-20135633D01*
X1414367Y-19937242D01*
X1414358Y-19937234D01*
X1191750Y-19766419D01*
X948753Y-19626126D01*
X948743Y-19626122D01*
X689518Y-19518747D01*
X418483Y-19446123D01*
X140297Y-19409500D01*
X140296Y-19409500D01*
X-140296Y-19409500D01*
X-140297Y-19409500D01*
X-418483Y-19446123D01*
X-689518Y-19518747D01*
X-948743Y-19626122D01*
X-948753Y-19626126D01*
X-1191750Y-19766419D01*
X-1414358Y-19937234D01*
X-1414367Y-19937242D01*
X-1612758Y-20135633D01*
X-1612765Y-20135641D01*
X-1783580Y-20358249D01*
X-1923873Y-20601246D01*
X-1923875Y-20601250D01*
X-2031253Y-20860482D01*
X-2103876Y-21131513D01*
X-2140500Y-21409704D01*
X-13882481Y-21409704D01*
X-21692683Y-13599502D01*
X-21692686Y-13599500D01*
X-21806812Y-13533608D01*
X-21934108Y-13499500D01*
X-67995572Y-13499500D01*
X-68004417Y-13499184D01*
X-68023779Y-13497799D01*
X-68204557Y-13484869D01*
X-68222068Y-13482351D01*
X-68413787Y-13440646D01*
X-68430763Y-13435662D01*
X-68614609Y-13367090D01*
X-68630702Y-13359740D01*
X-68802908Y-13265709D01*
X-68817791Y-13256144D01*
X-68974864Y-13138561D01*
X-68988235Y-13126975D01*
X-69126975Y-12988235D01*
X-69138561Y-12974864D01*
X-69256144Y-12817791D01*
X-69265709Y-12802908D01*
X-69359740Y-12630702D01*
X-69367090Y-12614609D01*
X-69406704Y-12508400D01*
X-69406703Y-12508399D01*
X-69420596Y-12471153D01*
X4299500Y-12471153D01*
X4299500Y-12628846D01*
X4330261Y-12783489D01*
X4330264Y-12783501D01*
X4390603Y-12929174D01*
X4390604Y-12929175D01*
X4390606Y-12929179D01*
X4430068Y-12988237D01*
X4451602Y-13020465D01*
X4472480Y-13087142D01*
X4472500Y-13089356D01*
X4472500Y-23211807D01*
X4496612Y-23333029D01*
X4496614Y-23333035D01*
X4507890Y-23360256D01*
X4543917Y-23447233D01*
X4571288Y-23488196D01*
X4575578Y-23494617D01*
X4575582Y-23494624D01*
X4612589Y-23550008D01*
X4674908Y-23612327D01*
X4708392Y-23673648D01*
X4708843Y-23675815D01*
X4730261Y-23783491D01*
X4730264Y-23783501D01*
X4790602Y-23929172D01*
X4790609Y-23929185D01*
X4878210Y-24060288D01*
X4878213Y-24060292D01*
X4989707Y-24171786D01*
X4989711Y-24171789D01*
X5120814Y-24259390D01*
X5120827Y-24259397D01*
X5266498Y-24319735D01*
X5266503Y-24319737D01*
X5421153Y-24350499D01*
X5421156Y-24350500D01*
X5421158Y-24350500D01*
X5578844Y-24350500D01*
X5578845Y-24350499D01*
X5733497Y-24319737D01*
X5879179Y-24259394D01*
X6010289Y-24171789D01*
X6121789Y-24060289D01*
X6209394Y-23929179D01*
X6269737Y-23783497D01*
X6300500Y-23628842D01*
X6300500Y-23471158D01*
X6300500Y-23471155D01*
X6300499Y-23471153D01*
X6277621Y-23356138D01*
X6269737Y-23316503D01*
X6226371Y-23211807D01*
X6209397Y-23170827D01*
X6209390Y-23170814D01*
X6121789Y-23039711D01*
X6121786Y-23039707D01*
X6010292Y-22928213D01*
X6010288Y-22928210D01*
X5879185Y-22840609D01*
X5879175Y-22840604D01*
X5804047Y-22809485D01*
X5749644Y-22765644D01*
X5727579Y-22699350D01*
X5727500Y-22694924D01*
X5727500Y-13318217D01*
X7999500Y-13318217D01*
X7999500Y-13475910D01*
X8030261Y-13630553D01*
X8030264Y-13630565D01*
X8090603Y-13776238D01*
X8090604Y-13776239D01*
X8090606Y-13776243D01*
X8151602Y-13867529D01*
X8172480Y-13934206D01*
X8172500Y-13936420D01*
X8172500Y-24610642D01*
X8152815Y-24677681D01*
X8151602Y-24679533D01*
X8090609Y-24770814D01*
X8090602Y-24770827D01*
X8030264Y-24916498D01*
X8030261Y-24916510D01*
X7999500Y-25071153D01*
X7999500Y-25228846D01*
X8030261Y-25383489D01*
X8030264Y-25383501D01*
X8090602Y-25529172D01*
X8090609Y-25529185D01*
X8178210Y-25660288D01*
X8178213Y-25660292D01*
X8289707Y-25771786D01*
X8289711Y-25771789D01*
X8420814Y-25859390D01*
X8420827Y-25859397D01*
X8520060Y-25900500D01*
X8566503Y-25919737D01*
X8721153Y-25950499D01*
X8721156Y-25950500D01*
X8721158Y-25950500D01*
X8878844Y-25950500D01*
X8878845Y-25950499D01*
X9033497Y-25919737D01*
X9179179Y-25859394D01*
X9310289Y-25771789D01*
X9421789Y-25660289D01*
X9509394Y-25529179D01*
X9569737Y-25383497D01*
X9600500Y-25228842D01*
X9600500Y-25071158D01*
X9600500Y-25071155D01*
X9600499Y-25071153D01*
X9569738Y-24916510D01*
X9569737Y-24916503D01*
X9569735Y-24916498D01*
X9509397Y-24770827D01*
X9509390Y-24770814D01*
X9448398Y-24679533D01*
X9427520Y-24612855D01*
X9427500Y-24610642D01*
X9427500Y-13936420D01*
X9447185Y-13869381D01*
X9448398Y-13867529D01*
X9509394Y-13776243D01*
X9569737Y-13630561D01*
X9600500Y-13475906D01*
X9600500Y-13318222D01*
X9600500Y-13318219D01*
X9600499Y-13318217D01*
X9596073Y-13295967D01*
X9569737Y-13163567D01*
X9523418Y-13051741D01*
X9509397Y-13017891D01*
X9509390Y-13017878D01*
X9421789Y-12886775D01*
X9421786Y-12886771D01*
X9310292Y-12775277D01*
X9310288Y-12775274D01*
X9179185Y-12687673D01*
X9179172Y-12687666D01*
X9033501Y-12627328D01*
X9033489Y-12627325D01*
X8878845Y-12596564D01*
X8878842Y-12596564D01*
X8721158Y-12596564D01*
X8721155Y-12596564D01*
X8566510Y-12627325D01*
X8566498Y-12627328D01*
X8420827Y-12687666D01*
X8420814Y-12687673D01*
X8289711Y-12775274D01*
X8289707Y-12775277D01*
X8178213Y-12886771D01*
X8178210Y-12886775D01*
X8090609Y-13017878D01*
X8090602Y-13017891D01*
X8030264Y-13163562D01*
X8030261Y-13163574D01*
X7999500Y-13318217D01*
X5727500Y-13318217D01*
X5727500Y-13089356D01*
X5747185Y-13022317D01*
X5748398Y-13020465D01*
X5766217Y-12993797D01*
X5809394Y-12929179D01*
X5869737Y-12783497D01*
X5900500Y-12628842D01*
X5900500Y-12471158D01*
X5900500Y-12471155D01*
X5900499Y-12471153D01*
X5886246Y-12399500D01*
X5869737Y-12316503D01*
X5823368Y-12204557D01*
X5809397Y-12170827D01*
X5809390Y-12170814D01*
X5721789Y-12039711D01*
X5721786Y-12039707D01*
X5610292Y-11928213D01*
X5610288Y-11928210D01*
X5479185Y-11840609D01*
X5479172Y-11840602D01*
X5333501Y-11780264D01*
X5333489Y-11780261D01*
X5178845Y-11749500D01*
X5178842Y-11749500D01*
X5021158Y-11749500D01*
X5021155Y-11749500D01*
X4866510Y-11780261D01*
X4866498Y-11780264D01*
X4720827Y-11840602D01*
X4720814Y-11840609D01*
X4589711Y-11928210D01*
X4589707Y-11928213D01*
X4478213Y-12039707D01*
X4478210Y-12039711D01*
X4390609Y-12170814D01*
X4390602Y-12170827D01*
X4330264Y-12316498D01*
X4330261Y-12316510D01*
X4299500Y-12471153D01*
X-69420596Y-12471153D01*
X-69435661Y-12430764D01*
X-69440646Y-12413787D01*
X-69482351Y-12222068D01*
X-69484869Y-12204557D01*
X-69499184Y-12004419D01*
X-69499500Y-11995572D01*
X-69499500Y-8409493D01*
X-67900000Y-8409493D01*
X-67900000Y-8900000D01*
X-67050000Y-8900000D01*
X-67050000Y-9400000D01*
X-67900000Y-9400000D01*
X-67900000Y-9890506D01*
X-67871682Y-10069293D01*
X-67815748Y-10241444D01*
X-67815747Y-10241447D01*
X-67733565Y-10402734D01*
X-67627176Y-10549169D01*
X-67499169Y-10677176D01*
X-67352734Y-10783565D01*
X-67191447Y-10865747D01*
X-67191444Y-10865748D01*
X-67019300Y-10921680D01*
X-67019287Y-10921683D01*
X-67000000Y-10924737D01*
X-67000000Y-9866988D01*
X-66990060Y-9884205D01*
X-66934205Y-9940060D01*
X-66865796Y-9979556D01*
X-66789496Y-10000000D01*
X-66710504Y-10000000D01*
X-66634204Y-9979556D01*
X-66565795Y-9940060D01*
X-66509940Y-9884205D01*
X-66500000Y-9866988D01*
X-66500000Y-10924738D01*
X-66480712Y-10921683D01*
X-66480699Y-10921680D01*
X-66308555Y-10865748D01*
X-66308552Y-10865747D01*
X-66147265Y-10783565D01*
X-66000830Y-10677176D01*
X-65872823Y-10549169D01*
X-65766434Y-10402734D01*
X-65684252Y-10241447D01*
X-65684251Y-10241444D01*
X-65628317Y-10069293D01*
X-65600000Y-9890506D01*
X-65600000Y-9400000D01*
X-66450000Y-9400000D01*
X-66450000Y-8900000D01*
X-65600000Y-8900000D01*
X-65600000Y-8409493D01*
X-54400000Y-8409493D01*
X-54400000Y-8900000D01*
X-53550000Y-8900000D01*
X-53550000Y-9400000D01*
X-54400000Y-9400000D01*
X-54400000Y-9890506D01*
X-54371682Y-10069293D01*
X-54315748Y-10241444D01*
X-54315747Y-10241447D01*
X-54233565Y-10402734D01*
X-54127176Y-10549169D01*
X-53999169Y-10677176D01*
X-53852734Y-10783565D01*
X-53691447Y-10865747D01*
X-53691444Y-10865748D01*
X-53519300Y-10921680D01*
X-53519287Y-10921683D01*
X-53500000Y-10924737D01*
X-53500000Y-9866988D01*
X-53490060Y-9884205D01*
X-53434205Y-9940060D01*
X-53365796Y-9979556D01*
X-53289496Y-10000000D01*
X-53210504Y-10000000D01*
X-53134204Y-9979556D01*
X-53065795Y-9940060D01*
X-53009940Y-9884205D01*
X-53000000Y-9866988D01*
X-53000000Y-10924738D01*
X-52980712Y-10921683D01*
X-52980699Y-10921680D01*
X-52808555Y-10865748D01*
X-52808552Y-10865747D01*
X-52647265Y-10783565D01*
X-52500830Y-10677176D01*
X-52372823Y-10549169D01*
X-52266434Y-10402734D01*
X-52184252Y-10241447D01*
X-52184251Y-10241444D01*
X-52177659Y-10221155D01*
X-25700500Y-10221155D01*
X-25700500Y-10221158D01*
X-25700500Y-10378842D01*
X-25669737Y-10533497D01*
X-25609394Y-10679179D01*
X-25521789Y-10810289D01*
X-25410289Y-10921789D01*
X-25279179Y-11009394D01*
X-25133497Y-11069737D01*
X-25025812Y-11091156D01*
X-24963906Y-11123539D01*
X-24962385Y-11125032D01*
X-24487411Y-11600008D01*
X-24400008Y-11687411D01*
X-24297233Y-11756083D01*
X-24200277Y-11796243D01*
X-24183035Y-11803385D01*
X-24143361Y-11811276D01*
X-24061805Y-11827500D01*
X-24061803Y-11827500D01*
X-23938197Y-11827500D01*
X-17989357Y-11827500D01*
X-17922318Y-11847185D01*
X-17920466Y-11848398D01*
X-17829179Y-11909394D01*
X-17683497Y-11969737D01*
X-17528845Y-12000499D01*
X-17528844Y-12000500D01*
X-17528842Y-12000500D01*
X-17371156Y-12000500D01*
X-17371153Y-12000499D01*
X-17360661Y-11998412D01*
X-17216503Y-11969737D01*
X-17116254Y-11928213D01*
X-17070827Y-11909397D01*
X-17070814Y-11909390D01*
X-16939711Y-11821789D01*
X-16939707Y-11821786D01*
X-16828213Y-11710292D01*
X-16828210Y-11710288D01*
X-16740609Y-11579185D01*
X-16740602Y-11579172D01*
X-16680264Y-11433501D01*
X-16680261Y-11433489D01*
X-16649500Y-11278846D01*
X-16649500Y-11121153D01*
X-16680261Y-10966510D01*
X-16680264Y-10966498D01*
X-16740602Y-10820827D01*
X-16740609Y-10820814D01*
X-16828210Y-10689711D01*
X-16828213Y-10689707D01*
X-16939707Y-10578213D01*
X-16939711Y-10578210D01*
X-17070814Y-10490609D01*
X-17070827Y-10490602D01*
X-17216498Y-10430264D01*
X-17216510Y-10430261D01*
X-17371155Y-10399500D01*
X-17371158Y-10399500D01*
X-17528842Y-10399500D01*
X-17528845Y-10399500D01*
X-17683489Y-10430261D01*
X-17683501Y-10430264D01*
X-17829172Y-10490602D01*
X-17829185Y-10490609D01*
X-17920466Y-10551602D01*
X-17987143Y-10572480D01*
X-17989357Y-10572500D01*
X-23688719Y-10572500D01*
X-23755758Y-10552815D01*
X-23776395Y-10536185D01*
X-24074908Y-10237672D01*
X-24108392Y-10176349D01*
X-24108843Y-10174183D01*
X-24130261Y-10066508D01*
X-24130264Y-10066498D01*
X-24190602Y-9920827D01*
X-24190609Y-9920814D01*
X-24278210Y-9789711D01*
X-24278213Y-9789707D01*
X-24389707Y-9678213D01*
X-24389711Y-9678210D01*
X-24520814Y-9590609D01*
X-24520827Y-9590602D01*
X-24666498Y-9530264D01*
X-24666510Y-9530261D01*
X-24821155Y-9499500D01*
X-24821158Y-9499500D01*
X-24978842Y-9499500D01*
X-24978845Y-9499500D01*
X-25133489Y-9530261D01*
X-25133501Y-9530264D01*
X-25279172Y-9590602D01*
X-25279185Y-9590609D01*
X-25410288Y-9678210D01*
X-25410292Y-9678213D01*
X-25521786Y-9789707D01*
X-25521789Y-9789711D01*
X-25609390Y-9920814D01*
X-25609397Y-9920827D01*
X-25665349Y-10055909D01*
X-25669737Y-10066503D01*
X-25698494Y-10211075D01*
X-25700499Y-10221153D01*
X-25700500Y-10221155D01*
X-52177659Y-10221155D01*
X-52163231Y-10176748D01*
X-52128317Y-10069293D01*
X-52100000Y-9890506D01*
X-52100000Y-9400000D01*
X-52950000Y-9400000D01*
X-52950000Y-8900000D01*
X-52100000Y-8900000D01*
X-52100000Y-8409493D01*
X-52128317Y-8230706D01*
X-52184251Y-8058555D01*
X-52184252Y-8058552D01*
X-52266434Y-7897265D01*
X-52372823Y-7750830D01*
X-52500830Y-7622823D01*
X-52647265Y-7516434D01*
X-52808552Y-7434252D01*
X-52808558Y-7434250D01*
X-52980704Y-7378318D01*
X-52980714Y-7378315D01*
X-53000000Y-7375260D01*
X-53000000Y-8433011D01*
X-53009940Y-8415795D01*
X-53065795Y-8359940D01*
X-53134204Y-8320444D01*
X-53210504Y-8300000D01*
X-53289496Y-8300000D01*
X-53365796Y-8320444D01*
X-53434205Y-8359940D01*
X-53490060Y-8415795D01*
X-53500000Y-8433011D01*
X-53500000Y-7375260D01*
X-53519285Y-7378315D01*
X-53519295Y-7378318D01*
X-53691441Y-7434250D01*
X-53691447Y-7434252D01*
X-53852734Y-7516434D01*
X-53999169Y-7622823D01*
X-54127176Y-7750830D01*
X-54233565Y-7897265D01*
X-54315747Y-8058552D01*
X-54315748Y-8058555D01*
X-54371682Y-8230706D01*
X-54400000Y-8409493D01*
X-65600000Y-8409493D01*
X-65628317Y-8230706D01*
X-65684251Y-8058555D01*
X-65684252Y-8058552D01*
X-65766434Y-7897265D01*
X-65872823Y-7750830D01*
X-66000830Y-7622823D01*
X-66147265Y-7516434D01*
X-66308552Y-7434252D01*
X-66308558Y-7434250D01*
X-66480704Y-7378318D01*
X-66480714Y-7378315D01*
X-66500000Y-7375260D01*
X-66500000Y-8433011D01*
X-66509940Y-8415795D01*
X-66565795Y-8359940D01*
X-66634204Y-8320444D01*
X-66710504Y-8300000D01*
X-66789496Y-8300000D01*
X-66865796Y-8320444D01*
X-66934205Y-8359940D01*
X-66990060Y-8415795D01*
X-67000000Y-8433011D01*
X-67000000Y-7375260D01*
X-67019285Y-7378315D01*
X-67019295Y-7378318D01*
X-67191441Y-7434250D01*
X-67191447Y-7434252D01*
X-67352734Y-7516434D01*
X-67499169Y-7622823D01*
X-67627176Y-7750830D01*
X-67733565Y-7897265D01*
X-67815747Y-8058552D01*
X-67815748Y-8058555D01*
X-67871682Y-8230706D01*
X-67900000Y-8409493D01*
X-69499500Y-8409493D01*
X-69499500Y-2995416D01*
X-65958500Y-2995416D01*
X-65958500Y-3304584D01*
X-65918146Y-3611108D01*
X-65838127Y-3909742D01*
X-65719813Y-4195376D01*
X-65565229Y-4463124D01*
X-65377019Y-4708404D01*
X-65158404Y-4927019D01*
X-64913124Y-5115229D01*
X-64645376Y-5269813D01*
X-64359742Y-5388127D01*
X-64061108Y-5468146D01*
X-63815888Y-5500429D01*
X-63754585Y-5508500D01*
X-63754584Y-5508500D01*
X-63445415Y-5508500D01*
X-63368785Y-5498411D01*
X-63138892Y-5468146D01*
X-62840258Y-5388127D01*
X-62554624Y-5269813D01*
X-62554621Y-5269811D01*
X-62554620Y-5269811D01*
X-62286876Y-5115229D01*
X-62041597Y-4927020D01*
X-62041590Y-4927014D01*
X-61822985Y-4708409D01*
X-61822979Y-4708402D01*
X-61634770Y-4463123D01*
X-61480188Y-4195379D01*
X-61480184Y-4195369D01*
X-61361873Y-3909742D01*
X-61281853Y-3611104D01*
X-61241500Y-3304584D01*
X-61241500Y-2995415D01*
X-61281853Y-2688895D01*
X-61361873Y-2390257D01*
X-61480184Y-2104630D01*
X-61480188Y-2104620D01*
X-61634770Y-1836876D01*
X-61822979Y-1591597D01*
X-61822985Y-1591590D01*
X-62041590Y-1372985D01*
X-62041597Y-1372979D01*
X-62286876Y-1184770D01*
X-62554620Y-1030188D01*
X-62554630Y-1030184D01*
X-62840257Y-911873D01*
X-63138895Y-831853D01*
X-63445415Y-791500D01*
X-63445416Y-791500D01*
X-63754584Y-791500D01*
X-63754585Y-791500D01*
X-64061104Y-831853D01*
X-64061107Y-831853D01*
X-64061108Y-831854D01*
X-64156674Y-857461D01*
X-64359742Y-911873D01*
X-64645369Y-1030184D01*
X-64645379Y-1030188D01*
X-64913123Y-1184770D01*
X-65158402Y-1372979D01*
X-65158409Y-1372985D01*
X-65377014Y-1591590D01*
X-65377020Y-1591597D01*
X-65565229Y-1836876D01*
X-65677452Y-2031253D01*
X-65719813Y-2104624D01*
X-65838127Y-2390258D01*
X-65918146Y-2688892D01*
X-65928932Y-2770821D01*
X-65957789Y-2990019D01*
X-65958500Y-2995416D01*
X-69499500Y-2995416D01*
X-69499500Y-124000D01*
X-60005500Y-124000D01*
X-60005500Y-3028584D01*
X-60005500Y-5926000D01*
X-59993947Y-6033456D01*
X-59982741Y-6084967D01*
X-59974611Y-6109394D01*
X-59948616Y-6187497D01*
X-59948613Y-6187501D01*
X-59948613Y-6187504D01*
X-59870825Y-6308543D01*
X-59825070Y-6361347D01*
X-59716336Y-6455567D01*
X-59585459Y-6515338D01*
X-59518420Y-6535023D01*
X-59518416Y-6535024D01*
X-59376000Y-6555500D01*
X-59375997Y-6555500D01*
X-45460430Y-6555500D01*
X-45460425Y-6555500D01*
X-45364718Y-6544778D01*
X-45348569Y-6542969D01*
X-45348561Y-6542967D01*
X-45295068Y-6530830D01*
X-45295061Y-6530827D01*
X-45295053Y-6530826D01*
X-45188738Y-6493853D01*
X-45188737Y-6493852D01*
X-45188736Y-6493852D01*
X-45069107Y-6413916D01*
X-45017131Y-6367228D01*
X-45017122Y-6367219D01*
X-44924861Y-6256820D01*
X-44923144Y-6254040D01*
X-44920713Y-6251856D01*
X-44919175Y-6250016D01*
X-44918910Y-6250237D01*
X-44871165Y-6207351D01*
X-44802194Y-6196176D01*
X-44793472Y-6197589D01*
X-44778842Y-6200500D01*
X-44621156Y-6200500D01*
X-44621153Y-6200499D01*
X-44599420Y-6196176D01*
X-44466503Y-6169737D01*
X-44329861Y-6113138D01*
X-44282410Y-6103700D01*
X-42347942Y-6103700D01*
X-42347922Y-6103701D01*
X-42341808Y-6103701D01*
X-42203189Y-6103701D01*
X-42067243Y-6076658D01*
X-42067242Y-6076657D01*
X-42067238Y-6076657D01*
X-41939173Y-6023611D01*
X-41936446Y-6021789D01*
X-41823917Y-5946600D01*
X-41823914Y-5946598D01*
X-41722803Y-5845487D01*
X-41722774Y-5845456D01*
X-38867337Y-2990019D01*
X-38806014Y-2956534D01*
X-38779656Y-2953700D01*
X-36417590Y-2953700D01*
X-36370138Y-2963138D01*
X-36233497Y-3019737D01*
X-36078845Y-3050499D01*
X-36078844Y-3050500D01*
X-36078842Y-3050500D01*
X-35921156Y-3050500D01*
X-35921153Y-3050499D01*
X-35766503Y-3019737D01*
X-35707786Y-2995416D01*
X-35620827Y-2959397D01*
X-35620814Y-2959390D01*
X-35489711Y-2871789D01*
X-35489707Y-2871786D01*
X-35378213Y-2760292D01*
X-35378210Y-2760288D01*
X-35290609Y-2629185D01*
X-35290602Y-2629172D01*
X-35230264Y-2483501D01*
X-35230261Y-2483489D01*
X-35199500Y-2328846D01*
X-35199500Y-2171158D01*
X-35214512Y-2095684D01*
X-35208283Y-2026093D01*
X-35165420Y-1970916D01*
X-35106152Y-1948205D01*
X-35066544Y-1943947D01*
X-35015033Y-1932741D01*
X-35014722Y-1932637D01*
X-34912502Y-1898616D01*
X-34912496Y-1898613D01*
X-34845516Y-1855567D01*
X-34791457Y-1820825D01*
X-34791451Y-1820820D01*
X-34738659Y-1775076D01*
X-34738656Y-1775072D01*
X-34738653Y-1775070D01*
X-34644433Y-1666336D01*
X-34644431Y-1666333D01*
X-34644430Y-1666331D01*
X-34584664Y-1535465D01*
X-34580045Y-1519737D01*
X-34564977Y-1468420D01*
X-34564976Y-1468416D01*
X-34544500Y-1326000D01*
X-34544500Y1272300D01*
X-34524815Y1339339D01*
X-34472011Y1385094D01*
X-34420500Y1396300D01*
X-32817590Y1396300D01*
X-32770138Y1386861D01*
X-32633499Y1330264D01*
X-32633497Y1330263D01*
X-32633489Y1330261D01*
X-32478846Y1299500D01*
X-32478842Y1299500D01*
X-32321153Y1299500D01*
X-32166510Y1330261D01*
X-32166498Y1330264D01*
X-32020827Y1390602D01*
X-32020814Y1390609D01*
X-31889711Y1478210D01*
X-31889707Y1478213D01*
X-31778213Y1589707D01*
X-31778210Y1589711D01*
X-31690609Y1720814D01*
X-31690602Y1720827D01*
X-31630264Y1866498D01*
X-31630261Y1866510D01*
X-31614710Y1944691D01*
X-31582325Y2006602D01*
X-31521610Y2041176D01*
X-31493093Y2044500D01*
X-27874010Y2044500D01*
X-27874000Y2044500D01*
X-27873991Y2044500D01*
X-27873990Y2044501D01*
X-27766549Y2056052D01*
X-27766537Y2056054D01*
X-27715027Y2067260D01*
X-27612502Y2101383D01*
X-27612496Y2101386D01*
X-27491462Y2179171D01*
X-27491451Y2179179D01*
X-27438657Y2224925D01*
X-27438657Y2224926D01*
X-27438655Y2224928D01*
X-27438653Y2224930D01*
X-27344433Y2333664D01*
X-27344430Y2333668D01*
X-27284664Y2464534D01*
X-27264976Y2531582D01*
X-27250992Y2628846D01*
X-27244500Y2674000D01*
X-27244500Y4826000D01*
X-27253562Y4910289D01*
X-27256052Y4933450D01*
X-27256054Y4933462D01*
X-27267260Y4984972D01*
X-27301383Y5087497D01*
X-27301386Y5087503D01*
X-27379171Y5208537D01*
X-27379179Y5208548D01*
X-27424923Y5261340D01*
X-27424926Y5261343D01*
X-27424930Y5261347D01*
X-27533664Y5355567D01*
X-27533668Y5355569D01*
X-27664534Y5415335D01*
X-27664535Y5415335D01*
X-27664541Y5415338D01*
X-27731580Y5435023D01*
X-27731584Y5435024D01*
X-27874000Y5455500D01*
X-38281328Y5455500D01*
X-38348367Y5475185D01*
X-38394122Y5527989D01*
X-38404066Y5597147D01*
X-38375041Y5660703D01*
X-38316263Y5698477D01*
X-38293485Y5702902D01*
X-38218405Y5710297D01*
X-37985750Y5733210D01*
X-37648427Y5800308D01*
X-37319293Y5900150D01*
X-37001535Y6031770D01*
X-37001530Y6031772D01*
X-36698224Y6193893D01*
X-36698206Y6193904D01*
X-36412248Y6384975D01*
X-36412234Y6384985D01*
X-36146367Y6603176D01*
X-35903176Y6846367D01*
X-35684985Y7112234D01*
X-35684975Y7112248D01*
X-35493904Y7398206D01*
X-35493893Y7398224D01*
X-35331772Y7701530D01*
X-35331770Y7701535D01*
X-35200150Y8019293D01*
X-35152208Y8177338D01*
X-35126951Y8260595D01*
X-35126951Y8260596D01*
X-35100310Y8348421D01*
X-35033210Y8685750D01*
X-34999500Y9028034D01*
X-34999500Y9371965D01*
X-35003186Y9409394D01*
X-35023403Y9614666D01*
X-35033210Y9714247D01*
X-35033210Y9714248D01*
X-35100308Y10051572D01*
X-35200150Y10380706D01*
X-35308549Y10642404D01*
X-35331769Y10698462D01*
X-35331770Y10698464D01*
X-35331772Y10698469D01*
X-35493893Y11001775D01*
X-35493904Y11001793D01*
X-35684975Y11287751D01*
X-35684985Y11287765D01*
X-35903176Y11553632D01*
X-36146367Y11796823D01*
X-36412234Y12015014D01*
X-36412240Y12015019D01*
X-36698213Y12206100D01*
X-36728087Y12222068D01*
X-37001530Y12368227D01*
X-37001532Y12368227D01*
X-37001538Y12368231D01*
X-37319295Y12499850D01*
X-37648422Y12599690D01*
X-37985750Y12666789D01*
X-38328031Y12700500D01*
X-38671969Y12700500D01*
X-39014250Y12666789D01*
X-39351578Y12599690D01*
X-39680705Y12499850D01*
X-39998462Y12368231D01*
X-40301787Y12206100D01*
X-40587760Y12015019D01*
X-40853627Y11796828D01*
X-41096828Y11553627D01*
X-41315019Y11287760D01*
X-41506100Y11001787D01*
X-41668231Y10698462D01*
X-41799850Y10380705D01*
X-41899690Y10051578D01*
X-41933123Y9883497D01*
X-41966789Y9714249D01*
X-41976597Y9614666D01*
X-42002758Y9549879D01*
X-42059792Y9509520D01*
X-42129592Y9506403D01*
X-42189997Y9541517D01*
X-42221828Y9603715D01*
X-42223403Y9614666D01*
X-42233210Y9714249D01*
X-42300308Y10051572D01*
X-42400150Y10380706D01*
X-42508549Y10642404D01*
X-42531769Y10698462D01*
X-42531770Y10698464D01*
X-42531772Y10698469D01*
X-42693893Y11001775D01*
X-42693904Y11001793D01*
X-42884975Y11287751D01*
X-42884985Y11287765D01*
X-43103176Y11553632D01*
X-43346367Y11796823D01*
X-43612234Y12015014D01*
X-43612240Y12015019D01*
X-43898213Y12206100D01*
X-43928087Y12222068D01*
X-44201530Y12368227D01*
X-44201532Y12368227D01*
X-44201538Y12368231D01*
X-44519295Y12499850D01*
X-44848422Y12599690D01*
X-45185750Y12666789D01*
X-45528031Y12700500D01*
X-45871969Y12700500D01*
X-46214250Y12666789D01*
X-46551578Y12599690D01*
X-46880705Y12499850D01*
X-47198462Y12368231D01*
X-47501787Y12206100D01*
X-47787760Y12015019D01*
X-48053627Y11796828D01*
X-48296828Y11553627D01*
X-48515019Y11287760D01*
X-48706100Y11001787D01*
X-48868231Y10698462D01*
X-48999850Y10380705D01*
X-49099690Y10051578D01*
X-49166789Y9714250D01*
X-49200500Y9371969D01*
X-49200500Y9028031D01*
X-49166789Y8685750D01*
X-49099690Y8348422D01*
X-48999850Y8019295D01*
X-48868231Y7701538D01*
X-48868229Y7701535D01*
X-48868227Y7701530D01*
X-48766561Y7511327D01*
X-48706100Y7398213D01*
X-48515019Y7112240D01*
X-48511167Y7107547D01*
X-48296823Y6846367D01*
X-48053632Y6603176D01*
X-47976299Y6539711D01*
X-47787760Y6384981D01*
X-47501787Y6193900D01*
X-47501782Y6193897D01*
X-47501775Y6193893D01*
X-47198469Y6031772D01*
X-47198464Y6031770D01*
X-47198462Y6031769D01*
X-47122972Y6000500D01*
X-46880706Y5900150D01*
X-46551572Y5800308D01*
X-46214248Y5733210D01*
X-46214249Y5733210D01*
X-45956456Y5707821D01*
X-45871969Y5699500D01*
X-45871966Y5699500D01*
X-45528034Y5699500D01*
X-45528031Y5699500D01*
X-45449966Y5707188D01*
X-45185750Y5733210D01*
X-44848427Y5800308D01*
X-44519293Y5900150D01*
X-44201535Y6031770D01*
X-44201530Y6031772D01*
X-43898224Y6193893D01*
X-43898206Y6193904D01*
X-43612248Y6384975D01*
X-43612234Y6384985D01*
X-43346367Y6603176D01*
X-43103176Y6846367D01*
X-42884985Y7112234D01*
X-42884975Y7112248D01*
X-42693904Y7398206D01*
X-42693893Y7398224D01*
X-42531772Y7701530D01*
X-42531770Y7701535D01*
X-42400150Y8019293D01*
X-42300308Y8348427D01*
X-42233210Y8685750D01*
X-42223403Y8785333D01*
X-42197242Y8850120D01*
X-42140208Y8890479D01*
X-42070408Y8893596D01*
X-42010003Y8858482D01*
X-41978172Y8796284D01*
X-41976597Y8785333D01*
X-41966789Y8685750D01*
X-41899690Y8348422D01*
X-41799850Y8019295D01*
X-41668231Y7701538D01*
X-41668229Y7701535D01*
X-41668227Y7701530D01*
X-41566561Y7511327D01*
X-41506100Y7398213D01*
X-41315019Y7112240D01*
X-41311167Y7107547D01*
X-41096823Y6846367D01*
X-40853632Y6603176D01*
X-40776299Y6539711D01*
X-40587760Y6384981D01*
X-40301787Y6193900D01*
X-40301782Y6193897D01*
X-40301775Y6193893D01*
X-39998469Y6031772D01*
X-39998464Y6031770D01*
X-39998462Y6031769D01*
X-39922972Y6000500D01*
X-39680706Y5900150D01*
X-39351572Y5800308D01*
X-39014248Y5733210D01*
X-39014249Y5733210D01*
X-38782350Y5710371D01*
X-38706517Y5702902D01*
X-38641731Y5676742D01*
X-38601372Y5619708D01*
X-38598255Y5549908D01*
X-38633369Y5489503D01*
X-38695567Y5457672D01*
X-38718672Y5455500D01*
X-43500070Y5455500D01*
X-43539539Y5453579D01*
X-43549135Y5453113D01*
X-43549146Y5453112D01*
X-43556752Y5452370D01*
X-43573088Y5450777D01*
X-43621677Y5443642D01*
X-43757454Y5396039D01*
X-43819427Y5363775D01*
X-43936293Y5279849D01*
X-46148723Y3153340D01*
X-48183869Y1197228D01*
X-48867548Y540100D01*
X-48929522Y507836D01*
X-48953476Y505500D01*
X-59376000Y505500D01*
X-59483456Y493947D01*
X-59534967Y482741D01*
X-59549178Y478011D01*
X-59637497Y448616D01*
X-59637501Y448613D01*
X-59637504Y448613D01*
X-59758543Y370825D01*
X-59811347Y325070D01*
X-59905567Y216336D01*
X-59965338Y85459D01*
X-59985023Y18420D01*
X-59985024Y18416D01*
X-60005500Y-124000D01*
X-69499500Y-124000D01*
X-69499500Y3404544D01*
X-65958000Y3404544D01*
X-65958000Y3095455D01*
X-65957999Y3095441D01*
X-65917653Y2788998D01*
X-65917651Y2788987D01*
X-65837652Y2490422D01*
X-65719365Y2204852D01*
X-65719361Y2204842D01*
X-65564815Y1937159D01*
X-65435247Y1768304D01*
X-64715270Y2488281D01*
X-64629722Y2370534D01*
X-64479466Y2220278D01*
X-64361716Y2134728D01*
X-65081694Y1414751D01*
X-65081694Y1414750D01*
X-64912844Y1285187D01*
X-64645157Y1130638D01*
X-64645147Y1130634D01*
X-64359577Y1012347D01*
X-64061012Y932348D01*
X-64061001Y932346D01*
X-63754558Y892000D01*
X-63445441Y892000D01*
X-63138998Y932346D01*
X-63138987Y932348D01*
X-62840422Y1012347D01*
X-62554852Y1130634D01*
X-62554842Y1130638D01*
X-62287155Y1285187D01*
X-62118304Y1414750D01*
X-62118304Y1414751D01*
X-62838282Y2134728D01*
X-62720534Y2220278D01*
X-62570278Y2370534D01*
X-62484729Y2488282D01*
X-61764751Y1768304D01*
X-61764750Y1768304D01*
X-61635187Y1937155D01*
X-61480638Y2204842D01*
X-61480634Y2204852D01*
X-61362347Y2490422D01*
X-61282348Y2788987D01*
X-61282346Y2788998D01*
X-61242000Y3095441D01*
X-61242000Y3404551D01*
X-61242004Y3404584D01*
X-58758500Y3404584D01*
X-58758500Y3095416D01*
X-58718146Y2788892D01*
X-58638127Y2490258D01*
X-58519907Y2204852D01*
X-58519815Y2204630D01*
X-58519811Y2204620D01*
X-58365229Y1936876D01*
X-58177020Y1691597D01*
X-58177014Y1691590D01*
X-57958409Y1472985D01*
X-57958402Y1472979D01*
X-57713123Y1284770D01*
X-57445379Y1130188D01*
X-57445369Y1130184D01*
X-57442139Y1128846D01*
X-57159742Y1011873D01*
X-56862952Y932348D01*
X-56861104Y931853D01*
X-56554585Y891500D01*
X-56554584Y891500D01*
X-56245415Y891500D01*
X-55938895Y931853D01*
X-55640257Y1011873D01*
X-55354630Y1130184D01*
X-55354620Y1130188D01*
X-55086876Y1284770D01*
X-54841597Y1472979D01*
X-54841590Y1472985D01*
X-54622985Y1691590D01*
X-54622979Y1691597D01*
X-54434770Y1936876D01*
X-54280188Y2204620D01*
X-54280184Y2204630D01*
X-54161873Y2490257D01*
X-54081853Y2788895D01*
X-54041500Y3095415D01*
X-54041500Y3404584D01*
X-54081853Y3711104D01*
X-54129473Y3888822D01*
X-54161873Y4009742D01*
X-54207190Y4119147D01*
X-54280184Y4295369D01*
X-54280188Y4295379D01*
X-54434770Y4563123D01*
X-54622979Y4808402D01*
X-54622985Y4808409D01*
X-54841590Y5027014D01*
X-54841597Y5027020D01*
X-55086876Y5215229D01*
X-55354620Y5369811D01*
X-55354621Y5369811D01*
X-55354624Y5369813D01*
X-55640258Y5488127D01*
X-55938892Y5568146D01*
X-56241610Y5607999D01*
X-56245415Y5608500D01*
X-56245416Y5608500D01*
X-56554584Y5608500D01*
X-56554585Y5608500D01*
X-56558390Y5607999D01*
X-56861108Y5568146D01*
X-57159742Y5488127D01*
X-57445376Y5369813D01*
X-57713124Y5215229D01*
X-57958404Y5027019D01*
X-58177019Y4808404D01*
X-58365229Y4563124D01*
X-58519813Y4295376D01*
X-58638127Y4009742D01*
X-58718146Y3711108D01*
X-58758500Y3404584D01*
X-61242004Y3404584D01*
X-61282346Y3711001D01*
X-61282348Y3711012D01*
X-61362347Y4009577D01*
X-61480634Y4295147D01*
X-61480638Y4295157D01*
X-61635187Y4562844D01*
X-61764751Y4731694D01*
X-62484728Y4011716D01*
X-62570278Y4129466D01*
X-62720534Y4279722D01*
X-62838281Y4365270D01*
X-62118304Y5085247D01*
X-62287159Y5214815D01*
X-62554842Y5369361D01*
X-62554852Y5369365D01*
X-62840422Y5487652D01*
X-63138987Y5567651D01*
X-63138998Y5567653D01*
X-63445441Y5607999D01*
X-63445456Y5608000D01*
X-63754544Y5608000D01*
X-63754558Y5607999D01*
X-64061001Y5567653D01*
X-64061012Y5567651D01*
X-64359577Y5487652D01*
X-64645147Y5369365D01*
X-64645156Y5369361D01*
X-64912845Y5214811D01*
X-65081694Y5085247D01*
X-64361717Y4365270D01*
X-64479466Y4279722D01*
X-64629722Y4129466D01*
X-64715270Y4011717D01*
X-65435247Y4731694D01*
X-65564811Y4562845D01*
X-65719361Y4295156D01*
X-65719365Y4295147D01*
X-65837652Y4009577D01*
X-65917651Y3711012D01*
X-65917653Y3711001D01*
X-65957999Y3404558D01*
X-65958000Y3404544D01*
X-69499500Y3404544D01*
X-69499500Y9936611D01*
X-67850500Y9936611D01*
X-67850500Y8563389D01*
X-67823402Y8392299D01*
X-67769873Y8227555D01*
X-67691232Y8073212D01*
X-67589414Y7933072D01*
X-67466928Y7810586D01*
X-67326788Y7708768D01*
X-67172445Y7630127D01*
X-67007701Y7576598D01*
X-67007699Y7576597D01*
X-67007698Y7576597D01*
X-66876271Y7555781D01*
X-66836611Y7549500D01*
X-66836610Y7549500D01*
X-66663390Y7549500D01*
X-66663389Y7549500D01*
X-66623728Y7555781D01*
X-66492302Y7576597D01*
X-66327552Y7630128D01*
X-66173211Y7708768D01*
X-66093256Y7766859D01*
X-66033072Y7810586D01*
X-66033070Y7810588D01*
X-66033069Y7810588D01*
X-65910588Y7933069D01*
X-65910588Y7933070D01*
X-65910586Y7933072D01*
X-65854769Y8009897D01*
X-65808768Y8073211D01*
X-65730128Y8227552D01*
X-65676597Y8392302D01*
X-65649500Y8563389D01*
X-65649500Y9936610D01*
X-65649500Y9936611D01*
X-54350500Y9936611D01*
X-54350500Y8563389D01*
X-54323402Y8392299D01*
X-54269873Y8227555D01*
X-54191232Y8073212D01*
X-54089414Y7933072D01*
X-53966928Y7810586D01*
X-53826788Y7708768D01*
X-53672445Y7630127D01*
X-53507701Y7576598D01*
X-53507699Y7576597D01*
X-53507698Y7576597D01*
X-53376271Y7555781D01*
X-53336611Y7549500D01*
X-53336610Y7549500D01*
X-53163390Y7549500D01*
X-53163389Y7549500D01*
X-53123728Y7555781D01*
X-52992302Y7576597D01*
X-52827552Y7630128D01*
X-52673211Y7708768D01*
X-52593256Y7766859D01*
X-52533072Y7810586D01*
X-52533070Y7810588D01*
X-52533069Y7810588D01*
X-52410588Y7933069D01*
X-52410588Y7933070D01*
X-52410586Y7933072D01*
X-52354769Y8009897D01*
X-52308768Y8073211D01*
X-52230128Y8227552D01*
X-52176597Y8392302D01*
X-52149500Y8563389D01*
X-52149500Y9936610D01*
X-52176597Y10107697D01*
X-52176598Y10107701D01*
X-52230127Y10272445D01*
X-52308768Y10426788D01*
X-52410586Y10566928D01*
X-52533072Y10689414D01*
X-52673212Y10791232D01*
X-52827555Y10869873D01*
X-52992299Y10923402D01*
X-53163389Y10950500D01*
X-53336611Y10950500D01*
X-53507701Y10923402D01*
X-53672445Y10869873D01*
X-53826788Y10791232D01*
X-53966928Y10689414D01*
X-54089414Y10566928D01*
X-54191232Y10426788D01*
X-54269873Y10272445D01*
X-54323402Y10107701D01*
X-54350500Y9936611D01*
X-65649500Y9936611D01*
X-65676597Y10107697D01*
X-65676598Y10107701D01*
X-65730127Y10272445D01*
X-65808768Y10426788D01*
X-65910586Y10566928D01*
X-66033072Y10689414D01*
X-66173212Y10791232D01*
X-66327555Y10869873D01*
X-66492299Y10923402D01*
X-66663389Y10950500D01*
X-66836611Y10950500D01*
X-67007701Y10923402D01*
X-67172445Y10869873D01*
X-67326788Y10791232D01*
X-67466928Y10689414D01*
X-67589414Y10566928D01*
X-67691232Y10426788D01*
X-67769873Y10272445D01*
X-67823402Y10107701D01*
X-67850500Y9936611D01*
X-69499500Y9936611D01*
X-69499500Y11995572D01*
X-69499184Y12004419D01*
X-69484869Y12204557D01*
X-69482351Y12222068D01*
X-69440646Y12413787D01*
X-69435662Y12430763D01*
X-69367090Y12614609D01*
X-69359740Y12630702D01*
X-69265709Y12802908D01*
X-69256144Y12817791D01*
X-69138561Y12974864D01*
X-69126975Y12988235D01*
X-68988235Y13126975D01*
X-68974864Y13138561D01*
X-68817791Y13256144D01*
X-68802908Y13265709D01*
X-68630702Y13359740D01*
X-68614609Y13367090D01*
X-68430763Y13435662D01*
X-68413787Y13440646D01*
X-68222068Y13482351D01*
X-68204557Y13484869D01*
X-68023779Y13497799D01*
X-68004417Y13499184D01*
X-67995572Y13499500D01*
X-22660942Y13499500D01*
X-22593903Y13479815D01*
X-22548148Y13427011D01*
X-22538204Y13357853D01*
X-22567229Y13294297D01*
X-22604646Y13265015D01*
X-22686433Y13223343D01*
X-22877510Y13084517D01*
X-23044517Y12917510D01*
X-23183343Y12726433D01*
X-23290568Y12515992D01*
X-23345979Y12345456D01*
X-23363553Y12291368D01*
X-23400500Y12058097D01*
X-23400500Y11821902D01*
X-23363553Y11588631D01*
X-23290566Y11364003D01*
X-23251720Y11287765D01*
X-23183343Y11153567D01*
X-23044517Y10962490D01*
X-22877510Y10795483D01*
X-22877506Y10795480D01*
X-22818283Y10752452D01*
X-22775617Y10697122D01*
X-22767550Y10642404D01*
X-22769104Y10622657D01*
X-22029408Y9882962D01*
X-22092993Y9865925D01*
X-22207007Y9800099D01*
X-22300099Y9707007D01*
X-22365925Y9592993D01*
X-22382962Y9529408D01*
X-23122658Y10269105D01*
X-23122658Y10269104D01*
X-23182914Y10186169D01*
X-23182918Y10186163D01*
X-23290102Y9975802D01*
X-23363065Y9751247D01*
X-23400000Y9518052D01*
X-23400000Y9281947D01*
X-23363065Y9048752D01*
X-23290102Y8824197D01*
X-23182914Y8613828D01*
X-23122658Y8530894D01*
X-23122658Y8530893D01*
X-22382962Y9270590D01*
X-22365925Y9207007D01*
X-22300099Y9092993D01*
X-22207007Y8999901D01*
X-22092993Y8934075D01*
X-22029409Y8917037D01*
X-22769105Y8177340D01*
X-22769104Y8177338D01*
X-22686174Y8117087D01*
X-22475802Y8009897D01*
X-22251247Y7936934D01*
X-22251248Y7936934D01*
X-22018052Y7900000D01*
X-21781948Y7900000D01*
X-21548752Y7936934D01*
X-21324197Y8009897D01*
X-21113830Y8117084D01*
X-21030894Y8177340D01*
X-21770591Y8917037D01*
X-21707007Y8934075D01*
X-21592993Y8999901D01*
X-21499901Y9092993D01*
X-21434075Y9207007D01*
X-21417037Y9270591D01*
X-20677340Y8530894D01*
X-20617084Y8613830D01*
X-20509897Y8824197D01*
X-20436934Y9048752D01*
X-20400000Y9281947D01*
X-20400000Y9518052D01*
X-20436934Y9751247D01*
X-20509897Y9975802D01*
X-20617087Y10186174D01*
X-20677338Y10269104D01*
X-20677340Y10269105D01*
X-21417037Y9529408D01*
X-21434075Y9592993D01*
X-21499901Y9707007D01*
X-21592993Y9800099D01*
X-21707007Y9865925D01*
X-21770590Y9882962D01*
X-21030893Y10622658D01*
X-21032448Y10642405D01*
X-21018084Y10710783D01*
X-20981717Y10752451D01*
X-20922490Y10795482D01*
X-20755485Y10962487D01*
X-20755485Y10962488D01*
X-20755483Y10962490D01*
X-20622746Y11145186D01*
X-20567416Y11187851D01*
X-20522428Y11196300D01*
X-18348844Y11196300D01*
X-18281805Y11176615D01*
X-18261163Y11159981D01*
X-16820872Y9719690D01*
X-16816240Y9712758D01*
X-16812001Y9709815D01*
X-16793992Y9679461D01*
X-16741139Y9551861D01*
X-16731700Y9504409D01*
X-16731700Y5207397D01*
X-16751385Y5140358D01*
X-16786806Y5104297D01*
X-16910289Y5021789D01*
X-17021789Y4910289D01*
X-17109394Y4779179D01*
X-17169737Y4633497D01*
X-17195996Y4501484D01*
X-17200499Y4478846D01*
X-17200500Y4478844D01*
X-17200500Y4321155D01*
X-17200499Y4321153D01*
X-17169737Y4166503D01*
X-17169735Y4166498D01*
X-17109397Y4020827D01*
X-17109390Y4020814D01*
X-17021789Y3889711D01*
X-17021786Y3889707D01*
X-16997460Y3865381D01*
X-16963975Y3804058D01*
X-16968959Y3734366D01*
X-17010831Y3678433D01*
X-17076295Y3654016D01*
X-17085141Y3653700D01*
X-20032410Y3653700D01*
X-20079861Y3663138D01*
X-20216503Y3719737D01*
X-20290047Y3734366D01*
X-20371155Y3750500D01*
X-20371158Y3750500D01*
X-20528842Y3750500D01*
X-20528845Y3750500D01*
X-20606520Y3735048D01*
X-20683497Y3719737D01*
X-20829179Y3659394D01*
X-20960289Y3571789D01*
X-21071789Y3460289D01*
X-21159394Y3329179D01*
X-21219737Y3183497D01*
X-21250499Y3028846D01*
X-21250500Y3028844D01*
X-21250500Y2871155D01*
X-21250499Y2871153D01*
X-21219737Y2716503D01*
X-21219735Y2716498D01*
X-21159397Y2570827D01*
X-21159390Y2570814D01*
X-21071789Y2439711D01*
X-21071786Y2439707D01*
X-20960292Y2328213D01*
X-20960288Y2328210D01*
X-20909621Y2294355D01*
X-20864816Y2240742D01*
X-20856109Y2171417D01*
X-20886264Y2108390D01*
X-20945707Y2071671D01*
X-21010602Y2071478D01*
X-21131513Y2103876D01*
X-21340156Y2131344D01*
X-21409703Y2140500D01*
X-21409704Y2140500D01*
X-21690296Y2140500D01*
X-21690297Y2140500D01*
X-21745934Y2133175D01*
X-21968487Y2103876D01*
X-22239518Y2031253D01*
X-22498750Y1923875D01*
X-22741750Y1783580D01*
X-22964358Y1612766D01*
X-22964362Y1612761D01*
X-22964367Y1612758D01*
X-23162758Y1414367D01*
X-23162761Y1414362D01*
X-23162766Y1414358D01*
X-23333580Y1191750D01*
X-23473875Y948750D01*
X-23581253Y689518D01*
X-23653876Y418487D01*
X-23690500Y140296D01*
X-23690500Y89404D01*
X-23690500Y-140296D01*
X-23653876Y-418487D01*
X-23581253Y-689518D01*
X-23473875Y-948750D01*
X-23333580Y-1191750D01*
X-23162766Y-1414358D01*
X-23162761Y-1414362D01*
X-23162758Y-1414367D01*
X-22964367Y-1612758D01*
X-22964362Y-1612761D01*
X-22964358Y-1612766D01*
X-22741750Y-1783580D01*
X-22498750Y-1923875D01*
X-22239518Y-2031253D01*
X-21968487Y-2103876D01*
X-21745934Y-2133175D01*
X-21690297Y-2140500D01*
X-21690296Y-2140500D01*
X-21409703Y-2140500D01*
X-21340156Y-2131344D01*
X-21131513Y-2103876D01*
X-20860482Y-2031253D01*
X-20601250Y-1923875D01*
X-20601247Y-1923873D01*
X-20601246Y-1923873D01*
X-20358249Y-1783580D01*
X-20166238Y-1636243D01*
X-20135642Y-1612766D01*
X-20135641Y-1612765D01*
X-20135633Y-1612758D01*
X-19937242Y-1414367D01*
X-19937234Y-1414358D01*
X-19766419Y-1191750D01*
X-19626126Y-948753D01*
X-19626122Y-948743D01*
X-19518747Y-689518D01*
X-19496559Y-606711D01*
X-19446124Y-418487D01*
X-19443883Y-401469D01*
X-19409500Y-140296D01*
X-19409500Y140296D01*
X-19446123Y418483D01*
X-19459883Y469834D01*
X-19518747Y689518D01*
X-19571349Y816510D01*
X-19626122Y948743D01*
X-19626126Y948753D01*
X-19766419Y1191750D01*
X-19937234Y1414358D01*
X-19937242Y1414367D01*
X-20135633Y1612758D01*
X-20135641Y1612765D01*
X-20358250Y1783581D01*
X-20358254Y1783583D01*
X-20591269Y1918113D01*
X-20639485Y1968679D01*
X-20652709Y2037286D01*
X-20626741Y2102151D01*
X-20569827Y2142680D01*
X-20529270Y2149500D01*
X-20371153Y2149500D01*
X-20216510Y2180261D01*
X-20216502Y2180263D01*
X-20099198Y2228852D01*
X-20079861Y2236861D01*
X-20032410Y2246300D01*
X-3287952Y2246300D01*
X-3287932Y2246299D01*
X-3281818Y2246299D01*
X-3143200Y2246299D01*
X-3007253Y2273341D01*
X-3007245Y2273343D01*
X-2879186Y2326387D01*
X-2838779Y2353386D01*
X-2763926Y2403400D01*
X-2696169Y2471158D01*
X-2665910Y2501417D01*
X-2665908Y2501419D01*
X-707346Y4459981D01*
X-646023Y4493466D01*
X-619665Y4496300D01*
X7459519Y4496300D01*
X7526558Y4476615D01*
X7572313Y4423811D01*
X7582257Y4354653D01*
X7553232Y4291097D01*
X7547200Y4284619D01*
X5476400Y2213819D01*
X5415077Y2180334D01*
X5388719Y2177500D01*
X4808065Y2177500D01*
X4741026Y2197185D01*
X4739174Y2198398D01*
X4629185Y2271890D01*
X4629184Y2271890D01*
X4629179Y2271894D01*
X4483497Y2332237D01*
X4406520Y2347548D01*
X4328845Y2363000D01*
X4328842Y2363000D01*
X4171158Y2363000D01*
X4171155Y2363000D01*
X4077858Y2344441D01*
X4016503Y2332237D01*
X4016498Y2332235D01*
X3870827Y2271897D01*
X3870814Y2271890D01*
X3739711Y2184289D01*
X3739707Y2184286D01*
X3628213Y2072792D01*
X3628210Y2072788D01*
X3554602Y1962626D01*
X3528580Y1940878D01*
X3503011Y1918723D01*
X3501873Y1918559D01*
X3500990Y1917821D01*
X3467377Y1913599D01*
X3433853Y1908779D01*
X3432805Y1909257D01*
X3431665Y1909114D01*
X3401109Y1923732D01*
X3370297Y1937804D01*
X3369675Y1938771D01*
X3368637Y1939268D01*
X3350823Y1968106D01*
X3332523Y1996582D01*
X3332307Y1998080D01*
X3331918Y1998711D01*
X3327500Y2031517D01*
X3327500Y2260642D01*
X3347185Y2327681D01*
X3348398Y2329533D01*
X3409390Y2420814D01*
X3409397Y2420827D01*
X3469735Y2566498D01*
X3469737Y2566503D01*
X3500499Y2721153D01*
X3500500Y2721155D01*
X3500500Y2878844D01*
X3500499Y2878846D01*
X3496998Y2896446D01*
X3469737Y3033497D01*
X3409394Y3179179D01*
X3321789Y3310289D01*
X3210289Y3421789D01*
X3079179Y3509394D01*
X2933497Y3569737D01*
X2856520Y3585048D01*
X2778845Y3600500D01*
X2778842Y3600500D01*
X2621158Y3600500D01*
X2621155Y3600500D01*
X2527858Y3581941D01*
X2466503Y3569737D01*
X2466498Y3569735D01*
X2320827Y3509397D01*
X2320814Y3509390D01*
X2189711Y3421789D01*
X2189707Y3421786D01*
X2078213Y3310292D01*
X2078210Y3310288D01*
X1990609Y3179185D01*
X1990602Y3179172D01*
X1930264Y3033501D01*
X1930261Y3033489D01*
X1899500Y2878846D01*
X1899500Y2721153D01*
X1930261Y2566510D01*
X1930264Y2566498D01*
X1990602Y2420827D01*
X1990609Y2420814D01*
X2051602Y2329533D01*
X2057252Y2311486D01*
X2067477Y2295577D01*
X2071928Y2264615D01*
X2072480Y2262855D01*
X2072500Y2260642D01*
X2072500Y2061281D01*
X2052815Y1994242D01*
X2036181Y1973600D01*
X1449992Y1387411D01*
X1401920Y1339339D01*
X1362586Y1300005D01*
X1362585Y1300003D01*
X1293923Y1197243D01*
X1293920Y1197237D01*
X1293917Y1197233D01*
X1293915Y1197228D01*
X1284915Y1175501D01*
X1246614Y1083035D01*
X1246612Y1083027D01*
X1229095Y994966D01*
X1229096Y994966D01*
X1222500Y961802D01*
X1222500Y-2610642D01*
X1202815Y-2677681D01*
X1201602Y-2679533D01*
X1140609Y-2770814D01*
X1140602Y-2770827D01*
X1080264Y-2916498D01*
X1080261Y-2916508D01*
X1049194Y-3072692D01*
X1016809Y-3134603D01*
X956093Y-3169177D01*
X927577Y-3172500D01*
X-938719Y-3172500D01*
X-1005758Y-3152815D01*
X-1026400Y-3136181D01*
X-3516609Y-645970D01*
X-3550094Y-584647D01*
X-3550545Y-534096D01*
X-3549500Y-528842D01*
X-3549500Y-371153D01*
X-3580261Y-216510D01*
X-3580264Y-216498D01*
X-3640602Y-70827D01*
X-3640609Y-70814D01*
X-3728210Y60288D01*
X-3728213Y60292D01*
X-3839707Y171786D01*
X-3839711Y171789D01*
X-3970814Y259390D01*
X-3970827Y259397D01*
X-4116498Y319735D01*
X-4116503Y319737D01*
X-4177858Y331941D01*
X-4271155Y350500D01*
X-4271158Y350500D01*
X-4428842Y350500D01*
X-4428845Y350500D01*
X-4506520Y335048D01*
X-4583497Y319737D01*
X-4678794Y280264D01*
X-4721639Y262517D01*
X-4729179Y259394D01*
X-4860289Y171789D01*
X-4971789Y60289D01*
X-5011622Y675D01*
X-5059390Y-70814D01*
X-5059397Y-70827D01*
X-5091062Y-147275D01*
X-5119737Y-216503D01*
X-5128145Y-258775D01*
X-5150499Y-371153D01*
X-5150500Y-371155D01*
X-5150500Y-371158D01*
X-5150500Y-528842D01*
X-5119737Y-683497D01*
X-5116951Y-690222D01*
X-5066632Y-811706D01*
X-5059394Y-829179D01*
X-4971789Y-960289D01*
X-4860289Y-1071789D01*
X-4860285Y-1071791D01*
X-4856800Y-1075277D01*
X-4841376Y-1094072D01*
X-4837411Y-1100008D01*
X-4837408Y-1100011D01*
X-2326600Y-3610819D01*
X-2293115Y-3672142D01*
X-2298099Y-3741834D01*
X-2339971Y-3797767D01*
X-2405435Y-3822184D01*
X-2414281Y-3822500D01*
X-3874214Y-3822500D01*
X-3941253Y-3802815D01*
X-3987008Y-3750011D01*
X-3988775Y-3745952D01*
X-4040602Y-3620827D01*
X-4040609Y-3620814D01*
X-4128210Y-3489711D01*
X-4128213Y-3489707D01*
X-4239707Y-3378213D01*
X-4239711Y-3378210D01*
X-4370814Y-3290609D01*
X-4370827Y-3290602D01*
X-4516498Y-3230264D01*
X-4516510Y-3230261D01*
X-4671155Y-3199500D01*
X-4671158Y-3199500D01*
X-4828842Y-3199500D01*
X-4828845Y-3199500D01*
X-4983489Y-3230261D01*
X-4983501Y-3230264D01*
X-5129172Y-3290602D01*
X-5129185Y-3290609D01*
X-5260288Y-3378210D01*
X-5260292Y-3378213D01*
X-5371786Y-3489707D01*
X-5371789Y-3489711D01*
X-5459390Y-3620814D01*
X-5459397Y-3620827D01*
X-5480652Y-3672142D01*
X-5519737Y-3766503D01*
X-5548229Y-3909742D01*
X-5550499Y-3921153D01*
X-5550500Y-3921155D01*
X-5550500Y-3921158D01*
X-5550500Y-4078842D01*
X-5519737Y-4233497D01*
X-5459394Y-4379179D01*
X-5371789Y-4510289D01*
X-5260289Y-4621789D01*
X-5129179Y-4709394D01*
X-4983497Y-4769737D01*
X-4875813Y-4791156D01*
X-4813907Y-4823539D01*
X-4812405Y-4825012D01*
X-4787411Y-4850008D01*
X-4700008Y-4937411D01*
X-4597233Y-5006083D01*
X-4483035Y-5053385D01*
X-4443361Y-5061276D01*
X-4361805Y-5077500D01*
X-4361803Y-5077500D01*
X-239357Y-5077500D01*
X-172318Y-5097185D01*
X-170466Y-5098398D01*
X-79179Y-5159394D01*
X-79172Y-5159396D01*
X-79172Y-5159397D01*
X44203Y-5210500D01*
X66503Y-5219737D01*
X221153Y-5250499D01*
X221156Y-5250500D01*
X221158Y-5250500D01*
X378844Y-5250500D01*
X378845Y-5250499D01*
X533497Y-5219737D01*
X679179Y-5159394D01*
X810289Y-5071789D01*
X810292Y-5071786D01*
X818260Y-5063819D01*
X879583Y-5030334D01*
X905941Y-5027500D01*
X3461804Y-5027500D01*
X3461805Y-5027499D01*
X3583035Y-5003386D01*
X3666439Y-4968838D01*
X3697233Y-4956083D01*
X3800008Y-4887411D01*
X3887411Y-4800008D01*
X8109315Y-578103D01*
X8170636Y-544620D01*
X8240328Y-549604D01*
X8296261Y-591476D01*
X8320678Y-656940D01*
X8318978Y-684139D01*
X8319161Y-684157D01*
X8318658Y-689256D01*
X8318615Y-689958D01*
X8318564Y-690209D01*
X8318564Y-847910D01*
X8349325Y-1002553D01*
X8349328Y-1002566D01*
X8350040Y-1004283D01*
X8350144Y-1005254D01*
X8351095Y-1008388D01*
X8350500Y-1008568D01*
X8357510Y-1073752D01*
X8326236Y-1136232D01*
X8323161Y-1139418D01*
X-1073600Y-10536181D01*
X-1134923Y-10569666D01*
X-1161281Y-10572500D01*
X-8360643Y-10572500D01*
X-8427682Y-10552815D01*
X-8429534Y-10551602D01*
X-8520814Y-10490609D01*
X-8520827Y-10490602D01*
X-8666498Y-10430264D01*
X-8666510Y-10430261D01*
X-8821155Y-10399500D01*
X-8821158Y-10399500D01*
X-8978842Y-10399500D01*
X-8978845Y-10399500D01*
X-9133489Y-10430261D01*
X-9133501Y-10430264D01*
X-9279172Y-10490602D01*
X-9279185Y-10490609D01*
X-9410288Y-10578210D01*
X-9410292Y-10578213D01*
X-9521786Y-10689707D01*
X-9521789Y-10689711D01*
X-9609390Y-10820814D01*
X-9609397Y-10820827D01*
X-9651171Y-10921680D01*
X-9669737Y-10966503D01*
X-9678269Y-11009397D01*
X-9700499Y-11121153D01*
X-9700500Y-11121155D01*
X-9700500Y-11121158D01*
X-9700500Y-11278842D01*
X-9669737Y-11433497D01*
X-9609394Y-11579179D01*
X-9521789Y-11710289D01*
X-9410289Y-11821789D01*
X-9279179Y-11909394D01*
X-9133497Y-11969737D01*
X-8978845Y-12000499D01*
X-8978844Y-12000500D01*
X-8978842Y-12000500D01*
X-8821156Y-12000500D01*
X-8821153Y-12000499D01*
X-8810661Y-11998412D01*
X-8666503Y-11969737D01*
X-8566254Y-11928213D01*
X-8520827Y-11909397D01*
X-8520814Y-11909390D01*
X-8429534Y-11848398D01*
X-8362857Y-11827520D01*
X-8360643Y-11827500D01*
X-788196Y-11827500D01*
X-788192Y-11827499D01*
X-759470Y-11821786D01*
X-666965Y-11803386D01*
X-586215Y-11769937D01*
X-552767Y-11756083D01*
X-449996Y-11687414D01*
X-449994Y-11687413D01*
X-449992Y-11687411D01*
X-362589Y-11600008D01*
X4210819Y-7026598D01*
X4272142Y-6993114D01*
X4341834Y-6998098D01*
X4397767Y-7039970D01*
X4422184Y-7105434D01*
X4422500Y-7114280D01*
X4422500Y-8410642D01*
X4402815Y-8477681D01*
X4401602Y-8479533D01*
X4340609Y-8570814D01*
X4340602Y-8570827D01*
X4280264Y-8716498D01*
X4280261Y-8716510D01*
X4249500Y-8871153D01*
X4249500Y-9028846D01*
X4280261Y-9183489D01*
X4280264Y-9183501D01*
X4340602Y-9329172D01*
X4340609Y-9329185D01*
X4428210Y-9460288D01*
X4428213Y-9460292D01*
X4539707Y-9571786D01*
X4539711Y-9571789D01*
X4670814Y-9659390D01*
X4670827Y-9659397D01*
X4716254Y-9678213D01*
X4816503Y-9719737D01*
X4915838Y-9739496D01*
X4971153Y-9750499D01*
X4971156Y-9750500D01*
X4971158Y-9750500D01*
X5128844Y-9750500D01*
X5128845Y-9750499D01*
X5283497Y-9719737D01*
X5429179Y-9659394D01*
X5560289Y-9571789D01*
X5671789Y-9460289D01*
X5759394Y-9329179D01*
X5762719Y-9321153D01*
X5789605Y-9256243D01*
X5819737Y-9183497D01*
X5850500Y-9028842D01*
X5850500Y-8871158D01*
X5850500Y-8871155D01*
X5850499Y-8871153D01*
X5819738Y-8716510D01*
X5819737Y-8716503D01*
X5819735Y-8716498D01*
X5759397Y-8570827D01*
X5759390Y-8570814D01*
X5698398Y-8479533D01*
X5677520Y-8412855D01*
X5677500Y-8410642D01*
X5677500Y-6889356D01*
X5697185Y-6822317D01*
X5698398Y-6820465D01*
X5704526Y-6811294D01*
X5759394Y-6729179D01*
X5819737Y-6583497D01*
X5850500Y-6428842D01*
X5850500Y-6271158D01*
X5850500Y-6271155D01*
X5850499Y-6271153D01*
X5846661Y-6251856D01*
X5819737Y-6116503D01*
X5806677Y-6084972D01*
X5759397Y-5970827D01*
X5759390Y-5970814D01*
X5671789Y-5839711D01*
X5671786Y-5839707D01*
X5622429Y-5790350D01*
X5588944Y-5729027D01*
X5593928Y-5659335D01*
X5622427Y-5614990D01*
X7960821Y-3276597D01*
X8022142Y-3243114D01*
X8091834Y-3248098D01*
X8147767Y-3289970D01*
X8172184Y-3355434D01*
X8172500Y-3364280D01*
X8172500Y-8860642D01*
X8152815Y-8927681D01*
X8151602Y-8929533D01*
X8090609Y-9020814D01*
X8090602Y-9020827D01*
X8030264Y-9166498D01*
X8030261Y-9166510D01*
X7999500Y-9321153D01*
X7999500Y-9478846D01*
X8030261Y-9633489D01*
X8030264Y-9633501D01*
X8090602Y-9779172D01*
X8090609Y-9779185D01*
X8178210Y-9910288D01*
X8178213Y-9910292D01*
X8289707Y-10021786D01*
X8289711Y-10021789D01*
X8420814Y-10109390D01*
X8420827Y-10109397D01*
X8566498Y-10169735D01*
X8566503Y-10169737D01*
X8721153Y-10200499D01*
X8721156Y-10200500D01*
X8721158Y-10200500D01*
X8878844Y-10200500D01*
X8878845Y-10200499D01*
X9033497Y-10169737D01*
X9179179Y-10109394D01*
X9310289Y-10021789D01*
X9421789Y-9910289D01*
X9509394Y-9779179D01*
X9569737Y-9633497D01*
X9600500Y-9478842D01*
X9600500Y-9321158D01*
X9600500Y-9321155D01*
X9600499Y-9321153D01*
X9569737Y-9166503D01*
X9569735Y-9166498D01*
X9509397Y-9020827D01*
X9509390Y-9020814D01*
X9448398Y-8929533D01*
X9427520Y-8862855D01*
X9427500Y-8860642D01*
X9427500Y-2711281D01*
X9447185Y-2644242D01*
X9463819Y-2623600D01*
X10387409Y-1700010D01*
X10387411Y-1700008D01*
X10409910Y-1666336D01*
X10456083Y-1597233D01*
X10477180Y-1546300D01*
X10503386Y-1483035D01*
X10527500Y-1361803D01*
X10527500Y-1238197D01*
X10527500Y-811281D01*
X10547185Y-744242D01*
X10563819Y-723600D01*
X11788819Y501400D01*
X11850142Y534885D01*
X11919834Y529901D01*
X11975767Y488029D01*
X12000184Y422565D01*
X12000500Y413719D01*
X12000500Y-4791656D01*
X11980815Y-4858695D01*
X11964181Y-4879337D01*
X10899992Y-5943526D01*
X10872704Y-5970814D01*
X10812586Y-6030931D01*
X10812585Y-6030933D01*
X10743233Y-6134726D01*
X10741586Y-6139330D01*
X10696614Y-6247901D01*
X10696612Y-6247909D01*
X10674048Y-6361344D01*
X10674049Y-6361345D01*
X10672500Y-6369133D01*
X10672500Y-8860642D01*
X10652815Y-8927681D01*
X10651602Y-8929533D01*
X10590609Y-9020814D01*
X10590602Y-9020827D01*
X10530264Y-9166498D01*
X10530261Y-9166510D01*
X10499500Y-9321153D01*
X10499500Y-9478846D01*
X10530261Y-9633489D01*
X10530264Y-9633501D01*
X10590602Y-9779172D01*
X10590609Y-9779185D01*
X10678210Y-9910288D01*
X10678213Y-9910292D01*
X10789707Y-10021786D01*
X10789711Y-10021789D01*
X10920814Y-10109390D01*
X10920827Y-10109397D01*
X11066498Y-10169735D01*
X11066503Y-10169737D01*
X11221153Y-10200499D01*
X11221156Y-10200500D01*
X11221158Y-10200500D01*
X11378844Y-10200500D01*
X11378845Y-10200499D01*
X11533497Y-10169737D01*
X11679179Y-10109394D01*
X11810289Y-10021789D01*
X11921789Y-9910289D01*
X12009394Y-9779179D01*
X12069737Y-9633497D01*
X12100500Y-9478842D01*
X12100500Y-9321158D01*
X12100500Y-9321155D01*
X12100499Y-9321153D01*
X12069737Y-9166503D01*
X12069735Y-9166498D01*
X12009397Y-9020827D01*
X12009390Y-9020814D01*
X11948398Y-8929533D01*
X11927520Y-8862855D01*
X11927500Y-8860642D01*
X11927500Y-6742218D01*
X11947185Y-6675179D01*
X11963819Y-6654537D01*
X12288819Y-6329537D01*
X12350142Y-6296052D01*
X12419834Y-6301036D01*
X12475767Y-6342908D01*
X12500184Y-6408372D01*
X12500500Y-6417218D01*
X12500500Y-16101845D01*
X12480815Y-16168884D01*
X12428011Y-16214639D01*
X12400691Y-16223462D01*
X12366510Y-16230261D01*
X12366498Y-16230264D01*
X12220827Y-16290602D01*
X12220809Y-16290612D01*
X12120390Y-16357710D01*
X12053713Y-16378588D01*
X11986333Y-16360103D01*
X11939643Y-16308124D01*
X11927500Y-16254608D01*
X11927500Y-13739356D01*
X11947185Y-13672317D01*
X11948398Y-13670465D01*
X12009394Y-13579179D01*
X12069737Y-13433497D01*
X12100500Y-13278842D01*
X12100500Y-13121158D01*
X12100500Y-13121155D01*
X12100499Y-13121153D01*
X12079959Y-13017891D01*
X12069737Y-12966503D01*
X12054277Y-12929179D01*
X12009397Y-12820827D01*
X12009390Y-12820814D01*
X11921789Y-12689711D01*
X11921786Y-12689707D01*
X11810292Y-12578213D01*
X11810288Y-12578210D01*
X11679185Y-12490609D01*
X11679172Y-12490602D01*
X11533501Y-12430264D01*
X11533489Y-12430261D01*
X11378845Y-12399500D01*
X11378842Y-12399500D01*
X11221158Y-12399500D01*
X11221155Y-12399500D01*
X11066510Y-12430261D01*
X11066498Y-12430264D01*
X10920827Y-12490602D01*
X10920814Y-12490609D01*
X10789711Y-12578210D01*
X10789707Y-12578213D01*
X10678213Y-12689707D01*
X10678210Y-12689711D01*
X10590609Y-12820814D01*
X10590602Y-12820827D01*
X10530264Y-12966498D01*
X10530261Y-12966510D01*
X10499500Y-13121153D01*
X10499500Y-13278846D01*
X10530261Y-13433489D01*
X10530264Y-13433501D01*
X10590603Y-13579174D01*
X10590604Y-13579175D01*
X10590606Y-13579179D01*
X10651602Y-13670465D01*
X10672480Y-13737142D01*
X10672500Y-13739356D01*
X10672500Y-24560642D01*
X10652815Y-24627681D01*
X10651602Y-24629533D01*
X10590609Y-24720814D01*
X10590602Y-24720827D01*
X10530264Y-24866498D01*
X10530261Y-24866510D01*
X10499500Y-25021153D01*
X10499500Y-25178846D01*
X10530261Y-25333489D01*
X10530264Y-25333501D01*
X10590602Y-25479172D01*
X10590609Y-25479185D01*
X10678210Y-25610288D01*
X10678213Y-25610292D01*
X10789707Y-25721786D01*
X10789711Y-25721789D01*
X10920814Y-25809390D01*
X10920827Y-25809397D01*
X11066498Y-25869735D01*
X11066503Y-25869737D01*
X11221153Y-25900499D01*
X11221156Y-25900500D01*
X11221158Y-25900500D01*
X11378844Y-25900500D01*
X11378845Y-25900499D01*
X11533497Y-25869737D01*
X11679179Y-25809394D01*
X11810289Y-25721789D01*
X11921789Y-25610289D01*
X12009394Y-25479179D01*
X12069737Y-25333497D01*
X12100500Y-25178842D01*
X12100500Y-25021158D01*
X12100500Y-25021155D01*
X12100499Y-25021153D01*
X12079684Y-24916510D01*
X12069737Y-24866503D01*
X12030102Y-24770814D01*
X12009397Y-24720827D01*
X12009390Y-24720814D01*
X11948398Y-24629533D01*
X11927520Y-24562855D01*
X11927500Y-24560642D01*
X11927500Y-17745391D01*
X11947185Y-17678352D01*
X11999989Y-17632597D01*
X12069147Y-17622653D01*
X12120391Y-17642289D01*
X12220814Y-17709390D01*
X12220827Y-17709397D01*
X12307726Y-17745391D01*
X12366503Y-17769737D01*
X12521153Y-17800499D01*
X12521156Y-17800500D01*
X12521158Y-17800500D01*
X12678844Y-17800500D01*
X12678845Y-17800499D01*
X12833497Y-17769737D01*
X12979179Y-17709394D01*
X13110289Y-17621789D01*
X13221789Y-17510289D01*
X13309394Y-17379179D01*
X13369737Y-17233497D01*
X13391156Y-17125812D01*
X13423539Y-17063906D01*
X13424977Y-17062440D01*
X13615411Y-16872008D01*
X13684083Y-16769233D01*
X13703676Y-16721930D01*
X13731386Y-16655034D01*
X13755500Y-16533803D01*
X13755500Y-16410197D01*
X13755500Y-14552155D01*
X14300000Y-14552155D01*
X14300000Y-15350000D01*
X15366988Y-15350000D01*
X15334075Y-15407007D01*
X15300000Y-15534174D01*
X15300000Y-15665826D01*
X15334075Y-15792993D01*
X15366988Y-15850000D01*
X14300000Y-15850000D01*
X14300000Y-16647844D01*
X14306401Y-16707372D01*
X14306403Y-16707379D01*
X14356645Y-16842086D01*
X14356649Y-16842093D01*
X14442809Y-16957187D01*
X14442812Y-16957190D01*
X14557906Y-17043350D01*
X14557913Y-17043354D01*
X14692620Y-17093596D01*
X14692627Y-17093598D01*
X14752155Y-17099999D01*
X14752172Y-17100000D01*
X15550000Y-17100000D01*
X15550000Y-16033012D01*
X15607007Y-16065925D01*
X15734174Y-16100000D01*
X15865826Y-16100000D01*
X15992993Y-16065925D01*
X16050000Y-16033012D01*
X16050000Y-17100000D01*
X16847828Y-17100000D01*
X16847844Y-17099999D01*
X16907372Y-17093598D01*
X16907379Y-17093596D01*
X17042086Y-17043354D01*
X17042093Y-17043350D01*
X17157187Y-16957190D01*
X17157190Y-16957187D01*
X17243350Y-16842093D01*
X17243354Y-16842086D01*
X17293596Y-16707379D01*
X17293598Y-16707372D01*
X17299999Y-16647844D01*
X17300000Y-16647827D01*
X17300000Y-15850000D01*
X16233012Y-15850000D01*
X16265925Y-15792993D01*
X16300000Y-15665826D01*
X16300000Y-15534174D01*
X16265925Y-15407007D01*
X16233012Y-15350000D01*
X17300000Y-15350000D01*
X17300000Y-14552172D01*
X17299999Y-14552155D01*
X17293598Y-14492627D01*
X17293596Y-14492620D01*
X17243354Y-14357913D01*
X17243350Y-14357906D01*
X17157190Y-14242812D01*
X17157187Y-14242809D01*
X17042093Y-14156649D01*
X17042086Y-14156645D01*
X16907379Y-14106403D01*
X16907372Y-14106401D01*
X16847844Y-14100000D01*
X16050000Y-14100000D01*
X16050000Y-15166988D01*
X15992993Y-15134075D01*
X15865826Y-15100000D01*
X15734174Y-15100000D01*
X15607007Y-15134075D01*
X15550000Y-15166988D01*
X15550000Y-14100000D01*
X14752155Y-14100000D01*
X14692627Y-14106401D01*
X14692620Y-14106403D01*
X14557913Y-14156645D01*
X14557906Y-14156649D01*
X14442812Y-14242809D01*
X14442809Y-14242812D01*
X14356649Y-14357906D01*
X14356645Y-14357913D01*
X14306403Y-14492620D01*
X14306401Y-14492627D01*
X14300000Y-14552155D01*
X13755500Y-14552155D01*
X13755500Y-2683281D01*
X13775185Y-2616242D01*
X13791819Y-2595600D01*
X14123600Y-2263819D01*
X14184923Y-2230334D01*
X14211281Y-2227500D01*
X15494059Y-2227500D01*
X15561098Y-2247185D01*
X15581740Y-2263819D01*
X15589707Y-2271786D01*
X15589711Y-2271789D01*
X15720814Y-2359390D01*
X15720827Y-2359397D01*
X15866498Y-2419735D01*
X15866503Y-2419737D01*
X16021153Y-2450499D01*
X16021156Y-2450500D01*
X16021158Y-2450500D01*
X16178844Y-2450500D01*
X16178845Y-2450499D01*
X16333497Y-2419737D01*
X16479179Y-2359394D01*
X16610289Y-2271789D01*
X16721789Y-2160289D01*
X16809394Y-2029179D01*
X16869737Y-1883497D01*
X16900500Y-1728842D01*
X16900500Y-1571158D01*
X16900500Y-1571155D01*
X16900499Y-1571153D01*
X16891457Y-1525691D01*
X16897684Y-1456099D01*
X16940548Y-1400922D01*
X17006438Y-1377678D01*
X17013074Y-1377500D01*
X17510643Y-1377500D01*
X17577682Y-1397185D01*
X17579534Y-1398398D01*
X17670814Y-1459390D01*
X17670827Y-1459397D01*
X17806426Y-1515563D01*
X17816503Y-1519737D01*
X17971153Y-1550499D01*
X17971156Y-1550500D01*
X17971158Y-1550500D01*
X18128844Y-1550500D01*
X18128845Y-1550499D01*
X18283497Y-1519737D01*
X18318090Y-1505407D01*
X18351048Y-1491757D01*
X18420517Y-1484288D01*
X18482996Y-1515563D01*
X18518648Y-1575652D01*
X18522500Y-1606318D01*
X18522500Y-5911807D01*
X18546612Y-6033028D01*
X18546613Y-6033034D01*
X18568128Y-6084972D01*
X18578244Y-6109394D01*
X18593917Y-6147233D01*
X18629509Y-6200500D01*
X18632289Y-6204661D01*
X18632291Y-6204664D01*
X18662587Y-6250006D01*
X18662591Y-6250011D01*
X23313181Y-10900600D01*
X23346666Y-10961923D01*
X23349500Y-10988281D01*
X23349500Y-12597870D01*
X23349501Y-12597876D01*
X23355908Y-12657483D01*
X23406202Y-12792328D01*
X23406206Y-12792335D01*
X23492452Y-12907544D01*
X23492455Y-12907547D01*
X23607664Y-12993793D01*
X23607671Y-12993797D01*
X23742517Y-13044091D01*
X23742516Y-13044091D01*
X23749444Y-13044835D01*
X23802127Y-13050500D01*
X25897872Y-13050499D01*
X25957483Y-13044091D01*
X26092331Y-12993796D01*
X26207546Y-12907546D01*
X26293796Y-12792331D01*
X26344091Y-12657483D01*
X26350500Y-12597873D01*
X26350499Y-10502128D01*
X26344091Y-10442517D01*
X26320343Y-10378846D01*
X26293797Y-10307671D01*
X26293793Y-10307664D01*
X26207547Y-10192455D01*
X26207544Y-10192452D01*
X26092335Y-10106206D01*
X26092328Y-10106202D01*
X25957482Y-10055908D01*
X25957483Y-10055908D01*
X25897883Y-10049501D01*
X25897881Y-10049500D01*
X25897873Y-10049500D01*
X25897865Y-10049500D01*
X24288281Y-10049500D01*
X24221242Y-10029815D01*
X24200600Y-10013181D01*
X22476600Y-8289181D01*
X22443115Y-8227858D01*
X22448099Y-8158166D01*
X22489971Y-8102233D01*
X22555435Y-8077816D01*
X22564281Y-8077500D01*
X23225501Y-8077500D01*
X23292540Y-8097185D01*
X23338295Y-8149989D01*
X23349501Y-8201500D01*
X23349501Y-8497876D01*
X23355908Y-8557483D01*
X23406202Y-8692328D01*
X23406206Y-8692335D01*
X23492452Y-8807544D01*
X23492455Y-8807547D01*
X23607664Y-8893793D01*
X23607671Y-8893797D01*
X23742517Y-8944091D01*
X23742516Y-8944091D01*
X23749444Y-8944835D01*
X23802127Y-8950500D01*
X25897872Y-8950499D01*
X25957483Y-8944091D01*
X26092331Y-8893796D01*
X26207546Y-8807546D01*
X26293796Y-8692331D01*
X26344091Y-8557483D01*
X26350500Y-8497873D01*
X26350499Y-6402128D01*
X26344091Y-6342517D01*
X26317474Y-6271153D01*
X26293797Y-6207671D01*
X26293793Y-6207664D01*
X26207547Y-6092455D01*
X26207544Y-6092452D01*
X26092335Y-6006206D01*
X26092328Y-6006202D01*
X25957482Y-5955908D01*
X25957483Y-5955908D01*
X25897883Y-5949501D01*
X25897881Y-5949500D01*
X25897873Y-5949500D01*
X25897864Y-5949500D01*
X23802129Y-5949500D01*
X23802123Y-5949501D01*
X23742516Y-5955908D01*
X23607671Y-6006202D01*
X23607664Y-6006206D01*
X23492455Y-6092452D01*
X23492452Y-6092455D01*
X23406206Y-6207664D01*
X23406202Y-6207671D01*
X23355908Y-6342517D01*
X23349501Y-6402116D01*
X23349501Y-6402123D01*
X23349500Y-6402135D01*
X23349500Y-6698500D01*
X23329815Y-6765539D01*
X23277011Y-6811294D01*
X23225500Y-6822500D01*
X22261281Y-6822500D01*
X22194242Y-6802815D01*
X22173600Y-6786181D01*
X20613819Y-5226400D01*
X20580334Y-5165077D01*
X20577500Y-5138719D01*
X20577500Y-38196D01*
X20577499Y-38195D01*
X20568853Y5276D01*
X20553386Y83034D01*
X20515899Y173535D01*
X20506083Y197233D01*
X20437411Y300008D01*
X20420909Y316510D01*
X20398601Y338819D01*
X20365116Y400142D01*
X20370100Y469834D01*
X20411972Y525767D01*
X20477436Y550184D01*
X20486282Y550500D01*
X28289807Y550500D01*
X28411027Y574612D01*
X28411035Y574614D01*
X28506284Y614068D01*
X28506286Y614069D01*
X28525228Y621915D01*
X28525233Y621917D01*
X28525237Y621920D01*
X28525243Y621923D01*
X28628003Y690585D01*
X28628005Y690586D01*
X28650500Y713081D01*
X28715411Y777992D01*
X29937819Y2000400D01*
X29999142Y2033885D01*
X30068834Y2028901D01*
X30124767Y1987029D01*
X30149184Y1921565D01*
X30149500Y1912719D01*
X30149501Y322130D01*
X30155908Y262516D01*
X30206202Y127671D01*
X30206206Y127664D01*
X30292452Y12455D01*
X30292455Y12452D01*
X30407664Y-73793D01*
X30407671Y-73797D01*
X30539082Y-122810D01*
X30595016Y-164681D01*
X30619433Y-230145D01*
X30604582Y-298418D01*
X30583431Y-326673D01*
X30469889Y-440215D01*
X30344951Y-612179D01*
X30248444Y-801585D01*
X30182753Y-1003760D01*
X30161772Y-1136232D01*
X30149500Y-1213713D01*
X30149500Y-1426287D01*
X30154222Y-1456099D01*
X30179035Y-1612766D01*
X30182754Y-1636243D01*
X30212841Y-1728842D01*
X30248444Y-1838414D01*
X30344951Y-2027820D01*
X30469890Y-2199786D01*
X30620213Y-2350109D01*
X30792182Y-2475050D01*
X30800946Y-2479516D01*
X30851742Y-2527491D01*
X30868536Y-2595312D01*
X30845998Y-2661447D01*
X30800946Y-2700484D01*
X30792182Y-2704949D01*
X30620213Y-2829890D01*
X30469890Y-2980213D01*
X30344951Y-3152179D01*
X30248444Y-3341585D01*
X30182753Y-3543760D01*
X30151381Y-3741834D01*
X30149500Y-3753713D01*
X30149500Y-3966287D01*
X30182754Y-4176243D01*
X30201358Y-4233501D01*
X30248444Y-4378414D01*
X30344951Y-4567820D01*
X30469890Y-4739786D01*
X30620213Y-4890109D01*
X30792179Y-5015048D01*
X30792181Y-5015049D01*
X30792184Y-5015051D01*
X30801493Y-5019794D01*
X30852290Y-5067766D01*
X30869087Y-5135587D01*
X30846552Y-5201722D01*
X30801505Y-5240760D01*
X30792446Y-5245376D01*
X30792440Y-5245380D01*
X30738282Y-5284727D01*
X30738282Y-5284728D01*
X31370591Y-5917037D01*
X31307007Y-5934075D01*
X31192993Y-5999901D01*
X31099901Y-6092993D01*
X31034075Y-6207007D01*
X31017037Y-6270591D01*
X30384728Y-5638282D01*
X30384727Y-5638282D01*
X30345380Y-5692439D01*
X30248904Y-5881782D01*
X30183242Y-6083869D01*
X30183242Y-6083872D01*
X30150000Y-6293753D01*
X30150000Y-6506246D01*
X30183242Y-6716127D01*
X30183242Y-6716130D01*
X30248904Y-6918217D01*
X30345375Y-7107550D01*
X30384728Y-7161716D01*
X31017037Y-6529408D01*
X31034075Y-6592993D01*
X31099901Y-6707007D01*
X31192993Y-6800099D01*
X31307007Y-6865925D01*
X31370590Y-6882962D01*
X30738282Y-7515269D01*
X30738282Y-7515270D01*
X30792452Y-7554626D01*
X30792451Y-7554626D01*
X30801495Y-7559234D01*
X30852292Y-7607208D01*
X30869087Y-7675029D01*
X30846550Y-7741164D01*
X30801499Y-7780202D01*
X30792182Y-7784949D01*
X30620213Y-7909890D01*
X30469890Y-8060213D01*
X30344951Y-8232179D01*
X30248444Y-8421585D01*
X30182753Y-8623760D01*
X30149500Y-8833713D01*
X30149500Y-9046286D01*
X30168541Y-9166510D01*
X30182754Y-9256243D01*
X30206454Y-9329185D01*
X30248444Y-9458414D01*
X30344951Y-9647820D01*
X30469890Y-9819786D01*
X30620213Y-9970109D01*
X30792182Y-10095050D01*
X30800946Y-10099516D01*
X30851742Y-10147491D01*
X30868536Y-10215312D01*
X30845998Y-10281447D01*
X30800946Y-10320484D01*
X30792182Y-10324949D01*
X30620213Y-10449890D01*
X30469890Y-10600213D01*
X30344951Y-10772179D01*
X30248444Y-10961585D01*
X30182753Y-11163760D01*
X30149500Y-11373713D01*
X30149500Y-11586286D01*
X30180222Y-11780261D01*
X30182754Y-11796243D01*
X30247520Y-11995572D01*
X30248444Y-11998414D01*
X30344951Y-12187820D01*
X30469890Y-12359786D01*
X30620213Y-12510109D01*
X30792179Y-12635048D01*
X30792181Y-12635049D01*
X30792184Y-12635051D01*
X30981588Y-12731557D01*
X31183757Y-12797246D01*
X31393713Y-12830500D01*
X31393714Y-12830500D01*
X31606286Y-12830500D01*
X31606287Y-12830500D01*
X31816243Y-12797246D01*
X32018412Y-12731557D01*
X32207816Y-12635051D01*
X32258974Y-12597883D01*
X32379786Y-12510109D01*
X32379788Y-12510106D01*
X32379792Y-12510104D01*
X32530104Y-12359792D01*
X32530106Y-12359788D01*
X32530109Y-12359786D01*
X32655048Y-12187820D01*
X32655047Y-12187820D01*
X32655051Y-12187816D01*
X32751557Y-11998412D01*
X32817246Y-11796243D01*
X32850500Y-11586287D01*
X32850500Y-11373713D01*
X32817246Y-11163757D01*
X32751557Y-10961588D01*
X32655051Y-10772184D01*
X32655049Y-10772181D01*
X32655048Y-10772179D01*
X32530109Y-10600213D01*
X32379786Y-10449890D01*
X32207820Y-10324951D01*
X32207115Y-10324591D01*
X32199054Y-10320485D01*
X32148259Y-10272512D01*
X32131463Y-10204692D01*
X32153999Y-10138556D01*
X32199054Y-10099515D01*
X32207816Y-10095051D01*
X32270512Y-10049500D01*
X32379786Y-9970109D01*
X32379788Y-9970106D01*
X32379792Y-9970104D01*
X32530104Y-9819792D01*
X32530106Y-9819788D01*
X32530109Y-9819786D01*
X32655048Y-9647820D01*
X32655047Y-9647820D01*
X32655051Y-9647816D01*
X32751557Y-9458412D01*
X32817246Y-9256243D01*
X32850500Y-9046287D01*
X32850500Y-8833713D01*
X32817246Y-8623757D01*
X32751557Y-8421588D01*
X32655051Y-8232184D01*
X32655049Y-8232181D01*
X32655048Y-8232179D01*
X32530109Y-8060213D01*
X32379786Y-7909890D01*
X32207817Y-7784949D01*
X32198504Y-7780204D01*
X32147707Y-7732230D01*
X32130912Y-7664409D01*
X32153449Y-7598274D01*
X32198507Y-7559232D01*
X32207555Y-7554622D01*
X32261716Y-7515270D01*
X32261717Y-7515270D01*
X31629408Y-6882962D01*
X31692993Y-6865925D01*
X31807007Y-6800099D01*
X31900099Y-6707007D01*
X31965925Y-6592993D01*
X31982962Y-6529409D01*
X32615270Y-7161717D01*
X32615270Y-7161716D01*
X32654622Y-7107554D01*
X32751095Y-6918217D01*
X32816757Y-6716130D01*
X32816757Y-6716127D01*
X32850000Y-6506246D01*
X32850000Y-6293753D01*
X32816757Y-6083872D01*
X32816757Y-6083869D01*
X32751095Y-5881782D01*
X32654624Y-5692449D01*
X32615270Y-5638282D01*
X32615269Y-5638282D01*
X31982962Y-6270590D01*
X31965925Y-6207007D01*
X31900099Y-6092993D01*
X31807007Y-5999901D01*
X31692993Y-5934075D01*
X31629409Y-5917037D01*
X32261716Y-5284728D01*
X32207547Y-5245373D01*
X32207547Y-5245372D01*
X32198500Y-5240763D01*
X32147706Y-5192788D01*
X32130912Y-5124966D01*
X32153451Y-5058832D01*
X32198508Y-5019793D01*
X32207816Y-5015051D01*
X32314683Y-4937408D01*
X32379786Y-4890109D01*
X32379788Y-4890106D01*
X32379792Y-4890104D01*
X32530104Y-4739792D01*
X32530106Y-4739788D01*
X32530109Y-4739786D01*
X32655048Y-4567820D01*
X32655047Y-4567820D01*
X32655051Y-4567816D01*
X32751557Y-4378412D01*
X32817246Y-4176243D01*
X32850500Y-3966287D01*
X32850500Y-3753713D01*
X32817246Y-3543757D01*
X32751557Y-3341588D01*
X32655051Y-3152184D01*
X32655049Y-3152181D01*
X32655048Y-3152179D01*
X32530109Y-2980213D01*
X32379786Y-2829890D01*
X32207820Y-2704951D01*
X32207115Y-2704591D01*
X32199054Y-2700485D01*
X32148259Y-2652512D01*
X32131463Y-2584692D01*
X32153999Y-2518556D01*
X32199054Y-2479515D01*
X32207816Y-2475051D01*
X32241609Y-2450499D01*
X32379786Y-2350109D01*
X32379788Y-2350106D01*
X32379792Y-2350104D01*
X32530104Y-2199792D01*
X32530106Y-2199788D01*
X32530109Y-2199786D01*
X32655048Y-2027820D01*
X32655047Y-2027820D01*
X32655051Y-2027816D01*
X32751557Y-1838412D01*
X32817246Y-1636243D01*
X32850500Y-1426287D01*
X32850500Y-1213713D01*
X32817246Y-1003757D01*
X32751557Y-801588D01*
X32655051Y-612184D01*
X32655049Y-612181D01*
X32655048Y-612179D01*
X32530109Y-440213D01*
X32416569Y-326673D01*
X32383084Y-265350D01*
X32388068Y-195658D01*
X32429940Y-139725D01*
X32460915Y-122810D01*
X32592331Y-73796D01*
X32617159Y-55210D01*
X32707544Y12452D01*
X32707547Y12455D01*
X32793793Y127664D01*
X32793797Y127671D01*
X32844091Y262517D01*
X32850500Y322130D01*
X32850499Y322130D01*
X32850499Y2117872D01*
X32844091Y2177483D01*
X32793796Y2312331D01*
X32707546Y2427546D01*
X32611783Y2499234D01*
X32569913Y2555167D01*
X32564929Y2624859D01*
X32598414Y2686182D01*
X32659738Y2719666D01*
X32686095Y2722500D01*
X41591807Y2722500D01*
X41713027Y2746612D01*
X41713035Y2746614D01*
X41800959Y2783034D01*
X41800961Y2783035D01*
X41827229Y2793915D01*
X41827243Y2793923D01*
X41930003Y2862585D01*
X41930005Y2862586D01*
X41963865Y2896446D01*
X42017411Y2949992D01*
X43624296Y4556877D01*
X43685619Y4590362D01*
X43750293Y4587128D01*
X43763755Y4582754D01*
X43889463Y4562844D01*
X43973713Y4549500D01*
X43973714Y4549500D01*
X44186286Y4549500D01*
X44186287Y4549500D01*
X44270537Y4562844D01*
X44396239Y4582753D01*
X44396241Y4582753D01*
X44396243Y4582754D01*
X44598412Y4648443D01*
X44787816Y4744949D01*
X44787820Y4744951D01*
X44959786Y4869890D01*
X45110109Y5020213D01*
X45235048Y5192179D01*
X45235186Y5192449D01*
X45239794Y5201493D01*
X45287766Y5252290D01*
X45355587Y5269087D01*
X45421722Y5246552D01*
X45460760Y5201505D01*
X45465376Y5192446D01*
X45465380Y5192440D01*
X45504727Y5138282D01*
X45504728Y5138282D01*
X46137037Y5770591D01*
X46154075Y5707007D01*
X46219901Y5592993D01*
X46312993Y5499901D01*
X46427007Y5434075D01*
X46490591Y5417037D01*
X45858282Y4784728D01*
X45858282Y4784727D01*
X45912439Y4745380D01*
X46101782Y4648904D01*
X46303870Y4583242D01*
X46513754Y4550000D01*
X46726246Y4550000D01*
X46936127Y4583242D01*
X46936130Y4583242D01*
X47138217Y4648904D01*
X47327550Y4745375D01*
X47381716Y4784728D01*
X46749409Y5417037D01*
X46812993Y5434075D01*
X46927007Y5499901D01*
X47020099Y5592993D01*
X47085925Y5707007D01*
X47102962Y5770590D01*
X47735269Y5138282D01*
X47735270Y5138282D01*
X47774624Y5192449D01*
X47871095Y5381782D01*
X47936757Y5583869D01*
X47936757Y5583872D01*
X47970000Y5793753D01*
X47970000Y6006246D01*
X47936757Y6216127D01*
X47936757Y6216130D01*
X47871095Y6418217D01*
X47774622Y6607554D01*
X47735270Y6661716D01*
X47735270Y6661717D01*
X47102962Y6029409D01*
X47085925Y6092993D01*
X47020099Y6207007D01*
X46927007Y6300099D01*
X46812993Y6365925D01*
X46749408Y6382962D01*
X47381717Y7015270D01*
X47327554Y7054622D01*
X47138217Y7151095D01*
X46936129Y7216757D01*
X46726246Y7250000D01*
X46513754Y7250000D01*
X46303872Y7216757D01*
X46303869Y7216757D01*
X46101782Y7151095D01*
X45912449Y7054624D01*
X45858282Y7015270D01*
X45858282Y7015269D01*
X46490590Y6382962D01*
X46427007Y6365925D01*
X46312993Y6300099D01*
X46219901Y6207007D01*
X46154075Y6092993D01*
X46137037Y6029408D01*
X45504728Y6661716D01*
X45465373Y6607547D01*
X45465372Y6607547D01*
X45460763Y6598500D01*
X45412788Y6547706D01*
X45344966Y6530912D01*
X45278832Y6553451D01*
X45239793Y6598508D01*
X45235051Y6607816D01*
X45177515Y6687007D01*
X45110109Y6779786D01*
X45110105Y6779790D01*
X45110104Y6779792D01*
X44959792Y6930104D01*
X44959788Y6930106D01*
X44959786Y6930109D01*
X44787820Y7055048D01*
X44787816Y7055051D01*
X44598412Y7151557D01*
X44396243Y7217246D01*
X44186287Y7250500D01*
X43973713Y7250500D01*
X43763757Y7217246D01*
X43561588Y7151557D01*
X43372184Y7055051D01*
X43372181Y7055049D01*
X43372179Y7055048D01*
X43200213Y6930109D01*
X43049890Y6779786D01*
X42924951Y6607820D01*
X42920486Y6599056D01*
X42872512Y6548259D01*
X42804692Y6531463D01*
X42738556Y6553999D01*
X42699514Y6599056D01*
X42697415Y6603176D01*
X42695051Y6607816D01*
X42655890Y6661717D01*
X42570109Y6779786D01*
X42570105Y6779790D01*
X42570104Y6779792D01*
X42419792Y6930104D01*
X42419788Y6930106D01*
X42419786Y6930109D01*
X42247820Y7055048D01*
X42247816Y7055051D01*
X42058412Y7151557D01*
X41856243Y7217246D01*
X41646287Y7250500D01*
X41433713Y7250500D01*
X41223757Y7217246D01*
X41021588Y7151557D01*
X40832184Y7055051D01*
X40832181Y7055049D01*
X40832179Y7055048D01*
X40660213Y6930109D01*
X40509890Y6779786D01*
X40384951Y6607820D01*
X40380486Y6599056D01*
X40332512Y6548259D01*
X40264692Y6531463D01*
X40198556Y6553999D01*
X40159514Y6599056D01*
X40157415Y6603176D01*
X40155051Y6607816D01*
X40115890Y6661717D01*
X40030109Y6779786D01*
X40030105Y6779790D01*
X40030104Y6779792D01*
X39879792Y6930104D01*
X39879788Y6930106D01*
X39879786Y6930109D01*
X39707820Y7055048D01*
X39707816Y7055051D01*
X39518412Y7151557D01*
X39316243Y7217246D01*
X39106287Y7250500D01*
X38893713Y7250500D01*
X38683757Y7217246D01*
X38481588Y7151557D01*
X38292184Y7055051D01*
X38292181Y7055049D01*
X38292179Y7055048D01*
X38120213Y6930109D01*
X38006673Y6816569D01*
X37945350Y6783084D01*
X37875658Y6788068D01*
X37819725Y6829940D01*
X37802810Y6860917D01*
X37795569Y6880330D01*
X37753796Y6992331D01*
X37667546Y7107546D01*
X37552331Y7193796D01*
X37417483Y7244091D01*
X37357873Y7250500D01*
X36048279Y7250499D01*
X35981241Y7270184D01*
X35960604Y7286813D01*
X34060008Y9187411D01*
X34033271Y9205276D01*
X33957233Y9256083D01*
X33920013Y9271500D01*
X33843035Y9303386D01*
X33721805Y9327499D01*
X33721804Y9327500D01*
X33721803Y9327500D01*
X18639357Y9327500D01*
X18572318Y9347185D01*
X18570466Y9348398D01*
X18479185Y9409390D01*
X18479184Y9409390D01*
X18479179Y9409394D01*
X18333497Y9469737D01*
X18256520Y9485048D01*
X18178845Y9500500D01*
X18178842Y9500500D01*
X18021158Y9500500D01*
X18021155Y9500500D01*
X17927858Y9481941D01*
X17866503Y9469737D01*
X17866498Y9469735D01*
X17720827Y9409397D01*
X17720814Y9409390D01*
X17589711Y9321789D01*
X17589707Y9321786D01*
X17478213Y9210292D01*
X17478210Y9210288D01*
X17390609Y9079185D01*
X17390602Y9079172D01*
X17330264Y8933501D01*
X17330261Y8933489D01*
X17299500Y8778846D01*
X17299500Y8621153D01*
X17330261Y8466510D01*
X17330264Y8466498D01*
X17390602Y8320827D01*
X17390609Y8320814D01*
X17478210Y8189711D01*
X17478213Y8189707D01*
X17589708Y8078212D01*
X17590621Y8077603D01*
X17590991Y8077160D01*
X17594419Y8074347D01*
X17593885Y8073696D01*
X17635427Y8023990D01*
X17644134Y7954666D01*
X17613980Y7891638D01*
X17554537Y7854918D01*
X17527204Y7851237D01*
X17527218Y7851097D01*
X17523296Y7850710D01*
X17521731Y7850500D01*
X17521155Y7850500D01*
X17427858Y7831941D01*
X17366503Y7819737D01*
X17366498Y7819735D01*
X17220827Y7759397D01*
X17220823Y7759395D01*
X17220821Y7759394D01*
X17138385Y7704312D01*
X17071710Y7683435D01*
X17004330Y7701919D01*
X16957639Y7753898D01*
X16945496Y7807415D01*
X16945496Y10043809D01*
X16921382Y10165033D01*
X16921381Y10165039D01*
X16876892Y10272445D01*
X16874082Y10279230D01*
X16874081Y10279230D01*
X16874079Y10279237D01*
X16805407Y10382012D01*
X16718004Y10469415D01*
X4363819Y22823600D01*
X4330334Y22884923D01*
X4327500Y22911281D01*
X4327500Y26847864D01*
X4699500Y26847864D01*
X4699500Y24752129D01*
X4699501Y24752123D01*
X4705908Y24692516D01*
X4756202Y24557671D01*
X4756206Y24557664D01*
X4842452Y24442455D01*
X4842455Y24442452D01*
X4957664Y24356206D01*
X4957671Y24356202D01*
X5092517Y24305908D01*
X5092516Y24305908D01*
X5152116Y24299501D01*
X5152119Y24299500D01*
X5152127Y24299500D01*
X5152134Y24299500D01*
X5152135Y24299500D01*
X7247870Y24299500D01*
X7247876Y24299501D01*
X7307483Y24305908D01*
X7442328Y24356202D01*
X7442335Y24356206D01*
X7557544Y24442452D01*
X7557547Y24442455D01*
X7643793Y24557664D01*
X7643797Y24557671D01*
X7694091Y24692517D01*
X7700500Y24752127D01*
X7700499Y26847872D01*
X7694091Y26907483D01*
X7643796Y27042331D01*
X7557546Y27157546D01*
X7442331Y27243796D01*
X7307483Y27294091D01*
X7247873Y27300500D01*
X5152128Y27300499D01*
X5103757Y27295299D01*
X5092516Y27294091D01*
X4957671Y27243797D01*
X4957664Y27243793D01*
X4842455Y27157547D01*
X4842452Y27157544D01*
X4756206Y27042335D01*
X4756202Y27042328D01*
X4705908Y26907482D01*
X4699501Y26847883D01*
X4699501Y26847876D01*
X4699500Y26847864D01*
X4327500Y26847864D01*
X4327500Y30361804D01*
X4325466Y30372026D01*
X4309857Y30450500D01*
X4303386Y30483034D01*
X4257191Y30594555D01*
X4256417Y30596732D01*
X4256083Y30597232D01*
X4256083Y30597233D01*
X4187411Y30700008D01*
X4100008Y30787411D01*
X862675Y34024742D01*
X829192Y34086063D01*
X828758Y34088143D01*
X819737Y34133497D01*
X759394Y34279179D01*
X671789Y34410289D01*
X560289Y34521789D01*
X429179Y34609394D01*
X283497Y34669737D01*
X206520Y34685048D01*
X128845Y34700500D01*
X128842Y34700500D01*
X-28842Y34700500D01*
X-28845Y34700500D01*
X-106520Y34685048D01*
X-183497Y34669737D01*
X-329179Y34609394D01*
X-460289Y34521789D01*
X-571789Y34410289D01*
X-659394Y34279179D01*
X-719737Y34133497D01*
X-728741Y34088231D01*
X-750499Y33978846D01*
X-750500Y33978844D01*
X-750500Y33821155D01*
X-750499Y33821153D01*
X-719737Y33666503D01*
X-719735Y33666498D01*
X-659397Y33520827D01*
X-659390Y33520814D01*
X-571789Y33389711D01*
X-571786Y33389707D01*
X-460292Y33278213D01*
X-460288Y33278210D01*
X-329185Y33190609D01*
X-329172Y33190602D01*
X-183501Y33130264D01*
X-183489Y33130261D01*
X-28840Y33099498D01*
X-26486Y33099267D01*
X-25332Y33098801D01*
X-22868Y33098311D01*
X-22960Y33097843D01*
X38300Y33073104D01*
X49035Y33063546D01*
X2495326Y30617254D01*
X2528811Y30555931D01*
X2523827Y30486239D01*
X2481955Y30430306D01*
X2455106Y30415016D01*
X2320821Y30359394D01*
X2320818Y30359392D01*
X2320814Y30359390D01*
X2189711Y30271789D01*
X2189707Y30271786D01*
X2078213Y30160292D01*
X2078210Y30160288D01*
X1990609Y30029185D01*
X1990602Y30029172D01*
X1930264Y29883501D01*
X1930261Y29883491D01*
X1908843Y29775815D01*
X1876458Y29713904D01*
X1874907Y29712326D01*
X-2323600Y25513819D01*
X-2384923Y25480334D01*
X-2411281Y25477500D01*
X-8410643Y25477500D01*
X-8477682Y25497185D01*
X-8479534Y25498398D01*
X-8570814Y25559390D01*
X-8570827Y25559397D01*
X-8716498Y25619735D01*
X-8716503Y25619737D01*
X-8777858Y25631941D01*
X-8871155Y25650500D01*
X-8871158Y25650500D01*
X-9028842Y25650500D01*
X-9028845Y25650500D01*
X-9106520Y25635048D01*
X-9183497Y25619737D01*
X-9329179Y25559394D01*
X-9460289Y25471789D01*
X-9571789Y25360289D01*
X-9659394Y25229179D01*
X-9719737Y25083497D01*
X-9750499Y24928846D01*
X-9750500Y24928844D01*
X-9750500Y24771155D01*
X-9750499Y24771153D01*
X-9719737Y24616503D01*
X-9719735Y24616498D01*
X-9659397Y24470827D01*
X-9659390Y24470814D01*
X-9571789Y24339711D01*
X-9571786Y24339707D01*
X-9460292Y24228213D01*
X-9460288Y24228210D01*
X-9329185Y24140609D01*
X-9329172Y24140602D01*
X-9183501Y24080264D01*
X-9183489Y24080261D01*
X-9028846Y24049500D01*
X-9028842Y24049500D01*
X-8871153Y24049500D01*
X-8716510Y24080261D01*
X-8716498Y24080264D01*
X-8570827Y24140602D01*
X-8570814Y24140609D01*
X-8479534Y24201602D01*
X-8412857Y24222480D01*
X-8410643Y24222500D01*
X-2038192Y24222500D01*
X-1916972Y24246612D01*
X-1916964Y24246614D01*
X-1836215Y24280062D01*
X-1802769Y24293916D01*
X-1802768Y24293916D01*
X-1802767Y24293917D01*
X-1699992Y24362589D01*
X-1612589Y24449992D01*
X2762326Y28824907D01*
X2778923Y28833969D01*
X2792533Y28847102D01*
X2822027Y28857506D01*
X2823649Y28858392D01*
X2825816Y28858843D01*
X2924309Y28878434D01*
X2993901Y28872207D01*
X3049078Y28829343D01*
X3072322Y28763453D01*
X3072500Y28756817D01*
X3072500Y22538192D01*
X3096612Y22416971D01*
X3096616Y22416956D01*
X3117155Y22367375D01*
X3117156Y22367373D01*
X3143913Y22302773D01*
X3143920Y22302760D01*
X3212588Y22199992D01*
X3212591Y22199988D01*
X10845326Y14567254D01*
X10878811Y14505931D01*
X10873827Y14436239D01*
X10831955Y14380306D01*
X10805106Y14365016D01*
X10670821Y14309394D01*
X10670818Y14309392D01*
X10670814Y14309390D01*
X10539711Y14221789D01*
X10539707Y14221786D01*
X10481336Y14163415D01*
X10420013Y14129930D01*
X10350321Y14134914D01*
X10294388Y14176786D01*
X10290571Y14182178D01*
X10271789Y14210289D01*
X10160289Y14321789D01*
X10029179Y14409394D01*
X9883497Y14469737D01*
X9806520Y14485048D01*
X9728845Y14500500D01*
X9728842Y14500500D01*
X9571158Y14500500D01*
X9571155Y14500500D01*
X9477858Y14481941D01*
X9416503Y14469737D01*
X9416498Y14469735D01*
X9270827Y14409397D01*
X9270814Y14409390D01*
X9139711Y14321789D01*
X9139707Y14321786D01*
X9028213Y14210292D01*
X9028210Y14210288D01*
X8940609Y14079185D01*
X8940602Y14079172D01*
X8880264Y13933501D01*
X8880261Y13933489D01*
X8849500Y13778846D01*
X8849500Y13621153D01*
X8880261Y13466510D01*
X8880264Y13466498D01*
X8940602Y13320827D01*
X8940609Y13320814D01*
X9001602Y13229533D01*
X9022480Y13162855D01*
X9022500Y13160642D01*
X9022500Y5811281D01*
X9013855Y5781840D01*
X9007332Y5751854D01*
X9003577Y5746838D01*
X9002815Y5744242D01*
X8986181Y5723600D01*
X8959168Y5696587D01*
X8897845Y5663102D01*
X8828153Y5668086D01*
X8775627Y5705611D01*
X8771795Y5710279D01*
X8771789Y5710289D01*
X8660289Y5821789D01*
X8529179Y5909394D01*
X8383497Y5969737D01*
X8306520Y5985048D01*
X8228845Y6000500D01*
X8228842Y6000500D01*
X8071158Y6000500D01*
X8071155Y6000500D01*
X7977858Y5981941D01*
X7916503Y5969737D01*
X7779861Y5913138D01*
X7732410Y5903700D01*
X-887067Y5903700D01*
X-887087Y5903701D01*
X-893201Y5903701D01*
X-1031818Y5903701D01*
X-1031820Y5903701D01*
X-1123281Y5885507D01*
X-1167771Y5876658D01*
X-1230921Y5850500D01*
X-1230922Y5850500D01*
X-1295833Y5823613D01*
X-1295834Y5823612D01*
X-1295837Y5823611D01*
X-1411093Y5746600D01*
X-2455005Y4702687D01*
X-3467673Y3690019D01*
X-3528996Y3656534D01*
X-3555354Y3653700D01*
X-15714859Y3653700D01*
X-15781898Y3673385D01*
X-15827653Y3726189D01*
X-15837597Y3795347D01*
X-15808572Y3858903D01*
X-15802540Y3865381D01*
X-15778213Y3889707D01*
X-15778210Y3889711D01*
X-15690609Y4020814D01*
X-15690604Y4020824D01*
X-15634008Y4157460D01*
X-15629376Y4164392D01*
X-15628280Y4169432D01*
X-15607130Y4197687D01*
X-15579420Y4225397D01*
X-15579417Y4225400D01*
X-15509438Y4295379D01*
X-15481400Y4323416D01*
X-15404386Y4438676D01*
X-15351344Y4566733D01*
X-15351341Y4566745D01*
X-15324300Y4702687D01*
X-15324300Y9504409D01*
X-15314861Y9551861D01*
X-15258264Y9688498D01*
X-15258261Y9688510D01*
X-15227500Y9843153D01*
X-15227500Y10000846D01*
X-15258261Y10155489D01*
X-15258264Y10155501D01*
X-15318602Y10301172D01*
X-15318609Y10301185D01*
X-15406210Y10432288D01*
X-15406213Y10432292D01*
X-15517707Y10543786D01*
X-15517711Y10543789D01*
X-15648814Y10631390D01*
X-15648827Y10631397D01*
X-15785461Y10687992D01*
X-15825690Y10714872D01*
X-17456274Y12345456D01*
X-17456303Y12345487D01*
X-17557414Y12446598D01*
X-17564827Y12451551D01*
X-17672673Y12523611D01*
X-17800738Y12576657D01*
X-17800748Y12576659D01*
X-17806346Y12577773D01*
X-17806370Y12577777D01*
X-17806394Y12577782D01*
X-17916533Y12599691D01*
X-17936691Y12603701D01*
X-17936692Y12603701D01*
X-18075308Y12603701D01*
X-18081422Y12603701D01*
X-18081442Y12603700D01*
X-20478134Y12603700D01*
X-20545173Y12623385D01*
X-20588619Y12671405D01*
X-20603444Y12700500D01*
X-20616657Y12726433D01*
X-20755483Y12917510D01*
X-20922490Y13084517D01*
X-21113567Y13223343D01*
X-21252822Y13294297D01*
X-21324003Y13330566D01*
X-21324005Y13330566D01*
X-21324008Y13330568D01*
X-21453761Y13372727D01*
X-21548625Y13403551D01*
X-21548626Y13403551D01*
X-21548632Y13403553D01*
X-21601781Y13411970D01*
X-21664912Y13441898D01*
X-21701843Y13501209D01*
X-21700847Y13571072D01*
X-21670061Y13622124D01*
X-13703916Y21588270D01*
X-13703906Y21588281D01*
X-13692688Y21599500D01*
X-13692686Y21599501D01*
X-13601891Y21690296D01*
X-2140500Y21690296D01*
X-2140500Y21639404D01*
X-2140500Y21409704D01*
X-2103876Y21131513D01*
X-2031253Y20860482D01*
X-1938358Y20636215D01*
X-1923877Y20601256D01*
X-1923873Y20601246D01*
X-1783580Y20358249D01*
X-1612765Y20135641D01*
X-1612758Y20135633D01*
X-1414367Y19937242D01*
X-1414358Y19937234D01*
X-1191750Y19766419D01*
X-948753Y19626126D01*
X-948743Y19626122D01*
X-689518Y19518747D01*
X-418483Y19446123D01*
X-140297Y19409500D01*
X-140296Y19409500D01*
X140297Y19409500D01*
X418483Y19446123D01*
X689518Y19518747D01*
X948743Y19626122D01*
X948753Y19626126D01*
X1191750Y19766419D01*
X1414358Y19937234D01*
X1414367Y19937242D01*
X1612758Y20135633D01*
X1612765Y20135641D01*
X1783580Y20358249D01*
X1923873Y20601246D01*
X1923877Y20601256D01*
X1938358Y20636215D01*
X2031253Y20860482D01*
X2103876Y21131513D01*
X2140500Y21409704D01*
X2140500Y21690296D01*
X2103876Y21968487D01*
X2031253Y22239518D01*
X1923875Y22498750D01*
X1783580Y22741750D01*
X1612766Y22964358D01*
X1612761Y22964362D01*
X1612758Y22964367D01*
X1414367Y23162758D01*
X1414362Y23162761D01*
X1414358Y23162766D01*
X1191750Y23333580D01*
X948750Y23473875D01*
X689518Y23581253D01*
X418487Y23653876D01*
X195934Y23683175D01*
X140297Y23690500D01*
X140296Y23690500D01*
X-140296Y23690500D01*
X-140297Y23690500D01*
X-195934Y23683175D01*
X-418487Y23653876D01*
X-689518Y23581253D01*
X-948750Y23473875D01*
X-1191750Y23333580D01*
X-1414358Y23162766D01*
X-1414362Y23162761D01*
X-1414367Y23162758D01*
X-1612758Y22964367D01*
X-1612761Y22964362D01*
X-1612766Y22964358D01*
X-1783580Y22741750D01*
X-1923875Y22498750D01*
X-2031253Y22239518D01*
X-2103876Y21968487D01*
X-2140500Y21690296D01*
X-13601891Y21690296D01*
X-13599500Y21692687D01*
X-13557547Y21765351D01*
X-13533608Y21806813D01*
X-13499500Y21934109D01*
X-13499500Y38928844D01*
X-11075500Y38928844D01*
X-11075500Y38771155D01*
X-11075499Y38771153D01*
X-11044737Y38616503D01*
X-11044735Y38616498D01*
X-10984397Y38470827D01*
X-10984390Y38470814D01*
X-10896789Y38339711D01*
X-10896786Y38339707D01*
X-10785292Y38228213D01*
X-10785288Y38228210D01*
X-10654185Y38140609D01*
X-10654172Y38140602D01*
X-10508501Y38080264D01*
X-10508489Y38080261D01*
X-10353846Y38049500D01*
X-10353842Y38049500D01*
X-10196153Y38049500D01*
X-10041510Y38080261D01*
X-10041498Y38080264D01*
X-9895827Y38140602D01*
X-9895814Y38140609D01*
X-9764711Y38228210D01*
X-9764707Y38228213D01*
X-9653213Y38339707D01*
X-9653210Y38339711D01*
X-9565609Y38470814D01*
X-9565602Y38470827D01*
X-9505264Y38616498D01*
X-9505261Y38616508D01*
X-9483843Y38724183D01*
X-9451458Y38786094D01*
X-9449907Y38787672D01*
X-4751400Y43486181D01*
X-4690077Y43519666D01*
X-4663719Y43522500D01*
X-289357Y43522500D01*
X-222318Y43502815D01*
X-220466Y43501602D01*
X-129185Y43440609D01*
X-129172Y43440602D01*
X16498Y43380264D01*
X16510Y43380261D01*
X171153Y43349500D01*
X171158Y43349500D01*
X328846Y43349500D01*
X483489Y43380261D01*
X483501Y43380264D01*
X629172Y43440602D01*
X629185Y43440609D01*
X760288Y43528210D01*
X760292Y43528213D01*
X871786Y43639707D01*
X871789Y43639711D01*
X959390Y43770814D01*
X959397Y43770827D01*
X1019735Y43916498D01*
X1019737Y43916503D01*
X1050499Y44071153D01*
X1050500Y44071155D01*
X1050500Y44228844D01*
X1050499Y44228846D01*
X1019737Y44383497D01*
X959394Y44529179D01*
X871789Y44660289D01*
X760289Y44771789D01*
X629179Y44859394D01*
X483497Y44919737D01*
X406520Y44935048D01*
X328845Y44950500D01*
X328842Y44950500D01*
X171158Y44950500D01*
X171155Y44950500D01*
X77858Y44931941D01*
X16503Y44919737D01*
X-129179Y44859394D01*
X-129184Y44859390D01*
X-129185Y44859390D01*
X-220466Y44798398D01*
X-287143Y44777520D01*
X-289357Y44777500D01*
X-5036804Y44777500D01*
X-5036805Y44777499D01*
X-5158035Y44753386D01*
X-5238784Y44719937D01*
X-5272233Y44706083D01*
X-5348271Y44655276D01*
X-5375008Y44637411D01*
X-10337328Y39675089D01*
X-10398649Y39641606D01*
X-10400648Y39641189D01*
X-10508497Y39619737D01*
X-10654179Y39559394D01*
X-10785289Y39471789D01*
X-10896789Y39360289D01*
X-10984394Y39229179D01*
X-11044737Y39083497D01*
X-11075499Y38928846D01*
X-11075500Y38928844D01*
X-13499500Y38928844D01*
X-13499500Y54613568D01*
X-13479815Y54680607D01*
X-13427011Y54726362D01*
X-13357853Y54736306D01*
X-13301190Y54712835D01*
X-13292334Y54706206D01*
X-13292328Y54706202D01*
X-13157482Y54655908D01*
X-13157483Y54655908D01*
X-13097883Y54649501D01*
X-13097881Y54649500D01*
X-13097873Y54649500D01*
X-12951500Y54649500D01*
X-12884461Y54629815D01*
X-12838706Y54577011D01*
X-12827500Y54525500D01*
X-12827500Y53461803D01*
X-12827500Y53338197D01*
X-12803386Y53216965D01*
X-12769937Y53136215D01*
X-12756083Y53102767D01*
X-12754568Y53100500D01*
X-12687625Y53000313D01*
X-12687409Y52999989D01*
X-12687408Y52999988D01*
X-11925091Y52237672D01*
X-11891606Y52176349D01*
X-11891183Y52174323D01*
X-11869737Y52066503D01*
X-11869736Y52066501D01*
X-11809397Y51920827D01*
X-11809390Y51920814D01*
X-11721789Y51789711D01*
X-11721786Y51789707D01*
X-11610292Y51678213D01*
X-11610288Y51678210D01*
X-11479185Y51590609D01*
X-11479172Y51590602D01*
X-11333501Y51530264D01*
X-11333489Y51530261D01*
X-11178846Y51499500D01*
X-11178842Y51499500D01*
X-11021153Y51499500D01*
X-10866510Y51530261D01*
X-10866498Y51530264D01*
X-10720827Y51590602D01*
X-10720814Y51590609D01*
X-10589711Y51678210D01*
X-10589707Y51678213D01*
X-10478213Y51789707D01*
X-10478210Y51789711D01*
X-10390609Y51920814D01*
X-10390602Y51920827D01*
X-10330264Y52066498D01*
X-10330261Y52066510D01*
X-10299500Y52221153D01*
X-10299500Y52378846D01*
X-10330261Y52533489D01*
X-10330264Y52533501D01*
X-10390602Y52679172D01*
X-10390609Y52679185D01*
X-10478210Y52810288D01*
X-10478213Y52810292D01*
X-10589707Y52921786D01*
X-10589711Y52921789D01*
X-10720814Y53009390D01*
X-10720827Y53009397D01*
X-10788961Y53037618D01*
X-10866503Y53069737D01*
X-10974185Y53091156D01*
X-11036092Y53123539D01*
X-11037672Y53125091D01*
X-11536181Y53623600D01*
X-11569666Y53684923D01*
X-11572500Y53711281D01*
X-11572500Y54525500D01*
X-11552815Y54592539D01*
X-11500011Y54638294D01*
X-11448501Y54649500D01*
X-11302130Y54649500D01*
X-11302123Y54649501D01*
X-11242516Y54655908D01*
X-11107671Y54706202D01*
X-11107664Y54706206D01*
X-10992455Y54792452D01*
X-10992452Y54792455D01*
X-10906206Y54907664D01*
X-10906203Y54907669D01*
X-10857189Y55039083D01*
X-10815317Y55095016D01*
X-10749853Y55119433D01*
X-10681580Y55104581D01*
X-10653326Y55083430D01*
X-10539786Y54969890D01*
X-10367820Y54844951D01*
X-10367816Y54844949D01*
X-10178412Y54748443D01*
X-9976243Y54682754D01*
X-9976241Y54682753D01*
X-9976240Y54682753D01*
X-9814957Y54657208D01*
X-9766287Y54649500D01*
X-9766286Y54649500D01*
X-9553714Y54649500D01*
X-9553713Y54649500D01*
X-9505042Y54657208D01*
X-9343760Y54682753D01*
X-9141585Y54748444D01*
X-8952179Y54844951D01*
X-8780213Y54969890D01*
X-8780209Y54969894D01*
X-8730436Y55019668D01*
X-8629894Y55120209D01*
X-8629890Y55120213D01*
X-8504949Y55292182D01*
X-8500202Y55301499D01*
X-8452227Y55352293D01*
X-8384405Y55369087D01*
X-8318271Y55346548D01*
X-8279234Y55301495D01*
X-8274626Y55292452D01*
X-8235270Y55238282D01*
X-8235269Y55238282D01*
X-7602962Y55870590D01*
X-7585925Y55807007D01*
X-7520099Y55692993D01*
X-7427007Y55599901D01*
X-7312993Y55534075D01*
X-7249409Y55517037D01*
X-7881716Y54884728D01*
X-7827550Y54845375D01*
X-7638217Y54748904D01*
X-7436129Y54683242D01*
X-7226246Y54650000D01*
X-7013754Y54650000D01*
X-6803872Y54683242D01*
X-6803869Y54683242D01*
X-6601782Y54748904D01*
X-6412439Y54845380D01*
X-6358282Y54884727D01*
X-6358282Y54884728D01*
X-6990591Y55517037D01*
X-6927007Y55534075D01*
X-6812993Y55599901D01*
X-6719901Y55692993D01*
X-6654075Y55807007D01*
X-6637037Y55870591D01*
X-6004728Y55238282D01*
X-6004727Y55238282D01*
X-5965380Y55292439D01*
X-5868904Y55481782D01*
X-5803242Y55683869D01*
X-5803242Y55683872D01*
X-5770000Y55893753D01*
X-5770000Y56106246D01*
X-5803242Y56316127D01*
X-5803242Y56316130D01*
X-5868904Y56518217D01*
X-5965376Y56707552D01*
X-5965377Y56707554D01*
X-5997462Y56751716D01*
X-6004727Y56761716D01*
X-6004728Y56761716D01*
X-6637037Y56129408D01*
X-6654075Y56192993D01*
X-6719901Y56307007D01*
X-6812993Y56400099D01*
X-6927007Y56465925D01*
X-6990590Y56482962D01*
X-6358282Y57115269D01*
X-6358282Y57115270D01*
X-6412449Y57154624D01*
X-6601782Y57251095D01*
X-6803870Y57316757D01*
X-7013754Y57350000D01*
X-7226246Y57350000D01*
X-7436127Y57316757D01*
X-7436130Y57316757D01*
X-7638217Y57251095D01*
X-7827554Y57154622D01*
X-7881716Y57115270D01*
X-7881717Y57115270D01*
X-7249408Y56482962D01*
X-7312993Y56465925D01*
X-7427007Y56400099D01*
X-7520099Y56307007D01*
X-7585925Y56192993D01*
X-7602962Y56129408D01*
X-8235270Y56761717D01*
X-8235270Y56761716D01*
X-8274622Y56707555D01*
X-8279232Y56698507D01*
X-8327205Y56647709D01*
X-8395025Y56630912D01*
X-8461161Y56653447D01*
X-8500204Y56698504D01*
X-8504949Y56707817D01*
X-8629890Y56879786D01*
X-8780213Y57030109D01*
X-8952179Y57155048D01*
X-8952181Y57155049D01*
X-8952184Y57155051D01*
X-9141588Y57251557D01*
X-9343757Y57317246D01*
X-9553713Y57350500D01*
X-9766287Y57350500D01*
X-9976243Y57317246D01*
X-10178412Y57251557D01*
X-10367816Y57155051D01*
X-10539792Y57030104D01*
X-10653329Y56916566D01*
X-10714648Y56883084D01*
X-10784340Y56888068D01*
X-10840274Y56929939D01*
X-10857189Y56960917D01*
X-10906202Y57092328D01*
X-10906206Y57092335D01*
X-10992452Y57207544D01*
X-10992455Y57207547D01*
X-11107664Y57293793D01*
X-11107671Y57293797D01*
X-11242517Y57344091D01*
X-11242516Y57344091D01*
X-11248925Y57344779D01*
X-11302127Y57350500D01*
X-13097872Y57350499D01*
X-13157483Y57344091D01*
X-13292331Y57293796D01*
X-13301186Y57287167D01*
X-13366649Y57262747D01*
X-13434923Y57277596D01*
X-13484330Y57327000D01*
X-13499500Y57386431D01*
X-13499500Y58118052D01*
X-2550000Y58118052D01*
X-2550000Y57881947D01*
X-2513065Y57648752D01*
X-2440102Y57424197D01*
X-2332914Y57213828D01*
X-2272658Y57130894D01*
X-2272658Y57130893D01*
X-1532962Y57870590D01*
X-1515925Y57807007D01*
X-1450099Y57692993D01*
X-1357007Y57599901D01*
X-1242993Y57534075D01*
X-1179409Y57517037D01*
X-1919105Y56777340D01*
X-1919104Y56777338D01*
X-1836174Y56717087D01*
X-1625802Y56609897D01*
X-1401247Y56536934D01*
X-1401248Y56536934D01*
X-1168052Y56500000D01*
X-931948Y56500000D01*
X-698752Y56536934D01*
X-474197Y56609897D01*
X-263830Y56717084D01*
X-180894Y56777340D01*
X-920591Y57517037D01*
X-857007Y57534075D01*
X-742993Y57599901D01*
X-649901Y57692993D01*
X-584075Y57807007D01*
X-567037Y57870590D01*
X172658Y57130893D01*
X192405Y57132448D01*
X260783Y57118084D01*
X302451Y57081717D01*
X345482Y57022490D01*
X512487Y56855485D01*
X703566Y56716657D01*
X914003Y56609433D01*
X1138631Y56536446D01*
X1371903Y56499500D01*
X1371908Y56499500D01*
X1608097Y56499500D01*
X1841368Y56536446D01*
X2065996Y56609433D01*
X2276433Y56716657D01*
X2338451Y56761716D01*
X2467510Y56855483D01*
X2634517Y57022490D01*
X2773343Y57213567D01*
X2861422Y57386431D01*
X2880566Y57424003D01*
X2953553Y57648631D01*
X2990500Y57881902D01*
X2990500Y58118097D01*
X2953553Y58351368D01*
X2905259Y58500000D01*
X2880568Y58575992D01*
X2773343Y58786433D01*
X2634517Y58977510D01*
X2467510Y59144517D01*
X2276433Y59283343D01*
X2065992Y59390568D01*
X1841368Y59463553D01*
X1608097Y59500500D01*
X1608092Y59500500D01*
X1371908Y59500500D01*
X1371903Y59500500D01*
X1138631Y59463553D01*
X1034412Y59429689D01*
X914008Y59390568D01*
X914005Y59390566D01*
X914003Y59390566D01*
X802991Y59334002D01*
X703567Y59283343D01*
X512490Y59144517D01*
X512487Y59144514D01*
X345485Y58977512D01*
X345480Y58977506D01*
X302452Y58918283D01*
X247122Y58875617D01*
X192404Y58867550D01*
X172657Y58869104D01*
X-567037Y58129408D01*
X-584075Y58192993D01*
X-649901Y58307007D01*
X-742993Y58400099D01*
X-857007Y58465925D01*
X-920590Y58482962D01*
X-180893Y59222658D01*
X-263828Y59282914D01*
X-474197Y59390102D01*
X-698752Y59463065D01*
X-698751Y59463065D01*
X-931948Y59500000D01*
X-1168052Y59500000D01*
X-1401247Y59463065D01*
X-1625802Y59390102D01*
X-1836163Y59282918D01*
X-1836169Y59282914D01*
X-1919104Y59222658D01*
X-1919105Y59222658D01*
X-1179408Y58482962D01*
X-1242993Y58465925D01*
X-1357007Y58400099D01*
X-1450099Y58307007D01*
X-1515925Y58192993D01*
X-1532962Y58129408D01*
X-2272658Y58869105D01*
X-2272658Y58869104D01*
X-2332914Y58786169D01*
X-2332918Y58786163D01*
X-2440102Y58575802D01*
X-2513065Y58351247D01*
X-2550000Y58118052D01*
X-13499500Y58118052D01*
X-13499500Y67995572D01*
X-13499184Y68004419D01*
X-13484869Y68204557D01*
X-13482351Y68222068D01*
X-13440646Y68413787D01*
X-13435662Y68430763D01*
X-13367090Y68614609D01*
X-13359740Y68630702D01*
X-13265709Y68802908D01*
X-13256144Y68817791D01*
X-13138561Y68974864D01*
X-13126975Y68988235D01*
X-12988235Y69126975D01*
X-12974864Y69138561D01*
X-12817791Y69256144D01*
X-12802908Y69265709D01*
X-12630702Y69359740D01*
X-12614609Y69367090D01*
X-12430763Y69435662D01*
X-12413787Y69440646D01*
X-12222068Y69482351D01*
X-12204557Y69484869D01*
X-12023779Y69497799D01*
X-12004417Y69499184D01*
X-11995572Y69499500D01*
X-11934108Y69499500D01*
X11934108Y69499500D01*
X11995572Y69499500D01*
X12004417Y69499184D01*
G37*
%TD.AperFunction*%
%TA.AperFunction,Conductor*%
G36*
X11734075Y55807007D02*
G01*
X11799901Y55692993D01*
X11892993Y55599901D01*
X12007007Y55534075D01*
X12070591Y55517037D01*
X11438282Y54884728D01*
X11438282Y54884727D01*
X11492439Y54845380D01*
X11681782Y54748904D01*
X11883870Y54683242D01*
X12093754Y54650000D01*
X12306246Y54650000D01*
X12516127Y54683242D01*
X12516130Y54683242D01*
X12718217Y54748904D01*
X12907550Y54845375D01*
X12961716Y54884728D01*
X12329409Y55517037D01*
X12392993Y55534075D01*
X12507007Y55599901D01*
X12600099Y55692993D01*
X12665925Y55807007D01*
X12682962Y55870590D01*
X13315269Y55238282D01*
X13365771Y55242257D01*
X13434148Y55227893D01*
X13483905Y55178842D01*
X13499500Y55118639D01*
X13499500Y50807280D01*
X13479815Y50740241D01*
X13427011Y50694486D01*
X13357853Y50684542D01*
X13294297Y50713567D01*
X13287832Y50719586D01*
X9569598Y54437819D01*
X9536114Y54499142D01*
X9541098Y54568834D01*
X9582970Y54624767D01*
X9648434Y54649184D01*
X9657280Y54649500D01*
X9766286Y54649500D01*
X9766287Y54649500D01*
X9829644Y54659534D01*
X9976239Y54682753D01*
X9976241Y54682753D01*
X9976243Y54682754D01*
X10178412Y54748443D01*
X10367816Y54844949D01*
X10367820Y54844951D01*
X10539786Y54969890D01*
X10690109Y55120213D01*
X10815048Y55292179D01*
X10815051Y55292184D01*
X10819794Y55301493D01*
X10867766Y55352290D01*
X10935587Y55369087D01*
X11001722Y55346552D01*
X11040760Y55301505D01*
X11045376Y55292446D01*
X11045380Y55292440D01*
X11084727Y55238282D01*
X11084728Y55238282D01*
X11717037Y55870591D01*
X11734075Y55807007D01*
G37*
%TD.AperFunction*%
%TD*%
M02*
