%TF.GenerationSoftware,KiCad,Pcbnew,9.0.4*%
%TF.CreationDate,2025-11-19T22:49:49-05:00*%
%TF.ProjectId,ABRARACOURCIX_main_board,41425241-5241-4434-9f55-524349585f6d,rev?*%
%TF.SameCoordinates,Original*%
%TF.FileFunction,Profile,NP*%
%FSLAX46Y46*%
G04 Gerber Fmt 4.6, Leading zero omitted, Abs format (unit mm)*
G04 Created by KiCad (PCBNEW 9.0.4) date 2025-11-19 22:49:49*
%MOMM*%
%LPD*%
G01*
G04 APERTURE LIST*
%TA.AperFunction,Profile*%
%ADD10C,0.050000*%
%TD*%
G04 APERTURE END LIST*
D10*
X12000000Y70000000D02*
G75*
G02*
X14000000Y68000000I0J-2000000D01*
G01*
X-13999999Y-22000000D02*
X-13999999Y-68000000D01*
X12000000Y70000000D02*
X-12000000Y70000000D01*
X14000000Y-22000000D02*
X14000000Y-68000000D01*
X1640000Y21550000D02*
G75*
G02*
X-1640000Y21550000I-1640000J0D01*
G01*
X-1640000Y21550000D02*
G75*
G02*
X1640000Y21550000I1640000J0D01*
G01*
X14000000Y68000000D02*
X14000000Y22000000D01*
X68000001Y-14000000D02*
X22000001Y-14000000D01*
X1640000Y-21550000D02*
G75*
G02*
X-1640000Y-21550000I-1640000J0D01*
G01*
X-1640000Y-21550000D02*
G75*
G02*
X1640000Y-21550000I1640000J0D01*
G01*
X-22000000Y14000000D02*
X-14000000Y22000001D01*
X14000000Y22000000D02*
X22000000Y14000000D01*
X-70000000Y12000000D02*
X-70000000Y-12000000D01*
X-22000000Y14000000D02*
X-68000000Y14000000D01*
X-19910000Y0D02*
G75*
G02*
X-23190000Y0I-1640000J0D01*
G01*
X-23190000Y0D02*
G75*
G02*
X-19910000Y0I1640000J0D01*
G01*
X-12000000Y-70000000D02*
X12000000Y-70000000D01*
X14000000Y-22000000D02*
X22000001Y-14000000D01*
X-22000000Y-14000000D02*
X-68000000Y-14000000D01*
X68000000Y14000000D02*
X22000000Y14000000D01*
X-14000000Y68000001D02*
X-14000000Y22000001D01*
X14000000Y-68000000D02*
G75*
G02*
X12000000Y-70000000I-2000000J0D01*
G01*
X68000000Y14000000D02*
G75*
G02*
X70000000Y12000000I0J-2000000D01*
G01*
X-14000000Y68000000D02*
G75*
G02*
X-12000000Y70000000I1999999J1D01*
G01*
X-12000000Y-70000000D02*
G75*
G02*
X-14000000Y-68000000I-1J1999999D01*
G01*
X-68000000Y-14000000D02*
G75*
G02*
X-70000000Y-12000000I-1J1999999D01*
G01*
X-13999999Y-22000000D02*
X-22000000Y-14000000D01*
X70000000Y-12000000D02*
X70000000Y12000000D01*
X-70000000Y12000000D02*
G75*
G02*
X-68000000Y14000000I1999999J1D01*
G01*
X70000000Y-12000000D02*
G75*
G02*
X68000000Y-14000000I-2000000J0D01*
G01*
M02*
