%TF.GenerationSoftware,KiCad,Pcbnew,9.0.4*%
%TF.CreationDate,2025-12-02T07:33:08-05:00*%
%TF.ProjectId,ABRARACOURCIX_main_board,41425241-5241-4434-9f55-524349585f6d,rev?*%
%TF.SameCoordinates,Original*%
%TF.FileFunction,Drillmap*%
%TF.FilePolarity,Positive*%
%FSLAX45Y45*%
G04 Gerber Fmt 4.5, Leading zero omitted, Abs format (unit mm)*
G04 Created by KiCad (PCBNEW 9.0.4) date 2025-12-02 07:33:08*
%MOMM*%
%LPD*%
G01*
G04 APERTURE LIST*
%ADD10C,0.050000*%
%ADD11C,0.200000*%
%ADD12C,0.300000*%
G04 APERTURE END LIST*
D10*
X-3900000Y6300000D02*
G75*
G02*
X-3600000Y6600000I300000J0D01*
G01*
X-3600000Y-6600000D02*
G75*
G02*
X-3900000Y-6300000I0J300000D01*
G01*
X-3600000Y6600000D02*
X3600000Y6600000D01*
X3600000Y6600000D02*
G75*
G02*
X3900000Y6300000I0J-300000D01*
G01*
X-3900000Y6300000D02*
X-3900000Y-6300000D01*
X3900000Y-6300000D02*
X3900000Y6300000D01*
X3900000Y-6300000D02*
G75*
G02*
X3600000Y-6600000I-300000J0D01*
G01*
X-3600000Y-6600000D02*
X3600000Y-6600000D01*
D11*
D12*
X-3750000Y6450000D02*
X-3450000Y6150000D01*
X-3450000Y6450000D02*
X-3750000Y6150000D01*
X-3750000Y-6150000D02*
X-3450000Y-6450000D01*
X-3450000Y-6150000D02*
X-3750000Y-6450000D01*
X3450000Y6450000D02*
X3750000Y6150000D01*
X3750000Y6450000D02*
X3450000Y6150000D01*
X3450000Y-6150000D02*
X3750000Y-6450000D01*
X3750000Y-6150000D02*
X3450000Y-6450000D01*
D11*
X-3641723Y-6913984D02*
X-3641723Y-6713984D01*
X-3641723Y-6713984D02*
X-3594104Y-6713984D01*
X-3594104Y-6713984D02*
X-3565533Y-6723508D01*
X-3565533Y-6723508D02*
X-3546485Y-6742555D01*
X-3546485Y-6742555D02*
X-3536961Y-6761603D01*
X-3536961Y-6761603D02*
X-3527437Y-6799698D01*
X-3527437Y-6799698D02*
X-3527437Y-6828269D01*
X-3527437Y-6828269D02*
X-3536961Y-6866365D01*
X-3536961Y-6866365D02*
X-3546485Y-6885412D01*
X-3546485Y-6885412D02*
X-3565533Y-6904460D01*
X-3565533Y-6904460D02*
X-3594104Y-6913984D01*
X-3594104Y-6913984D02*
X-3641723Y-6913984D01*
X-3441723Y-6913984D02*
X-3441723Y-6780650D01*
X-3441723Y-6818746D02*
X-3432199Y-6799698D01*
X-3432199Y-6799698D02*
X-3422675Y-6790174D01*
X-3422675Y-6790174D02*
X-3403628Y-6780650D01*
X-3403628Y-6780650D02*
X-3384580Y-6780650D01*
X-3317914Y-6913984D02*
X-3317914Y-6780650D01*
X-3317914Y-6713984D02*
X-3327437Y-6723508D01*
X-3327437Y-6723508D02*
X-3317914Y-6733031D01*
X-3317914Y-6733031D02*
X-3308390Y-6723508D01*
X-3308390Y-6723508D02*
X-3317914Y-6713984D01*
X-3317914Y-6713984D02*
X-3317914Y-6733031D01*
X-3194104Y-6913984D02*
X-3213152Y-6904460D01*
X-3213152Y-6904460D02*
X-3222675Y-6885412D01*
X-3222675Y-6885412D02*
X-3222675Y-6713984D01*
X-3089342Y-6913984D02*
X-3108390Y-6904460D01*
X-3108390Y-6904460D02*
X-3117914Y-6885412D01*
X-3117914Y-6885412D02*
X-3117914Y-6713984D01*
X-2860771Y-6913984D02*
X-2860771Y-6713984D01*
X-2860771Y-6713984D02*
X-2794104Y-6856841D01*
X-2794104Y-6856841D02*
X-2727437Y-6713984D01*
X-2727437Y-6713984D02*
X-2727437Y-6913984D01*
X-2546485Y-6913984D02*
X-2546485Y-6809222D01*
X-2546485Y-6809222D02*
X-2556009Y-6790174D01*
X-2556009Y-6790174D02*
X-2575056Y-6780650D01*
X-2575056Y-6780650D02*
X-2613152Y-6780650D01*
X-2613152Y-6780650D02*
X-2632199Y-6790174D01*
X-2546485Y-6904460D02*
X-2565533Y-6913984D01*
X-2565533Y-6913984D02*
X-2613152Y-6913984D01*
X-2613152Y-6913984D02*
X-2632199Y-6904460D01*
X-2632199Y-6904460D02*
X-2641723Y-6885412D01*
X-2641723Y-6885412D02*
X-2641723Y-6866365D01*
X-2641723Y-6866365D02*
X-2632199Y-6847317D01*
X-2632199Y-6847317D02*
X-2613152Y-6837793D01*
X-2613152Y-6837793D02*
X-2565533Y-6837793D01*
X-2565533Y-6837793D02*
X-2546485Y-6828269D01*
X-2451247Y-6780650D02*
X-2451247Y-6980650D01*
X-2451247Y-6790174D02*
X-2432199Y-6780650D01*
X-2432199Y-6780650D02*
X-2394104Y-6780650D01*
X-2394104Y-6780650D02*
X-2375056Y-6790174D01*
X-2375056Y-6790174D02*
X-2365533Y-6799698D01*
X-2365533Y-6799698D02*
X-2356009Y-6818746D01*
X-2356009Y-6818746D02*
X-2356009Y-6875888D01*
X-2356009Y-6875888D02*
X-2365533Y-6894936D01*
X-2365533Y-6894936D02*
X-2375056Y-6904460D01*
X-2375056Y-6904460D02*
X-2394104Y-6913984D01*
X-2394104Y-6913984D02*
X-2432199Y-6913984D01*
X-2432199Y-6913984D02*
X-2451247Y-6904460D01*
X-2270295Y-6894936D02*
X-2260771Y-6904460D01*
X-2260771Y-6904460D02*
X-2270295Y-6913984D01*
X-2270295Y-6913984D02*
X-2279818Y-6904460D01*
X-2279818Y-6904460D02*
X-2270295Y-6894936D01*
X-2270295Y-6894936D02*
X-2270295Y-6913984D01*
X-2270295Y-6790174D02*
X-2260771Y-6799698D01*
X-2260771Y-6799698D02*
X-2270295Y-6809222D01*
X-2270295Y-6809222D02*
X-2279818Y-6799698D01*
X-2279818Y-6799698D02*
X-2270295Y-6790174D01*
X-2270295Y-6790174D02*
X-2270295Y-6809222D01*
X-4102500Y-7142500D02*
X-3902500Y-7342500D01*
X-3902500Y-7142500D02*
X-4102500Y-7342500D01*
X-3660771Y-7133984D02*
X-3536961Y-7133984D01*
X-3536961Y-7133984D02*
X-3603628Y-7210174D01*
X-3603628Y-7210174D02*
X-3575056Y-7210174D01*
X-3575056Y-7210174D02*
X-3556009Y-7219698D01*
X-3556009Y-7219698D02*
X-3546485Y-7229222D01*
X-3546485Y-7229222D02*
X-3536961Y-7248269D01*
X-3536961Y-7248269D02*
X-3536961Y-7295888D01*
X-3536961Y-7295888D02*
X-3546485Y-7314936D01*
X-3546485Y-7314936D02*
X-3556009Y-7324460D01*
X-3556009Y-7324460D02*
X-3575056Y-7333984D01*
X-3575056Y-7333984D02*
X-3632199Y-7333984D01*
X-3632199Y-7333984D02*
X-3651247Y-7324460D01*
X-3651247Y-7324460D02*
X-3660771Y-7314936D01*
X-3451247Y-7314936D02*
X-3441723Y-7324460D01*
X-3441723Y-7324460D02*
X-3451247Y-7333984D01*
X-3451247Y-7333984D02*
X-3460771Y-7324460D01*
X-3460771Y-7324460D02*
X-3451247Y-7314936D01*
X-3451247Y-7314936D02*
X-3451247Y-7333984D01*
X-3317914Y-7133984D02*
X-3298866Y-7133984D01*
X-3298866Y-7133984D02*
X-3279818Y-7143508D01*
X-3279818Y-7143508D02*
X-3270294Y-7153031D01*
X-3270294Y-7153031D02*
X-3260771Y-7172079D01*
X-3260771Y-7172079D02*
X-3251247Y-7210174D01*
X-3251247Y-7210174D02*
X-3251247Y-7257793D01*
X-3251247Y-7257793D02*
X-3260771Y-7295888D01*
X-3260771Y-7295888D02*
X-3270294Y-7314936D01*
X-3270294Y-7314936D02*
X-3279818Y-7324460D01*
X-3279818Y-7324460D02*
X-3298866Y-7333984D01*
X-3298866Y-7333984D02*
X-3317914Y-7333984D01*
X-3317914Y-7333984D02*
X-3336961Y-7324460D01*
X-3336961Y-7324460D02*
X-3346485Y-7314936D01*
X-3346485Y-7314936D02*
X-3356009Y-7295888D01*
X-3356009Y-7295888D02*
X-3365533Y-7257793D01*
X-3365533Y-7257793D02*
X-3365533Y-7210174D01*
X-3365533Y-7210174D02*
X-3356009Y-7172079D01*
X-3356009Y-7172079D02*
X-3346485Y-7153031D01*
X-3346485Y-7153031D02*
X-3336961Y-7143508D01*
X-3336961Y-7143508D02*
X-3317914Y-7133984D01*
X-3127437Y-7133984D02*
X-3108390Y-7133984D01*
X-3108390Y-7133984D02*
X-3089342Y-7143508D01*
X-3089342Y-7143508D02*
X-3079818Y-7153031D01*
X-3079818Y-7153031D02*
X-3070294Y-7172079D01*
X-3070294Y-7172079D02*
X-3060771Y-7210174D01*
X-3060771Y-7210174D02*
X-3060771Y-7257793D01*
X-3060771Y-7257793D02*
X-3070294Y-7295888D01*
X-3070294Y-7295888D02*
X-3079818Y-7314936D01*
X-3079818Y-7314936D02*
X-3089342Y-7324460D01*
X-3089342Y-7324460D02*
X-3108390Y-7333984D01*
X-3108390Y-7333984D02*
X-3127437Y-7333984D01*
X-3127437Y-7333984D02*
X-3146485Y-7324460D01*
X-3146485Y-7324460D02*
X-3156009Y-7314936D01*
X-3156009Y-7314936D02*
X-3165533Y-7295888D01*
X-3165533Y-7295888D02*
X-3175056Y-7257793D01*
X-3175056Y-7257793D02*
X-3175056Y-7210174D01*
X-3175056Y-7210174D02*
X-3165533Y-7172079D01*
X-3165533Y-7172079D02*
X-3156009Y-7153031D01*
X-3156009Y-7153031D02*
X-3146485Y-7143508D01*
X-3146485Y-7143508D02*
X-3127437Y-7133984D01*
X-2936961Y-7133984D02*
X-2917913Y-7133984D01*
X-2917913Y-7133984D02*
X-2898866Y-7143508D01*
X-2898866Y-7143508D02*
X-2889342Y-7153031D01*
X-2889342Y-7153031D02*
X-2879818Y-7172079D01*
X-2879818Y-7172079D02*
X-2870294Y-7210174D01*
X-2870294Y-7210174D02*
X-2870294Y-7257793D01*
X-2870294Y-7257793D02*
X-2879818Y-7295888D01*
X-2879818Y-7295888D02*
X-2889342Y-7314936D01*
X-2889342Y-7314936D02*
X-2898866Y-7324460D01*
X-2898866Y-7324460D02*
X-2917913Y-7333984D01*
X-2917913Y-7333984D02*
X-2936961Y-7333984D01*
X-2936961Y-7333984D02*
X-2956009Y-7324460D01*
X-2956009Y-7324460D02*
X-2965533Y-7314936D01*
X-2965533Y-7314936D02*
X-2975056Y-7295888D01*
X-2975056Y-7295888D02*
X-2984580Y-7257793D01*
X-2984580Y-7257793D02*
X-2984580Y-7210174D01*
X-2984580Y-7210174D02*
X-2975056Y-7172079D01*
X-2975056Y-7172079D02*
X-2965533Y-7153031D01*
X-2965533Y-7153031D02*
X-2956009Y-7143508D01*
X-2956009Y-7143508D02*
X-2936961Y-7133984D01*
X-2784580Y-7333984D02*
X-2784580Y-7200650D01*
X-2784580Y-7219698D02*
X-2775056Y-7210174D01*
X-2775056Y-7210174D02*
X-2756009Y-7200650D01*
X-2756009Y-7200650D02*
X-2727437Y-7200650D01*
X-2727437Y-7200650D02*
X-2708390Y-7210174D01*
X-2708390Y-7210174D02*
X-2698866Y-7229222D01*
X-2698866Y-7229222D02*
X-2698866Y-7333984D01*
X-2698866Y-7229222D02*
X-2689342Y-7210174D01*
X-2689342Y-7210174D02*
X-2670295Y-7200650D01*
X-2670295Y-7200650D02*
X-2641723Y-7200650D01*
X-2641723Y-7200650D02*
X-2622675Y-7210174D01*
X-2622675Y-7210174D02*
X-2613152Y-7229222D01*
X-2613152Y-7229222D02*
X-2613152Y-7333984D01*
X-2517914Y-7333984D02*
X-2517914Y-7200650D01*
X-2517914Y-7219698D02*
X-2508390Y-7210174D01*
X-2508390Y-7210174D02*
X-2489342Y-7200650D01*
X-2489342Y-7200650D02*
X-2460771Y-7200650D01*
X-2460771Y-7200650D02*
X-2441723Y-7210174D01*
X-2441723Y-7210174D02*
X-2432199Y-7229222D01*
X-2432199Y-7229222D02*
X-2432199Y-7333984D01*
X-2432199Y-7229222D02*
X-2422675Y-7210174D01*
X-2422675Y-7210174D02*
X-2403628Y-7200650D01*
X-2403628Y-7200650D02*
X-2375056Y-7200650D01*
X-2375056Y-7200650D02*
X-2356009Y-7210174D01*
X-2356009Y-7210174D02*
X-2346485Y-7229222D01*
X-2346485Y-7229222D02*
X-2346485Y-7333984D01*
X-1956009Y-7124460D02*
X-2127437Y-7381603D01*
X-1698866Y-7133984D02*
X-1679818Y-7133984D01*
X-1679818Y-7133984D02*
X-1660770Y-7143508D01*
X-1660770Y-7143508D02*
X-1651247Y-7153031D01*
X-1651247Y-7153031D02*
X-1641723Y-7172079D01*
X-1641723Y-7172079D02*
X-1632199Y-7210174D01*
X-1632199Y-7210174D02*
X-1632199Y-7257793D01*
X-1632199Y-7257793D02*
X-1641723Y-7295888D01*
X-1641723Y-7295888D02*
X-1651247Y-7314936D01*
X-1651247Y-7314936D02*
X-1660770Y-7324460D01*
X-1660770Y-7324460D02*
X-1679818Y-7333984D01*
X-1679818Y-7333984D02*
X-1698866Y-7333984D01*
X-1698866Y-7333984D02*
X-1717913Y-7324460D01*
X-1717913Y-7324460D02*
X-1727437Y-7314936D01*
X-1727437Y-7314936D02*
X-1736961Y-7295888D01*
X-1736961Y-7295888D02*
X-1746485Y-7257793D01*
X-1746485Y-7257793D02*
X-1746485Y-7210174D01*
X-1746485Y-7210174D02*
X-1736961Y-7172079D01*
X-1736961Y-7172079D02*
X-1727437Y-7153031D01*
X-1727437Y-7153031D02*
X-1717913Y-7143508D01*
X-1717913Y-7143508D02*
X-1698866Y-7133984D01*
X-1546485Y-7314936D02*
X-1536961Y-7324460D01*
X-1536961Y-7324460D02*
X-1546485Y-7333984D01*
X-1546485Y-7333984D02*
X-1556009Y-7324460D01*
X-1556009Y-7324460D02*
X-1546485Y-7314936D01*
X-1546485Y-7314936D02*
X-1546485Y-7333984D01*
X-1346485Y-7333984D02*
X-1460770Y-7333984D01*
X-1403628Y-7333984D02*
X-1403628Y-7133984D01*
X-1403628Y-7133984D02*
X-1422675Y-7162555D01*
X-1422675Y-7162555D02*
X-1441723Y-7181603D01*
X-1441723Y-7181603D02*
X-1460770Y-7191127D01*
X-1156009Y-7333984D02*
X-1270294Y-7333984D01*
X-1213152Y-7333984D02*
X-1213152Y-7133984D01*
X-1213152Y-7133984D02*
X-1232199Y-7162555D01*
X-1232199Y-7162555D02*
X-1251247Y-7181603D01*
X-1251247Y-7181603D02*
X-1270294Y-7191127D01*
X-1041723Y-7219698D02*
X-1060771Y-7210174D01*
X-1060771Y-7210174D02*
X-1070294Y-7200650D01*
X-1070294Y-7200650D02*
X-1079818Y-7181603D01*
X-1079818Y-7181603D02*
X-1079818Y-7172079D01*
X-1079818Y-7172079D02*
X-1070294Y-7153031D01*
X-1070294Y-7153031D02*
X-1060771Y-7143508D01*
X-1060771Y-7143508D02*
X-1041723Y-7133984D01*
X-1041723Y-7133984D02*
X-1003628Y-7133984D01*
X-1003628Y-7133984D02*
X-984580Y-7143508D01*
X-984580Y-7143508D02*
X-975056Y-7153031D01*
X-975056Y-7153031D02*
X-965532Y-7172079D01*
X-965532Y-7172079D02*
X-965532Y-7181603D01*
X-965532Y-7181603D02*
X-975056Y-7200650D01*
X-975056Y-7200650D02*
X-984580Y-7210174D01*
X-984580Y-7210174D02*
X-1003628Y-7219698D01*
X-1003628Y-7219698D02*
X-1041723Y-7219698D01*
X-1041723Y-7219698D02*
X-1060771Y-7229222D01*
X-1060771Y-7229222D02*
X-1070294Y-7238746D01*
X-1070294Y-7238746D02*
X-1079818Y-7257793D01*
X-1079818Y-7257793D02*
X-1079818Y-7295888D01*
X-1079818Y-7295888D02*
X-1070294Y-7314936D01*
X-1070294Y-7314936D02*
X-1060771Y-7324460D01*
X-1060771Y-7324460D02*
X-1041723Y-7333984D01*
X-1041723Y-7333984D02*
X-1003628Y-7333984D01*
X-1003628Y-7333984D02*
X-984580Y-7324460D01*
X-984580Y-7324460D02*
X-975056Y-7314936D01*
X-975056Y-7314936D02*
X-965532Y-7295888D01*
X-965532Y-7295888D02*
X-965532Y-7257793D01*
X-965532Y-7257793D02*
X-975056Y-7238746D01*
X-975056Y-7238746D02*
X-984580Y-7229222D01*
X-984580Y-7229222D02*
X-1003628Y-7219698D01*
X-775056Y-7333984D02*
X-889342Y-7333984D01*
X-832199Y-7333984D02*
X-832199Y-7133984D01*
X-832199Y-7133984D02*
X-851247Y-7162555D01*
X-851247Y-7162555D02*
X-870294Y-7181603D01*
X-870294Y-7181603D02*
X-889342Y-7191127D01*
X-698866Y-7133984D02*
X-698866Y-7172079D01*
X-622675Y-7133984D02*
X-622675Y-7172079D01*
X-327437Y-7410174D02*
X-336961Y-7400650D01*
X-336961Y-7400650D02*
X-356008Y-7372079D01*
X-356008Y-7372079D02*
X-365532Y-7353031D01*
X-365532Y-7353031D02*
X-375056Y-7324460D01*
X-375056Y-7324460D02*
X-384580Y-7276841D01*
X-384580Y-7276841D02*
X-384580Y-7238746D01*
X-384580Y-7238746D02*
X-375056Y-7191127D01*
X-375056Y-7191127D02*
X-365532Y-7162555D01*
X-365532Y-7162555D02*
X-356008Y-7143508D01*
X-356008Y-7143508D02*
X-336961Y-7114936D01*
X-336961Y-7114936D02*
X-327437Y-7105412D01*
X-165532Y-7200650D02*
X-165532Y-7333984D01*
X-213151Y-7124460D02*
X-260770Y-7267317D01*
X-260770Y-7267317D02*
X-136961Y-7267317D01*
X91610Y-7333984D02*
X91610Y-7133984D01*
X177325Y-7333984D02*
X177325Y-7229222D01*
X177325Y-7229222D02*
X167801Y-7210174D01*
X167801Y-7210174D02*
X148753Y-7200650D01*
X148753Y-7200650D02*
X120182Y-7200650D01*
X120182Y-7200650D02*
X101134Y-7210174D01*
X101134Y-7210174D02*
X91610Y-7219698D01*
X301134Y-7333984D02*
X282087Y-7324460D01*
X282087Y-7324460D02*
X272563Y-7314936D01*
X272563Y-7314936D02*
X263039Y-7295888D01*
X263039Y-7295888D02*
X263039Y-7238746D01*
X263039Y-7238746D02*
X272563Y-7219698D01*
X272563Y-7219698D02*
X282087Y-7210174D01*
X282087Y-7210174D02*
X301134Y-7200650D01*
X301134Y-7200650D02*
X329706Y-7200650D01*
X329706Y-7200650D02*
X348753Y-7210174D01*
X348753Y-7210174D02*
X358277Y-7219698D01*
X358277Y-7219698D02*
X367801Y-7238746D01*
X367801Y-7238746D02*
X367801Y-7295888D01*
X367801Y-7295888D02*
X358277Y-7314936D01*
X358277Y-7314936D02*
X348753Y-7324460D01*
X348753Y-7324460D02*
X329706Y-7333984D01*
X329706Y-7333984D02*
X301134Y-7333984D01*
X482087Y-7333984D02*
X463039Y-7324460D01*
X463039Y-7324460D02*
X453515Y-7305412D01*
X453515Y-7305412D02*
X453515Y-7133984D01*
X634468Y-7324460D02*
X615420Y-7333984D01*
X615420Y-7333984D02*
X577325Y-7333984D01*
X577325Y-7333984D02*
X558277Y-7324460D01*
X558277Y-7324460D02*
X548753Y-7305412D01*
X548753Y-7305412D02*
X548753Y-7229222D01*
X548753Y-7229222D02*
X558277Y-7210174D01*
X558277Y-7210174D02*
X577325Y-7200650D01*
X577325Y-7200650D02*
X615420Y-7200650D01*
X615420Y-7200650D02*
X634468Y-7210174D01*
X634468Y-7210174D02*
X643992Y-7229222D01*
X643992Y-7229222D02*
X643992Y-7248269D01*
X643992Y-7248269D02*
X548753Y-7267317D01*
X720182Y-7324460D02*
X739230Y-7333984D01*
X739230Y-7333984D02*
X777325Y-7333984D01*
X777325Y-7333984D02*
X796372Y-7324460D01*
X796372Y-7324460D02*
X805896Y-7305412D01*
X805896Y-7305412D02*
X805896Y-7295888D01*
X805896Y-7295888D02*
X796372Y-7276841D01*
X796372Y-7276841D02*
X777325Y-7267317D01*
X777325Y-7267317D02*
X748753Y-7267317D01*
X748753Y-7267317D02*
X729706Y-7257793D01*
X729706Y-7257793D02*
X720182Y-7238746D01*
X720182Y-7238746D02*
X720182Y-7229222D01*
X720182Y-7229222D02*
X729706Y-7210174D01*
X729706Y-7210174D02*
X748753Y-7200650D01*
X748753Y-7200650D02*
X777325Y-7200650D01*
X777325Y-7200650D02*
X796372Y-7210174D01*
X872563Y-7410174D02*
X882087Y-7400650D01*
X882087Y-7400650D02*
X901134Y-7372079D01*
X901134Y-7372079D02*
X910658Y-7353031D01*
X910658Y-7353031D02*
X920182Y-7324460D01*
X920182Y-7324460D02*
X929706Y-7276841D01*
X929706Y-7276841D02*
X929706Y-7238746D01*
X929706Y-7238746D02*
X920182Y-7191127D01*
X920182Y-7191127D02*
X910658Y-7162555D01*
X910658Y-7162555D02*
X901134Y-7143508D01*
X901134Y-7143508D02*
X882087Y-7114936D01*
X882087Y-7114936D02*
X872563Y-7105412D01*
X1234468Y-7410174D02*
X1224944Y-7400650D01*
X1224944Y-7400650D02*
X1205896Y-7372079D01*
X1205896Y-7372079D02*
X1196373Y-7353031D01*
X1196373Y-7353031D02*
X1186849Y-7324460D01*
X1186849Y-7324460D02*
X1177325Y-7276841D01*
X1177325Y-7276841D02*
X1177325Y-7238746D01*
X1177325Y-7238746D02*
X1186849Y-7191127D01*
X1186849Y-7191127D02*
X1196373Y-7162555D01*
X1196373Y-7162555D02*
X1205896Y-7143508D01*
X1205896Y-7143508D02*
X1224944Y-7114936D01*
X1224944Y-7114936D02*
X1234468Y-7105412D01*
X1310658Y-7200650D02*
X1310658Y-7333984D01*
X1310658Y-7219698D02*
X1320182Y-7210174D01*
X1320182Y-7210174D02*
X1339230Y-7200650D01*
X1339230Y-7200650D02*
X1367801Y-7200650D01*
X1367801Y-7200650D02*
X1386849Y-7210174D01*
X1386849Y-7210174D02*
X1396373Y-7229222D01*
X1396373Y-7229222D02*
X1396373Y-7333984D01*
X1520182Y-7333984D02*
X1501134Y-7324460D01*
X1501134Y-7324460D02*
X1491611Y-7314936D01*
X1491611Y-7314936D02*
X1482087Y-7295888D01*
X1482087Y-7295888D02*
X1482087Y-7238746D01*
X1482087Y-7238746D02*
X1491611Y-7219698D01*
X1491611Y-7219698D02*
X1501134Y-7210174D01*
X1501134Y-7210174D02*
X1520182Y-7200650D01*
X1520182Y-7200650D02*
X1548753Y-7200650D01*
X1548753Y-7200650D02*
X1567801Y-7210174D01*
X1567801Y-7210174D02*
X1577325Y-7219698D01*
X1577325Y-7219698D02*
X1586849Y-7238746D01*
X1586849Y-7238746D02*
X1586849Y-7295888D01*
X1586849Y-7295888D02*
X1577325Y-7314936D01*
X1577325Y-7314936D02*
X1567801Y-7324460D01*
X1567801Y-7324460D02*
X1548753Y-7333984D01*
X1548753Y-7333984D02*
X1520182Y-7333984D01*
X1643992Y-7200650D02*
X1720182Y-7200650D01*
X1672563Y-7133984D02*
X1672563Y-7305412D01*
X1672563Y-7305412D02*
X1682087Y-7324460D01*
X1682087Y-7324460D02*
X1701134Y-7333984D01*
X1701134Y-7333984D02*
X1720182Y-7333984D01*
X1939230Y-7200650D02*
X1939230Y-7400650D01*
X1939230Y-7210174D02*
X1958277Y-7200650D01*
X1958277Y-7200650D02*
X1996373Y-7200650D01*
X1996373Y-7200650D02*
X2015420Y-7210174D01*
X2015420Y-7210174D02*
X2024944Y-7219698D01*
X2024944Y-7219698D02*
X2034468Y-7238746D01*
X2034468Y-7238746D02*
X2034468Y-7295888D01*
X2034468Y-7295888D02*
X2024944Y-7314936D01*
X2024944Y-7314936D02*
X2015420Y-7324460D01*
X2015420Y-7324460D02*
X1996373Y-7333984D01*
X1996373Y-7333984D02*
X1958277Y-7333984D01*
X1958277Y-7333984D02*
X1939230Y-7324460D01*
X2148754Y-7333984D02*
X2129706Y-7324460D01*
X2129706Y-7324460D02*
X2120182Y-7305412D01*
X2120182Y-7305412D02*
X2120182Y-7133984D01*
X2310658Y-7333984D02*
X2310658Y-7229222D01*
X2310658Y-7229222D02*
X2301135Y-7210174D01*
X2301135Y-7210174D02*
X2282087Y-7200650D01*
X2282087Y-7200650D02*
X2243992Y-7200650D01*
X2243992Y-7200650D02*
X2224944Y-7210174D01*
X2310658Y-7324460D02*
X2291611Y-7333984D01*
X2291611Y-7333984D02*
X2243992Y-7333984D01*
X2243992Y-7333984D02*
X2224944Y-7324460D01*
X2224944Y-7324460D02*
X2215420Y-7305412D01*
X2215420Y-7305412D02*
X2215420Y-7286365D01*
X2215420Y-7286365D02*
X2224944Y-7267317D01*
X2224944Y-7267317D02*
X2243992Y-7257793D01*
X2243992Y-7257793D02*
X2291611Y-7257793D01*
X2291611Y-7257793D02*
X2310658Y-7248269D01*
X2377325Y-7200650D02*
X2453515Y-7200650D01*
X2405896Y-7133984D02*
X2405896Y-7305412D01*
X2405896Y-7305412D02*
X2415420Y-7324460D01*
X2415420Y-7324460D02*
X2434468Y-7333984D01*
X2434468Y-7333984D02*
X2453515Y-7333984D01*
X2596373Y-7324460D02*
X2577325Y-7333984D01*
X2577325Y-7333984D02*
X2539230Y-7333984D01*
X2539230Y-7333984D02*
X2520182Y-7324460D01*
X2520182Y-7324460D02*
X2510658Y-7305412D01*
X2510658Y-7305412D02*
X2510658Y-7229222D01*
X2510658Y-7229222D02*
X2520182Y-7210174D01*
X2520182Y-7210174D02*
X2539230Y-7200650D01*
X2539230Y-7200650D02*
X2577325Y-7200650D01*
X2577325Y-7200650D02*
X2596373Y-7210174D01*
X2596373Y-7210174D02*
X2605896Y-7229222D01*
X2605896Y-7229222D02*
X2605896Y-7248269D01*
X2605896Y-7248269D02*
X2510658Y-7267317D01*
X2777325Y-7333984D02*
X2777325Y-7133984D01*
X2777325Y-7324460D02*
X2758277Y-7333984D01*
X2758277Y-7333984D02*
X2720182Y-7333984D01*
X2720182Y-7333984D02*
X2701135Y-7324460D01*
X2701135Y-7324460D02*
X2691611Y-7314936D01*
X2691611Y-7314936D02*
X2682087Y-7295888D01*
X2682087Y-7295888D02*
X2682087Y-7238746D01*
X2682087Y-7238746D02*
X2691611Y-7219698D01*
X2691611Y-7219698D02*
X2701135Y-7210174D01*
X2701135Y-7210174D02*
X2720182Y-7200650D01*
X2720182Y-7200650D02*
X2758277Y-7200650D01*
X2758277Y-7200650D02*
X2777325Y-7210174D01*
X2853515Y-7410174D02*
X2863039Y-7400650D01*
X2863039Y-7400650D02*
X2882087Y-7372079D01*
X2882087Y-7372079D02*
X2891611Y-7353031D01*
X2891611Y-7353031D02*
X2901134Y-7324460D01*
X2901134Y-7324460D02*
X2910658Y-7276841D01*
X2910658Y-7276841D02*
X2910658Y-7238746D01*
X2910658Y-7238746D02*
X2901134Y-7191127D01*
X2901134Y-7191127D02*
X2891611Y-7162555D01*
X2891611Y-7162555D02*
X2882087Y-7143508D01*
X2882087Y-7143508D02*
X2863039Y-7114936D01*
X2863039Y-7114936D02*
X2853515Y-7105412D01*
M02*
