M48
; DRILL file {KiCad 9.0.4} date 2025-12-02T07:33:08-0500
; FORMAT={-:-/ absolute / inch / decimal}
; #@! TF.CreationDate,2025-12-02T07:33:08-05:00
; #@! TF.GenerationSoftware,Kicad,Pcbnew,9.0.4
; #@! TF.FileFunction,Plated,1,2,PTH
FMAT,2
INCH
; #@! TA.AperFunction,Plated,PTH,ComponentDrill
T1C0.0236
; #@! TA.AperFunction,Plated,PTH,ComponentDrill
T2C0.0394
; #@! TA.AperFunction,Plated,PTH,ComponentDrill
T3C0.0984
; #@! TA.AperFunction,Plated,PTH,ComponentDrill
T4C0.1063
; #@! TA.AperFunction,Plated,PTH,ComponentDrill
T5C0.1772
%
G90
G05
T2
X-1.2047Y1.8898
X-1.05Y1.9894
X-1.05Y1.8894
X-1.05Y0.7894
X-1.05Y0.6894
X-1.05Y0.5894
X-1.05Y0.4894
X-1.05Y0.3894
X-1.05Y0.2894
X-1.05Y0.1894
X-1.05Y0.0894
X-1.05Y-0.0106
X-1.05Y-0.1106
X-1.05Y-0.2106
X-1.05Y-0.3106
X-1.05Y-0.4106
X-1.05Y-0.5106
X-1.05Y-0.6106
X-1.05Y-0.7106
X-1.05Y-0.8106
X-1.05Y-0.9106
X-1.05Y-1.0106
X-1.05Y-1.1106
X-1.05Y-1.2106
X-1.05Y-1.3106
X-1.05Y-1.4106
X-1.05Y-1.5106
X-1.05Y-1.6106
X-1.05Y-1.7106
X-1.05Y-1.8106
X-1.05Y-1.9106
X-1.05Y-2.0106
X-1.05Y-2.1106
X-1.05Y-2.2106
X-1.05Y-2.3106
X-0.9626Y2.5217
X-0.9626Y1.5768
X-0.95Y0.7894
X-0.95Y0.6894
X-0.95Y0.5894
X-0.95Y0.4894
X-0.95Y0.3894
X-0.95Y0.2894
X-0.95Y0.1894
X-0.95Y0.0894
X-0.95Y-0.0106
X-0.95Y-0.1106
X-0.95Y-0.2106
X-0.95Y-0.3106
X-0.95Y-0.4106
X-0.95Y-0.5106
X-0.95Y-0.6106
X-0.95Y-0.7106
X-0.95Y-0.8106
X-0.95Y-0.9106
X-0.95Y-1.0106
X-0.95Y-1.1106
X-0.95Y-1.2106
X-0.95Y-1.3106
X-0.95Y-1.4106
X-0.95Y-1.5106
X-0.95Y-1.6106
X-0.95Y-1.7106
X-0.95Y-1.8106
X-0.95Y-1.9106
X-0.95Y-2.0106
X-0.95Y-2.1106
X-0.95Y-2.2106
X-0.95Y-2.3106
X-0.815Y0.374
X-0.7299Y1.811
X-0.7299Y-1.811
X-0.6732Y-0.2992
X-0.6693Y-0.1102
X-0.6693Y-0.5512
X-0.6299Y1.811
X-0.6299Y-1.811
X-0.5299Y1.811
X-0.5299Y-1.811
X-0.5157Y0.311
X-0.35Y0.25
X-0.35Y0.15
X-0.35Y0.05
X-0.35Y-0.05
X-0.35Y-0.15
X-0.35Y-0.25
X-0.2508Y-0.6693
X-0.1508Y-0.6693
X-0.1Y1.811
X-0.0508Y-0.6693
X0.0Y1.811
X0.0492Y-0.6693
X0.1Y1.811
X0.1492Y-0.6693
X0.2492Y-0.6693
X0.35Y0.15
X0.35Y0.05
X0.35Y-0.05
X0.35Y-0.15
X0.5299Y1.811
X0.5299Y-1.811
X0.6299Y1.811
X0.6299Y-1.811
X0.7299Y1.811
X0.7299Y-1.811
X0.7598Y0.2913
X0.7677Y-0.6102
X0.95Y0.7894
X0.95Y0.6894
X0.95Y0.5894
X0.95Y0.4894
X0.95Y0.3894
X0.95Y0.2894
X0.95Y0.1894
X0.95Y0.0894
X0.95Y-0.0106
X0.95Y-0.1106
X0.95Y-0.2106
X0.95Y-0.3106
X0.95Y-0.4106
X0.95Y-0.5106
X0.95Y-0.6106
X0.95Y-0.7106
X0.95Y-0.8106
X0.95Y-0.9106
X0.95Y-1.0106
X0.95Y-1.1106
X0.95Y-1.2106
X0.95Y-1.3106
X0.95Y-1.4106
X0.95Y-1.5106
X0.95Y-1.6106
X0.95Y-1.7106
X0.95Y-1.8106
X0.95Y-1.9106
X0.95Y-2.0106
X0.95Y-2.1106
X0.95Y-2.2106
X0.95Y-2.3106
X0.9665Y2.5217
X0.9665Y1.5768
X1.05Y1.9894
X1.05Y1.8894
X1.05Y0.7894
X1.05Y0.6894
X1.05Y0.5894
X1.05Y0.4894
X1.05Y0.3894
X1.05Y0.2894
X1.05Y0.1894
X1.05Y0.0894
X1.05Y-0.0106
X1.05Y-0.1106
X1.05Y-0.2106
X1.05Y-0.3106
X1.05Y-0.4106
X1.05Y-0.5106
X1.05Y-0.6106
X1.05Y-0.7106
X1.05Y-0.8106
X1.05Y-0.9106
X1.05Y-1.0106
X1.05Y-1.1106
X1.05Y-1.2106
X1.05Y-1.3106
X1.05Y-1.4106
X1.05Y-1.5106
X1.05Y-1.6106
X1.05Y-1.7106
X1.05Y-1.8106
X1.05Y-1.9106
X1.05Y-2.0106
X1.05Y-2.1106
X1.05Y-2.2106
X1.05Y-2.3106
X1.1969Y2.2756
X1.2165Y1.8858
X1.2362Y-2.311
T3
X-0.3Y0.425
X-0.3Y-0.425
X0.3Y0.425
X0.3Y-0.425
T4
X-0.3937Y1.3189
X-0.3937Y1.0354
X0.3937Y1.3189
X0.3937Y1.0354
T5
X0.0Y1.2992
X0.0Y1.0157
T1
G00X-0.6516Y1.4429
M15
G01X-0.6083Y1.4429
M16
G05
G00X-0.6516Y0.9114
M15
G01X-0.6083Y0.9114
M16
G05
G00X0.6083Y1.4429
M15
G01X0.6516Y1.4429
M16
G05
G00X0.6083Y0.9114
M15
G01X0.6516Y0.9114
M16
G05
M30
