%TF.GenerationSoftware,KiCad,Pcbnew,9.0.4*%
%TF.CreationDate,2025-11-19T22:50:04-05:00*%
%TF.ProjectId,ABRARACOURCIX_main_board,41425241-5241-4434-9f55-524349585f6d,rev?*%
%TF.SameCoordinates,Original*%
%TF.FileFunction,Drillmap*%
%TF.FilePolarity,Positive*%
%FSLAX45Y45*%
G04 Gerber Fmt 4.5, Leading zero omitted, Abs format (unit mm)*
G04 Created by KiCad (PCBNEW 9.0.4) date 2025-11-19 22:50:04*
%MOMM*%
%LPD*%
G01*
G04 APERTURE LIST*
%ADD10C,0.050000*%
%ADD11C,0.200000*%
%ADD12C,0.100000*%
%ADD13C,0.270000*%
%ADD14C,0.450000*%
G04 APERTURE END LIST*
D10*
X1200000Y7000000D02*
G75*
G02*
X1400000Y6800000I0J-200000D01*
G01*
X-1400000Y-2200000D02*
X-1400000Y-6800000D01*
X1200000Y7000000D02*
X-1200000Y7000000D01*
X1400000Y-2200000D02*
X1400000Y-6800000D01*
X164000Y2155000D02*
G75*
G02*
X-164000Y2155000I-164000J0D01*
G01*
X-164000Y2155000D02*
G75*
G02*
X164000Y2155000I164000J0D01*
G01*
X1400000Y6800000D02*
X1400000Y2200000D01*
X6800000Y-1400000D02*
X2200000Y-1400000D01*
X164000Y-2155000D02*
G75*
G02*
X-164000Y-2155000I-164000J0D01*
G01*
X-164000Y-2155000D02*
G75*
G02*
X164000Y-2155000I164000J0D01*
G01*
X-2200000Y1400000D02*
X-1400000Y2200000D01*
X1400000Y2200000D02*
X2200000Y1400000D01*
X-7000000Y1200000D02*
X-7000000Y-1200000D01*
X-2200000Y1400000D02*
X-6800000Y1400000D01*
X-1991000Y0D02*
G75*
G02*
X-2319000Y0I-164000J0D01*
G01*
X-2319000Y0D02*
G75*
G02*
X-1991000Y0I164000J0D01*
G01*
X-1200000Y-7000000D02*
X1200000Y-7000000D01*
X1400000Y-2200000D02*
X2200000Y-1400000D01*
X-2200000Y-1400000D02*
X-6800000Y-1400000D01*
X6800000Y1400000D02*
X2200000Y1400000D01*
X-1400000Y6800000D02*
X-1400000Y2200000D01*
X1400000Y-6800000D02*
G75*
G02*
X1200000Y-7000000I-200000J0D01*
G01*
X6800000Y1400000D02*
G75*
G02*
X7000000Y1200000I0J-200000D01*
G01*
X-1400000Y6800000D02*
G75*
G02*
X-1200000Y7000000I200000J0D01*
G01*
X-1200000Y-7000000D02*
G75*
G02*
X-1400000Y-6800000I0J200000D01*
G01*
X-6800000Y-1400000D02*
G75*
G02*
X-7000000Y-1200000I0J200000D01*
G01*
X-1400000Y-2200000D02*
X-2200000Y-1400000D01*
X7000000Y-1200000D02*
X7000000Y1200000D01*
X-7000000Y1200000D02*
G75*
G02*
X-6800000Y1400000I200000J0D01*
G01*
X7000000Y-1200000D02*
G75*
G02*
X6800000Y-1400000I-200000J0D01*
G01*
D11*
D12*
X-4485000Y-525000D02*
X-4455000Y-555000D01*
X-4455000Y-525000D02*
X-4485000Y-555000D01*
X-4235000Y15000D02*
X-4205000Y-15000D01*
X-4205000Y15000D02*
X-4235000Y-15000D01*
X-4100000Y-515000D02*
X-4070000Y-545000D01*
X-4070000Y-515000D02*
X-4100000Y-545000D01*
X-4100000Y-895000D02*
X-4070000Y-925000D01*
X-4070000Y-895000D02*
X-4100000Y-925000D01*
X-4040000Y-50000D02*
X-4010000Y-80000D01*
X-4010000Y-50000D02*
X-4040000Y-80000D01*
X-4005000Y-515000D02*
X-3975000Y-545000D01*
X-3975000Y-515000D02*
X-4005000Y-545000D01*
X-4005000Y-895000D02*
X-3975000Y-925000D01*
X-3975000Y-895000D02*
X-4005000Y-925000D01*
X-3940000Y-50000D02*
X-3910000Y-80000D01*
X-3910000Y-50000D02*
X-3940000Y-80000D01*
X-3910000Y-515000D02*
X-3880000Y-545000D01*
X-3880000Y-515000D02*
X-3910000Y-545000D01*
X-3910000Y-895000D02*
X-3880000Y-925000D01*
X-3880000Y-895000D02*
X-3910000Y-925000D01*
X-3815000Y-515000D02*
X-3785000Y-545000D01*
X-3785000Y-515000D02*
X-3815000Y-545000D01*
X-3815000Y-610000D02*
X-3785000Y-640000D01*
X-3785000Y-610000D02*
X-3815000Y-640000D01*
X-3815000Y-705000D02*
X-3785000Y-735000D01*
X-3785000Y-705000D02*
X-3815000Y-735000D01*
X-3815000Y-800000D02*
X-3785000Y-830000D01*
X-3785000Y-800000D02*
X-3815000Y-830000D01*
X-3815000Y-895000D02*
X-3785000Y-925000D01*
X-3785000Y-895000D02*
X-3815000Y-925000D01*
X-3720000Y-515000D02*
X-3690000Y-545000D01*
X-3690000Y-515000D02*
X-3720000Y-545000D01*
X-3720000Y-610000D02*
X-3690000Y-640000D01*
X-3690000Y-610000D02*
X-3720000Y-640000D01*
X-3720000Y-705000D02*
X-3690000Y-735000D01*
X-3690000Y-705000D02*
X-3720000Y-735000D01*
X-3720000Y-800000D02*
X-3690000Y-830000D01*
X-3690000Y-800000D02*
X-3720000Y-830000D01*
X-3720000Y-895000D02*
X-3690000Y-925000D01*
X-3690000Y-895000D02*
X-3720000Y-925000D01*
X-3625000Y-35000D02*
X-3595000Y-65000D01*
X-3595000Y-35000D02*
X-3625000Y-65000D01*
X-3615000Y-210000D02*
X-3585000Y-240000D01*
X-3585000Y-210000D02*
X-3615000Y-240000D01*
X-3595000Y120000D02*
X-3565000Y90000D01*
X-3565000Y120000D02*
X-3595000Y90000D01*
X-3255000Y225000D02*
X-3225000Y195000D01*
X-3225000Y225000D02*
X-3255000Y195000D01*
X-3175000Y390000D02*
X-3145000Y360000D01*
X-3145000Y390000D02*
X-3175000Y360000D01*
X-3140000Y-950000D02*
X-3110000Y-980000D01*
X-3110000Y-950000D02*
X-3140000Y-980000D01*
X-2505000Y-1015000D02*
X-2475000Y-1045000D01*
X-2475000Y-1015000D02*
X-2505000Y-1045000D01*
X-2465000Y-740000D02*
X-2435000Y-770000D01*
X-2435000Y-740000D02*
X-2465000Y-770000D01*
X-2060000Y310000D02*
X-2030000Y280000D01*
X-2030000Y310000D02*
X-2060000Y280000D01*
X-1760000Y-1105000D02*
X-1730000Y-1135000D01*
X-1730000Y-1105000D02*
X-1760000Y-1135000D01*
X-1655000Y455000D02*
X-1625000Y425000D01*
X-1625000Y455000D02*
X-1655000Y425000D01*
X-1617800Y1007200D02*
X-1587800Y977200D01*
X-1587800Y1007200D02*
X-1617800Y977200D01*
X-1490000Y60000D02*
X-1460000Y30000D01*
X-1460000Y60000D02*
X-1490000Y30000D01*
X-1240000Y4870000D02*
X-1210000Y4840000D01*
X-1210000Y4870000D02*
X-1240000Y4840000D01*
X-1235000Y4105000D02*
X-1205000Y4075000D01*
X-1205000Y4105000D02*
X-1235000Y4075000D01*
X-1125000Y5245000D02*
X-1095000Y5215000D01*
X-1095000Y5245000D02*
X-1125000Y5215000D01*
X-1042500Y3900000D02*
X-1012500Y3870000D01*
X-1012500Y3900000D02*
X-1042500Y3870000D01*
X-1025000Y2790000D02*
X-995000Y2760000D01*
X-995000Y2790000D02*
X-1025000Y2760000D01*
X-930000Y-835000D02*
X-900000Y-865000D01*
X-900000Y-835000D02*
X-930000Y-865000D01*
X-910000Y2500000D02*
X-880000Y2470000D01*
X-880000Y2500000D02*
X-910000Y2470000D01*
X-905000Y-1105000D02*
X-875000Y-1135000D01*
X-875000Y-1105000D02*
X-905000Y-1135000D01*
X-600000Y2050000D02*
X-570000Y2020000D01*
X-570000Y2050000D02*
X-600000Y2020000D01*
X-490000Y5245000D02*
X-460000Y5215000D01*
X-460000Y5245000D02*
X-490000Y5215000D01*
X-490000Y-385000D02*
X-460000Y-415000D01*
X-460000Y-385000D02*
X-490000Y-415000D01*
X-480000Y-138750D02*
X-450000Y-168750D01*
X-450000Y-138750D02*
X-480000Y-168750D01*
X-450000Y-30000D02*
X-420000Y-60000D01*
X-420000Y-30000D02*
X-450000Y-60000D01*
X-440000Y165000D02*
X-410000Y135000D01*
X-410000Y165000D02*
X-440000Y135000D01*
X-340000Y-1702750D02*
X-310000Y-1732750D01*
X-310000Y-1702750D02*
X-340000Y-1732750D01*
X-240000Y2975000D02*
X-210000Y2945000D01*
X-210000Y2975000D02*
X-240000Y2945000D01*
X-145000Y4145000D02*
X-115000Y4115000D01*
X-115000Y4145000D02*
X-145000Y4115000D01*
X-95000Y1180000D02*
X-65000Y1150000D01*
X-65000Y1180000D02*
X-95000Y1150000D01*
X-75000Y5415000D02*
X-45000Y5385000D01*
X-45000Y5415000D02*
X-75000Y5385000D01*
X-10000Y3405000D02*
X20000Y3375000D01*
X20000Y3405000D02*
X-10000Y3375000D01*
X10000Y4430000D02*
X40000Y4400000D01*
X40000Y4430000D02*
X10000Y4400000D01*
X15000Y335000D02*
X45000Y305000D01*
X45000Y335000D02*
X15000Y305000D01*
X15000Y-430000D02*
X45000Y-460000D01*
X45000Y-430000D02*
X15000Y-460000D01*
X25000Y-565000D02*
X55000Y-595000D01*
X55000Y-565000D02*
X25000Y-595000D01*
X170000Y-300000D02*
X200000Y-330000D01*
X200000Y-300000D02*
X170000Y-330000D01*
X255000Y2980000D02*
X285000Y2950000D01*
X285000Y2980000D02*
X255000Y2950000D01*
X255000Y295000D02*
X285000Y265000D01*
X285000Y295000D02*
X255000Y265000D01*
X345000Y1895000D02*
X375000Y1865000D01*
X375000Y1895000D02*
X345000Y1865000D01*
X360000Y90000D02*
X390000Y60000D01*
X390000Y90000D02*
X360000Y60000D01*
X400000Y-1702750D02*
X430000Y-1732750D01*
X430000Y-1702750D02*
X400000Y-1732750D01*
X410000Y171250D02*
X440000Y141250D01*
X440000Y171250D02*
X410000Y141250D01*
X490000Y-620000D02*
X520000Y-650000D01*
X520000Y-620000D02*
X490000Y-650000D01*
X490000Y-880000D02*
X520000Y-910000D01*
X520000Y-880000D02*
X490000Y-910000D01*
X495000Y-1240000D02*
X525000Y-1270000D01*
X525000Y-1240000D02*
X495000Y-1270000D01*
X535000Y-2340000D02*
X565000Y-2370000D01*
X565000Y-2340000D02*
X535000Y-2370000D01*
X702500Y67500D02*
X732500Y37500D01*
X732500Y67500D02*
X702500Y37500D01*
X715000Y180000D02*
X745000Y150000D01*
X745000Y180000D02*
X715000Y150000D01*
X740000Y-130000D02*
X770000Y-160000D01*
X770000Y-130000D02*
X740000Y-160000D01*
X785000Y1040000D02*
X815000Y1010000D01*
X815000Y1040000D02*
X785000Y1010000D01*
X800000Y535000D02*
X830000Y505000D01*
X830000Y535000D02*
X800000Y505000D01*
X860000Y270000D02*
X890000Y240000D01*
X890000Y270000D02*
X860000Y240000D01*
X865000Y-925000D02*
X895000Y-955000D01*
X895000Y-925000D02*
X865000Y-955000D01*
X865000Y-1324706D02*
X895000Y-1354706D01*
X895000Y-1324706D02*
X865000Y-1354706D01*
X865000Y-2500000D02*
X895000Y-2530000D01*
X895000Y-2500000D02*
X865000Y-2530000D01*
X865000Y-3985000D02*
X895000Y-4015000D01*
X895000Y-3985000D02*
X865000Y-4015000D01*
X896906Y-61906D02*
X926906Y-91906D01*
X926906Y-61906D02*
X896906Y-91906D01*
X950000Y1385000D02*
X980000Y1355000D01*
X980000Y1385000D02*
X950000Y1355000D01*
X1090000Y1375000D02*
X1120000Y1345000D01*
X1120000Y1375000D02*
X1090000Y1345000D01*
X1115000Y-925000D02*
X1145000Y-955000D01*
X1145000Y-925000D02*
X1115000Y-955000D01*
X1115000Y-1305000D02*
X1145000Y-1335000D01*
X1145000Y-1305000D02*
X1115000Y-1335000D01*
X1115000Y-2495000D02*
X1145000Y-2525000D01*
X1145000Y-2495000D02*
X1115000Y-2525000D01*
X1115000Y-3985000D02*
X1145000Y-4015000D01*
X1145000Y-3985000D02*
X1115000Y-4015000D01*
X1120000Y-150000D02*
X1150000Y-180000D01*
X1150000Y-150000D02*
X1120000Y-180000D01*
X1215000Y-690000D02*
X1245000Y-720000D01*
X1245000Y-690000D02*
X1215000Y-720000D01*
X1245000Y-1685000D02*
X1275000Y-1715000D01*
X1275000Y-1685000D02*
X1245000Y-1715000D01*
X1305000Y-2445000D02*
X1335000Y-2475000D01*
X1335000Y-2445000D02*
X1305000Y-2475000D01*
X1330000Y-60000D02*
X1360000Y-90000D01*
X1360000Y-60000D02*
X1330000Y-90000D01*
X1335000Y995000D02*
X1365000Y965000D01*
X1365000Y995000D02*
X1335000Y965000D01*
X1500000Y980000D02*
X1530000Y950000D01*
X1530000Y980000D02*
X1500000Y950000D01*
X1555000Y-685000D02*
X1585000Y-715000D01*
X1585000Y-685000D02*
X1555000Y-715000D01*
X1595000Y-150000D02*
X1625000Y-180000D01*
X1625000Y-150000D02*
X1595000Y-180000D01*
X1600000Y120000D02*
X1630000Y90000D01*
X1630000Y120000D02*
X1600000Y90000D01*
X1615000Y1355000D02*
X1645000Y1325000D01*
X1645000Y1355000D02*
X1615000Y1325000D01*
X1616800Y441799D02*
X1646800Y411799D01*
X1646800Y441799D02*
X1616800Y411799D01*
X1635000Y1460000D02*
X1665000Y1430000D01*
X1665000Y1460000D02*
X1635000Y1430000D01*
X1685000Y535000D02*
X1715000Y505000D01*
X1715000Y535000D02*
X1685000Y505000D01*
X1688750Y-900000D02*
X1718750Y-930000D01*
X1718750Y-900000D02*
X1688750Y-930000D01*
X1745000Y720000D02*
X1775000Y690000D01*
X1775000Y720000D02*
X1745000Y690000D01*
X1790000Y-60000D02*
X1820000Y-90000D01*
X1820000Y-60000D02*
X1790000Y-90000D01*
X1795000Y885000D02*
X1825000Y855000D01*
X1825000Y885000D02*
X1795000Y855000D01*
X1900000Y-30000D02*
X1930000Y-60000D01*
X1930000Y-30000D02*
X1900000Y-60000D01*
X1910000Y70000D02*
X1940000Y40000D01*
X1940000Y70000D02*
X1910000Y40000D01*
X2306875Y-233125D02*
X2336875Y-263125D01*
X2336875Y-233125D02*
X2306875Y-263125D01*
X2715000Y230000D02*
X2745000Y200000D01*
X2745000Y230000D02*
X2715000Y200000D01*
X3140000Y980000D02*
X3170000Y950000D01*
X3170000Y980000D02*
X3140000Y950000D01*
X-6645000Y925000D02*
G75*
G02*
X-6705000Y925000I-30000J0D01*
G01*
X-6705000Y925000D02*
G75*
G02*
X-6645000Y925000I30000J0D01*
G01*
X-6705000Y980000D02*
X-6705000Y870000D01*
X-6645000Y870000D02*
G75*
G02*
X-6705000Y870000I-30000J0D01*
G01*
X-6645000Y870000D02*
X-6645000Y980000D01*
X-6645000Y980000D02*
G75*
G03*
X-6705000Y980000I-30000J0D01*
G01*
X-6645000Y-915000D02*
G75*
G02*
X-6705000Y-915000I-30000J0D01*
G01*
X-6705000Y-915000D02*
G75*
G02*
X-6645000Y-915000I30000J0D01*
G01*
X-6705000Y-860000D02*
X-6705000Y-970000D01*
X-6645000Y-970000D02*
G75*
G02*
X-6705000Y-970000I-30000J0D01*
G01*
X-6645000Y-970000D02*
X-6645000Y-860000D01*
X-6645000Y-860000D02*
G75*
G03*
X-6705000Y-860000I-30000J0D01*
G01*
X-5295000Y925000D02*
G75*
G02*
X-5355000Y925000I-30000J0D01*
G01*
X-5355000Y925000D02*
G75*
G02*
X-5295000Y925000I30000J0D01*
G01*
X-5355000Y980000D02*
X-5355000Y870000D01*
X-5295000Y870000D02*
G75*
G02*
X-5355000Y870000I-30000J0D01*
G01*
X-5295000Y870000D02*
X-5295000Y980000D01*
X-5295000Y980000D02*
G75*
G03*
X-5355000Y980000I-30000J0D01*
G01*
X-5295000Y-915000D02*
G75*
G02*
X-5355000Y-915000I-30000J0D01*
G01*
X-5355000Y-915000D02*
G75*
G02*
X-5295000Y-915000I30000J0D01*
G01*
X-5355000Y-860000D02*
X-5355000Y-970000D01*
X-5295000Y-970000D02*
G75*
G02*
X-5355000Y-970000I-30000J0D01*
G01*
X-5295000Y-970000D02*
X-5295000Y-860000D01*
X-5295000Y-860000D02*
G75*
G03*
X-5355000Y-860000I-30000J0D01*
G01*
X-2190000Y1244000D02*
X-2190000Y1144000D01*
X-2240000Y1194000D02*
X-2140000Y1194000D01*
X-2190000Y990000D02*
X-2190000Y890000D01*
X-2240000Y940000D02*
X-2140000Y940000D01*
X-1224000Y-5548500D02*
X-1224000Y-5648500D01*
X-1274000Y-5598500D02*
X-1174000Y-5598500D01*
X-1220000Y5650000D02*
X-1220000Y5550000D01*
X-1270000Y5600000D02*
X-1170000Y5600000D01*
X-970000Y-5548500D02*
X-970000Y-5648500D01*
X-1020000Y-5598500D02*
X-920000Y-5598500D01*
X-966000Y5650000D02*
X-966000Y5550000D01*
X-1016000Y5600000D02*
X-916000Y5600000D01*
X-716000Y-5548500D02*
X-716000Y-5648500D01*
X-766000Y-5598500D02*
X-666000Y-5598500D01*
X-712000Y5650000D02*
X-712000Y5550000D01*
X-762000Y5600000D02*
X-662000Y5600000D01*
X-244000Y-5551500D02*
X-244000Y-5651500D01*
X-294000Y-5601500D02*
X-194000Y-5601500D01*
X-105000Y5850000D02*
X-105000Y5750000D01*
X-155000Y5800000D02*
X-55000Y5800000D01*
X10000Y-5551500D02*
X10000Y-5651500D01*
X-40000Y-5601500D02*
X60000Y-5601500D01*
X149000Y5850000D02*
X149000Y5750000D01*
X99000Y5800000D02*
X199000Y5800000D01*
X264000Y-5551500D02*
X264000Y-5651500D01*
X214000Y-5601500D02*
X314000Y-5601500D01*
X620000Y2630000D02*
X620000Y2530000D01*
X570000Y2580000D02*
X670000Y2580000D01*
X712000Y5650000D02*
X712000Y5550000D01*
X662000Y5600000D02*
X762000Y5600000D01*
X716000Y-5551500D02*
X716000Y-5651500D01*
X666000Y-5601500D02*
X766000Y-5601500D01*
X966000Y5650000D02*
X966000Y5550000D01*
X916000Y5600000D02*
X1016000Y5600000D01*
X970000Y-5551500D02*
X970000Y-5651500D01*
X920000Y-5601500D02*
X1020000Y-5601500D01*
X1040000Y3690000D02*
X1040000Y3590000D01*
X990000Y3640000D02*
X1090000Y3640000D01*
X1110000Y2630000D02*
X1110000Y2530000D01*
X1060000Y2580000D02*
X1160000Y2580000D01*
X1220000Y5650000D02*
X1220000Y5550000D01*
X1170000Y5600000D02*
X1270000Y5600000D01*
X1224000Y-5551500D02*
X1224000Y-5651500D01*
X1174000Y-5601500D02*
X1274000Y-5601500D01*
X1580000Y-1510000D02*
X1580000Y-1610000D01*
X1530000Y-1560000D02*
X1630000Y-1560000D01*
X2485000Y-695000D02*
X2485000Y-795000D01*
X2435000Y-745000D02*
X2535000Y-745000D01*
X2485000Y-1105000D02*
X2485000Y-1205000D01*
X2435000Y-1155000D02*
X2535000Y-1155000D01*
X3150000Y172000D02*
X3150000Y72000D01*
X3100000Y122000D02*
X3200000Y122000D01*
X3150000Y-82000D02*
X3150000Y-182000D01*
X3100000Y-132000D02*
X3200000Y-132000D01*
X3150000Y-336000D02*
X3150000Y-436000D01*
X3100000Y-386000D02*
X3200000Y-386000D01*
X3150000Y-590000D02*
X3150000Y-690000D01*
X3100000Y-640000D02*
X3200000Y-640000D01*
X3150000Y-844000D02*
X3150000Y-944000D01*
X3100000Y-894000D02*
X3200000Y-894000D01*
X3150000Y-1098000D02*
X3150000Y-1198000D01*
X3100000Y-1148000D02*
X3200000Y-1148000D01*
X3646000Y640000D02*
X3646000Y540000D01*
X3596000Y590000D02*
X3696000Y590000D01*
X3900000Y640000D02*
X3900000Y540000D01*
X3850000Y590000D02*
X3950000Y590000D01*
X4154000Y640000D02*
X4154000Y540000D01*
X4104000Y590000D02*
X4204000Y590000D01*
X4408000Y640000D02*
X4408000Y540000D01*
X4358000Y590000D02*
X4458000Y590000D01*
X4662000Y640000D02*
X4662000Y540000D01*
X4612000Y590000D02*
X4712000Y590000D01*
D13*
X-6264540Y229540D02*
X-6264540Y420460D01*
X-6455460Y420460D01*
X-6455460Y229540D01*
X-6264540Y229540D01*
X-6264540Y-410460D02*
X-6264540Y-219540D01*
X-6455460Y-219540D01*
X-6455460Y-410460D01*
X-6264540Y-410460D01*
X-5544540Y229540D02*
X-5544540Y420460D01*
X-5735460Y420460D01*
X-5735460Y229540D01*
X-5544540Y229540D01*
X-5544540Y-410460D02*
X-5544540Y-219540D01*
X-5735460Y-219540D01*
X-5735460Y-410460D01*
X-5544540Y-410460D01*
D14*
X-4570000Y695000D02*
X-4345000Y920000D01*
X-4570000Y1145000D01*
X-4795000Y920000D01*
X-4570000Y695000D01*
X-3850000Y695000D02*
X-3625000Y920000D01*
X-3850000Y1145000D01*
X-4075000Y920000D01*
X-3850000Y695000D01*
D11*
X-6741723Y-7313984D02*
X-6741723Y-7113984D01*
X-6741723Y-7113984D02*
X-6694104Y-7113984D01*
X-6694104Y-7113984D02*
X-6665533Y-7123508D01*
X-6665533Y-7123508D02*
X-6646485Y-7142555D01*
X-6646485Y-7142555D02*
X-6636961Y-7161603D01*
X-6636961Y-7161603D02*
X-6627437Y-7199698D01*
X-6627437Y-7199698D02*
X-6627437Y-7228269D01*
X-6627437Y-7228269D02*
X-6636961Y-7266365D01*
X-6636961Y-7266365D02*
X-6646485Y-7285412D01*
X-6646485Y-7285412D02*
X-6665533Y-7304460D01*
X-6665533Y-7304460D02*
X-6694104Y-7313984D01*
X-6694104Y-7313984D02*
X-6741723Y-7313984D01*
X-6541723Y-7313984D02*
X-6541723Y-7180650D01*
X-6541723Y-7218746D02*
X-6532199Y-7199698D01*
X-6532199Y-7199698D02*
X-6522675Y-7190174D01*
X-6522675Y-7190174D02*
X-6503628Y-7180650D01*
X-6503628Y-7180650D02*
X-6484580Y-7180650D01*
X-6417914Y-7313984D02*
X-6417914Y-7180650D01*
X-6417914Y-7113984D02*
X-6427437Y-7123508D01*
X-6427437Y-7123508D02*
X-6417914Y-7133031D01*
X-6417914Y-7133031D02*
X-6408390Y-7123508D01*
X-6408390Y-7123508D02*
X-6417914Y-7113984D01*
X-6417914Y-7113984D02*
X-6417914Y-7133031D01*
X-6294104Y-7313984D02*
X-6313152Y-7304460D01*
X-6313152Y-7304460D02*
X-6322675Y-7285412D01*
X-6322675Y-7285412D02*
X-6322675Y-7113984D01*
X-6189342Y-7313984D02*
X-6208390Y-7304460D01*
X-6208390Y-7304460D02*
X-6217914Y-7285412D01*
X-6217914Y-7285412D02*
X-6217914Y-7113984D01*
X-5960771Y-7313984D02*
X-5960771Y-7113984D01*
X-5960771Y-7113984D02*
X-5894104Y-7256841D01*
X-5894104Y-7256841D02*
X-5827437Y-7113984D01*
X-5827437Y-7113984D02*
X-5827437Y-7313984D01*
X-5646485Y-7313984D02*
X-5646485Y-7209222D01*
X-5646485Y-7209222D02*
X-5656009Y-7190174D01*
X-5656009Y-7190174D02*
X-5675056Y-7180650D01*
X-5675056Y-7180650D02*
X-5713152Y-7180650D01*
X-5713152Y-7180650D02*
X-5732199Y-7190174D01*
X-5646485Y-7304460D02*
X-5665533Y-7313984D01*
X-5665533Y-7313984D02*
X-5713152Y-7313984D01*
X-5713152Y-7313984D02*
X-5732199Y-7304460D01*
X-5732199Y-7304460D02*
X-5741723Y-7285412D01*
X-5741723Y-7285412D02*
X-5741723Y-7266365D01*
X-5741723Y-7266365D02*
X-5732199Y-7247317D01*
X-5732199Y-7247317D02*
X-5713152Y-7237793D01*
X-5713152Y-7237793D02*
X-5665533Y-7237793D01*
X-5665533Y-7237793D02*
X-5646485Y-7228269D01*
X-5551247Y-7180650D02*
X-5551247Y-7380650D01*
X-5551247Y-7190174D02*
X-5532199Y-7180650D01*
X-5532199Y-7180650D02*
X-5494104Y-7180650D01*
X-5494104Y-7180650D02*
X-5475056Y-7190174D01*
X-5475056Y-7190174D02*
X-5465533Y-7199698D01*
X-5465533Y-7199698D02*
X-5456009Y-7218746D01*
X-5456009Y-7218746D02*
X-5456009Y-7275888D01*
X-5456009Y-7275888D02*
X-5465533Y-7294936D01*
X-5465533Y-7294936D02*
X-5475056Y-7304460D01*
X-5475056Y-7304460D02*
X-5494104Y-7313984D01*
X-5494104Y-7313984D02*
X-5532199Y-7313984D01*
X-5532199Y-7313984D02*
X-5551247Y-7304460D01*
X-5370295Y-7294936D02*
X-5360771Y-7304460D01*
X-5360771Y-7304460D02*
X-5370295Y-7313984D01*
X-5370295Y-7313984D02*
X-5379818Y-7304460D01*
X-5379818Y-7304460D02*
X-5370295Y-7294936D01*
X-5370295Y-7294936D02*
X-5370295Y-7313984D01*
X-5370295Y-7190174D02*
X-5360771Y-7199698D01*
X-5360771Y-7199698D02*
X-5370295Y-7209222D01*
X-5370295Y-7209222D02*
X-5379818Y-7199698D01*
X-5379818Y-7199698D02*
X-5370295Y-7190174D01*
X-5370295Y-7190174D02*
X-5370295Y-7209222D01*
D12*
X-7032500Y-7627500D02*
X-7002500Y-7657500D01*
X-7002500Y-7627500D02*
X-7032500Y-7657500D01*
D11*
X-6703628Y-7533984D02*
X-6684580Y-7533984D01*
X-6684580Y-7533984D02*
X-6665533Y-7543508D01*
X-6665533Y-7543508D02*
X-6656009Y-7553031D01*
X-6656009Y-7553031D02*
X-6646485Y-7572079D01*
X-6646485Y-7572079D02*
X-6636961Y-7610174D01*
X-6636961Y-7610174D02*
X-6636961Y-7657793D01*
X-6636961Y-7657793D02*
X-6646485Y-7695888D01*
X-6646485Y-7695888D02*
X-6656009Y-7714936D01*
X-6656009Y-7714936D02*
X-6665533Y-7724460D01*
X-6665533Y-7724460D02*
X-6684580Y-7733984D01*
X-6684580Y-7733984D02*
X-6703628Y-7733984D01*
X-6703628Y-7733984D02*
X-6722675Y-7724460D01*
X-6722675Y-7724460D02*
X-6732199Y-7714936D01*
X-6732199Y-7714936D02*
X-6741723Y-7695888D01*
X-6741723Y-7695888D02*
X-6751247Y-7657793D01*
X-6751247Y-7657793D02*
X-6751247Y-7610174D01*
X-6751247Y-7610174D02*
X-6741723Y-7572079D01*
X-6741723Y-7572079D02*
X-6732199Y-7553031D01*
X-6732199Y-7553031D02*
X-6722675Y-7543508D01*
X-6722675Y-7543508D02*
X-6703628Y-7533984D01*
X-6551247Y-7714936D02*
X-6541723Y-7724460D01*
X-6541723Y-7724460D02*
X-6551247Y-7733984D01*
X-6551247Y-7733984D02*
X-6560771Y-7724460D01*
X-6560771Y-7724460D02*
X-6551247Y-7714936D01*
X-6551247Y-7714936D02*
X-6551247Y-7733984D01*
X-6475056Y-7533984D02*
X-6351247Y-7533984D01*
X-6351247Y-7533984D02*
X-6417914Y-7610174D01*
X-6417914Y-7610174D02*
X-6389342Y-7610174D01*
X-6389342Y-7610174D02*
X-6370294Y-7619698D01*
X-6370294Y-7619698D02*
X-6360771Y-7629222D01*
X-6360771Y-7629222D02*
X-6351247Y-7648269D01*
X-6351247Y-7648269D02*
X-6351247Y-7695888D01*
X-6351247Y-7695888D02*
X-6360771Y-7714936D01*
X-6360771Y-7714936D02*
X-6370294Y-7724460D01*
X-6370294Y-7724460D02*
X-6389342Y-7733984D01*
X-6389342Y-7733984D02*
X-6446485Y-7733984D01*
X-6446485Y-7733984D02*
X-6465533Y-7724460D01*
X-6465533Y-7724460D02*
X-6475056Y-7714936D01*
X-6227437Y-7533984D02*
X-6208390Y-7533984D01*
X-6208390Y-7533984D02*
X-6189342Y-7543508D01*
X-6189342Y-7543508D02*
X-6179818Y-7553031D01*
X-6179818Y-7553031D02*
X-6170294Y-7572079D01*
X-6170294Y-7572079D02*
X-6160771Y-7610174D01*
X-6160771Y-7610174D02*
X-6160771Y-7657793D01*
X-6160771Y-7657793D02*
X-6170294Y-7695888D01*
X-6170294Y-7695888D02*
X-6179818Y-7714936D01*
X-6179818Y-7714936D02*
X-6189342Y-7724460D01*
X-6189342Y-7724460D02*
X-6208390Y-7733984D01*
X-6208390Y-7733984D02*
X-6227437Y-7733984D01*
X-6227437Y-7733984D02*
X-6246485Y-7724460D01*
X-6246485Y-7724460D02*
X-6256009Y-7714936D01*
X-6256009Y-7714936D02*
X-6265533Y-7695888D01*
X-6265533Y-7695888D02*
X-6275056Y-7657793D01*
X-6275056Y-7657793D02*
X-6275056Y-7610174D01*
X-6275056Y-7610174D02*
X-6265533Y-7572079D01*
X-6265533Y-7572079D02*
X-6256009Y-7553031D01*
X-6256009Y-7553031D02*
X-6246485Y-7543508D01*
X-6246485Y-7543508D02*
X-6227437Y-7533984D01*
X-6036961Y-7533984D02*
X-6017913Y-7533984D01*
X-6017913Y-7533984D02*
X-5998866Y-7543508D01*
X-5998866Y-7543508D02*
X-5989342Y-7553031D01*
X-5989342Y-7553031D02*
X-5979818Y-7572079D01*
X-5979818Y-7572079D02*
X-5970294Y-7610174D01*
X-5970294Y-7610174D02*
X-5970294Y-7657793D01*
X-5970294Y-7657793D02*
X-5979818Y-7695888D01*
X-5979818Y-7695888D02*
X-5989342Y-7714936D01*
X-5989342Y-7714936D02*
X-5998866Y-7724460D01*
X-5998866Y-7724460D02*
X-6017913Y-7733984D01*
X-6017913Y-7733984D02*
X-6036961Y-7733984D01*
X-6036961Y-7733984D02*
X-6056009Y-7724460D01*
X-6056009Y-7724460D02*
X-6065533Y-7714936D01*
X-6065533Y-7714936D02*
X-6075056Y-7695888D01*
X-6075056Y-7695888D02*
X-6084580Y-7657793D01*
X-6084580Y-7657793D02*
X-6084580Y-7610174D01*
X-6084580Y-7610174D02*
X-6075056Y-7572079D01*
X-6075056Y-7572079D02*
X-6065533Y-7553031D01*
X-6065533Y-7553031D02*
X-6056009Y-7543508D01*
X-6056009Y-7543508D02*
X-6036961Y-7533984D01*
X-5884580Y-7733984D02*
X-5884580Y-7600650D01*
X-5884580Y-7619698D02*
X-5875056Y-7610174D01*
X-5875056Y-7610174D02*
X-5856009Y-7600650D01*
X-5856009Y-7600650D02*
X-5827437Y-7600650D01*
X-5827437Y-7600650D02*
X-5808390Y-7610174D01*
X-5808390Y-7610174D02*
X-5798866Y-7629222D01*
X-5798866Y-7629222D02*
X-5798866Y-7733984D01*
X-5798866Y-7629222D02*
X-5789342Y-7610174D01*
X-5789342Y-7610174D02*
X-5770294Y-7600650D01*
X-5770294Y-7600650D02*
X-5741723Y-7600650D01*
X-5741723Y-7600650D02*
X-5722675Y-7610174D01*
X-5722675Y-7610174D02*
X-5713152Y-7629222D01*
X-5713152Y-7629222D02*
X-5713152Y-7733984D01*
X-5617913Y-7733984D02*
X-5617913Y-7600650D01*
X-5617913Y-7619698D02*
X-5608390Y-7610174D01*
X-5608390Y-7610174D02*
X-5589342Y-7600650D01*
X-5589342Y-7600650D02*
X-5560771Y-7600650D01*
X-5560771Y-7600650D02*
X-5541723Y-7610174D01*
X-5541723Y-7610174D02*
X-5532199Y-7629222D01*
X-5532199Y-7629222D02*
X-5532199Y-7733984D01*
X-5532199Y-7629222D02*
X-5522675Y-7610174D01*
X-5522675Y-7610174D02*
X-5503628Y-7600650D01*
X-5503628Y-7600650D02*
X-5475056Y-7600650D01*
X-5475056Y-7600650D02*
X-5456009Y-7610174D01*
X-5456009Y-7610174D02*
X-5446485Y-7629222D01*
X-5446485Y-7629222D02*
X-5446485Y-7733984D01*
X-5056009Y-7524460D02*
X-5227437Y-7781603D01*
X-4798866Y-7533984D02*
X-4779818Y-7533984D01*
X-4779818Y-7533984D02*
X-4760771Y-7543508D01*
X-4760771Y-7543508D02*
X-4751247Y-7553031D01*
X-4751247Y-7553031D02*
X-4741723Y-7572079D01*
X-4741723Y-7572079D02*
X-4732199Y-7610174D01*
X-4732199Y-7610174D02*
X-4732199Y-7657793D01*
X-4732199Y-7657793D02*
X-4741723Y-7695888D01*
X-4741723Y-7695888D02*
X-4751247Y-7714936D01*
X-4751247Y-7714936D02*
X-4760771Y-7724460D01*
X-4760771Y-7724460D02*
X-4779818Y-7733984D01*
X-4779818Y-7733984D02*
X-4798866Y-7733984D01*
X-4798866Y-7733984D02*
X-4817913Y-7724460D01*
X-4817913Y-7724460D02*
X-4827437Y-7714936D01*
X-4827437Y-7714936D02*
X-4836961Y-7695888D01*
X-4836961Y-7695888D02*
X-4846485Y-7657793D01*
X-4846485Y-7657793D02*
X-4846485Y-7610174D01*
X-4846485Y-7610174D02*
X-4836961Y-7572079D01*
X-4836961Y-7572079D02*
X-4827437Y-7553031D01*
X-4827437Y-7553031D02*
X-4817913Y-7543508D01*
X-4817913Y-7543508D02*
X-4798866Y-7533984D01*
X-4646485Y-7714936D02*
X-4636961Y-7724460D01*
X-4636961Y-7724460D02*
X-4646485Y-7733984D01*
X-4646485Y-7733984D02*
X-4656009Y-7724460D01*
X-4656009Y-7724460D02*
X-4646485Y-7714936D01*
X-4646485Y-7714936D02*
X-4646485Y-7733984D01*
X-4513152Y-7533984D02*
X-4494104Y-7533984D01*
X-4494104Y-7533984D02*
X-4475056Y-7543508D01*
X-4475056Y-7543508D02*
X-4465532Y-7553031D01*
X-4465532Y-7553031D02*
X-4456009Y-7572079D01*
X-4456009Y-7572079D02*
X-4446485Y-7610174D01*
X-4446485Y-7610174D02*
X-4446485Y-7657793D01*
X-4446485Y-7657793D02*
X-4456009Y-7695888D01*
X-4456009Y-7695888D02*
X-4465532Y-7714936D01*
X-4465532Y-7714936D02*
X-4475056Y-7724460D01*
X-4475056Y-7724460D02*
X-4494104Y-7733984D01*
X-4494104Y-7733984D02*
X-4513152Y-7733984D01*
X-4513152Y-7733984D02*
X-4532199Y-7724460D01*
X-4532199Y-7724460D02*
X-4541723Y-7714936D01*
X-4541723Y-7714936D02*
X-4551247Y-7695888D01*
X-4551247Y-7695888D02*
X-4560771Y-7657793D01*
X-4560771Y-7657793D02*
X-4560771Y-7610174D01*
X-4560771Y-7610174D02*
X-4551247Y-7572079D01*
X-4551247Y-7572079D02*
X-4541723Y-7553031D01*
X-4541723Y-7553031D02*
X-4532199Y-7543508D01*
X-4532199Y-7543508D02*
X-4513152Y-7533984D01*
X-4256009Y-7733984D02*
X-4370294Y-7733984D01*
X-4313152Y-7733984D02*
X-4313152Y-7533984D01*
X-4313152Y-7533984D02*
X-4332199Y-7562555D01*
X-4332199Y-7562555D02*
X-4351247Y-7581603D01*
X-4351247Y-7581603D02*
X-4370294Y-7591127D01*
X-4065532Y-7733984D02*
X-4179818Y-7733984D01*
X-4122675Y-7733984D02*
X-4122675Y-7533984D01*
X-4122675Y-7533984D02*
X-4141723Y-7562555D01*
X-4141723Y-7562555D02*
X-4160770Y-7581603D01*
X-4160770Y-7581603D02*
X-4179818Y-7591127D01*
X-3951247Y-7619698D02*
X-3970294Y-7610174D01*
X-3970294Y-7610174D02*
X-3979818Y-7600650D01*
X-3979818Y-7600650D02*
X-3989342Y-7581603D01*
X-3989342Y-7581603D02*
X-3989342Y-7572079D01*
X-3989342Y-7572079D02*
X-3979818Y-7553031D01*
X-3979818Y-7553031D02*
X-3970294Y-7543508D01*
X-3970294Y-7543508D02*
X-3951247Y-7533984D01*
X-3951247Y-7533984D02*
X-3913151Y-7533984D01*
X-3913151Y-7533984D02*
X-3894104Y-7543508D01*
X-3894104Y-7543508D02*
X-3884580Y-7553031D01*
X-3884580Y-7553031D02*
X-3875056Y-7572079D01*
X-3875056Y-7572079D02*
X-3875056Y-7581603D01*
X-3875056Y-7581603D02*
X-3884580Y-7600650D01*
X-3884580Y-7600650D02*
X-3894104Y-7610174D01*
X-3894104Y-7610174D02*
X-3913151Y-7619698D01*
X-3913151Y-7619698D02*
X-3951247Y-7619698D01*
X-3951247Y-7619698D02*
X-3970294Y-7629222D01*
X-3970294Y-7629222D02*
X-3979818Y-7638746D01*
X-3979818Y-7638746D02*
X-3989342Y-7657793D01*
X-3989342Y-7657793D02*
X-3989342Y-7695888D01*
X-3989342Y-7695888D02*
X-3979818Y-7714936D01*
X-3979818Y-7714936D02*
X-3970294Y-7724460D01*
X-3970294Y-7724460D02*
X-3951247Y-7733984D01*
X-3951247Y-7733984D02*
X-3913151Y-7733984D01*
X-3913151Y-7733984D02*
X-3894104Y-7724460D01*
X-3894104Y-7724460D02*
X-3884580Y-7714936D01*
X-3884580Y-7714936D02*
X-3875056Y-7695888D01*
X-3875056Y-7695888D02*
X-3875056Y-7657793D01*
X-3875056Y-7657793D02*
X-3884580Y-7638746D01*
X-3884580Y-7638746D02*
X-3894104Y-7629222D01*
X-3894104Y-7629222D02*
X-3913151Y-7619698D01*
X-3798866Y-7533984D02*
X-3798866Y-7572079D01*
X-3722675Y-7533984D02*
X-3722675Y-7572079D01*
X-3427437Y-7810174D02*
X-3436961Y-7800650D01*
X-3436961Y-7800650D02*
X-3456008Y-7772079D01*
X-3456008Y-7772079D02*
X-3465532Y-7753031D01*
X-3465532Y-7753031D02*
X-3475056Y-7724460D01*
X-3475056Y-7724460D02*
X-3484580Y-7676841D01*
X-3484580Y-7676841D02*
X-3484580Y-7638746D01*
X-3484580Y-7638746D02*
X-3475056Y-7591127D01*
X-3475056Y-7591127D02*
X-3465532Y-7562555D01*
X-3465532Y-7562555D02*
X-3456008Y-7543508D01*
X-3456008Y-7543508D02*
X-3436961Y-7514936D01*
X-3436961Y-7514936D02*
X-3427437Y-7505412D01*
X-3246485Y-7733984D02*
X-3360770Y-7733984D01*
X-3303628Y-7733984D02*
X-3303628Y-7533984D01*
X-3303628Y-7533984D02*
X-3322675Y-7562555D01*
X-3322675Y-7562555D02*
X-3341723Y-7581603D01*
X-3341723Y-7581603D02*
X-3360770Y-7591127D01*
X-3122675Y-7533984D02*
X-3103627Y-7533984D01*
X-3103627Y-7533984D02*
X-3084580Y-7543508D01*
X-3084580Y-7543508D02*
X-3075056Y-7553031D01*
X-3075056Y-7553031D02*
X-3065532Y-7572079D01*
X-3065532Y-7572079D02*
X-3056008Y-7610174D01*
X-3056008Y-7610174D02*
X-3056008Y-7657793D01*
X-3056008Y-7657793D02*
X-3065532Y-7695888D01*
X-3065532Y-7695888D02*
X-3075056Y-7714936D01*
X-3075056Y-7714936D02*
X-3084580Y-7724460D01*
X-3084580Y-7724460D02*
X-3103627Y-7733984D01*
X-3103627Y-7733984D02*
X-3122675Y-7733984D01*
X-3122675Y-7733984D02*
X-3141723Y-7724460D01*
X-3141723Y-7724460D02*
X-3151247Y-7714936D01*
X-3151247Y-7714936D02*
X-3160770Y-7695888D01*
X-3160770Y-7695888D02*
X-3170294Y-7657793D01*
X-3170294Y-7657793D02*
X-3170294Y-7610174D01*
X-3170294Y-7610174D02*
X-3160770Y-7572079D01*
X-3160770Y-7572079D02*
X-3151247Y-7553031D01*
X-3151247Y-7553031D02*
X-3141723Y-7543508D01*
X-3141723Y-7543508D02*
X-3122675Y-7533984D01*
X-2941723Y-7619698D02*
X-2960770Y-7610174D01*
X-2960770Y-7610174D02*
X-2970294Y-7600650D01*
X-2970294Y-7600650D02*
X-2979818Y-7581603D01*
X-2979818Y-7581603D02*
X-2979818Y-7572079D01*
X-2979818Y-7572079D02*
X-2970294Y-7553031D01*
X-2970294Y-7553031D02*
X-2960770Y-7543508D01*
X-2960770Y-7543508D02*
X-2941723Y-7533984D01*
X-2941723Y-7533984D02*
X-2903627Y-7533984D01*
X-2903627Y-7533984D02*
X-2884580Y-7543508D01*
X-2884580Y-7543508D02*
X-2875056Y-7553031D01*
X-2875056Y-7553031D02*
X-2865532Y-7572079D01*
X-2865532Y-7572079D02*
X-2865532Y-7581603D01*
X-2865532Y-7581603D02*
X-2875056Y-7600650D01*
X-2875056Y-7600650D02*
X-2884580Y-7610174D01*
X-2884580Y-7610174D02*
X-2903627Y-7619698D01*
X-2903627Y-7619698D02*
X-2941723Y-7619698D01*
X-2941723Y-7619698D02*
X-2960770Y-7629222D01*
X-2960770Y-7629222D02*
X-2970294Y-7638746D01*
X-2970294Y-7638746D02*
X-2979818Y-7657793D01*
X-2979818Y-7657793D02*
X-2979818Y-7695888D01*
X-2979818Y-7695888D02*
X-2970294Y-7714936D01*
X-2970294Y-7714936D02*
X-2960770Y-7724460D01*
X-2960770Y-7724460D02*
X-2941723Y-7733984D01*
X-2941723Y-7733984D02*
X-2903627Y-7733984D01*
X-2903627Y-7733984D02*
X-2884580Y-7724460D01*
X-2884580Y-7724460D02*
X-2875056Y-7714936D01*
X-2875056Y-7714936D02*
X-2865532Y-7695888D01*
X-2865532Y-7695888D02*
X-2865532Y-7657793D01*
X-2865532Y-7657793D02*
X-2875056Y-7638746D01*
X-2875056Y-7638746D02*
X-2884580Y-7629222D01*
X-2884580Y-7629222D02*
X-2903627Y-7619698D01*
X-2627437Y-7733984D02*
X-2627437Y-7533984D01*
X-2541723Y-7733984D02*
X-2541723Y-7629222D01*
X-2541723Y-7629222D02*
X-2551247Y-7610174D01*
X-2551247Y-7610174D02*
X-2570294Y-7600650D01*
X-2570294Y-7600650D02*
X-2598866Y-7600650D01*
X-2598866Y-7600650D02*
X-2617913Y-7610174D01*
X-2617913Y-7610174D02*
X-2627437Y-7619698D01*
X-2417913Y-7733984D02*
X-2436961Y-7724460D01*
X-2436961Y-7724460D02*
X-2446485Y-7714936D01*
X-2446485Y-7714936D02*
X-2456008Y-7695888D01*
X-2456008Y-7695888D02*
X-2456008Y-7638746D01*
X-2456008Y-7638746D02*
X-2446485Y-7619698D01*
X-2446485Y-7619698D02*
X-2436961Y-7610174D01*
X-2436961Y-7610174D02*
X-2417913Y-7600650D01*
X-2417913Y-7600650D02*
X-2389342Y-7600650D01*
X-2389342Y-7600650D02*
X-2370294Y-7610174D01*
X-2370294Y-7610174D02*
X-2360770Y-7619698D01*
X-2360770Y-7619698D02*
X-2351247Y-7638746D01*
X-2351247Y-7638746D02*
X-2351247Y-7695888D01*
X-2351247Y-7695888D02*
X-2360770Y-7714936D01*
X-2360770Y-7714936D02*
X-2370294Y-7724460D01*
X-2370294Y-7724460D02*
X-2389342Y-7733984D01*
X-2389342Y-7733984D02*
X-2417913Y-7733984D01*
X-2236961Y-7733984D02*
X-2256008Y-7724460D01*
X-2256008Y-7724460D02*
X-2265532Y-7705412D01*
X-2265532Y-7705412D02*
X-2265532Y-7533984D01*
X-2084580Y-7724460D02*
X-2103627Y-7733984D01*
X-2103627Y-7733984D02*
X-2141723Y-7733984D01*
X-2141723Y-7733984D02*
X-2160770Y-7724460D01*
X-2160770Y-7724460D02*
X-2170294Y-7705412D01*
X-2170294Y-7705412D02*
X-2170294Y-7629222D01*
X-2170294Y-7629222D02*
X-2160770Y-7610174D01*
X-2160770Y-7610174D02*
X-2141723Y-7600650D01*
X-2141723Y-7600650D02*
X-2103627Y-7600650D01*
X-2103627Y-7600650D02*
X-2084580Y-7610174D01*
X-2084580Y-7610174D02*
X-2075056Y-7629222D01*
X-2075056Y-7629222D02*
X-2075056Y-7648269D01*
X-2075056Y-7648269D02*
X-2170294Y-7667317D01*
X-1998865Y-7724460D02*
X-1979818Y-7733984D01*
X-1979818Y-7733984D02*
X-1941723Y-7733984D01*
X-1941723Y-7733984D02*
X-1922675Y-7724460D01*
X-1922675Y-7724460D02*
X-1913151Y-7705412D01*
X-1913151Y-7705412D02*
X-1913151Y-7695888D01*
X-1913151Y-7695888D02*
X-1922675Y-7676841D01*
X-1922675Y-7676841D02*
X-1941723Y-7667317D01*
X-1941723Y-7667317D02*
X-1970294Y-7667317D01*
X-1970294Y-7667317D02*
X-1989342Y-7657793D01*
X-1989342Y-7657793D02*
X-1998865Y-7638746D01*
X-1998865Y-7638746D02*
X-1998865Y-7629222D01*
X-1998865Y-7629222D02*
X-1989342Y-7610174D01*
X-1989342Y-7610174D02*
X-1970294Y-7600650D01*
X-1970294Y-7600650D02*
X-1941723Y-7600650D01*
X-1941723Y-7600650D02*
X-1922675Y-7610174D01*
X-1846484Y-7810174D02*
X-1836961Y-7800650D01*
X-1836961Y-7800650D02*
X-1817913Y-7772079D01*
X-1817913Y-7772079D02*
X-1808389Y-7753031D01*
X-1808389Y-7753031D02*
X-1798865Y-7724460D01*
X-1798865Y-7724460D02*
X-1789342Y-7676841D01*
X-1789342Y-7676841D02*
X-1789342Y-7638746D01*
X-1789342Y-7638746D02*
X-1798865Y-7591127D01*
X-1798865Y-7591127D02*
X-1808389Y-7562555D01*
X-1808389Y-7562555D02*
X-1817913Y-7543508D01*
X-1817913Y-7543508D02*
X-1836961Y-7514936D01*
X-1836961Y-7514936D02*
X-1846484Y-7505412D01*
D12*
X-7002500Y-7906500D02*
G75*
G02*
X-7062500Y-7906500I-30000J0D01*
G01*
X-7062500Y-7906500D02*
G75*
G02*
X-7002500Y-7906500I30000J0D01*
G01*
D11*
X-6703628Y-7797984D02*
X-6684580Y-7797984D01*
X-6684580Y-7797984D02*
X-6665533Y-7807508D01*
X-6665533Y-7807508D02*
X-6656009Y-7817031D01*
X-6656009Y-7817031D02*
X-6646485Y-7836079D01*
X-6646485Y-7836079D02*
X-6636961Y-7874174D01*
X-6636961Y-7874174D02*
X-6636961Y-7921793D01*
X-6636961Y-7921793D02*
X-6646485Y-7959888D01*
X-6646485Y-7959888D02*
X-6656009Y-7978936D01*
X-6656009Y-7978936D02*
X-6665533Y-7988460D01*
X-6665533Y-7988460D02*
X-6684580Y-7997984D01*
X-6684580Y-7997984D02*
X-6703628Y-7997984D01*
X-6703628Y-7997984D02*
X-6722675Y-7988460D01*
X-6722675Y-7988460D02*
X-6732199Y-7978936D01*
X-6732199Y-7978936D02*
X-6741723Y-7959888D01*
X-6741723Y-7959888D02*
X-6751247Y-7921793D01*
X-6751247Y-7921793D02*
X-6751247Y-7874174D01*
X-6751247Y-7874174D02*
X-6741723Y-7836079D01*
X-6741723Y-7836079D02*
X-6732199Y-7817031D01*
X-6732199Y-7817031D02*
X-6722675Y-7807508D01*
X-6722675Y-7807508D02*
X-6703628Y-7797984D01*
X-6551247Y-7978936D02*
X-6541723Y-7988460D01*
X-6541723Y-7988460D02*
X-6551247Y-7997984D01*
X-6551247Y-7997984D02*
X-6560771Y-7988460D01*
X-6560771Y-7988460D02*
X-6551247Y-7978936D01*
X-6551247Y-7978936D02*
X-6551247Y-7997984D01*
X-6370294Y-7797984D02*
X-6408390Y-7797984D01*
X-6408390Y-7797984D02*
X-6427437Y-7807508D01*
X-6427437Y-7807508D02*
X-6436961Y-7817031D01*
X-6436961Y-7817031D02*
X-6456009Y-7845603D01*
X-6456009Y-7845603D02*
X-6465533Y-7883698D01*
X-6465533Y-7883698D02*
X-6465533Y-7959888D01*
X-6465533Y-7959888D02*
X-6456009Y-7978936D01*
X-6456009Y-7978936D02*
X-6446485Y-7988460D01*
X-6446485Y-7988460D02*
X-6427437Y-7997984D01*
X-6427437Y-7997984D02*
X-6389342Y-7997984D01*
X-6389342Y-7997984D02*
X-6370294Y-7988460D01*
X-6370294Y-7988460D02*
X-6360771Y-7978936D01*
X-6360771Y-7978936D02*
X-6351247Y-7959888D01*
X-6351247Y-7959888D02*
X-6351247Y-7912269D01*
X-6351247Y-7912269D02*
X-6360771Y-7893222D01*
X-6360771Y-7893222D02*
X-6370294Y-7883698D01*
X-6370294Y-7883698D02*
X-6389342Y-7874174D01*
X-6389342Y-7874174D02*
X-6427437Y-7874174D01*
X-6427437Y-7874174D02*
X-6446485Y-7883698D01*
X-6446485Y-7883698D02*
X-6456009Y-7893222D01*
X-6456009Y-7893222D02*
X-6465533Y-7912269D01*
X-6227437Y-7797984D02*
X-6208390Y-7797984D01*
X-6208390Y-7797984D02*
X-6189342Y-7807508D01*
X-6189342Y-7807508D02*
X-6179818Y-7817031D01*
X-6179818Y-7817031D02*
X-6170294Y-7836079D01*
X-6170294Y-7836079D02*
X-6160771Y-7874174D01*
X-6160771Y-7874174D02*
X-6160771Y-7921793D01*
X-6160771Y-7921793D02*
X-6170294Y-7959888D01*
X-6170294Y-7959888D02*
X-6179818Y-7978936D01*
X-6179818Y-7978936D02*
X-6189342Y-7988460D01*
X-6189342Y-7988460D02*
X-6208390Y-7997984D01*
X-6208390Y-7997984D02*
X-6227437Y-7997984D01*
X-6227437Y-7997984D02*
X-6246485Y-7988460D01*
X-6246485Y-7988460D02*
X-6256009Y-7978936D01*
X-6256009Y-7978936D02*
X-6265533Y-7959888D01*
X-6265533Y-7959888D02*
X-6275056Y-7921793D01*
X-6275056Y-7921793D02*
X-6275056Y-7874174D01*
X-6275056Y-7874174D02*
X-6265533Y-7836079D01*
X-6265533Y-7836079D02*
X-6256009Y-7817031D01*
X-6256009Y-7817031D02*
X-6246485Y-7807508D01*
X-6246485Y-7807508D02*
X-6227437Y-7797984D01*
X-6036961Y-7797984D02*
X-6017913Y-7797984D01*
X-6017913Y-7797984D02*
X-5998866Y-7807508D01*
X-5998866Y-7807508D02*
X-5989342Y-7817031D01*
X-5989342Y-7817031D02*
X-5979818Y-7836079D01*
X-5979818Y-7836079D02*
X-5970294Y-7874174D01*
X-5970294Y-7874174D02*
X-5970294Y-7921793D01*
X-5970294Y-7921793D02*
X-5979818Y-7959888D01*
X-5979818Y-7959888D02*
X-5989342Y-7978936D01*
X-5989342Y-7978936D02*
X-5998866Y-7988460D01*
X-5998866Y-7988460D02*
X-6017913Y-7997984D01*
X-6017913Y-7997984D02*
X-6036961Y-7997984D01*
X-6036961Y-7997984D02*
X-6056009Y-7988460D01*
X-6056009Y-7988460D02*
X-6065533Y-7978936D01*
X-6065533Y-7978936D02*
X-6075056Y-7959888D01*
X-6075056Y-7959888D02*
X-6084580Y-7921793D01*
X-6084580Y-7921793D02*
X-6084580Y-7874174D01*
X-6084580Y-7874174D02*
X-6075056Y-7836079D01*
X-6075056Y-7836079D02*
X-6065533Y-7817031D01*
X-6065533Y-7817031D02*
X-6056009Y-7807508D01*
X-6056009Y-7807508D02*
X-6036961Y-7797984D01*
X-5884580Y-7997984D02*
X-5884580Y-7864650D01*
X-5884580Y-7883698D02*
X-5875056Y-7874174D01*
X-5875056Y-7874174D02*
X-5856009Y-7864650D01*
X-5856009Y-7864650D02*
X-5827437Y-7864650D01*
X-5827437Y-7864650D02*
X-5808390Y-7874174D01*
X-5808390Y-7874174D02*
X-5798866Y-7893222D01*
X-5798866Y-7893222D02*
X-5798866Y-7997984D01*
X-5798866Y-7893222D02*
X-5789342Y-7874174D01*
X-5789342Y-7874174D02*
X-5770294Y-7864650D01*
X-5770294Y-7864650D02*
X-5741723Y-7864650D01*
X-5741723Y-7864650D02*
X-5722675Y-7874174D01*
X-5722675Y-7874174D02*
X-5713152Y-7893222D01*
X-5713152Y-7893222D02*
X-5713152Y-7997984D01*
X-5617913Y-7997984D02*
X-5617913Y-7864650D01*
X-5617913Y-7883698D02*
X-5608390Y-7874174D01*
X-5608390Y-7874174D02*
X-5589342Y-7864650D01*
X-5589342Y-7864650D02*
X-5560771Y-7864650D01*
X-5560771Y-7864650D02*
X-5541723Y-7874174D01*
X-5541723Y-7874174D02*
X-5532199Y-7893222D01*
X-5532199Y-7893222D02*
X-5532199Y-7997984D01*
X-5532199Y-7893222D02*
X-5522675Y-7874174D01*
X-5522675Y-7874174D02*
X-5503628Y-7864650D01*
X-5503628Y-7864650D02*
X-5475056Y-7864650D01*
X-5475056Y-7864650D02*
X-5456009Y-7874174D01*
X-5456009Y-7874174D02*
X-5446485Y-7893222D01*
X-5446485Y-7893222D02*
X-5446485Y-7997984D01*
X-5056009Y-7788460D02*
X-5227437Y-8045603D01*
X-4798866Y-7797984D02*
X-4779818Y-7797984D01*
X-4779818Y-7797984D02*
X-4760771Y-7807508D01*
X-4760771Y-7807508D02*
X-4751247Y-7817031D01*
X-4751247Y-7817031D02*
X-4741723Y-7836079D01*
X-4741723Y-7836079D02*
X-4732199Y-7874174D01*
X-4732199Y-7874174D02*
X-4732199Y-7921793D01*
X-4732199Y-7921793D02*
X-4741723Y-7959888D01*
X-4741723Y-7959888D02*
X-4751247Y-7978936D01*
X-4751247Y-7978936D02*
X-4760771Y-7988460D01*
X-4760771Y-7988460D02*
X-4779818Y-7997984D01*
X-4779818Y-7997984D02*
X-4798866Y-7997984D01*
X-4798866Y-7997984D02*
X-4817913Y-7988460D01*
X-4817913Y-7988460D02*
X-4827437Y-7978936D01*
X-4827437Y-7978936D02*
X-4836961Y-7959888D01*
X-4836961Y-7959888D02*
X-4846485Y-7921793D01*
X-4846485Y-7921793D02*
X-4846485Y-7874174D01*
X-4846485Y-7874174D02*
X-4836961Y-7836079D01*
X-4836961Y-7836079D02*
X-4827437Y-7817031D01*
X-4827437Y-7817031D02*
X-4817913Y-7807508D01*
X-4817913Y-7807508D02*
X-4798866Y-7797984D01*
X-4646485Y-7978936D02*
X-4636961Y-7988460D01*
X-4636961Y-7988460D02*
X-4646485Y-7997984D01*
X-4646485Y-7997984D02*
X-4656009Y-7988460D01*
X-4656009Y-7988460D02*
X-4646485Y-7978936D01*
X-4646485Y-7978936D02*
X-4646485Y-7997984D01*
X-4513152Y-7797984D02*
X-4494104Y-7797984D01*
X-4494104Y-7797984D02*
X-4475056Y-7807508D01*
X-4475056Y-7807508D02*
X-4465532Y-7817031D01*
X-4465532Y-7817031D02*
X-4456009Y-7836079D01*
X-4456009Y-7836079D02*
X-4446485Y-7874174D01*
X-4446485Y-7874174D02*
X-4446485Y-7921793D01*
X-4446485Y-7921793D02*
X-4456009Y-7959888D01*
X-4456009Y-7959888D02*
X-4465532Y-7978936D01*
X-4465532Y-7978936D02*
X-4475056Y-7988460D01*
X-4475056Y-7988460D02*
X-4494104Y-7997984D01*
X-4494104Y-7997984D02*
X-4513152Y-7997984D01*
X-4513152Y-7997984D02*
X-4532199Y-7988460D01*
X-4532199Y-7988460D02*
X-4541723Y-7978936D01*
X-4541723Y-7978936D02*
X-4551247Y-7959888D01*
X-4551247Y-7959888D02*
X-4560771Y-7921793D01*
X-4560771Y-7921793D02*
X-4560771Y-7874174D01*
X-4560771Y-7874174D02*
X-4551247Y-7836079D01*
X-4551247Y-7836079D02*
X-4541723Y-7817031D01*
X-4541723Y-7817031D02*
X-4532199Y-7807508D01*
X-4532199Y-7807508D02*
X-4513152Y-7797984D01*
X-4370294Y-7817031D02*
X-4360771Y-7807508D01*
X-4360771Y-7807508D02*
X-4341723Y-7797984D01*
X-4341723Y-7797984D02*
X-4294104Y-7797984D01*
X-4294104Y-7797984D02*
X-4275056Y-7807508D01*
X-4275056Y-7807508D02*
X-4265532Y-7817031D01*
X-4265532Y-7817031D02*
X-4256009Y-7836079D01*
X-4256009Y-7836079D02*
X-4256009Y-7855127D01*
X-4256009Y-7855127D02*
X-4265532Y-7883698D01*
X-4265532Y-7883698D02*
X-4379818Y-7997984D01*
X-4379818Y-7997984D02*
X-4256009Y-7997984D01*
X-4189342Y-7797984D02*
X-4065532Y-7797984D01*
X-4065532Y-7797984D02*
X-4132199Y-7874174D01*
X-4132199Y-7874174D02*
X-4103628Y-7874174D01*
X-4103628Y-7874174D02*
X-4084580Y-7883698D01*
X-4084580Y-7883698D02*
X-4075056Y-7893222D01*
X-4075056Y-7893222D02*
X-4065532Y-7912269D01*
X-4065532Y-7912269D02*
X-4065532Y-7959888D01*
X-4065532Y-7959888D02*
X-4075056Y-7978936D01*
X-4075056Y-7978936D02*
X-4084580Y-7988460D01*
X-4084580Y-7988460D02*
X-4103628Y-7997984D01*
X-4103628Y-7997984D02*
X-4160770Y-7997984D01*
X-4160770Y-7997984D02*
X-4179818Y-7988460D01*
X-4179818Y-7988460D02*
X-4189342Y-7978936D01*
X-3894104Y-7797984D02*
X-3932199Y-7797984D01*
X-3932199Y-7797984D02*
X-3951247Y-7807508D01*
X-3951247Y-7807508D02*
X-3960770Y-7817031D01*
X-3960770Y-7817031D02*
X-3979818Y-7845603D01*
X-3979818Y-7845603D02*
X-3989342Y-7883698D01*
X-3989342Y-7883698D02*
X-3989342Y-7959888D01*
X-3989342Y-7959888D02*
X-3979818Y-7978936D01*
X-3979818Y-7978936D02*
X-3970294Y-7988460D01*
X-3970294Y-7988460D02*
X-3951247Y-7997984D01*
X-3951247Y-7997984D02*
X-3913151Y-7997984D01*
X-3913151Y-7997984D02*
X-3894104Y-7988460D01*
X-3894104Y-7988460D02*
X-3884580Y-7978936D01*
X-3884580Y-7978936D02*
X-3875056Y-7959888D01*
X-3875056Y-7959888D02*
X-3875056Y-7912269D01*
X-3875056Y-7912269D02*
X-3884580Y-7893222D01*
X-3884580Y-7893222D02*
X-3894104Y-7883698D01*
X-3894104Y-7883698D02*
X-3913151Y-7874174D01*
X-3913151Y-7874174D02*
X-3951247Y-7874174D01*
X-3951247Y-7874174D02*
X-3970294Y-7883698D01*
X-3970294Y-7883698D02*
X-3979818Y-7893222D01*
X-3979818Y-7893222D02*
X-3989342Y-7912269D01*
X-3798866Y-7797984D02*
X-3798866Y-7836079D01*
X-3722675Y-7797984D02*
X-3722675Y-7836079D01*
X-3427437Y-8074174D02*
X-3436961Y-8064650D01*
X-3436961Y-8064650D02*
X-3456008Y-8036079D01*
X-3456008Y-8036079D02*
X-3465532Y-8017031D01*
X-3465532Y-8017031D02*
X-3475056Y-7988460D01*
X-3475056Y-7988460D02*
X-3484580Y-7940841D01*
X-3484580Y-7940841D02*
X-3484580Y-7902746D01*
X-3484580Y-7902746D02*
X-3475056Y-7855127D01*
X-3475056Y-7855127D02*
X-3465532Y-7826555D01*
X-3465532Y-7826555D02*
X-3456008Y-7807508D01*
X-3456008Y-7807508D02*
X-3436961Y-7778936D01*
X-3436961Y-7778936D02*
X-3427437Y-7769412D01*
X-3313151Y-7797984D02*
X-3294104Y-7797984D01*
X-3294104Y-7797984D02*
X-3275056Y-7807508D01*
X-3275056Y-7807508D02*
X-3265532Y-7817031D01*
X-3265532Y-7817031D02*
X-3256008Y-7836079D01*
X-3256008Y-7836079D02*
X-3246485Y-7874174D01*
X-3246485Y-7874174D02*
X-3246485Y-7921793D01*
X-3246485Y-7921793D02*
X-3256008Y-7959888D01*
X-3256008Y-7959888D02*
X-3265532Y-7978936D01*
X-3265532Y-7978936D02*
X-3275056Y-7988460D01*
X-3275056Y-7988460D02*
X-3294104Y-7997984D01*
X-3294104Y-7997984D02*
X-3313151Y-7997984D01*
X-3313151Y-7997984D02*
X-3332199Y-7988460D01*
X-3332199Y-7988460D02*
X-3341723Y-7978936D01*
X-3341723Y-7978936D02*
X-3351247Y-7959888D01*
X-3351247Y-7959888D02*
X-3360770Y-7921793D01*
X-3360770Y-7921793D02*
X-3360770Y-7874174D01*
X-3360770Y-7874174D02*
X-3351247Y-7836079D01*
X-3351247Y-7836079D02*
X-3341723Y-7817031D01*
X-3341723Y-7817031D02*
X-3332199Y-7807508D01*
X-3332199Y-7807508D02*
X-3313151Y-7797984D01*
X-3008389Y-7997984D02*
X-3008389Y-7797984D01*
X-2922675Y-7997984D02*
X-2922675Y-7893222D01*
X-2922675Y-7893222D02*
X-2932199Y-7874174D01*
X-2932199Y-7874174D02*
X-2951246Y-7864650D01*
X-2951246Y-7864650D02*
X-2979818Y-7864650D01*
X-2979818Y-7864650D02*
X-2998866Y-7874174D01*
X-2998866Y-7874174D02*
X-3008389Y-7883698D01*
X-2798866Y-7997984D02*
X-2817913Y-7988460D01*
X-2817913Y-7988460D02*
X-2827437Y-7978936D01*
X-2827437Y-7978936D02*
X-2836961Y-7959888D01*
X-2836961Y-7959888D02*
X-2836961Y-7902746D01*
X-2836961Y-7902746D02*
X-2827437Y-7883698D01*
X-2827437Y-7883698D02*
X-2817913Y-7874174D01*
X-2817913Y-7874174D02*
X-2798866Y-7864650D01*
X-2798866Y-7864650D02*
X-2770294Y-7864650D01*
X-2770294Y-7864650D02*
X-2751247Y-7874174D01*
X-2751247Y-7874174D02*
X-2741723Y-7883698D01*
X-2741723Y-7883698D02*
X-2732199Y-7902746D01*
X-2732199Y-7902746D02*
X-2732199Y-7959888D01*
X-2732199Y-7959888D02*
X-2741723Y-7978936D01*
X-2741723Y-7978936D02*
X-2751247Y-7988460D01*
X-2751247Y-7988460D02*
X-2770294Y-7997984D01*
X-2770294Y-7997984D02*
X-2798866Y-7997984D01*
X-2617913Y-7997984D02*
X-2636961Y-7988460D01*
X-2636961Y-7988460D02*
X-2646485Y-7969412D01*
X-2646485Y-7969412D02*
X-2646485Y-7797984D01*
X-2465532Y-7988460D02*
X-2484580Y-7997984D01*
X-2484580Y-7997984D02*
X-2522675Y-7997984D01*
X-2522675Y-7997984D02*
X-2541723Y-7988460D01*
X-2541723Y-7988460D02*
X-2551247Y-7969412D01*
X-2551247Y-7969412D02*
X-2551247Y-7893222D01*
X-2551247Y-7893222D02*
X-2541723Y-7874174D01*
X-2541723Y-7874174D02*
X-2522675Y-7864650D01*
X-2522675Y-7864650D02*
X-2484580Y-7864650D01*
X-2484580Y-7864650D02*
X-2465532Y-7874174D01*
X-2465532Y-7874174D02*
X-2456008Y-7893222D01*
X-2456008Y-7893222D02*
X-2456008Y-7912269D01*
X-2456008Y-7912269D02*
X-2551247Y-7931317D01*
X-2379818Y-7988460D02*
X-2360770Y-7997984D01*
X-2360770Y-7997984D02*
X-2322675Y-7997984D01*
X-2322675Y-7997984D02*
X-2303627Y-7988460D01*
X-2303627Y-7988460D02*
X-2294104Y-7969412D01*
X-2294104Y-7969412D02*
X-2294104Y-7959888D01*
X-2294104Y-7959888D02*
X-2303627Y-7940841D01*
X-2303627Y-7940841D02*
X-2322675Y-7931317D01*
X-2322675Y-7931317D02*
X-2351247Y-7931317D01*
X-2351247Y-7931317D02*
X-2370294Y-7921793D01*
X-2370294Y-7921793D02*
X-2379818Y-7902746D01*
X-2379818Y-7902746D02*
X-2379818Y-7893222D01*
X-2379818Y-7893222D02*
X-2370294Y-7874174D01*
X-2370294Y-7874174D02*
X-2351247Y-7864650D01*
X-2351247Y-7864650D02*
X-2322675Y-7864650D01*
X-2322675Y-7864650D02*
X-2303627Y-7874174D01*
X-2056008Y-7921793D02*
X-1903627Y-7921793D01*
X-1979818Y-7997984D02*
X-1979818Y-7845603D01*
X-1570294Y-7864650D02*
X-1570294Y-7997984D01*
X-1617913Y-7788460D02*
X-1665532Y-7931317D01*
X-1665532Y-7931317D02*
X-1541723Y-7931317D01*
X-1322675Y-7988460D02*
X-1303627Y-7997984D01*
X-1303627Y-7997984D02*
X-1265532Y-7997984D01*
X-1265532Y-7997984D02*
X-1246484Y-7988460D01*
X-1246484Y-7988460D02*
X-1236961Y-7969412D01*
X-1236961Y-7969412D02*
X-1236961Y-7959888D01*
X-1236961Y-7959888D02*
X-1246484Y-7940841D01*
X-1246484Y-7940841D02*
X-1265532Y-7931317D01*
X-1265532Y-7931317D02*
X-1294104Y-7931317D01*
X-1294104Y-7931317D02*
X-1313151Y-7921793D01*
X-1313151Y-7921793D02*
X-1322675Y-7902746D01*
X-1322675Y-7902746D02*
X-1322675Y-7893222D01*
X-1322675Y-7893222D02*
X-1313151Y-7874174D01*
X-1313151Y-7874174D02*
X-1294104Y-7864650D01*
X-1294104Y-7864650D02*
X-1265532Y-7864650D01*
X-1265532Y-7864650D02*
X-1246484Y-7874174D01*
X-1122675Y-7997984D02*
X-1141723Y-7988460D01*
X-1141723Y-7988460D02*
X-1151246Y-7969412D01*
X-1151246Y-7969412D02*
X-1151246Y-7797984D01*
X-1017913Y-7997984D02*
X-1036961Y-7988460D01*
X-1036961Y-7988460D02*
X-1046484Y-7978936D01*
X-1046484Y-7978936D02*
X-1056008Y-7959888D01*
X-1056008Y-7959888D02*
X-1056008Y-7902746D01*
X-1056008Y-7902746D02*
X-1046484Y-7883698D01*
X-1046484Y-7883698D02*
X-1036961Y-7874174D01*
X-1036961Y-7874174D02*
X-1017913Y-7864650D01*
X-1017913Y-7864650D02*
X-989341Y-7864650D01*
X-989341Y-7864650D02*
X-970294Y-7874174D01*
X-970294Y-7874174D02*
X-960770Y-7883698D01*
X-960770Y-7883698D02*
X-951246Y-7902746D01*
X-951246Y-7902746D02*
X-951246Y-7959888D01*
X-951246Y-7959888D02*
X-960770Y-7978936D01*
X-960770Y-7978936D02*
X-970294Y-7988460D01*
X-970294Y-7988460D02*
X-989341Y-7997984D01*
X-989341Y-7997984D02*
X-1017913Y-7997984D01*
X-894103Y-7864650D02*
X-817913Y-7864650D01*
X-865532Y-7797984D02*
X-865532Y-7969412D01*
X-865532Y-7969412D02*
X-856008Y-7988460D01*
X-856008Y-7988460D02*
X-836961Y-7997984D01*
X-836961Y-7997984D02*
X-817913Y-7997984D01*
X-760770Y-7988460D02*
X-741722Y-7997984D01*
X-741722Y-7997984D02*
X-703627Y-7997984D01*
X-703627Y-7997984D02*
X-684580Y-7988460D01*
X-684580Y-7988460D02*
X-675056Y-7969412D01*
X-675056Y-7969412D02*
X-675056Y-7959888D01*
X-675056Y-7959888D02*
X-684580Y-7940841D01*
X-684580Y-7940841D02*
X-703627Y-7931317D01*
X-703627Y-7931317D02*
X-732199Y-7931317D01*
X-732199Y-7931317D02*
X-751246Y-7921793D01*
X-751246Y-7921793D02*
X-760770Y-7902746D01*
X-760770Y-7902746D02*
X-760770Y-7893222D01*
X-760770Y-7893222D02*
X-751246Y-7874174D01*
X-751246Y-7874174D02*
X-732199Y-7864650D01*
X-732199Y-7864650D02*
X-703627Y-7864650D01*
X-703627Y-7864650D02*
X-684580Y-7874174D01*
X-608389Y-8074174D02*
X-598865Y-8064650D01*
X-598865Y-8064650D02*
X-579818Y-8036079D01*
X-579818Y-8036079D02*
X-570294Y-8017031D01*
X-570294Y-8017031D02*
X-560770Y-7988460D01*
X-560770Y-7988460D02*
X-551246Y-7940841D01*
X-551246Y-7940841D02*
X-551246Y-7902746D01*
X-551246Y-7902746D02*
X-560770Y-7855127D01*
X-560770Y-7855127D02*
X-570294Y-7826555D01*
X-570294Y-7826555D02*
X-579818Y-7807508D01*
X-579818Y-7807508D02*
X-598865Y-7778936D01*
X-598865Y-7778936D02*
X-608389Y-7769412D01*
D12*
X-7052500Y-8120500D02*
X-7052500Y-8220500D01*
X-7102500Y-8170500D02*
X-7002500Y-8170500D01*
D11*
X-6636961Y-8261984D02*
X-6751247Y-8261984D01*
X-6694104Y-8261984D02*
X-6694104Y-8061984D01*
X-6694104Y-8061984D02*
X-6713152Y-8090555D01*
X-6713152Y-8090555D02*
X-6732199Y-8109603D01*
X-6732199Y-8109603D02*
X-6751247Y-8119127D01*
X-6551247Y-8242936D02*
X-6541723Y-8252460D01*
X-6541723Y-8252460D02*
X-6551247Y-8261984D01*
X-6551247Y-8261984D02*
X-6560771Y-8252460D01*
X-6560771Y-8252460D02*
X-6551247Y-8242936D01*
X-6551247Y-8242936D02*
X-6551247Y-8261984D01*
X-6417914Y-8061984D02*
X-6398866Y-8061984D01*
X-6398866Y-8061984D02*
X-6379818Y-8071508D01*
X-6379818Y-8071508D02*
X-6370294Y-8081031D01*
X-6370294Y-8081031D02*
X-6360771Y-8100079D01*
X-6360771Y-8100079D02*
X-6351247Y-8138174D01*
X-6351247Y-8138174D02*
X-6351247Y-8185793D01*
X-6351247Y-8185793D02*
X-6360771Y-8223888D01*
X-6360771Y-8223888D02*
X-6370294Y-8242936D01*
X-6370294Y-8242936D02*
X-6379818Y-8252460D01*
X-6379818Y-8252460D02*
X-6398866Y-8261984D01*
X-6398866Y-8261984D02*
X-6417914Y-8261984D01*
X-6417914Y-8261984D02*
X-6436961Y-8252460D01*
X-6436961Y-8252460D02*
X-6446485Y-8242936D01*
X-6446485Y-8242936D02*
X-6456009Y-8223888D01*
X-6456009Y-8223888D02*
X-6465533Y-8185793D01*
X-6465533Y-8185793D02*
X-6465533Y-8138174D01*
X-6465533Y-8138174D02*
X-6456009Y-8100079D01*
X-6456009Y-8100079D02*
X-6446485Y-8081031D01*
X-6446485Y-8081031D02*
X-6436961Y-8071508D01*
X-6436961Y-8071508D02*
X-6417914Y-8061984D01*
X-6227437Y-8061984D02*
X-6208390Y-8061984D01*
X-6208390Y-8061984D02*
X-6189342Y-8071508D01*
X-6189342Y-8071508D02*
X-6179818Y-8081031D01*
X-6179818Y-8081031D02*
X-6170294Y-8100079D01*
X-6170294Y-8100079D02*
X-6160771Y-8138174D01*
X-6160771Y-8138174D02*
X-6160771Y-8185793D01*
X-6160771Y-8185793D02*
X-6170294Y-8223888D01*
X-6170294Y-8223888D02*
X-6179818Y-8242936D01*
X-6179818Y-8242936D02*
X-6189342Y-8252460D01*
X-6189342Y-8252460D02*
X-6208390Y-8261984D01*
X-6208390Y-8261984D02*
X-6227437Y-8261984D01*
X-6227437Y-8261984D02*
X-6246485Y-8252460D01*
X-6246485Y-8252460D02*
X-6256009Y-8242936D01*
X-6256009Y-8242936D02*
X-6265533Y-8223888D01*
X-6265533Y-8223888D02*
X-6275056Y-8185793D01*
X-6275056Y-8185793D02*
X-6275056Y-8138174D01*
X-6275056Y-8138174D02*
X-6265533Y-8100079D01*
X-6265533Y-8100079D02*
X-6256009Y-8081031D01*
X-6256009Y-8081031D02*
X-6246485Y-8071508D01*
X-6246485Y-8071508D02*
X-6227437Y-8061984D01*
X-6036961Y-8061984D02*
X-6017913Y-8061984D01*
X-6017913Y-8061984D02*
X-5998866Y-8071508D01*
X-5998866Y-8071508D02*
X-5989342Y-8081031D01*
X-5989342Y-8081031D02*
X-5979818Y-8100079D01*
X-5979818Y-8100079D02*
X-5970294Y-8138174D01*
X-5970294Y-8138174D02*
X-5970294Y-8185793D01*
X-5970294Y-8185793D02*
X-5979818Y-8223888D01*
X-5979818Y-8223888D02*
X-5989342Y-8242936D01*
X-5989342Y-8242936D02*
X-5998866Y-8252460D01*
X-5998866Y-8252460D02*
X-6017913Y-8261984D01*
X-6017913Y-8261984D02*
X-6036961Y-8261984D01*
X-6036961Y-8261984D02*
X-6056009Y-8252460D01*
X-6056009Y-8252460D02*
X-6065533Y-8242936D01*
X-6065533Y-8242936D02*
X-6075056Y-8223888D01*
X-6075056Y-8223888D02*
X-6084580Y-8185793D01*
X-6084580Y-8185793D02*
X-6084580Y-8138174D01*
X-6084580Y-8138174D02*
X-6075056Y-8100079D01*
X-6075056Y-8100079D02*
X-6065533Y-8081031D01*
X-6065533Y-8081031D02*
X-6056009Y-8071508D01*
X-6056009Y-8071508D02*
X-6036961Y-8061984D01*
X-5884580Y-8261984D02*
X-5884580Y-8128650D01*
X-5884580Y-8147698D02*
X-5875056Y-8138174D01*
X-5875056Y-8138174D02*
X-5856009Y-8128650D01*
X-5856009Y-8128650D02*
X-5827437Y-8128650D01*
X-5827437Y-8128650D02*
X-5808390Y-8138174D01*
X-5808390Y-8138174D02*
X-5798866Y-8157222D01*
X-5798866Y-8157222D02*
X-5798866Y-8261984D01*
X-5798866Y-8157222D02*
X-5789342Y-8138174D01*
X-5789342Y-8138174D02*
X-5770294Y-8128650D01*
X-5770294Y-8128650D02*
X-5741723Y-8128650D01*
X-5741723Y-8128650D02*
X-5722675Y-8138174D01*
X-5722675Y-8138174D02*
X-5713152Y-8157222D01*
X-5713152Y-8157222D02*
X-5713152Y-8261984D01*
X-5617913Y-8261984D02*
X-5617913Y-8128650D01*
X-5617913Y-8147698D02*
X-5608390Y-8138174D01*
X-5608390Y-8138174D02*
X-5589342Y-8128650D01*
X-5589342Y-8128650D02*
X-5560771Y-8128650D01*
X-5560771Y-8128650D02*
X-5541723Y-8138174D01*
X-5541723Y-8138174D02*
X-5532199Y-8157222D01*
X-5532199Y-8157222D02*
X-5532199Y-8261984D01*
X-5532199Y-8157222D02*
X-5522675Y-8138174D01*
X-5522675Y-8138174D02*
X-5503628Y-8128650D01*
X-5503628Y-8128650D02*
X-5475056Y-8128650D01*
X-5475056Y-8128650D02*
X-5456009Y-8138174D01*
X-5456009Y-8138174D02*
X-5446485Y-8157222D01*
X-5446485Y-8157222D02*
X-5446485Y-8261984D01*
X-5056009Y-8052460D02*
X-5227437Y-8309603D01*
X-4798866Y-8061984D02*
X-4779818Y-8061984D01*
X-4779818Y-8061984D02*
X-4760771Y-8071508D01*
X-4760771Y-8071508D02*
X-4751247Y-8081031D01*
X-4751247Y-8081031D02*
X-4741723Y-8100079D01*
X-4741723Y-8100079D02*
X-4732199Y-8138174D01*
X-4732199Y-8138174D02*
X-4732199Y-8185793D01*
X-4732199Y-8185793D02*
X-4741723Y-8223888D01*
X-4741723Y-8223888D02*
X-4751247Y-8242936D01*
X-4751247Y-8242936D02*
X-4760771Y-8252460D01*
X-4760771Y-8252460D02*
X-4779818Y-8261984D01*
X-4779818Y-8261984D02*
X-4798866Y-8261984D01*
X-4798866Y-8261984D02*
X-4817913Y-8252460D01*
X-4817913Y-8252460D02*
X-4827437Y-8242936D01*
X-4827437Y-8242936D02*
X-4836961Y-8223888D01*
X-4836961Y-8223888D02*
X-4846485Y-8185793D01*
X-4846485Y-8185793D02*
X-4846485Y-8138174D01*
X-4846485Y-8138174D02*
X-4836961Y-8100079D01*
X-4836961Y-8100079D02*
X-4827437Y-8081031D01*
X-4827437Y-8081031D02*
X-4817913Y-8071508D01*
X-4817913Y-8071508D02*
X-4798866Y-8061984D01*
X-4646485Y-8242936D02*
X-4636961Y-8252460D01*
X-4636961Y-8252460D02*
X-4646485Y-8261984D01*
X-4646485Y-8261984D02*
X-4656009Y-8252460D01*
X-4656009Y-8252460D02*
X-4646485Y-8242936D01*
X-4646485Y-8242936D02*
X-4646485Y-8261984D01*
X-4513152Y-8061984D02*
X-4494104Y-8061984D01*
X-4494104Y-8061984D02*
X-4475056Y-8071508D01*
X-4475056Y-8071508D02*
X-4465532Y-8081031D01*
X-4465532Y-8081031D02*
X-4456009Y-8100079D01*
X-4456009Y-8100079D02*
X-4446485Y-8138174D01*
X-4446485Y-8138174D02*
X-4446485Y-8185793D01*
X-4446485Y-8185793D02*
X-4456009Y-8223888D01*
X-4456009Y-8223888D02*
X-4465532Y-8242936D01*
X-4465532Y-8242936D02*
X-4475056Y-8252460D01*
X-4475056Y-8252460D02*
X-4494104Y-8261984D01*
X-4494104Y-8261984D02*
X-4513152Y-8261984D01*
X-4513152Y-8261984D02*
X-4532199Y-8252460D01*
X-4532199Y-8252460D02*
X-4541723Y-8242936D01*
X-4541723Y-8242936D02*
X-4551247Y-8223888D01*
X-4551247Y-8223888D02*
X-4560771Y-8185793D01*
X-4560771Y-8185793D02*
X-4560771Y-8138174D01*
X-4560771Y-8138174D02*
X-4551247Y-8100079D01*
X-4551247Y-8100079D02*
X-4541723Y-8081031D01*
X-4541723Y-8081031D02*
X-4532199Y-8071508D01*
X-4532199Y-8071508D02*
X-4513152Y-8061984D01*
X-4379818Y-8061984D02*
X-4256009Y-8061984D01*
X-4256009Y-8061984D02*
X-4322675Y-8138174D01*
X-4322675Y-8138174D02*
X-4294104Y-8138174D01*
X-4294104Y-8138174D02*
X-4275056Y-8147698D01*
X-4275056Y-8147698D02*
X-4265532Y-8157222D01*
X-4265532Y-8157222D02*
X-4256009Y-8176269D01*
X-4256009Y-8176269D02*
X-4256009Y-8223888D01*
X-4256009Y-8223888D02*
X-4265532Y-8242936D01*
X-4265532Y-8242936D02*
X-4275056Y-8252460D01*
X-4275056Y-8252460D02*
X-4294104Y-8261984D01*
X-4294104Y-8261984D02*
X-4351247Y-8261984D01*
X-4351247Y-8261984D02*
X-4370294Y-8252460D01*
X-4370294Y-8252460D02*
X-4379818Y-8242936D01*
X-4160770Y-8261984D02*
X-4122675Y-8261984D01*
X-4122675Y-8261984D02*
X-4103628Y-8252460D01*
X-4103628Y-8252460D02*
X-4094104Y-8242936D01*
X-4094104Y-8242936D02*
X-4075056Y-8214365D01*
X-4075056Y-8214365D02*
X-4065532Y-8176269D01*
X-4065532Y-8176269D02*
X-4065532Y-8100079D01*
X-4065532Y-8100079D02*
X-4075056Y-8081031D01*
X-4075056Y-8081031D02*
X-4084580Y-8071508D01*
X-4084580Y-8071508D02*
X-4103628Y-8061984D01*
X-4103628Y-8061984D02*
X-4141723Y-8061984D01*
X-4141723Y-8061984D02*
X-4160770Y-8071508D01*
X-4160770Y-8071508D02*
X-4170294Y-8081031D01*
X-4170294Y-8081031D02*
X-4179818Y-8100079D01*
X-4179818Y-8100079D02*
X-4179818Y-8147698D01*
X-4179818Y-8147698D02*
X-4170294Y-8166746D01*
X-4170294Y-8166746D02*
X-4160770Y-8176269D01*
X-4160770Y-8176269D02*
X-4141723Y-8185793D01*
X-4141723Y-8185793D02*
X-4103628Y-8185793D01*
X-4103628Y-8185793D02*
X-4084580Y-8176269D01*
X-4084580Y-8176269D02*
X-4075056Y-8166746D01*
X-4075056Y-8166746D02*
X-4065532Y-8147698D01*
X-3894104Y-8128650D02*
X-3894104Y-8261984D01*
X-3941723Y-8052460D02*
X-3989342Y-8195317D01*
X-3989342Y-8195317D02*
X-3865532Y-8195317D01*
X-3798866Y-8061984D02*
X-3798866Y-8100079D01*
X-3722675Y-8061984D02*
X-3722675Y-8100079D01*
X-3427437Y-8338174D02*
X-3436961Y-8328650D01*
X-3436961Y-8328650D02*
X-3456008Y-8300079D01*
X-3456008Y-8300079D02*
X-3465532Y-8281031D01*
X-3465532Y-8281031D02*
X-3475056Y-8252460D01*
X-3475056Y-8252460D02*
X-3484580Y-8204841D01*
X-3484580Y-8204841D02*
X-3484580Y-8166746D01*
X-3484580Y-8166746D02*
X-3475056Y-8119127D01*
X-3475056Y-8119127D02*
X-3465532Y-8090555D01*
X-3465532Y-8090555D02*
X-3456008Y-8071508D01*
X-3456008Y-8071508D02*
X-3436961Y-8042936D01*
X-3436961Y-8042936D02*
X-3427437Y-8033412D01*
X-3370294Y-8061984D02*
X-3246485Y-8061984D01*
X-3246485Y-8061984D02*
X-3313151Y-8138174D01*
X-3313151Y-8138174D02*
X-3284580Y-8138174D01*
X-3284580Y-8138174D02*
X-3265532Y-8147698D01*
X-3265532Y-8147698D02*
X-3256008Y-8157222D01*
X-3256008Y-8157222D02*
X-3246485Y-8176269D01*
X-3246485Y-8176269D02*
X-3246485Y-8223888D01*
X-3246485Y-8223888D02*
X-3256008Y-8242936D01*
X-3256008Y-8242936D02*
X-3265532Y-8252460D01*
X-3265532Y-8252460D02*
X-3284580Y-8261984D01*
X-3284580Y-8261984D02*
X-3341723Y-8261984D01*
X-3341723Y-8261984D02*
X-3360770Y-8252460D01*
X-3360770Y-8252460D02*
X-3370294Y-8242936D01*
X-3075056Y-8061984D02*
X-3113151Y-8061984D01*
X-3113151Y-8061984D02*
X-3132199Y-8071508D01*
X-3132199Y-8071508D02*
X-3141723Y-8081031D01*
X-3141723Y-8081031D02*
X-3160770Y-8109603D01*
X-3160770Y-8109603D02*
X-3170294Y-8147698D01*
X-3170294Y-8147698D02*
X-3170294Y-8223888D01*
X-3170294Y-8223888D02*
X-3160770Y-8242936D01*
X-3160770Y-8242936D02*
X-3151247Y-8252460D01*
X-3151247Y-8252460D02*
X-3132199Y-8261984D01*
X-3132199Y-8261984D02*
X-3094104Y-8261984D01*
X-3094104Y-8261984D02*
X-3075056Y-8252460D01*
X-3075056Y-8252460D02*
X-3065532Y-8242936D01*
X-3065532Y-8242936D02*
X-3056008Y-8223888D01*
X-3056008Y-8223888D02*
X-3056008Y-8176269D01*
X-3056008Y-8176269D02*
X-3065532Y-8157222D01*
X-3065532Y-8157222D02*
X-3075056Y-8147698D01*
X-3075056Y-8147698D02*
X-3094104Y-8138174D01*
X-3094104Y-8138174D02*
X-3132199Y-8138174D01*
X-3132199Y-8138174D02*
X-3151247Y-8147698D01*
X-3151247Y-8147698D02*
X-3160770Y-8157222D01*
X-3160770Y-8157222D02*
X-3170294Y-8176269D01*
X-2817913Y-8261984D02*
X-2817913Y-8061984D01*
X-2732199Y-8261984D02*
X-2732199Y-8157222D01*
X-2732199Y-8157222D02*
X-2741723Y-8138174D01*
X-2741723Y-8138174D02*
X-2760770Y-8128650D01*
X-2760770Y-8128650D02*
X-2789342Y-8128650D01*
X-2789342Y-8128650D02*
X-2808389Y-8138174D01*
X-2808389Y-8138174D02*
X-2817913Y-8147698D01*
X-2608389Y-8261984D02*
X-2627437Y-8252460D01*
X-2627437Y-8252460D02*
X-2636961Y-8242936D01*
X-2636961Y-8242936D02*
X-2646485Y-8223888D01*
X-2646485Y-8223888D02*
X-2646485Y-8166746D01*
X-2646485Y-8166746D02*
X-2636961Y-8147698D01*
X-2636961Y-8147698D02*
X-2627437Y-8138174D01*
X-2627437Y-8138174D02*
X-2608389Y-8128650D01*
X-2608389Y-8128650D02*
X-2579818Y-8128650D01*
X-2579818Y-8128650D02*
X-2560770Y-8138174D01*
X-2560770Y-8138174D02*
X-2551247Y-8147698D01*
X-2551247Y-8147698D02*
X-2541723Y-8166746D01*
X-2541723Y-8166746D02*
X-2541723Y-8223888D01*
X-2541723Y-8223888D02*
X-2551247Y-8242936D01*
X-2551247Y-8242936D02*
X-2560770Y-8252460D01*
X-2560770Y-8252460D02*
X-2579818Y-8261984D01*
X-2579818Y-8261984D02*
X-2608389Y-8261984D01*
X-2427437Y-8261984D02*
X-2446485Y-8252460D01*
X-2446485Y-8252460D02*
X-2456008Y-8233412D01*
X-2456008Y-8233412D02*
X-2456008Y-8061984D01*
X-2275056Y-8252460D02*
X-2294104Y-8261984D01*
X-2294104Y-8261984D02*
X-2332199Y-8261984D01*
X-2332199Y-8261984D02*
X-2351247Y-8252460D01*
X-2351247Y-8252460D02*
X-2360770Y-8233412D01*
X-2360770Y-8233412D02*
X-2360770Y-8157222D01*
X-2360770Y-8157222D02*
X-2351247Y-8138174D01*
X-2351247Y-8138174D02*
X-2332199Y-8128650D01*
X-2332199Y-8128650D02*
X-2294104Y-8128650D01*
X-2294104Y-8128650D02*
X-2275056Y-8138174D01*
X-2275056Y-8138174D02*
X-2265532Y-8157222D01*
X-2265532Y-8157222D02*
X-2265532Y-8176269D01*
X-2265532Y-8176269D02*
X-2360770Y-8195317D01*
X-2189342Y-8252460D02*
X-2170294Y-8261984D01*
X-2170294Y-8261984D02*
X-2132199Y-8261984D01*
X-2132199Y-8261984D02*
X-2113151Y-8252460D01*
X-2113151Y-8252460D02*
X-2103627Y-8233412D01*
X-2103627Y-8233412D02*
X-2103627Y-8223888D01*
X-2103627Y-8223888D02*
X-2113151Y-8204841D01*
X-2113151Y-8204841D02*
X-2132199Y-8195317D01*
X-2132199Y-8195317D02*
X-2160770Y-8195317D01*
X-2160770Y-8195317D02*
X-2179818Y-8185793D01*
X-2179818Y-8185793D02*
X-2189342Y-8166746D01*
X-2189342Y-8166746D02*
X-2189342Y-8157222D01*
X-2189342Y-8157222D02*
X-2179818Y-8138174D01*
X-2179818Y-8138174D02*
X-2160770Y-8128650D01*
X-2160770Y-8128650D02*
X-2132199Y-8128650D01*
X-2132199Y-8128650D02*
X-2113151Y-8138174D01*
X-2036961Y-8338174D02*
X-2027437Y-8328650D01*
X-2027437Y-8328650D02*
X-2008389Y-8300079D01*
X-2008389Y-8300079D02*
X-1998865Y-8281031D01*
X-1998865Y-8281031D02*
X-1989342Y-8252460D01*
X-1989342Y-8252460D02*
X-1979818Y-8204841D01*
X-1979818Y-8204841D02*
X-1979818Y-8166746D01*
X-1979818Y-8166746D02*
X-1989342Y-8119127D01*
X-1989342Y-8119127D02*
X-1998865Y-8090555D01*
X-1998865Y-8090555D02*
X-2008389Y-8071508D01*
X-2008389Y-8071508D02*
X-2027437Y-8042936D01*
X-2027437Y-8042936D02*
X-2036961Y-8033412D01*
X-7031789Y-8505211D02*
X-7031789Y-8363789D01*
X-7173211Y-8363789D01*
X-7173211Y-8505211D01*
X-7031789Y-8505211D01*
X-6751247Y-8345031D02*
X-6741723Y-8335508D01*
X-6741723Y-8335508D02*
X-6722675Y-8325984D01*
X-6722675Y-8325984D02*
X-6675056Y-8325984D01*
X-6675056Y-8325984D02*
X-6656009Y-8335508D01*
X-6656009Y-8335508D02*
X-6646485Y-8345031D01*
X-6646485Y-8345031D02*
X-6636961Y-8364079D01*
X-6636961Y-8364079D02*
X-6636961Y-8383127D01*
X-6636961Y-8383127D02*
X-6646485Y-8411698D01*
X-6646485Y-8411698D02*
X-6760771Y-8525984D01*
X-6760771Y-8525984D02*
X-6636961Y-8525984D01*
X-6551247Y-8506936D02*
X-6541723Y-8516460D01*
X-6541723Y-8516460D02*
X-6551247Y-8525984D01*
X-6551247Y-8525984D02*
X-6560771Y-8516460D01*
X-6560771Y-8516460D02*
X-6551247Y-8506936D01*
X-6551247Y-8506936D02*
X-6551247Y-8525984D01*
X-6475056Y-8325984D02*
X-6341723Y-8325984D01*
X-6341723Y-8325984D02*
X-6427437Y-8525984D01*
X-6227437Y-8325984D02*
X-6208390Y-8325984D01*
X-6208390Y-8325984D02*
X-6189342Y-8335508D01*
X-6189342Y-8335508D02*
X-6179818Y-8345031D01*
X-6179818Y-8345031D02*
X-6170294Y-8364079D01*
X-6170294Y-8364079D02*
X-6160771Y-8402174D01*
X-6160771Y-8402174D02*
X-6160771Y-8449793D01*
X-6160771Y-8449793D02*
X-6170294Y-8487889D01*
X-6170294Y-8487889D02*
X-6179818Y-8506936D01*
X-6179818Y-8506936D02*
X-6189342Y-8516460D01*
X-6189342Y-8516460D02*
X-6208390Y-8525984D01*
X-6208390Y-8525984D02*
X-6227437Y-8525984D01*
X-6227437Y-8525984D02*
X-6246485Y-8516460D01*
X-6246485Y-8516460D02*
X-6256009Y-8506936D01*
X-6256009Y-8506936D02*
X-6265533Y-8487889D01*
X-6265533Y-8487889D02*
X-6275056Y-8449793D01*
X-6275056Y-8449793D02*
X-6275056Y-8402174D01*
X-6275056Y-8402174D02*
X-6265533Y-8364079D01*
X-6265533Y-8364079D02*
X-6256009Y-8345031D01*
X-6256009Y-8345031D02*
X-6246485Y-8335508D01*
X-6246485Y-8335508D02*
X-6227437Y-8325984D01*
X-6036961Y-8325984D02*
X-6017913Y-8325984D01*
X-6017913Y-8325984D02*
X-5998866Y-8335508D01*
X-5998866Y-8335508D02*
X-5989342Y-8345031D01*
X-5989342Y-8345031D02*
X-5979818Y-8364079D01*
X-5979818Y-8364079D02*
X-5970294Y-8402174D01*
X-5970294Y-8402174D02*
X-5970294Y-8449793D01*
X-5970294Y-8449793D02*
X-5979818Y-8487889D01*
X-5979818Y-8487889D02*
X-5989342Y-8506936D01*
X-5989342Y-8506936D02*
X-5998866Y-8516460D01*
X-5998866Y-8516460D02*
X-6017913Y-8525984D01*
X-6017913Y-8525984D02*
X-6036961Y-8525984D01*
X-6036961Y-8525984D02*
X-6056009Y-8516460D01*
X-6056009Y-8516460D02*
X-6065533Y-8506936D01*
X-6065533Y-8506936D02*
X-6075056Y-8487889D01*
X-6075056Y-8487889D02*
X-6084580Y-8449793D01*
X-6084580Y-8449793D02*
X-6084580Y-8402174D01*
X-6084580Y-8402174D02*
X-6075056Y-8364079D01*
X-6075056Y-8364079D02*
X-6065533Y-8345031D01*
X-6065533Y-8345031D02*
X-6056009Y-8335508D01*
X-6056009Y-8335508D02*
X-6036961Y-8325984D01*
X-5884580Y-8525984D02*
X-5884580Y-8392650D01*
X-5884580Y-8411698D02*
X-5875056Y-8402174D01*
X-5875056Y-8402174D02*
X-5856009Y-8392650D01*
X-5856009Y-8392650D02*
X-5827437Y-8392650D01*
X-5827437Y-8392650D02*
X-5808390Y-8402174D01*
X-5808390Y-8402174D02*
X-5798866Y-8421222D01*
X-5798866Y-8421222D02*
X-5798866Y-8525984D01*
X-5798866Y-8421222D02*
X-5789342Y-8402174D01*
X-5789342Y-8402174D02*
X-5770294Y-8392650D01*
X-5770294Y-8392650D02*
X-5741723Y-8392650D01*
X-5741723Y-8392650D02*
X-5722675Y-8402174D01*
X-5722675Y-8402174D02*
X-5713152Y-8421222D01*
X-5713152Y-8421222D02*
X-5713152Y-8525984D01*
X-5617913Y-8525984D02*
X-5617913Y-8392650D01*
X-5617913Y-8411698D02*
X-5608390Y-8402174D01*
X-5608390Y-8402174D02*
X-5589342Y-8392650D01*
X-5589342Y-8392650D02*
X-5560771Y-8392650D01*
X-5560771Y-8392650D02*
X-5541723Y-8402174D01*
X-5541723Y-8402174D02*
X-5532199Y-8421222D01*
X-5532199Y-8421222D02*
X-5532199Y-8525984D01*
X-5532199Y-8421222D02*
X-5522675Y-8402174D01*
X-5522675Y-8402174D02*
X-5503628Y-8392650D01*
X-5503628Y-8392650D02*
X-5475056Y-8392650D01*
X-5475056Y-8392650D02*
X-5456009Y-8402174D01*
X-5456009Y-8402174D02*
X-5446485Y-8421222D01*
X-5446485Y-8421222D02*
X-5446485Y-8525984D01*
X-5056009Y-8316460D02*
X-5227437Y-8573603D01*
X-4798866Y-8325984D02*
X-4779818Y-8325984D01*
X-4779818Y-8325984D02*
X-4760771Y-8335508D01*
X-4760771Y-8335508D02*
X-4751247Y-8345031D01*
X-4751247Y-8345031D02*
X-4741723Y-8364079D01*
X-4741723Y-8364079D02*
X-4732199Y-8402174D01*
X-4732199Y-8402174D02*
X-4732199Y-8449793D01*
X-4732199Y-8449793D02*
X-4741723Y-8487889D01*
X-4741723Y-8487889D02*
X-4751247Y-8506936D01*
X-4751247Y-8506936D02*
X-4760771Y-8516460D01*
X-4760771Y-8516460D02*
X-4779818Y-8525984D01*
X-4779818Y-8525984D02*
X-4798866Y-8525984D01*
X-4798866Y-8525984D02*
X-4817913Y-8516460D01*
X-4817913Y-8516460D02*
X-4827437Y-8506936D01*
X-4827437Y-8506936D02*
X-4836961Y-8487889D01*
X-4836961Y-8487889D02*
X-4846485Y-8449793D01*
X-4846485Y-8449793D02*
X-4846485Y-8402174D01*
X-4846485Y-8402174D02*
X-4836961Y-8364079D01*
X-4836961Y-8364079D02*
X-4827437Y-8345031D01*
X-4827437Y-8345031D02*
X-4817913Y-8335508D01*
X-4817913Y-8335508D02*
X-4798866Y-8325984D01*
X-4646485Y-8506936D02*
X-4636961Y-8516460D01*
X-4636961Y-8516460D02*
X-4646485Y-8525984D01*
X-4646485Y-8525984D02*
X-4656009Y-8516460D01*
X-4656009Y-8516460D02*
X-4646485Y-8506936D01*
X-4646485Y-8506936D02*
X-4646485Y-8525984D01*
X-4446485Y-8525984D02*
X-4560771Y-8525984D01*
X-4503628Y-8525984D02*
X-4503628Y-8325984D01*
X-4503628Y-8325984D02*
X-4522675Y-8354555D01*
X-4522675Y-8354555D02*
X-4541723Y-8373603D01*
X-4541723Y-8373603D02*
X-4560771Y-8383127D01*
X-4322675Y-8325984D02*
X-4303628Y-8325984D01*
X-4303628Y-8325984D02*
X-4284580Y-8335508D01*
X-4284580Y-8335508D02*
X-4275056Y-8345031D01*
X-4275056Y-8345031D02*
X-4265532Y-8364079D01*
X-4265532Y-8364079D02*
X-4256009Y-8402174D01*
X-4256009Y-8402174D02*
X-4256009Y-8449793D01*
X-4256009Y-8449793D02*
X-4265532Y-8487889D01*
X-4265532Y-8487889D02*
X-4275056Y-8506936D01*
X-4275056Y-8506936D02*
X-4284580Y-8516460D01*
X-4284580Y-8516460D02*
X-4303628Y-8525984D01*
X-4303628Y-8525984D02*
X-4322675Y-8525984D01*
X-4322675Y-8525984D02*
X-4341723Y-8516460D01*
X-4341723Y-8516460D02*
X-4351247Y-8506936D01*
X-4351247Y-8506936D02*
X-4360771Y-8487889D01*
X-4360771Y-8487889D02*
X-4370294Y-8449793D01*
X-4370294Y-8449793D02*
X-4370294Y-8402174D01*
X-4370294Y-8402174D02*
X-4360771Y-8364079D01*
X-4360771Y-8364079D02*
X-4351247Y-8345031D01*
X-4351247Y-8345031D02*
X-4341723Y-8335508D01*
X-4341723Y-8335508D02*
X-4322675Y-8325984D01*
X-4084580Y-8325984D02*
X-4122675Y-8325984D01*
X-4122675Y-8325984D02*
X-4141723Y-8335508D01*
X-4141723Y-8335508D02*
X-4151247Y-8345031D01*
X-4151247Y-8345031D02*
X-4170294Y-8373603D01*
X-4170294Y-8373603D02*
X-4179818Y-8411698D01*
X-4179818Y-8411698D02*
X-4179818Y-8487889D01*
X-4179818Y-8487889D02*
X-4170294Y-8506936D01*
X-4170294Y-8506936D02*
X-4160770Y-8516460D01*
X-4160770Y-8516460D02*
X-4141723Y-8525984D01*
X-4141723Y-8525984D02*
X-4103628Y-8525984D01*
X-4103628Y-8525984D02*
X-4084580Y-8516460D01*
X-4084580Y-8516460D02*
X-4075056Y-8506936D01*
X-4075056Y-8506936D02*
X-4065532Y-8487889D01*
X-4065532Y-8487889D02*
X-4065532Y-8440270D01*
X-4065532Y-8440270D02*
X-4075056Y-8421222D01*
X-4075056Y-8421222D02*
X-4084580Y-8411698D01*
X-4084580Y-8411698D02*
X-4103628Y-8402174D01*
X-4103628Y-8402174D02*
X-4141723Y-8402174D01*
X-4141723Y-8402174D02*
X-4160770Y-8411698D01*
X-4160770Y-8411698D02*
X-4170294Y-8421222D01*
X-4170294Y-8421222D02*
X-4179818Y-8440270D01*
X-3998866Y-8325984D02*
X-3875056Y-8325984D01*
X-3875056Y-8325984D02*
X-3941723Y-8402174D01*
X-3941723Y-8402174D02*
X-3913151Y-8402174D01*
X-3913151Y-8402174D02*
X-3894104Y-8411698D01*
X-3894104Y-8411698D02*
X-3884580Y-8421222D01*
X-3884580Y-8421222D02*
X-3875056Y-8440270D01*
X-3875056Y-8440270D02*
X-3875056Y-8487889D01*
X-3875056Y-8487889D02*
X-3884580Y-8506936D01*
X-3884580Y-8506936D02*
X-3894104Y-8516460D01*
X-3894104Y-8516460D02*
X-3913151Y-8525984D01*
X-3913151Y-8525984D02*
X-3970294Y-8525984D01*
X-3970294Y-8525984D02*
X-3989342Y-8516460D01*
X-3989342Y-8516460D02*
X-3998866Y-8506936D01*
X-3798866Y-8325984D02*
X-3798866Y-8364079D01*
X-3722675Y-8325984D02*
X-3722675Y-8364079D01*
X-3427437Y-8602174D02*
X-3436961Y-8592650D01*
X-3436961Y-8592650D02*
X-3456008Y-8564079D01*
X-3456008Y-8564079D02*
X-3465532Y-8545031D01*
X-3465532Y-8545031D02*
X-3475056Y-8516460D01*
X-3475056Y-8516460D02*
X-3484580Y-8468841D01*
X-3484580Y-8468841D02*
X-3484580Y-8430746D01*
X-3484580Y-8430746D02*
X-3475056Y-8383127D01*
X-3475056Y-8383127D02*
X-3465532Y-8354555D01*
X-3465532Y-8354555D02*
X-3456008Y-8335508D01*
X-3456008Y-8335508D02*
X-3436961Y-8306936D01*
X-3436961Y-8306936D02*
X-3427437Y-8297412D01*
X-3265532Y-8392650D02*
X-3265532Y-8525984D01*
X-3313151Y-8316460D02*
X-3360770Y-8459317D01*
X-3360770Y-8459317D02*
X-3236961Y-8459317D01*
X-3008389Y-8525984D02*
X-3008389Y-8325984D01*
X-2922675Y-8525984D02*
X-2922675Y-8421222D01*
X-2922675Y-8421222D02*
X-2932199Y-8402174D01*
X-2932199Y-8402174D02*
X-2951246Y-8392650D01*
X-2951246Y-8392650D02*
X-2979818Y-8392650D01*
X-2979818Y-8392650D02*
X-2998866Y-8402174D01*
X-2998866Y-8402174D02*
X-3008389Y-8411698D01*
X-2798866Y-8525984D02*
X-2817913Y-8516460D01*
X-2817913Y-8516460D02*
X-2827437Y-8506936D01*
X-2827437Y-8506936D02*
X-2836961Y-8487889D01*
X-2836961Y-8487889D02*
X-2836961Y-8430746D01*
X-2836961Y-8430746D02*
X-2827437Y-8411698D01*
X-2827437Y-8411698D02*
X-2817913Y-8402174D01*
X-2817913Y-8402174D02*
X-2798866Y-8392650D01*
X-2798866Y-8392650D02*
X-2770294Y-8392650D01*
X-2770294Y-8392650D02*
X-2751247Y-8402174D01*
X-2751247Y-8402174D02*
X-2741723Y-8411698D01*
X-2741723Y-8411698D02*
X-2732199Y-8430746D01*
X-2732199Y-8430746D02*
X-2732199Y-8487889D01*
X-2732199Y-8487889D02*
X-2741723Y-8506936D01*
X-2741723Y-8506936D02*
X-2751247Y-8516460D01*
X-2751247Y-8516460D02*
X-2770294Y-8525984D01*
X-2770294Y-8525984D02*
X-2798866Y-8525984D01*
X-2617913Y-8525984D02*
X-2636961Y-8516460D01*
X-2636961Y-8516460D02*
X-2646485Y-8497412D01*
X-2646485Y-8497412D02*
X-2646485Y-8325984D01*
X-2465532Y-8516460D02*
X-2484580Y-8525984D01*
X-2484580Y-8525984D02*
X-2522675Y-8525984D01*
X-2522675Y-8525984D02*
X-2541723Y-8516460D01*
X-2541723Y-8516460D02*
X-2551247Y-8497412D01*
X-2551247Y-8497412D02*
X-2551247Y-8421222D01*
X-2551247Y-8421222D02*
X-2541723Y-8402174D01*
X-2541723Y-8402174D02*
X-2522675Y-8392650D01*
X-2522675Y-8392650D02*
X-2484580Y-8392650D01*
X-2484580Y-8392650D02*
X-2465532Y-8402174D01*
X-2465532Y-8402174D02*
X-2456008Y-8421222D01*
X-2456008Y-8421222D02*
X-2456008Y-8440270D01*
X-2456008Y-8440270D02*
X-2551247Y-8459317D01*
X-2379818Y-8516460D02*
X-2360770Y-8525984D01*
X-2360770Y-8525984D02*
X-2322675Y-8525984D01*
X-2322675Y-8525984D02*
X-2303627Y-8516460D01*
X-2303627Y-8516460D02*
X-2294104Y-8497412D01*
X-2294104Y-8497412D02*
X-2294104Y-8487889D01*
X-2294104Y-8487889D02*
X-2303627Y-8468841D01*
X-2303627Y-8468841D02*
X-2322675Y-8459317D01*
X-2322675Y-8459317D02*
X-2351247Y-8459317D01*
X-2351247Y-8459317D02*
X-2370294Y-8449793D01*
X-2370294Y-8449793D02*
X-2379818Y-8430746D01*
X-2379818Y-8430746D02*
X-2379818Y-8421222D01*
X-2379818Y-8421222D02*
X-2370294Y-8402174D01*
X-2370294Y-8402174D02*
X-2351247Y-8392650D01*
X-2351247Y-8392650D02*
X-2322675Y-8392650D01*
X-2322675Y-8392650D02*
X-2303627Y-8402174D01*
X-2227437Y-8602174D02*
X-2217913Y-8592650D01*
X-2217913Y-8592650D02*
X-2198866Y-8564079D01*
X-2198866Y-8564079D02*
X-2189342Y-8545031D01*
X-2189342Y-8545031D02*
X-2179818Y-8516460D01*
X-2179818Y-8516460D02*
X-2170294Y-8468841D01*
X-2170294Y-8468841D02*
X-2170294Y-8430746D01*
X-2170294Y-8430746D02*
X-2179818Y-8383127D01*
X-2179818Y-8383127D02*
X-2189342Y-8354555D01*
X-2189342Y-8354555D02*
X-2198866Y-8335508D01*
X-2198866Y-8335508D02*
X-2217913Y-8306936D01*
X-2217913Y-8306936D02*
X-2227437Y-8297412D01*
X-7102500Y-8854500D02*
X-7002500Y-8754500D01*
X-7102500Y-8654500D01*
X-7202500Y-8754500D01*
X-7102500Y-8854500D01*
X-6656009Y-8712650D02*
X-6656009Y-8845984D01*
X-6703628Y-8636460D02*
X-6751247Y-8779317D01*
X-6751247Y-8779317D02*
X-6627437Y-8779317D01*
X-6551247Y-8826936D02*
X-6541723Y-8836460D01*
X-6541723Y-8836460D02*
X-6551247Y-8845984D01*
X-6551247Y-8845984D02*
X-6560771Y-8836460D01*
X-6560771Y-8836460D02*
X-6551247Y-8826936D01*
X-6551247Y-8826936D02*
X-6551247Y-8845984D01*
X-6360771Y-8645984D02*
X-6456009Y-8645984D01*
X-6456009Y-8645984D02*
X-6465533Y-8741222D01*
X-6465533Y-8741222D02*
X-6456009Y-8731698D01*
X-6456009Y-8731698D02*
X-6436961Y-8722174D01*
X-6436961Y-8722174D02*
X-6389342Y-8722174D01*
X-6389342Y-8722174D02*
X-6370294Y-8731698D01*
X-6370294Y-8731698D02*
X-6360771Y-8741222D01*
X-6360771Y-8741222D02*
X-6351247Y-8760270D01*
X-6351247Y-8760270D02*
X-6351247Y-8807889D01*
X-6351247Y-8807889D02*
X-6360771Y-8826936D01*
X-6360771Y-8826936D02*
X-6370294Y-8836460D01*
X-6370294Y-8836460D02*
X-6389342Y-8845984D01*
X-6389342Y-8845984D02*
X-6436961Y-8845984D01*
X-6436961Y-8845984D02*
X-6456009Y-8836460D01*
X-6456009Y-8836460D02*
X-6465533Y-8826936D01*
X-6227437Y-8645984D02*
X-6208390Y-8645984D01*
X-6208390Y-8645984D02*
X-6189342Y-8655508D01*
X-6189342Y-8655508D02*
X-6179818Y-8665031D01*
X-6179818Y-8665031D02*
X-6170294Y-8684079D01*
X-6170294Y-8684079D02*
X-6160771Y-8722174D01*
X-6160771Y-8722174D02*
X-6160771Y-8769793D01*
X-6160771Y-8769793D02*
X-6170294Y-8807889D01*
X-6170294Y-8807889D02*
X-6179818Y-8826936D01*
X-6179818Y-8826936D02*
X-6189342Y-8836460D01*
X-6189342Y-8836460D02*
X-6208390Y-8845984D01*
X-6208390Y-8845984D02*
X-6227437Y-8845984D01*
X-6227437Y-8845984D02*
X-6246485Y-8836460D01*
X-6246485Y-8836460D02*
X-6256009Y-8826936D01*
X-6256009Y-8826936D02*
X-6265533Y-8807889D01*
X-6265533Y-8807889D02*
X-6275056Y-8769793D01*
X-6275056Y-8769793D02*
X-6275056Y-8722174D01*
X-6275056Y-8722174D02*
X-6265533Y-8684079D01*
X-6265533Y-8684079D02*
X-6256009Y-8665031D01*
X-6256009Y-8665031D02*
X-6246485Y-8655508D01*
X-6246485Y-8655508D02*
X-6227437Y-8645984D01*
X-6036961Y-8645984D02*
X-6017913Y-8645984D01*
X-6017913Y-8645984D02*
X-5998866Y-8655508D01*
X-5998866Y-8655508D02*
X-5989342Y-8665031D01*
X-5989342Y-8665031D02*
X-5979818Y-8684079D01*
X-5979818Y-8684079D02*
X-5970294Y-8722174D01*
X-5970294Y-8722174D02*
X-5970294Y-8769793D01*
X-5970294Y-8769793D02*
X-5979818Y-8807889D01*
X-5979818Y-8807889D02*
X-5989342Y-8826936D01*
X-5989342Y-8826936D02*
X-5998866Y-8836460D01*
X-5998866Y-8836460D02*
X-6017913Y-8845984D01*
X-6017913Y-8845984D02*
X-6036961Y-8845984D01*
X-6036961Y-8845984D02*
X-6056009Y-8836460D01*
X-6056009Y-8836460D02*
X-6065533Y-8826936D01*
X-6065533Y-8826936D02*
X-6075056Y-8807889D01*
X-6075056Y-8807889D02*
X-6084580Y-8769793D01*
X-6084580Y-8769793D02*
X-6084580Y-8722174D01*
X-6084580Y-8722174D02*
X-6075056Y-8684079D01*
X-6075056Y-8684079D02*
X-6065533Y-8665031D01*
X-6065533Y-8665031D02*
X-6056009Y-8655508D01*
X-6056009Y-8655508D02*
X-6036961Y-8645984D01*
X-5884580Y-8845984D02*
X-5884580Y-8712650D01*
X-5884580Y-8731698D02*
X-5875056Y-8722174D01*
X-5875056Y-8722174D02*
X-5856009Y-8712650D01*
X-5856009Y-8712650D02*
X-5827437Y-8712650D01*
X-5827437Y-8712650D02*
X-5808390Y-8722174D01*
X-5808390Y-8722174D02*
X-5798866Y-8741222D01*
X-5798866Y-8741222D02*
X-5798866Y-8845984D01*
X-5798866Y-8741222D02*
X-5789342Y-8722174D01*
X-5789342Y-8722174D02*
X-5770294Y-8712650D01*
X-5770294Y-8712650D02*
X-5741723Y-8712650D01*
X-5741723Y-8712650D02*
X-5722675Y-8722174D01*
X-5722675Y-8722174D02*
X-5713152Y-8741222D01*
X-5713152Y-8741222D02*
X-5713152Y-8845984D01*
X-5617913Y-8845984D02*
X-5617913Y-8712650D01*
X-5617913Y-8731698D02*
X-5608390Y-8722174D01*
X-5608390Y-8722174D02*
X-5589342Y-8712650D01*
X-5589342Y-8712650D02*
X-5560771Y-8712650D01*
X-5560771Y-8712650D02*
X-5541723Y-8722174D01*
X-5541723Y-8722174D02*
X-5532199Y-8741222D01*
X-5532199Y-8741222D02*
X-5532199Y-8845984D01*
X-5532199Y-8741222D02*
X-5522675Y-8722174D01*
X-5522675Y-8722174D02*
X-5503628Y-8712650D01*
X-5503628Y-8712650D02*
X-5475056Y-8712650D01*
X-5475056Y-8712650D02*
X-5456009Y-8722174D01*
X-5456009Y-8722174D02*
X-5446485Y-8741222D01*
X-5446485Y-8741222D02*
X-5446485Y-8845984D01*
X-5056009Y-8636460D02*
X-5227437Y-8893603D01*
X-4798866Y-8645984D02*
X-4779818Y-8645984D01*
X-4779818Y-8645984D02*
X-4760771Y-8655508D01*
X-4760771Y-8655508D02*
X-4751247Y-8665031D01*
X-4751247Y-8665031D02*
X-4741723Y-8684079D01*
X-4741723Y-8684079D02*
X-4732199Y-8722174D01*
X-4732199Y-8722174D02*
X-4732199Y-8769793D01*
X-4732199Y-8769793D02*
X-4741723Y-8807889D01*
X-4741723Y-8807889D02*
X-4751247Y-8826936D01*
X-4751247Y-8826936D02*
X-4760771Y-8836460D01*
X-4760771Y-8836460D02*
X-4779818Y-8845984D01*
X-4779818Y-8845984D02*
X-4798866Y-8845984D01*
X-4798866Y-8845984D02*
X-4817913Y-8836460D01*
X-4817913Y-8836460D02*
X-4827437Y-8826936D01*
X-4827437Y-8826936D02*
X-4836961Y-8807889D01*
X-4836961Y-8807889D02*
X-4846485Y-8769793D01*
X-4846485Y-8769793D02*
X-4846485Y-8722174D01*
X-4846485Y-8722174D02*
X-4836961Y-8684079D01*
X-4836961Y-8684079D02*
X-4827437Y-8665031D01*
X-4827437Y-8665031D02*
X-4817913Y-8655508D01*
X-4817913Y-8655508D02*
X-4798866Y-8645984D01*
X-4646485Y-8826936D02*
X-4636961Y-8836460D01*
X-4636961Y-8836460D02*
X-4646485Y-8845984D01*
X-4646485Y-8845984D02*
X-4656009Y-8836460D01*
X-4656009Y-8836460D02*
X-4646485Y-8826936D01*
X-4646485Y-8826936D02*
X-4646485Y-8845984D01*
X-4446485Y-8845984D02*
X-4560771Y-8845984D01*
X-4503628Y-8845984D02*
X-4503628Y-8645984D01*
X-4503628Y-8645984D02*
X-4522675Y-8674555D01*
X-4522675Y-8674555D02*
X-4541723Y-8693603D01*
X-4541723Y-8693603D02*
X-4560771Y-8703127D01*
X-4379818Y-8645984D02*
X-4246485Y-8645984D01*
X-4246485Y-8645984D02*
X-4332199Y-8845984D01*
X-4189342Y-8645984D02*
X-4056009Y-8645984D01*
X-4056009Y-8645984D02*
X-4141723Y-8845984D01*
X-3989342Y-8665031D02*
X-3979818Y-8655508D01*
X-3979818Y-8655508D02*
X-3960770Y-8645984D01*
X-3960770Y-8645984D02*
X-3913151Y-8645984D01*
X-3913151Y-8645984D02*
X-3894104Y-8655508D01*
X-3894104Y-8655508D02*
X-3884580Y-8665031D01*
X-3884580Y-8665031D02*
X-3875056Y-8684079D01*
X-3875056Y-8684079D02*
X-3875056Y-8703127D01*
X-3875056Y-8703127D02*
X-3884580Y-8731698D01*
X-3884580Y-8731698D02*
X-3998866Y-8845984D01*
X-3998866Y-8845984D02*
X-3875056Y-8845984D01*
X-3798866Y-8645984D02*
X-3798866Y-8684079D01*
X-3722675Y-8645984D02*
X-3722675Y-8684079D01*
X-3427437Y-8922174D02*
X-3436961Y-8912650D01*
X-3436961Y-8912650D02*
X-3456008Y-8884079D01*
X-3456008Y-8884079D02*
X-3465532Y-8865031D01*
X-3465532Y-8865031D02*
X-3475056Y-8836460D01*
X-3475056Y-8836460D02*
X-3484580Y-8788841D01*
X-3484580Y-8788841D02*
X-3484580Y-8750746D01*
X-3484580Y-8750746D02*
X-3475056Y-8703127D01*
X-3475056Y-8703127D02*
X-3465532Y-8674555D01*
X-3465532Y-8674555D02*
X-3456008Y-8655508D01*
X-3456008Y-8655508D02*
X-3436961Y-8626936D01*
X-3436961Y-8626936D02*
X-3427437Y-8617412D01*
X-3360770Y-8665031D02*
X-3351247Y-8655508D01*
X-3351247Y-8655508D02*
X-3332199Y-8645984D01*
X-3332199Y-8645984D02*
X-3284580Y-8645984D01*
X-3284580Y-8645984D02*
X-3265532Y-8655508D01*
X-3265532Y-8655508D02*
X-3256008Y-8665031D01*
X-3256008Y-8665031D02*
X-3246485Y-8684079D01*
X-3246485Y-8684079D02*
X-3246485Y-8703127D01*
X-3246485Y-8703127D02*
X-3256008Y-8731698D01*
X-3256008Y-8731698D02*
X-3370294Y-8845984D01*
X-3370294Y-8845984D02*
X-3246485Y-8845984D01*
X-3008389Y-8845984D02*
X-3008389Y-8645984D01*
X-2922675Y-8845984D02*
X-2922675Y-8741222D01*
X-2922675Y-8741222D02*
X-2932199Y-8722174D01*
X-2932199Y-8722174D02*
X-2951246Y-8712650D01*
X-2951246Y-8712650D02*
X-2979818Y-8712650D01*
X-2979818Y-8712650D02*
X-2998866Y-8722174D01*
X-2998866Y-8722174D02*
X-3008389Y-8731698D01*
X-2798866Y-8845984D02*
X-2817913Y-8836460D01*
X-2817913Y-8836460D02*
X-2827437Y-8826936D01*
X-2827437Y-8826936D02*
X-2836961Y-8807889D01*
X-2836961Y-8807889D02*
X-2836961Y-8750746D01*
X-2836961Y-8750746D02*
X-2827437Y-8731698D01*
X-2827437Y-8731698D02*
X-2817913Y-8722174D01*
X-2817913Y-8722174D02*
X-2798866Y-8712650D01*
X-2798866Y-8712650D02*
X-2770294Y-8712650D01*
X-2770294Y-8712650D02*
X-2751247Y-8722174D01*
X-2751247Y-8722174D02*
X-2741723Y-8731698D01*
X-2741723Y-8731698D02*
X-2732199Y-8750746D01*
X-2732199Y-8750746D02*
X-2732199Y-8807889D01*
X-2732199Y-8807889D02*
X-2741723Y-8826936D01*
X-2741723Y-8826936D02*
X-2751247Y-8836460D01*
X-2751247Y-8836460D02*
X-2770294Y-8845984D01*
X-2770294Y-8845984D02*
X-2798866Y-8845984D01*
X-2617913Y-8845984D02*
X-2636961Y-8836460D01*
X-2636961Y-8836460D02*
X-2646485Y-8817412D01*
X-2646485Y-8817412D02*
X-2646485Y-8645984D01*
X-2465532Y-8836460D02*
X-2484580Y-8845984D01*
X-2484580Y-8845984D02*
X-2522675Y-8845984D01*
X-2522675Y-8845984D02*
X-2541723Y-8836460D01*
X-2541723Y-8836460D02*
X-2551247Y-8817412D01*
X-2551247Y-8817412D02*
X-2551247Y-8741222D01*
X-2551247Y-8741222D02*
X-2541723Y-8722174D01*
X-2541723Y-8722174D02*
X-2522675Y-8712650D01*
X-2522675Y-8712650D02*
X-2484580Y-8712650D01*
X-2484580Y-8712650D02*
X-2465532Y-8722174D01*
X-2465532Y-8722174D02*
X-2456008Y-8741222D01*
X-2456008Y-8741222D02*
X-2456008Y-8760270D01*
X-2456008Y-8760270D02*
X-2551247Y-8779317D01*
X-2379818Y-8836460D02*
X-2360770Y-8845984D01*
X-2360770Y-8845984D02*
X-2322675Y-8845984D01*
X-2322675Y-8845984D02*
X-2303627Y-8836460D01*
X-2303627Y-8836460D02*
X-2294104Y-8817412D01*
X-2294104Y-8817412D02*
X-2294104Y-8807889D01*
X-2294104Y-8807889D02*
X-2303627Y-8788841D01*
X-2303627Y-8788841D02*
X-2322675Y-8779317D01*
X-2322675Y-8779317D02*
X-2351247Y-8779317D01*
X-2351247Y-8779317D02*
X-2370294Y-8769793D01*
X-2370294Y-8769793D02*
X-2379818Y-8750746D01*
X-2379818Y-8750746D02*
X-2379818Y-8741222D01*
X-2379818Y-8741222D02*
X-2370294Y-8722174D01*
X-2370294Y-8722174D02*
X-2351247Y-8712650D01*
X-2351247Y-8712650D02*
X-2322675Y-8712650D01*
X-2322675Y-8712650D02*
X-2303627Y-8722174D01*
X-2227437Y-8922174D02*
X-2217913Y-8912650D01*
X-2217913Y-8912650D02*
X-2198866Y-8884079D01*
X-2198866Y-8884079D02*
X-2189342Y-8865031D01*
X-2189342Y-8865031D02*
X-2179818Y-8836460D01*
X-2179818Y-8836460D02*
X-2170294Y-8788841D01*
X-2170294Y-8788841D02*
X-2170294Y-8750746D01*
X-2170294Y-8750746D02*
X-2179818Y-8703127D01*
X-2179818Y-8703127D02*
X-2189342Y-8674555D01*
X-2189342Y-8674555D02*
X-2198866Y-8655508D01*
X-2198866Y-8655508D02*
X-2217913Y-8626936D01*
X-2217913Y-8626936D02*
X-2227437Y-8617412D01*
M02*
