%TF.GenerationSoftware,KiCad,Pcbnew,9.0.4*%
%TF.CreationDate,2025-11-19T22:49:49-05:00*%
%TF.ProjectId,ABRARACOURCIX_main_board,41425241-5241-4434-9f55-524349585f6d,rev?*%
%TF.SameCoordinates,Original*%
%TF.FileFunction,Soldermask,Bot*%
%TF.FilePolarity,Negative*%
%FSLAX46Y46*%
G04 Gerber Fmt 4.6, Leading zero omitted, Abs format (unit mm)*
G04 Created by KiCad (PCBNEW 9.0.4) date 2025-11-19 22:49:49*
%MOMM*%
%LPD*%
G01*
G04 APERTURE LIST*
%ADD10C,3.920000*%
%ADD11O,1.404000X2.604000*%
%ADD12R,2.000000X2.000000*%
%ADD13C,6.000000*%
%ADD14C,2.000000*%
%ADD15R,1.700000X1.700000*%
%ADD16C,1.700000*%
%ADD17O,1.504000X2.804000*%
G04 APERTURE END LIST*
D10*
%TO.C,J10*%
X-56400000Y3250000D03*
X-63600000Y3250000D03*
D11*
X-53250000Y9250000D03*
X-66750000Y9250000D03*
%TD*%
D12*
%TO.C,GND2*%
X15800000Y-15600000D03*
%TD*%
D13*
%TO.C,J8*%
X-38500000Y9200000D03*
X-45700000Y9200000D03*
%TD*%
D14*
%TO.C,J11*%
X-21900000Y11940000D03*
X-21900000Y9400000D03*
%TD*%
D15*
%TO.C,J3*%
X-7160000Y-55985000D03*
D16*
X-9700000Y-55985000D03*
X-12240000Y-55985000D03*
%TD*%
D15*
%TO.C,J4*%
X7120000Y56000000D03*
D16*
X9660000Y56000000D03*
X12200000Y56000000D03*
%TD*%
D15*
%TO.C,J6*%
X2640000Y-56015000D03*
D16*
X100000Y-56015000D03*
X-2440000Y-56015000D03*
%TD*%
D14*
%TO.C,J12*%
X1490000Y58000000D03*
X-1050000Y58000000D03*
%TD*%
D12*
%TO.C,SCL1*%
X11100000Y25800000D03*
%TD*%
D15*
%TO.C,J2*%
X31500000Y1220000D03*
D16*
X31500000Y-1320000D03*
X31500000Y-3860000D03*
X31500000Y-6400000D03*
X31500000Y-8940000D03*
X31500000Y-11480000D03*
%TD*%
D12*
%TO.C,TX1*%
X24850000Y-11550000D03*
%TD*%
%TO.C,SDA1*%
X6200000Y25800000D03*
%TD*%
D15*
%TO.C,J5*%
X-12200000Y56000000D03*
D16*
X-9660000Y56000000D03*
X-7120000Y56000000D03*
%TD*%
D12*
%TO.C,GND1*%
X10400000Y36400000D03*
%TD*%
D15*
%TO.C,J1*%
X36460000Y5900000D03*
D16*
X39000000Y5900000D03*
X41540000Y5900000D03*
X44080000Y5900000D03*
X46620000Y5900000D03*
%TD*%
D15*
%TO.C,J7*%
X12240000Y-56015000D03*
D16*
X9700000Y-56015000D03*
X7160000Y-56015000D03*
%TD*%
D10*
%TO.C,J9*%
X-63600000Y-3150000D03*
X-56400000Y-3150000D03*
D17*
X-66750000Y-9150000D03*
X-53250000Y-9150000D03*
%TD*%
D12*
%TO.C,RX1*%
X24850000Y-7450000D03*
%TD*%
M02*
